<?xml version="1.0" encoding="utf-8"?>
<!-- Generator: Adobe Illustrator 25.2.1, SVG Export Plug-In . SVG Version: 6.00 Build 0)  -->
<svg version="1.1" id="Layer_1" xmlns="http://www.w3.org/2000/svg" xmlns:xlink="http://www.w3.org/1999/xlink" x="0px" y="0px"
	 viewBox="0 0 1400 2200" style="enable-background:new 0 0 1400 2200;" xml:space="preserve">
<style type="text/css">
	.st0{fill:#999999;stroke:#000000;stroke-miterlimit:10;}
	.st1{fill:#FFC62A;stroke:#000000;stroke-miterlimit:10;}
	.st2{fill:#FFF6AA;stroke:#000000;stroke-miterlimit:10;}
	.st3{fill:#74BEFF;stroke:#000000;stroke-miterlimit:10;}
	.st4{fill:none;stroke:#000000;stroke-width:0.5;stroke-miterlimit:10;}
	.st5{fill:#999999;stroke:#000000;stroke-width:0.5;stroke-miterlimit:10;}
	.st6{fill:#FFF6AA;}
	.st7{fill:#74BEFF;}
	.st8{fill:#FFC62A;}
	.st9{fill:none;stroke:#000000;stroke-miterlimit:10;}
</style>
<g id="Layer_2_1_">
	<g id="Layer_1-2">
		<rect x="791.5" y="31.5" class="st0" width="373" height="1226"/>
		<rect x="791.5" y="1257.5" class="st0" width="373" height="286"/>
		
			<rect x="1002.6" y="1446.6" transform="matrix(0.9505 -0.3108 0.3108 0.9505 -501.4092 443.6754)" class="st0" width="277.2" height="696.6"/>
		
			<rect x="814.5" y="1521" transform="matrix(0.9505 -0.3108 0.3108 0.9505 -455.4997 350.6262)" class="st0" width="115.5" height="166.8"/>
		<rect x="18.5" y="1099.5" class="st0" width="773" height="263"/>
		<rect x="18.5" y="247.5" class="st0" width="426" height="1887"/>
	</g>
</g>
<rect x="791.5" y="1092.5" class="st1" width="133" height="313"/>
<rect x="791.5" y="763.5" class="st2" width="133" height="165"/>
<rect x="791.5" y="599.5" class="st2" width="133" height="165"/>
<rect x="791.5" y="435.5" class="st2" width="133" height="165"/>
<rect x="791.5" y="271.5" class="st1" width="133" height="165"/>
<rect x="1031.5" y="189.5" class="st1" width="133" height="165"/>
<rect x="1031.5" y="354.5" class="st2" width="133" height="117"/>
<rect x="1031.5" y="471.5" class="st2" width="133" height="117"/>
<rect x="1031.5" y="588.5" class="st1" width="133" height="165"/>
<rect x="1031.5" y="753.5" class="st2" width="133" height="117"/>
<rect x="1031.5" y="870.5" class="st2" width="133" height="117"/>
<rect x="1031.5" y="987.5" class="st1" width="133" height="165"/>
<rect x="791.5" y="927.5" class="st1" width="133" height="84"/>
<rect x="791.5" y="1011.5" class="st1" width="133" height="81"/>
<rect x="1031.5" y="1152.5" class="st2" width="133" height="105"/>
<rect x="1083.7" y="1433.8" transform="matrix(0.9495 -0.3137 0.3137 0.9495 -418.1652 433.5853)" class="st1" width="109.2" height="165"/>
<rect x="1128.5" y="1591.2" transform="matrix(0.9495 -0.3137 0.3137 0.9495 -458.4131 454.4571)" class="st1" width="109.2" height="121.2"/>
<rect x="1172.7" y="1704.6" transform="matrix(0.9495 -0.3137 0.3137 0.9495 -498.6166 475.1761)" class="st2" width="109.2" height="165"/>
<rect x="1220.8" y="1862" transform="matrix(0.9495 -0.3137 0.3137 0.9495 -541.5696 497.5618)" class="st1" width="109.2" height="139.4"/>
<rect x="1177" y="1933.4" transform="matrix(-0.3137 -0.9495 0.9495 -0.3137 -348.0638 3893.1265)" class="st2" width="111.9" height="278"/>
<rect x="917.3" y="1487" transform="matrix(0.9495 -0.3137 0.3137 0.9495 -436.4019 382.9743)" class="st1" width="109.2" height="121.2"/>
<rect x="961.8" y="1601.2" transform="matrix(0.9495 -0.3137 0.3137 0.9495 -476.826 403.7774)" class="st2" width="109.2" height="165"/>
<rect x="1016.3" y="1757.3" transform="matrix(0.9495 -0.3137 0.3137 0.9495 -526.5645 429.3183)" class="st2" width="109.2" height="187.3"/>
<rect x="1053.7" y="1938" transform="matrix(0.9495 -0.3137 0.3137 0.9495 -560.7565 446.8659)" class="st3" width="109.2" height="56.1"/>
<rect x="1070.7" y="1990.8" transform="matrix(0.9495 -0.3137 0.3137 0.9495 -576.5403 454.8806)" class="st3" width="109.2" height="56.6"/>
<rect x="1031.5" y="98.5" class="st3" width="133" height="91"/>
<rect x="1031.5" y="31.5" class="st3" width="133" height="67"/>
<rect x="791.1" y="1525.4" transform="matrix(0.9495 -0.3137 0.3137 0.9495 -437.6825 343.508)" class="st4" width="115.1" height="13"/>
<rect x="795" y="1538" transform="matrix(0.9495 -0.3137 0.3137 0.9495 -441.4571 345.382)" class="st4" width="115.1" height="13"/>
<rect x="799" y="1550.2" transform="matrix(0.9495 -0.3137 0.3137 0.9495 -445.0602 347.2489)" class="st4" width="115.1" height="13"/>
<rect x="803" y="1562.5" transform="matrix(0.9495 -0.3137 0.3137 0.9495 -448.7179 349.1246)" class="st4" width="115.1" height="13"/>
<rect x="807" y="1574.4" transform="matrix(0.9495 -0.3137 0.3137 0.9495 -452.2528 350.9805)" class="st4" width="115.1" height="13"/>
<rect x="811.4" y="1586.5" transform="matrix(0.9495 -0.3137 0.3137 0.9495 -455.8375 352.9844)" class="st4" width="115.1" height="13"/>
<rect x="815.4" y="1598.5" transform="matrix(0.9495 -0.3137 0.3137 0.9495 -459.3997 354.8447)" class="st4" width="115.1" height="13"/>
<rect x="819.4" y="1611.3" transform="matrix(0.9495 -0.3137 0.3137 0.9495 -463.2074 356.7446)" class="st4" width="115.1" height="13"/>
<rect x="809" y="1560.6" transform="matrix(0.3137 0.9495 -0.9495 0.3137 2086.7434 263.9698)" class="st5" width="103.6" height="29.8"/>
<rect x="908.5" y="31.5" class="st0" width="16" height="124"/>
<rect x="892.5" y="31.5" class="st0" width="16" height="124"/>
<rect x="876.5" y="31.5" class="st5" width="16" height="124"/>
<rect x="860.5" y="31.5" class="st0" width="16" height="124"/>
<rect x="844.5" y="31.5" class="st0" width="16" height="124"/>
<rect x="844.5" y="72.5" class="st0" width="80" height="36"/>
<g>
	<rect x="19.5" y="1490.5" class="st6" width="174" height="127"/>
	<path d="M193,1491v126H20v-126H193 M194,1490H19v128h175V1490L194,1490z"/>
</g>
<g>
	<rect x="318.5" y="1615.5" class="st6" width="126" height="519"/>
	<path d="M444,1616v518H319v-518H444 M445,1615H318v520h127V1615L445,1615z"/>
</g>
<g>
	<rect x="301.5" y="1490.5" class="st7" width="143" height="90"/>
	<path d="M444,1491v89H302v-89H444 M445,1490H301v91h144V1490L445,1490z"/>
</g>
<g>
	<rect x="363.5" y="1615.5" class="st8" width="81" height="192"/>
	<path d="M444,1616v191h-80v-191H444 M445,1615h-82v193h82V1615L445,1615z"/>
</g>
<rect x="240.5" y="1519.8" transform="matrix(-1.836970e-16 1 -1 -1.836970e-16 1821.2914 1326.1577)" class="st0" width="14.1" height="107.9"/>
<rect x="240.5" y="1505.7" transform="matrix(-1.836970e-16 1 -1 -1.836970e-16 1807.228 1312.0944)" class="st0" width="14.1" height="107.9"/>
<rect x="240.5" y="1491.6" transform="matrix(-1.836970e-16 1 -1 -1.836970e-16 1793.1647 1298.031)" class="st5" width="14.1" height="107.9"/>
<rect x="240.5" y="1477.6" transform="matrix(-1.836970e-16 1 -1 -1.836970e-16 1779.1013 1283.9677)" class="st0" width="14.1" height="107.9"/>
<rect x="240.5" y="1463.5" transform="matrix(-1.836970e-16 1 -1 -1.836970e-16 1765.038 1269.9043)" class="st0" width="14.1" height="107.9"/>
<rect x="215" y="1529.9" transform="matrix(-1.836970e-16 1 -1 -1.836970e-16 1795.7762 1295.4194)" class="st0" width="70.3" height="31.3"/>
<line class="st9" x1="193.5" y1="1490.5" x2="301.5" y2="1490.5"/>
<rect x="791.5" y="155.5" class="st2" width="133" height="117"/>
<g>
	<g>
		<path d="M803.7,164.7c0.5,0,1,0.1,1.4,0.3c0.4,0.2,0.7,0.5,0.9,0.8c0.2,0.4,0.3,0.8,0.3,1.2c0,0.4-0.1,0.8-0.2,1.1
			c-0.1,0.4-0.4,0.8-0.6,1.2c-0.3,0.4-0.7,0.9-1.2,1.4c-0.5,0.5-1.1,1.1-1.8,1.7h4l-0.1,0.9h-5v-0.8c0.6-0.6,1.2-1.1,1.6-1.6
			s0.8-0.9,1.1-1.2c0.3-0.3,0.5-0.7,0.7-0.9c0.2-0.3,0.3-0.6,0.3-0.8c0.1-0.3,0.1-0.5,0.1-0.8c0-0.5-0.1-0.9-0.4-1.1
			c-0.3-0.3-0.6-0.4-1.1-0.4c-0.4,0-0.8,0.1-1,0.2s-0.5,0.4-0.8,0.7l-0.7-0.6c0.3-0.4,0.7-0.7,1.1-0.9
			C802.6,164.8,803.1,164.7,803.7,164.7z"/>
		<path d="M811.1,164.7c0.5,0,1,0.1,1.4,0.3c0.4,0.2,0.7,0.5,0.9,0.8c0.2,0.4,0.3,0.8,0.3,1.2c0,0.4-0.1,0.8-0.2,1.1
			c-0.1,0.4-0.4,0.8-0.6,1.2c-0.3,0.4-0.7,0.9-1.2,1.4c-0.5,0.5-1.1,1.1-1.8,1.7h4l-0.1,0.9h-5v-0.8c0.6-0.6,1.2-1.1,1.6-1.6
			s0.8-0.9,1.1-1.2c0.3-0.3,0.5-0.7,0.7-0.9c0.2-0.3,0.3-0.6,0.3-0.8c0.1-0.3,0.1-0.5,0.1-0.8c0-0.5-0.1-0.9-0.4-1.1
			c-0.3-0.3-0.6-0.4-1.1-0.4c-0.4,0-0.8,0.1-1,0.2s-0.5,0.4-0.8,0.7l-0.7-0.6c0.3-0.4,0.7-0.7,1.1-0.9
			C810,164.8,810.5,164.7,811.1,164.7z"/>
		<path d="M819.8,164.8v8.2h-1V166l-1.9,1.2l-0.4-0.7l2.5-1.6H819.8z M821.5,172.5v0.8h-4.9v-0.8H821.5z"/>
	</g>
</g>
<g>
	<g>
		<path d="M905.3,253.4v8.3h-1.6V255l-1.8,1.1l-0.7-1.1l2.7-1.6H905.3z M906.9,260.7v1.2h-5.3v-1.2H906.9z"/>
		<path d="M911,253.2c0.6,0,1.1,0.1,1.5,0.3c0.4,0.2,0.7,0.5,1,0.8c0.2,0.3,0.3,0.7,0.3,1.1c0,0.4-0.1,0.7-0.2,0.9
			c-0.1,0.3-0.3,0.5-0.6,0.7c-0.3,0.2-0.6,0.3-0.9,0.4c0.4,0,0.7,0.1,1,0.3c0.3,0.2,0.5,0.4,0.7,0.7c0.2,0.3,0.3,0.7,0.3,1.1
			c0,0.5-0.1,0.9-0.4,1.3c-0.3,0.4-0.6,0.7-1.1,0.9s-1,0.3-1.7,0.3c-0.6,0-1.1-0.1-1.6-0.3c-0.5-0.2-0.9-0.5-1.3-0.9l1-0.9
			c0.2,0.3,0.5,0.5,0.8,0.6c0.3,0.1,0.6,0.2,1,0.2c0.5,0,0.9-0.1,1.2-0.4c0.3-0.2,0.4-0.6,0.4-1c0-0.3-0.1-0.6-0.2-0.8
			s-0.3-0.4-0.5-0.4c-0.2-0.1-0.5-0.1-0.8-0.1h-0.8l0.2-1.2h0.5c0.3,0,0.5,0,0.7-0.1c0.2-0.1,0.4-0.2,0.5-0.4s0.2-0.4,0.2-0.7
			c0-0.4-0.1-0.7-0.4-0.9c-0.3-0.2-0.6-0.3-1-0.3c-0.4,0-0.7,0.1-0.9,0.2c-0.3,0.1-0.5,0.3-0.8,0.6l-0.8-0.9
			c0.4-0.4,0.8-0.6,1.3-0.8C910,253.3,910.5,253.2,911,253.2z"/>
	</g>
</g>
<g>
	<g>
		<path d="M802.9,282.3c0.5,0,1,0.1,1.4,0.3c0.4,0.2,0.7,0.5,0.9,0.8c0.2,0.4,0.3,0.8,0.3,1.2c0,0.4-0.1,0.8-0.2,1.1
			c-0.1,0.4-0.4,0.8-0.6,1.2c-0.3,0.4-0.7,0.9-1.2,1.4c-0.5,0.5-1.1,1.1-1.8,1.7h4l-0.1,0.9h-5v-0.8c0.6-0.6,1.2-1.1,1.6-1.6
			s0.8-0.9,1.1-1.2c0.3-0.3,0.5-0.7,0.7-0.9c0.2-0.3,0.3-0.6,0.3-0.8c0.1-0.3,0.1-0.5,0.1-0.8c0-0.5-0.1-0.9-0.4-1.1
			c-0.3-0.3-0.6-0.4-1.1-0.4c-0.4,0-0.8,0.1-1,0.2s-0.5,0.4-0.8,0.7l-0.7-0.6c0.3-0.4,0.7-0.7,1.1-0.9
			C801.9,282.4,802.4,282.3,802.9,282.3z"/>
		<path d="M810.3,282.3c0.5,0,1,0.1,1.4,0.3c0.4,0.2,0.7,0.5,0.9,0.8c0.2,0.4,0.3,0.8,0.3,1.2c0,0.4-0.1,0.8-0.2,1.1
			c-0.1,0.4-0.4,0.8-0.6,1.2c-0.3,0.4-0.7,0.9-1.2,1.4c-0.5,0.5-1.1,1.1-1.8,1.7h4l-0.1,0.9h-5v-0.8c0.6-0.6,1.2-1.1,1.6-1.6
			s0.8-0.9,1.1-1.2c0.3-0.3,0.5-0.7,0.7-0.9c0.2-0.3,0.3-0.6,0.3-0.8c0.1-0.3,0.1-0.5,0.1-0.8c0-0.5-0.1-0.9-0.4-1.1
			c-0.3-0.3-0.6-0.4-1.1-0.4c-0.4,0-0.8,0.1-1,0.2s-0.5,0.4-0.8,0.7l-0.7-0.6c0.3-0.4,0.7-0.7,1.1-0.9
			C809.3,282.4,809.8,282.3,810.3,282.3z"/>
		<path d="M818.1,282.3c0.9,0,1.6,0.4,2.1,1.1c0.5,0.8,0.7,1.8,0.7,3.2c0,1.4-0.2,2.5-0.7,3.2c-0.5,0.8-1.2,1.1-2.1,1.1
			c-0.9,0-1.6-0.4-2.1-1.1c-0.5-0.8-0.7-1.8-0.7-3.2c0-1.4,0.2-2.5,0.7-3.2S817.2,282.3,818.1,282.3z M818.1,283.1
			c-0.5,0-0.9,0.3-1.2,0.8c-0.3,0.6-0.4,1.5-0.4,2.7c0,0.6,0,1.2,0.1,1.6c0.1,0.5,0.2,0.8,0.3,1.1c0.1,0.3,0.3,0.5,0.5,0.6
			s0.5,0.2,0.8,0.2c0.4,0,0.7-0.1,0.9-0.4c0.3-0.2,0.4-0.6,0.6-1.1c0.1-0.5,0.2-1.2,0.2-2c0-0.8-0.1-1.5-0.2-2s-0.3-0.9-0.5-1.1
			C818.8,283.3,818.5,283.1,818.1,283.1z M819.3,283.5l0.3,0.9l-2.7,5.5l-0.4-0.7L819.3,283.5z"/>
	</g>
</g>
<g>
	<g>
		<path d="M803.9,445.8c0.5,0,1,0.1,1.4,0.3c0.4,0.2,0.7,0.5,0.9,0.8c0.2,0.4,0.3,0.8,0.3,1.2c0,0.4-0.1,0.8-0.2,1.1
			c-0.1,0.4-0.4,0.8-0.6,1.2c-0.3,0.4-0.7,0.9-1.2,1.4c-0.5,0.5-1.1,1.1-1.8,1.7h4l-0.1,0.9h-5v-0.8c0.6-0.6,1.2-1.1,1.6-1.6
			s0.8-0.9,1.1-1.2c0.3-0.3,0.5-0.7,0.7-0.9c0.2-0.3,0.3-0.6,0.3-0.8c0.1-0.3,0.1-0.5,0.1-0.8c0-0.5-0.1-0.9-0.4-1.1
			c-0.3-0.3-0.6-0.4-1.1-0.4c-0.4,0-0.8,0.1-1,0.2s-0.5,0.4-0.8,0.7l-0.7-0.6c0.3-0.4,0.7-0.7,1.1-0.9
			C802.9,445.9,803.4,445.8,803.9,445.8z"/>
		<path d="M812.6,446v8.2h-1v-7.1l-1.9,1.2l-0.4-0.7l2.5-1.6H812.6z M814.4,453.6v0.8h-4.9v-0.8H814.4z"/>
		<path d="M819,445.9c0.6,0,1.1,0.1,1.5,0.4s0.7,0.7,0.9,1.2c0.2,0.5,0.3,1.1,0.3,1.8c0,0.9-0.1,1.6-0.3,2.2
			c-0.2,0.6-0.4,1.1-0.8,1.5c-0.4,0.4-0.8,0.7-1.4,1c-0.6,0.3-1.3,0.5-2,0.7l-0.2-0.8c0.8-0.2,1.5-0.5,2-0.8
			c0.5-0.3,0.9-0.7,1.2-1.2c0.3-0.5,0.4-1.1,0.4-1.8l0-0.6c0-0.7-0.1-1.3-0.2-1.7c-0.1-0.4-0.3-0.7-0.6-0.9c-0.2-0.2-0.6-0.3-1-0.3
			c-0.5,0-1,0.2-1.2,0.5c-0.3,0.3-0.4,0.8-0.4,1.5c0,0.6,0.1,1.1,0.4,1.4c0.3,0.3,0.7,0.4,1.1,0.4c0.4,0,0.8-0.1,1.1-0.4
			c0.3-0.2,0.6-0.6,0.9-1l0,0.9c-0.2,0.4-0.6,0.7-0.9,0.9s-0.8,0.4-1.2,0.4c-0.5,0-0.9-0.1-1.3-0.3c-0.4-0.2-0.7-0.5-0.9-0.9
			c-0.2-0.4-0.3-0.9-0.3-1.5c0-0.6,0.1-1.1,0.4-1.5c0.2-0.4,0.6-0.7,1-0.9C818,446,818.4,445.9,819,445.9z"/>
	</g>
</g>
<g>
	<g>
		<path d="M802.9,611.5c0.5,0,1,0.1,1.4,0.3c0.4,0.2,0.7,0.5,0.9,0.8c0.2,0.4,0.3,0.8,0.3,1.2c0,0.4-0.1,0.8-0.2,1.1
			c-0.1,0.4-0.4,0.8-0.6,1.2c-0.3,0.4-0.7,0.9-1.2,1.4c-0.5,0.5-1.1,1.1-1.8,1.7h4l-0.1,0.9h-5v-0.8c0.6-0.6,1.2-1.1,1.6-1.6
			s0.8-0.9,1.1-1.2c0.3-0.3,0.5-0.7,0.7-0.9c0.2-0.3,0.3-0.6,0.3-0.8c0.1-0.3,0.1-0.5,0.1-0.8c0-0.5-0.1-0.9-0.4-1.1
			c-0.3-0.3-0.6-0.4-1.1-0.4c-0.4,0-0.8,0.1-1,0.2s-0.5,0.4-0.8,0.7l-0.7-0.6c0.3-0.4,0.7-0.7,1.1-0.9
			C801.9,611.6,802.4,611.5,802.9,611.5z"/>
		<path d="M811.6,611.7v8.2h-1v-7.1l-1.9,1.2l-0.4-0.7l2.5-1.6H811.6z M813.4,619.3v0.8h-4.9v-0.8H813.4z"/>
		<path d="M820.6,613.7c0,0.4-0.1,0.8-0.4,1.1c-0.3,0.3-0.6,0.6-1.1,0.8c0.6,0.2,1,0.5,1.3,0.9c0.3,0.4,0.5,0.8,0.5,1.4
			c0,0.5-0.1,0.9-0.4,1.2c-0.2,0.4-0.6,0.7-1,0.9c-0.4,0.2-0.9,0.3-1.5,0.3c-0.6,0-1.1-0.1-1.5-0.3c-0.4-0.2-0.8-0.5-1-0.9
			c-0.2-0.4-0.3-0.8-0.3-1.2c0-0.5,0.2-1,0.5-1.3s0.7-0.7,1.2-0.9c-0.4-0.2-0.8-0.5-1-0.8s-0.3-0.7-0.3-1.2c0-0.4,0.1-0.7,0.2-1
			s0.4-0.5,0.6-0.7c0.3-0.2,0.5-0.3,0.8-0.4c0.3-0.1,0.6-0.1,0.9-0.1c0.3,0,0.6,0,0.9,0.1c0.3,0.1,0.6,0.2,0.8,0.4s0.4,0.4,0.6,0.7
			C820.6,613,820.6,613.3,820.6,613.7z M819.9,617.9c0-0.4-0.1-0.7-0.3-0.9c-0.2-0.2-0.5-0.4-0.8-0.6c-0.3-0.1-0.7-0.3-1.2-0.4
			c-0.2,0.1-0.5,0.2-0.7,0.4s-0.4,0.4-0.5,0.6s-0.2,0.5-0.2,0.9c0,0.5,0.1,0.9,0.4,1.1c0.3,0.3,0.7,0.4,1.3,0.4c0.6,0,1-0.1,1.4-0.4
			S819.9,618.3,819.9,617.9z M816.6,613.8c0,0.3,0.1,0.6,0.2,0.8c0.2,0.2,0.4,0.3,0.6,0.5c0.3,0.1,0.6,0.2,1,0.4
			c0.4-0.2,0.7-0.5,0.9-0.7s0.3-0.5,0.3-0.9c0-0.4-0.1-0.8-0.4-1c-0.3-0.2-0.6-0.4-1.1-0.4c-0.5,0-0.9,0.1-1.1,0.4
			C816.7,613,816.6,613.3,816.6,613.8z"/>
	</g>
</g>
<g>
	<g>
		<path d="M802.9,773.9c0.5,0,1,0.1,1.4,0.3c0.4,0.2,0.7,0.5,0.9,0.8c0.2,0.4,0.3,0.8,0.3,1.2c0,0.4-0.1,0.8-0.2,1.1
			c-0.1,0.4-0.4,0.8-0.6,1.2c-0.3,0.4-0.7,0.9-1.2,1.4c-0.5,0.5-1.1,1.1-1.8,1.7h4l-0.1,0.9h-5v-0.8c0.6-0.6,1.2-1.1,1.6-1.6
			c0.4-0.5,0.8-0.9,1.1-1.2c0.3-0.3,0.5-0.7,0.7-0.9c0.2-0.3,0.3-0.6,0.3-0.8c0.1-0.3,0.1-0.5,0.1-0.8c0-0.5-0.1-0.9-0.4-1.1
			c-0.3-0.3-0.6-0.4-1.1-0.4c-0.4,0-0.8,0.1-1,0.2s-0.5,0.4-0.8,0.7l-0.7-0.6c0.3-0.4,0.7-0.7,1.1-0.9S802.4,773.9,802.9,773.9z"/>
		<path d="M811.6,774v8.2h-1v-7.1l-1.9,1.2l-0.4-0.7l2.5-1.6H811.6z M813.4,781.7v0.8h-4.9v-0.8H813.4z"/>
		<path d="M817.2,782.6l-1-0.3l3.3-7.4h-4V774h5v0.8L817.2,782.6z"/>
	</g>
</g>
<g>
	<g>
		<path d="M803.9,937.2c0.5,0,1,0.1,1.4,0.3c0.4,0.2,0.7,0.5,0.9,0.8c0.2,0.4,0.3,0.8,0.3,1.2c0,0.4-0.1,0.8-0.2,1.1
			c-0.1,0.4-0.4,0.8-0.6,1.2c-0.3,0.4-0.7,0.9-1.2,1.4c-0.5,0.5-1.1,1.1-1.8,1.7h4l-0.1,0.9h-5V945c0.6-0.6,1.2-1.1,1.6-1.6
			s0.8-0.9,1.1-1.2c0.3-0.3,0.5-0.7,0.7-0.9c0.2-0.3,0.3-0.6,0.3-0.8c0.1-0.3,0.1-0.5,0.1-0.8c0-0.5-0.1-0.9-0.4-1.1
			c-0.3-0.3-0.6-0.4-1.1-0.4c-0.4,0-0.8,0.1-1,0.2s-0.5,0.4-0.8,0.7l-0.7-0.6c0.3-0.4,0.7-0.7,1.1-0.9
			C802.9,937.3,803.4,937.2,803.9,937.2z"/>
		<path d="M812.6,937.4v8.2h-1v-7.1l-1.9,1.2l-0.4-0.7l2.5-1.6H812.6z M814.4,945v0.8h-4.9V945H814.4z"/>
		<path d="M819.5,937.2c0.3,0,0.6,0,0.9,0.1c0.3,0.1,0.5,0.2,0.8,0.4l-0.4,0.7c-0.2-0.1-0.4-0.2-0.6-0.3c-0.2-0.1-0.4-0.1-0.7-0.1
			c-0.5,0-0.8,0.2-1.2,0.5c-0.3,0.3-0.6,0.7-0.7,1.3c-0.2,0.5-0.2,1.2-0.2,1.9l0,0.4c0,1,0.1,1.8,0.4,2.3c0.3,0.5,0.7,0.7,1.3,0.7
			c0.5,0,0.9-0.2,1.2-0.6c0.3-0.4,0.4-0.9,0.4-1.6c0-0.5-0.1-0.8-0.2-1.1c-0.1-0.3-0.3-0.5-0.5-0.6s-0.5-0.2-0.8-0.2
			c-0.4,0-0.8,0.1-1.2,0.4c-0.3,0.3-0.6,0.6-0.8,1l0-0.9c0.3-0.5,0.6-0.8,1-1c0.4-0.2,0.8-0.3,1.2-0.3c0.4,0,0.8,0.1,1.2,0.3
			c0.4,0.2,0.7,0.5,0.9,0.9s0.3,0.9,0.3,1.5c0,0.6-0.1,1.2-0.4,1.6c-0.2,0.4-0.6,0.8-1,1c-0.4,0.2-0.9,0.4-1.3,0.4
			c-0.5,0-1-0.1-1.3-0.3c-0.4-0.2-0.6-0.5-0.9-0.8c-0.2-0.4-0.4-0.8-0.5-1.3s-0.2-1.1-0.2-1.7c0-0.9,0.1-1.7,0.4-2.4
			c0.2-0.7,0.6-1.2,1.1-1.6S818.9,937.2,819.5,937.2z"/>
		<path d="M829.4,943.4c0,0.5-0.1,0.8-0.3,1.2c-0.2,0.3-0.4,0.6-0.7,0.7s-0.6,0.3-1,0.4s-0.8,0.1-1.1,0.1H824v-8.5h2.1
			c0.4,0,0.7,0,1.1,0.1c0.4,0.1,0.7,0.2,1,0.3s0.5,0.4,0.7,0.7c0.2,0.3,0.3,0.6,0.3,1c0,0.4-0.1,0.7-0.2,0.9
			c-0.1,0.3-0.3,0.5-0.6,0.6c-0.2,0.2-0.5,0.3-0.8,0.3c0.3,0,0.6,0.1,0.9,0.3c0.3,0.1,0.5,0.4,0.7,0.6
			C829.3,942.6,829.4,942.9,829.4,943.4z M828,939.6c0-0.5-0.1-0.8-0.4-1c-0.3-0.2-0.7-0.3-1.2-0.3H825v2.7h1.4
			c0.5,0,0.9-0.1,1.2-0.3S828,940.1,828,939.6z M828.3,943.5c0-0.4-0.1-0.8-0.2-1s-0.4-0.4-0.7-0.5c-0.3-0.1-0.6-0.1-0.9-0.1H825
			v3.1h1.4c0.2,0,0.4,0,0.6-0.1s0.4-0.1,0.6-0.2c0.2-0.1,0.3-0.3,0.4-0.5C828.2,944,828.3,943.8,828.3,943.5z"/>
	</g>
</g>
<g>
	<g>
		<path d="M803.2,1021.1c0.5,0,1,0.1,1.4,0.3c0.4,0.2,0.7,0.5,0.9,0.8c0.2,0.4,0.3,0.8,0.3,1.2c0,0.4-0.1,0.8-0.2,1.1
			c-0.1,0.4-0.4,0.8-0.6,1.2c-0.3,0.4-0.7,0.9-1.2,1.4c-0.5,0.5-1.1,1.1-1.8,1.7h4l-0.1,0.9h-5v-0.8c0.6-0.6,1.2-1.1,1.6-1.6
			s0.8-0.9,1.1-1.2c0.3-0.3,0.5-0.7,0.7-0.9c0.2-0.3,0.3-0.6,0.3-0.8c0.1-0.3,0.1-0.5,0.1-0.8c0-0.5-0.1-0.9-0.4-1.1
			c-0.3-0.3-0.6-0.4-1.1-0.4c-0.4,0-0.8,0.1-1,0.2s-0.5,0.4-0.8,0.7l-0.7-0.6c0.3-0.4,0.7-0.7,1.1-0.9
			C802.2,1021.2,802.7,1021.1,803.2,1021.1z"/>
		<path d="M811.9,1021.2v8.2h-1v-7.1l-1.9,1.2l-0.4-0.7l2.5-1.6H811.9z M813.7,1028.9v0.8h-4.9v-0.8H813.7z"/>
		<path d="M818.8,1021.1c0.3,0,0.6,0,0.9,0.1c0.3,0.1,0.5,0.2,0.8,0.4l-0.4,0.7c-0.2-0.1-0.4-0.2-0.6-0.3c-0.2-0.1-0.4-0.1-0.7-0.1
			c-0.5,0-0.8,0.2-1.2,0.5c-0.3,0.3-0.6,0.7-0.7,1.3c-0.2,0.5-0.2,1.2-0.2,1.9l0,0.4c0,1,0.1,1.8,0.4,2.3c0.3,0.5,0.7,0.7,1.3,0.7
			c0.5,0,0.9-0.2,1.2-0.6c0.3-0.4,0.4-0.9,0.4-1.6c0-0.5-0.1-0.8-0.2-1.1c-0.1-0.3-0.3-0.5-0.5-0.6s-0.5-0.2-0.8-0.2
			c-0.4,0-0.8,0.1-1.2,0.4c-0.3,0.3-0.6,0.6-0.8,1l0-0.9c0.3-0.5,0.6-0.8,1-1c0.4-0.2,0.8-0.3,1.2-0.3c0.4,0,0.8,0.1,1.2,0.3
			c0.4,0.2,0.7,0.5,0.9,0.9s0.3,0.9,0.3,1.5c0,0.6-0.1,1.2-0.4,1.6c-0.2,0.4-0.6,0.8-1,1c-0.4,0.2-0.9,0.4-1.3,0.4
			c-0.5,0-1-0.1-1.3-0.3c-0.4-0.2-0.6-0.5-0.9-0.8c-0.2-0.4-0.4-0.8-0.5-1.3s-0.2-1.1-0.2-1.7c0-0.9,0.1-1.7,0.4-2.4
			c0.2-0.7,0.6-1.2,1.1-1.6S818.2,1021.1,818.8,1021.1z"/>
		<path d="M827.4,1027.6h-3.4l-0.7,2.2h-1.1l2.8-8.5h1.4l2.8,8.5h-1.1L827.4,1027.6z M824.3,1026.7h2.8l-1.4-4.5L824.3,1026.7z"/>
	</g>
</g>
<g>
	<g>
		<path d="M804.2,1103.9c0.5,0,1,0.1,1.4,0.3c0.4,0.2,0.7,0.5,0.9,0.8c0.2,0.4,0.3,0.8,0.3,1.2c0,0.4-0.1,0.8-0.2,1.1
			c-0.1,0.4-0.4,0.8-0.6,1.2c-0.3,0.4-0.7,0.9-1.2,1.4c-0.5,0.5-1.1,1.1-1.8,1.7h4l-0.1,0.9h-5v-0.8c0.6-0.6,1.2-1.1,1.6-1.6
			c0.4-0.5,0.8-0.9,1.1-1.2c0.3-0.3,0.5-0.7,0.7-0.9c0.2-0.3,0.3-0.6,0.3-0.8c0.1-0.3,0.1-0.5,0.1-0.8c0-0.5-0.1-0.9-0.4-1.1
			c-0.3-0.3-0.6-0.4-1.1-0.4c-0.4,0-0.8,0.1-1,0.2s-0.5,0.4-0.8,0.7l-0.7-0.6c0.3-0.4,0.7-0.7,1.1-0.9S803.7,1103.9,804.2,1103.9z"
			/>
		<path d="M812.4,1103.9c0.3,0,0.6,0,0.9,0.1c0.3,0.1,0.5,0.2,0.8,0.4l-0.4,0.7c-0.2-0.1-0.4-0.2-0.6-0.3c-0.2-0.1-0.4-0.1-0.7-0.1
			c-0.5,0-0.8,0.2-1.2,0.5c-0.3,0.3-0.6,0.7-0.7,1.3s-0.2,1.2-0.2,1.9l0,0.4c0,1,0.1,1.8,0.4,2.3c0.3,0.5,0.7,0.7,1.3,0.7
			c0.5,0,0.9-0.2,1.2-0.6c0.3-0.4,0.4-0.9,0.4-1.6c0-0.5-0.1-0.8-0.2-1.1s-0.3-0.5-0.5-0.6c-0.2-0.1-0.5-0.2-0.8-0.2
			c-0.4,0-0.8,0.1-1.2,0.4c-0.3,0.3-0.6,0.6-0.8,1l0-0.9c0.3-0.5,0.6-0.8,1-1c0.4-0.2,0.8-0.3,1.2-0.3c0.4,0,0.8,0.1,1.2,0.3
			c0.4,0.2,0.7,0.5,0.9,0.9c0.2,0.4,0.3,0.9,0.3,1.5c0,0.6-0.1,1.2-0.4,1.6c-0.2,0.4-0.6,0.8-1,1c-0.4,0.2-0.9,0.4-1.3,0.4
			c-0.5,0-1-0.1-1.3-0.3c-0.4-0.2-0.6-0.5-0.9-0.8s-0.4-0.8-0.5-1.3s-0.2-1.1-0.2-1.7c0-0.9,0.1-1.7,0.4-2.4
			c0.2-0.7,0.6-1.2,1.1-1.6C811.2,1104.1,811.8,1103.9,812.4,1103.9z"/>
		<path d="M819,1103.9c0.5,0,1,0.1,1.4,0.3c0.4,0.2,0.7,0.4,0.9,0.8c0.2,0.3,0.3,0.7,0.3,1.1c0,0.3-0.1,0.7-0.2,0.9
			c-0.2,0.3-0.4,0.5-0.6,0.7c-0.3,0.2-0.5,0.3-0.8,0.4c0.3,0,0.6,0.1,0.9,0.3s0.5,0.4,0.7,0.7c0.2,0.3,0.3,0.7,0.3,1.1
			c0,0.5-0.1,0.9-0.4,1.3s-0.6,0.7-1,0.9c-0.4,0.2-1,0.3-1.5,0.3c-0.5,0-0.9-0.1-1.4-0.3s-0.9-0.5-1.2-0.9l0.7-0.6
			c0.2,0.3,0.5,0.5,0.9,0.6c0.3,0.1,0.7,0.2,1,0.2c0.6,0,1.1-0.2,1.4-0.5c0.3-0.3,0.5-0.7,0.5-1.3c0-0.4-0.1-0.7-0.2-1
			c-0.2-0.2-0.4-0.4-0.6-0.5s-0.6-0.2-0.9-0.2h-0.7l0.1-0.8h0.5c0.3,0,0.5-0.1,0.8-0.2s0.4-0.3,0.6-0.5s0.2-0.5,0.2-0.8
			c0-0.5-0.2-0.8-0.5-1.1c-0.3-0.2-0.7-0.4-1.1-0.4c-0.4,0-0.7,0.1-1,0.2c-0.3,0.1-0.6,0.3-0.8,0.6l-0.6-0.6
			c0.4-0.3,0.7-0.6,1.2-0.7C818.2,1104,818.6,1103.9,819,1103.9z"/>
	</g>
</g>
<g>
	<g>
		<path d="M1135,57.3l-1.7,12.8h-2.8l-1.1-9.3l-1.2,9.3h-2.8l-1.5-12.8h2.4l0.8,10.5l1.2-9h2.4l1.2,9l0.9-10.5H1135z"/>
		<path d="M1141.6,57c0.9,0,1.6,0.1,2.3,0.3c0.6,0.2,1.2,0.6,1.7,1l-1.3,1.5c-0.4-0.3-0.8-0.5-1.2-0.7c-0.4-0.2-0.9-0.2-1.4-0.2
			c-0.6,0-1.1,0.2-1.6,0.5s-0.9,0.8-1.2,1.5c-0.3,0.7-0.4,1.6-0.4,2.7c0,1.1,0.1,2,0.4,2.7c0.3,0.7,0.7,1.2,1.2,1.5s1.1,0.5,1.7,0.5
			c0.7,0,1.2-0.1,1.7-0.4c0.4-0.2,0.8-0.5,1.2-0.8l1.2,1.5c-0.4,0.4-1,0.8-1.7,1.1s-1.5,0.5-2.5,0.5c-1.1,0-2.1-0.3-3-0.8
			c-0.9-0.5-1.6-1.3-2.1-2.3c-0.5-1-0.7-2.2-0.7-3.7c0-1.4,0.3-2.6,0.8-3.6c0.5-1,1.2-1.7,2.1-2.2S1140.6,57,1141.6,57z"/>
	</g>
</g>
<g>
	<g>
		<path d="M1135.1,138l-1.7,12.8h-2.8l-1.1-9.3l-1.2,9.3h-2.8L1124,138h2.4l0.8,10.5l1.2-9h2.4l1.2,9l0.9-10.5H1135.1z"/>
		<path d="M1141.7,137.8c0.9,0,1.6,0.1,2.3,0.3c0.6,0.2,1.2,0.6,1.7,1l-1.3,1.5c-0.4-0.3-0.8-0.5-1.2-0.7c-0.4-0.2-0.9-0.2-1.4-0.2
			c-0.6,0-1.1,0.2-1.6,0.5s-0.9,0.8-1.2,1.5c-0.3,0.7-0.4,1.6-0.4,2.7c0,1.1,0.1,2,0.4,2.7c0.3,0.7,0.7,1.2,1.2,1.5s1.1,0.5,1.7,0.5
			c0.7,0,1.2-0.1,1.7-0.4c0.4-0.2,0.8-0.5,1.2-0.8l1.2,1.5c-0.4,0.4-1,0.8-1.7,1.1s-1.5,0.5-2.5,0.5c-1.1,0-2.1-0.3-3-0.8
			c-0.9-0.5-1.6-1.3-2.1-2.3c-0.5-1-0.7-2.2-0.7-3.7c0-1.4,0.3-2.6,0.8-3.6c0.5-1,1.2-1.7,2.1-2.2S1140.6,137.8,1141.7,137.8z"/>
	</g>
</g>
<g>
	<g>
		<path d="M1045.2,41.2c0.5,0,1,0.1,1.4,0.3c0.4,0.2,0.7,0.5,0.9,0.8c0.2,0.4,0.3,0.8,0.3,1.2c0,0.4-0.1,0.8-0.2,1.1
			c-0.1,0.4-0.4,0.8-0.6,1.2c-0.3,0.4-0.7,0.9-1.2,1.4c-0.5,0.5-1.1,1.1-1.8,1.7h4l-0.1,0.9h-5v-0.8c0.6-0.6,1.2-1.1,1.6-1.6
			s0.8-0.9,1.1-1.2c0.3-0.3,0.5-0.7,0.7-0.9c0.2-0.3,0.3-0.6,0.3-0.8c0.1-0.3,0.1-0.5,0.1-0.8c0-0.5-0.1-0.9-0.4-1.1
			c-0.3-0.3-0.6-0.4-1.1-0.4c-0.4,0-0.8,0.1-1,0.2s-0.5,0.4-0.8,0.7l-0.7-0.6c0.3-0.4,0.7-0.7,1.1-0.9
			C1044.1,41.3,1044.6,41.2,1045.2,41.2z"/>
		<path d="M1052.5,41.2c0.5,0,1,0.1,1.4,0.3c0.4,0.2,0.7,0.5,0.9,0.8c0.2,0.4,0.3,0.8,0.3,1.2c0,0.4-0.1,0.8-0.2,1.1
			c-0.1,0.4-0.4,0.8-0.6,1.2c-0.3,0.4-0.7,0.9-1.2,1.4c-0.5,0.5-1.1,1.1-1.8,1.7h4l-0.1,0.9h-5v-0.8c0.6-0.6,1.2-1.1,1.6-1.6
			s0.8-0.9,1.1-1.2c0.3-0.3,0.5-0.7,0.7-0.9c0.2-0.3,0.3-0.6,0.3-0.8c0.1-0.3,0.1-0.5,0.1-0.8c0-0.5-0.1-0.9-0.4-1.1
			c-0.3-0.3-0.6-0.4-1.1-0.4c-0.4,0-0.8,0.1-1,0.2s-0.5,0.4-0.8,0.7l-0.7-0.6c0.3-0.4,0.7-0.7,1.1-0.9
			C1051.5,41.3,1052,41.2,1052.5,41.2z"/>
		<path d="M1059.9,41.2c0.5,0,1,0.1,1.4,0.3c0.4,0.2,0.7,0.4,0.9,0.8c0.2,0.3,0.3,0.7,0.3,1.1c0,0.3-0.1,0.7-0.2,0.9
			c-0.2,0.3-0.4,0.5-0.6,0.7c-0.3,0.2-0.5,0.3-0.8,0.4c0.3,0,0.6,0.1,0.9,0.3s0.5,0.4,0.7,0.7c0.2,0.3,0.3,0.7,0.3,1.1
			c0,0.5-0.1,0.9-0.4,1.3s-0.6,0.7-1,0.9c-0.4,0.2-1,0.3-1.5,0.3c-0.5,0-0.9-0.1-1.4-0.3c-0.5-0.2-0.9-0.5-1.2-0.9l0.7-0.6
			c0.2,0.3,0.5,0.5,0.9,0.6c0.3,0.1,0.7,0.2,1,0.2c0.6,0,1.1-0.2,1.4-0.5c0.3-0.3,0.5-0.7,0.5-1.3c0-0.4-0.1-0.7-0.2-1
			c-0.2-0.2-0.4-0.4-0.6-0.5s-0.6-0.2-0.9-0.2h-0.7l0.1-0.8h0.5c0.3,0,0.5-0.1,0.8-0.2c0.2-0.1,0.4-0.3,0.6-0.5
			c0.2-0.2,0.2-0.5,0.2-0.8c0-0.5-0.2-0.8-0.5-1.1c-0.3-0.2-0.7-0.4-1.1-0.4c-0.4,0-0.7,0.1-1,0.2c-0.3,0.1-0.6,0.3-0.8,0.6
			l-0.6-0.6c0.4-0.3,0.7-0.6,1.2-0.7C1059.1,41.2,1059.5,41.2,1059.9,41.2z"/>
	</g>
</g>
<g>
	<g>
		<path d="M1046.2,112.2c0.5,0,1,0.1,1.4,0.3c0.4,0.2,0.7,0.5,0.9,0.8c0.2,0.4,0.3,0.8,0.3,1.2c0,0.4-0.1,0.8-0.2,1.1
			c-0.1,0.4-0.4,0.8-0.6,1.2c-0.3,0.4-0.7,0.9-1.2,1.4c-0.5,0.5-1.1,1.1-1.8,1.7h4l-0.1,0.9h-5v-0.8c0.6-0.6,1.2-1.1,1.6-1.6
			s0.8-0.9,1.1-1.2c0.3-0.3,0.5-0.7,0.7-0.9c0.2-0.3,0.3-0.6,0.3-0.8c0.1-0.3,0.1-0.5,0.1-0.8c0-0.5-0.1-0.9-0.4-1.1
			c-0.3-0.3-0.6-0.4-1.1-0.4c-0.4,0-0.8,0.1-1,0.2s-0.5,0.4-0.8,0.7l-0.7-0.6c0.3-0.4,0.7-0.7,1.1-0.9
			C1045.1,112.3,1045.6,112.2,1046.2,112.2z"/>
		<path d="M1053.5,112.2c0.5,0,1,0.1,1.4,0.3c0.4,0.2,0.7,0.5,0.9,0.8c0.2,0.4,0.3,0.8,0.3,1.2c0,0.4-0.1,0.8-0.2,1.1
			c-0.1,0.4-0.4,0.8-0.6,1.2c-0.3,0.4-0.7,0.9-1.2,1.4c-0.5,0.5-1.1,1.1-1.8,1.7h4l-0.1,0.9h-5v-0.8c0.6-0.6,1.2-1.1,1.6-1.6
			s0.8-0.9,1.1-1.2c0.3-0.3,0.5-0.7,0.7-0.9c0.2-0.3,0.3-0.6,0.3-0.8c0.1-0.3,0.1-0.5,0.1-0.8c0-0.5-0.1-0.9-0.4-1.1
			c-0.3-0.3-0.6-0.4-1.1-0.4c-0.4,0-0.8,0.1-1,0.2s-0.5,0.4-0.8,0.7l-0.7-0.6c0.3-0.4,0.7-0.7,1.1-0.9
			C1052.5,112.3,1053,112.2,1053.5,112.2z"/>
		<path d="M1061,112.2l0.9,0.4l-2.3,5.4h4.5v0.8h-5.6V118L1061,112.2z M1063,115.5v5.3h-1l0-2.7l0.1-2.6H1063z"/>
	</g>
</g>
<g>
	<g>
		<path d="M1046.2,202.4c0.5,0,1,0.1,1.4,0.3c0.4,0.2,0.7,0.5,0.9,0.8c0.2,0.4,0.3,0.8,0.3,1.2c0,0.4-0.1,0.8-0.2,1.1
			c-0.1,0.4-0.4,0.8-0.6,1.2c-0.3,0.4-0.7,0.9-1.2,1.4c-0.5,0.5-1.1,1.1-1.8,1.7h4l-0.1,0.9h-5v-0.8c0.6-0.6,1.2-1.1,1.6-1.6
			s0.8-0.9,1.1-1.2c0.3-0.3,0.5-0.7,0.7-0.9c0.2-0.3,0.3-0.6,0.3-0.8c0.1-0.3,0.1-0.5,0.1-0.8c0-0.5-0.1-0.9-0.4-1.1
			c-0.3-0.3-0.6-0.4-1.1-0.4c-0.4,0-0.8,0.1-1,0.2s-0.5,0.4-0.8,0.7l-0.7-0.6c0.3-0.4,0.7-0.7,1.1-0.9
			C1045.1,202.5,1045.6,202.4,1046.2,202.4z"/>
		<path d="M1053.5,202.4c0.5,0,1,0.1,1.4,0.3c0.4,0.2,0.7,0.5,0.9,0.8c0.2,0.4,0.3,0.8,0.3,1.2c0,0.4-0.1,0.8-0.2,1.1
			c-0.1,0.4-0.4,0.8-0.6,1.2c-0.3,0.4-0.7,0.9-1.2,1.4c-0.5,0.5-1.1,1.1-1.8,1.7h4l-0.1,0.9h-5v-0.8c0.6-0.6,1.2-1.1,1.6-1.6
			s0.8-0.9,1.1-1.2c0.3-0.3,0.5-0.7,0.7-0.9c0.2-0.3,0.3-0.6,0.3-0.8c0.1-0.3,0.1-0.5,0.1-0.8c0-0.5-0.1-0.9-0.4-1.1
			c-0.3-0.3-0.6-0.4-1.1-0.4c-0.4,0-0.8,0.1-1,0.2s-0.5,0.4-0.8,0.7l-0.7-0.6c0.3-0.4,0.7-0.7,1.1-0.9
			C1052.5,202.5,1053,202.4,1053.5,202.4z"/>
		<path d="M1063.6,202.5l-0.2,0.8h-3.3v2.7c0.3-0.1,0.5-0.2,0.7-0.3s0.5-0.1,0.7-0.1c0.5,0,0.9,0.1,1.2,0.3s0.6,0.5,0.8,0.9
			c0.2,0.4,0.3,0.9,0.3,1.4s-0.1,1.1-0.4,1.5c-0.2,0.4-0.6,0.8-1,1c-0.4,0.2-0.9,0.4-1.5,0.4c-0.5,0-1-0.1-1.4-0.3
			c-0.4-0.2-0.8-0.4-1.1-0.8l0.6-0.6c0.3,0.3,0.5,0.5,0.8,0.6c0.3,0.1,0.6,0.2,1,0.2c0.6,0,1-0.2,1.3-0.5s0.5-0.8,0.5-1.5
			c0-0.5-0.1-0.8-0.2-1.1c-0.1-0.3-0.3-0.5-0.6-0.6c-0.2-0.1-0.5-0.2-0.8-0.2c-0.2,0-0.5,0-0.7,0.1c-0.2,0-0.4,0.1-0.7,0.2h-0.8
			v-4.2H1063.6z"/>
	</g>
</g>
<g>
	<g>
		<path d="M1045.2,368c0.5,0,1,0.1,1.4,0.3c0.4,0.2,0.7,0.5,0.9,0.8c0.2,0.4,0.3,0.8,0.3,1.2c0,0.4-0.1,0.8-0.2,1.1
			c-0.1,0.4-0.4,0.8-0.6,1.2c-0.3,0.4-0.7,0.9-1.2,1.4c-0.5,0.5-1.1,1.1-1.8,1.7h4l-0.1,0.9h-5v-0.8c0.6-0.6,1.2-1.1,1.6-1.6
			s0.8-0.9,1.1-1.2c0.3-0.3,0.5-0.7,0.7-0.9c0.2-0.3,0.3-0.6,0.3-0.8c0.1-0.3,0.1-0.5,0.1-0.8c0-0.5-0.1-0.9-0.4-1.1
			c-0.3-0.3-0.6-0.4-1.1-0.4c-0.4,0-0.8,0.1-1,0.2s-0.5,0.4-0.8,0.7l-0.7-0.6c0.3-0.4,0.7-0.7,1.1-0.9
			C1044.1,368.1,1044.6,368,1045.2,368z"/>
		<path d="M1052.5,368c0.5,0,1,0.1,1.4,0.3c0.4,0.2,0.7,0.5,0.9,0.8c0.2,0.4,0.3,0.8,0.3,1.2c0,0.4-0.1,0.8-0.2,1.1
			c-0.1,0.4-0.4,0.8-0.6,1.2c-0.3,0.4-0.7,0.9-1.2,1.4c-0.5,0.5-1.1,1.1-1.8,1.7h4l-0.1,0.9h-5v-0.8c0.6-0.6,1.2-1.1,1.6-1.6
			s0.8-0.9,1.1-1.2c0.3-0.3,0.5-0.7,0.7-0.9c0.2-0.3,0.3-0.6,0.3-0.8c0.1-0.3,0.1-0.5,0.1-0.8c0-0.5-0.1-0.9-0.4-1.1
			c-0.3-0.3-0.6-0.4-1.1-0.4c-0.4,0-0.8,0.1-1,0.2s-0.5,0.4-0.8,0.7l-0.7-0.6c0.3-0.4,0.7-0.7,1.1-0.9
			C1051.5,368.1,1052,368,1052.5,368z"/>
		<path d="M1060.7,368c0.3,0,0.6,0,0.9,0.1c0.3,0.1,0.5,0.2,0.8,0.4l-0.4,0.7c-0.2-0.1-0.4-0.2-0.6-0.3c-0.2-0.1-0.4-0.1-0.7-0.1
			c-0.5,0-0.8,0.2-1.2,0.5c-0.3,0.3-0.6,0.7-0.7,1.3c-0.2,0.5-0.2,1.2-0.2,1.9l0,0.4c0,1,0.1,1.8,0.4,2.3c0.3,0.5,0.7,0.7,1.3,0.7
			c0.5,0,0.9-0.2,1.2-0.6c0.3-0.4,0.4-0.9,0.4-1.6c0-0.5-0.1-0.8-0.2-1.1c-0.1-0.3-0.3-0.5-0.5-0.6s-0.5-0.2-0.8-0.2
			c-0.4,0-0.8,0.1-1.2,0.4c-0.3,0.3-0.6,0.6-0.8,1l0-0.9c0.3-0.5,0.6-0.8,1-1c0.4-0.2,0.8-0.3,1.2-0.3c0.4,0,0.8,0.1,1.2,0.3
			c0.4,0.2,0.7,0.5,0.9,0.9s0.3,0.9,0.3,1.5c0,0.6-0.1,1.2-0.4,1.6c-0.2,0.4-0.6,0.8-1,1c-0.4,0.2-0.9,0.4-1.3,0.4
			c-0.5,0-1-0.1-1.3-0.3c-0.4-0.2-0.6-0.5-0.9-0.8c-0.2-0.4-0.4-0.8-0.5-1.3s-0.2-1.1-0.2-1.7c0-0.9,0.1-1.7,0.4-2.4
			c0.2-0.7,0.6-1.2,1.1-1.6S1060.1,368,1060.7,368z"/>
	</g>
</g>
<g>
	<g>
		<path d="M1045.2,483c0.5,0,1,0.1,1.4,0.3c0.4,0.2,0.7,0.5,0.9,0.8c0.2,0.4,0.3,0.8,0.3,1.2c0,0.4-0.1,0.8-0.2,1.1
			c-0.1,0.4-0.4,0.8-0.6,1.2c-0.3,0.4-0.7,0.9-1.2,1.4c-0.5,0.5-1.1,1.1-1.8,1.7h4l-0.1,0.9h-5v-0.8c0.6-0.6,1.2-1.1,1.6-1.6
			s0.8-0.9,1.1-1.2c0.3-0.3,0.5-0.7,0.7-0.9c0.2-0.3,0.3-0.6,0.3-0.8c0.1-0.3,0.1-0.5,0.1-0.8c0-0.5-0.1-0.9-0.4-1.1
			c-0.3-0.3-0.6-0.4-1.1-0.4c-0.4,0-0.8,0.1-1,0.2s-0.5,0.4-0.8,0.7l-0.7-0.6c0.3-0.4,0.7-0.7,1.1-0.9
			C1044.1,483.1,1044.6,483,1045.2,483z"/>
		<path d="M1052.5,483c0.5,0,1,0.1,1.4,0.3c0.4,0.2,0.7,0.5,0.9,0.8c0.2,0.4,0.3,0.8,0.3,1.2c0,0.4-0.1,0.8-0.2,1.1
			c-0.1,0.4-0.4,0.8-0.6,1.2c-0.3,0.4-0.7,0.9-1.2,1.4c-0.5,0.5-1.1,1.1-1.8,1.7h4l-0.1,0.9h-5v-0.8c0.6-0.6,1.2-1.1,1.6-1.6
			s0.8-0.9,1.1-1.2c0.3-0.3,0.5-0.7,0.7-0.9c0.2-0.3,0.3-0.6,0.3-0.8c0.1-0.3,0.1-0.5,0.1-0.8c0-0.5-0.1-0.9-0.4-1.1
			c-0.3-0.3-0.6-0.4-1.1-0.4c-0.4,0-0.8,0.1-1,0.2s-0.5,0.4-0.8,0.7l-0.7-0.6c0.3-0.4,0.7-0.7,1.1-0.9
			C1051.5,483.1,1052,483,1052.5,483z"/>
		<path d="M1059.4,491.7l-1-0.3l3.3-7.4h-4v-0.9h5v0.8L1059.4,491.7z"/>
	</g>
</g>
<g>
	<g>
		<path d="M1046.2,602.3c0.5,0,1,0.1,1.4,0.3c0.4,0.2,0.7,0.5,0.9,0.8c0.2,0.4,0.3,0.8,0.3,1.2c0,0.4-0.1,0.8-0.2,1.1
			c-0.1,0.4-0.4,0.8-0.6,1.2c-0.3,0.4-0.7,0.9-1.2,1.4c-0.5,0.5-1.1,1.1-1.8,1.7h4l-0.1,0.9h-5V610c0.6-0.6,1.2-1.1,1.6-1.6
			s0.8-0.9,1.1-1.2c0.3-0.3,0.5-0.7,0.7-0.9c0.2-0.3,0.3-0.6,0.3-0.8c0.1-0.3,0.1-0.5,0.1-0.8c0-0.5-0.1-0.9-0.4-1.1
			c-0.3-0.3-0.6-0.4-1.1-0.4c-0.4,0-0.8,0.1-1,0.2s-0.5,0.4-0.8,0.7l-0.7-0.6c0.3-0.4,0.7-0.7,1.1-0.9
			C1045.1,602.4,1045.6,602.3,1046.2,602.3z"/>
		<path d="M1053.5,602.3c0.5,0,1,0.1,1.4,0.3c0.4,0.2,0.7,0.5,0.9,0.8c0.2,0.4,0.3,0.8,0.3,1.2c0,0.4-0.1,0.8-0.2,1.1
			c-0.1,0.4-0.4,0.8-0.6,1.2c-0.3,0.4-0.7,0.9-1.2,1.4c-0.5,0.5-1.1,1.1-1.8,1.7h4l-0.1,0.9h-5V610c0.6-0.6,1.2-1.1,1.6-1.6
			s0.8-0.9,1.1-1.2c0.3-0.3,0.5-0.7,0.7-0.9c0.2-0.3,0.3-0.6,0.3-0.8c0.1-0.3,0.1-0.5,0.1-0.8c0-0.5-0.1-0.9-0.4-1.1
			c-0.3-0.3-0.6-0.4-1.1-0.4c-0.4,0-0.8,0.1-1,0.2s-0.5,0.4-0.8,0.7l-0.7-0.6c0.3-0.4,0.7-0.7,1.1-0.9
			C1052.5,602.4,1053,602.3,1053.5,602.3z"/>
		<path d="M1063.8,604.4c0,0.4-0.1,0.8-0.4,1.1c-0.3,0.3-0.6,0.6-1.1,0.8c0.6,0.2,1,0.5,1.3,0.9c0.3,0.4,0.5,0.8,0.5,1.4
			c0,0.5-0.1,0.9-0.4,1.2c-0.2,0.4-0.6,0.7-1,0.9c-0.4,0.2-0.9,0.3-1.5,0.3c-0.6,0-1.1-0.1-1.5-0.3c-0.4-0.2-0.8-0.5-1-0.9
			c-0.2-0.4-0.3-0.8-0.3-1.2c0-0.5,0.2-1,0.5-1.3s0.7-0.7,1.2-0.9c-0.4-0.2-0.8-0.5-1-0.8s-0.3-0.7-0.3-1.2c0-0.4,0.1-0.7,0.2-1
			s0.4-0.5,0.6-0.7c0.3-0.2,0.5-0.3,0.8-0.4c0.3-0.1,0.6-0.1,0.9-0.1c0.3,0,0.6,0,0.9,0.1c0.3,0.1,0.6,0.2,0.8,0.4s0.4,0.4,0.6,0.7
			C1063.8,603.7,1063.8,604,1063.8,604.4z M1063.1,608.6c0-0.4-0.1-0.7-0.3-0.9c-0.2-0.2-0.5-0.4-0.8-0.6c-0.3-0.1-0.7-0.3-1.2-0.4
			c-0.2,0.1-0.5,0.2-0.7,0.4s-0.4,0.4-0.5,0.6s-0.2,0.5-0.2,0.9c0,0.5,0.1,0.9,0.4,1.1c0.3,0.3,0.7,0.4,1.3,0.4c0.6,0,1-0.1,1.4-0.4
			S1063.1,609.1,1063.1,608.6z M1059.8,604.5c0,0.3,0.1,0.6,0.2,0.8c0.2,0.2,0.4,0.3,0.6,0.5c0.3,0.1,0.6,0.2,1,0.4
			c0.4-0.2,0.7-0.5,0.9-0.7s0.3-0.5,0.3-0.9c0-0.4-0.1-0.8-0.4-1c-0.3-0.2-0.6-0.4-1.1-0.4c-0.5,0-0.9,0.1-1.1,0.4
			C1059.9,603.7,1059.8,604,1059.8,604.5z"/>
	</g>
</g>
<g>
	<g>
		<path d="M1046.2,764.8c0.5,0,1,0.1,1.4,0.3c0.4,0.2,0.7,0.5,0.9,0.8c0.2,0.4,0.3,0.8,0.3,1.2c0,0.4-0.1,0.8-0.2,1.1
			c-0.1,0.4-0.4,0.8-0.6,1.2c-0.3,0.4-0.7,0.9-1.2,1.4c-0.5,0.5-1.1,1.1-1.8,1.7h4l-0.1,0.9h-5v-0.8c0.6-0.6,1.2-1.1,1.6-1.6
			s0.8-0.9,1.1-1.2c0.3-0.3,0.5-0.7,0.7-0.9c0.2-0.3,0.3-0.6,0.3-0.8c0.1-0.3,0.1-0.5,0.1-0.8c0-0.5-0.1-0.9-0.4-1.1
			c-0.3-0.3-0.6-0.4-1.1-0.4c-0.4,0-0.8,0.1-1,0.2s-0.5,0.4-0.8,0.7l-0.7-0.6c0.3-0.4,0.7-0.7,1.1-0.9
			C1045.1,764.9,1045.6,764.8,1046.2,764.8z"/>
		<path d="M1053.5,764.8c0.5,0,1,0.1,1.4,0.3c0.4,0.2,0.7,0.5,0.9,0.8c0.2,0.4,0.3,0.8,0.3,1.2c0,0.4-0.1,0.8-0.2,1.1
			c-0.1,0.4-0.4,0.8-0.6,1.2c-0.3,0.4-0.7,0.9-1.2,1.4c-0.5,0.5-1.1,1.1-1.8,1.7h4l-0.1,0.9h-5v-0.8c0.6-0.6,1.2-1.1,1.6-1.6
			s0.8-0.9,1.1-1.2c0.3-0.3,0.5-0.7,0.7-0.9c0.2-0.3,0.3-0.6,0.3-0.8c0.1-0.3,0.1-0.5,0.1-0.8c0-0.5-0.1-0.9-0.4-1.1
			c-0.3-0.3-0.6-0.4-1.1-0.4c-0.4,0-0.8,0.1-1,0.2s-0.5,0.4-0.8,0.7l-0.7-0.6c0.3-0.4,0.7-0.7,1.1-0.9
			C1052.5,764.9,1053,764.8,1053.5,764.8z"/>
		<path d="M1061.2,764.8c0.6,0,1.1,0.1,1.5,0.4s0.7,0.7,0.9,1.2c0.2,0.5,0.3,1.1,0.3,1.8c0,0.9-0.1,1.6-0.3,2.2
			c-0.2,0.6-0.4,1.1-0.8,1.5c-0.4,0.4-0.8,0.7-1.4,1c-0.6,0.3-1.3,0.5-2,0.7l-0.2-0.8c0.8-0.2,1.5-0.5,2-0.8
			c0.5-0.3,0.9-0.7,1.2-1.2c0.3-0.5,0.4-1.1,0.4-1.8l0-0.6c0-0.7-0.1-1.3-0.2-1.7c-0.1-0.4-0.3-0.7-0.6-0.9c-0.2-0.2-0.6-0.3-1-0.3
			c-0.5,0-1,0.2-1.2,0.5c-0.3,0.3-0.4,0.8-0.4,1.5c0,0.6,0.1,1.1,0.4,1.4c0.3,0.3,0.7,0.4,1.1,0.4c0.4,0,0.8-0.1,1.1-0.4
			c0.3-0.2,0.6-0.6,0.9-1l0,0.9c-0.2,0.4-0.6,0.7-0.9,0.9s-0.8,0.4-1.2,0.4c-0.5,0-0.9-0.1-1.3-0.3c-0.4-0.2-0.7-0.5-0.9-0.9
			c-0.2-0.4-0.3-0.9-0.3-1.5c0-0.6,0.1-1.1,0.4-1.5c0.2-0.4,0.6-0.7,1-0.9C1060.2,764.9,1060.7,764.8,1061.2,764.8z"/>
	</g>
</g>
<g>
	<g>
		<path d="M1045.2,883.8c0.5,0,1,0.1,1.4,0.3c0.4,0.2,0.7,0.5,0.9,0.8c0.2,0.4,0.3,0.8,0.3,1.2c0,0.4-0.1,0.8-0.2,1.1
			c-0.1,0.4-0.4,0.8-0.6,1.2c-0.3,0.4-0.7,0.9-1.2,1.4c-0.5,0.5-1.1,1.1-1.8,1.7h4l-0.1,0.9h-5v-0.8c0.6-0.6,1.2-1.1,1.6-1.6
			s0.8-0.9,1.1-1.2c0.3-0.3,0.5-0.7,0.7-0.9c0.2-0.3,0.3-0.6,0.3-0.8c0.1-0.3,0.1-0.5,0.1-0.8c0-0.5-0.1-0.9-0.4-1.1
			c-0.3-0.3-0.6-0.4-1.1-0.4c-0.4,0-0.8,0.1-1,0.2s-0.5,0.4-0.8,0.7l-0.7-0.6c0.3-0.4,0.7-0.7,1.1-0.9
			C1044.1,883.9,1044.6,883.8,1045.2,883.8z"/>
		<path d="M1052.5,883.8c0.5,0,1,0.1,1.4,0.3c0.4,0.2,0.7,0.4,0.9,0.8c0.2,0.3,0.3,0.7,0.3,1.1c0,0.3-0.1,0.7-0.2,0.9
			c-0.2,0.3-0.4,0.5-0.6,0.7c-0.3,0.2-0.5,0.3-0.8,0.4c0.3,0,0.6,0.1,0.9,0.3s0.5,0.4,0.7,0.7c0.2,0.3,0.3,0.7,0.3,1.1
			c0,0.5-0.1,0.9-0.4,1.3s-0.6,0.7-1,0.9c-0.4,0.2-1,0.3-1.5,0.3c-0.5,0-0.9-0.1-1.4-0.3c-0.5-0.2-0.9-0.5-1.2-0.9l0.7-0.6
			c0.2,0.3,0.5,0.5,0.9,0.6c0.3,0.1,0.7,0.2,1,0.2c0.6,0,1.1-0.2,1.4-0.5c0.3-0.3,0.5-0.7,0.5-1.3c0-0.4-0.1-0.7-0.2-1
			c-0.2-0.2-0.4-0.4-0.6-0.5s-0.6-0.2-0.9-0.2h-0.7l0.1-0.8h0.5c0.3,0,0.5-0.1,0.8-0.2c0.2-0.1,0.4-0.3,0.6-0.5
			c0.2-0.2,0.2-0.5,0.2-0.8c0-0.5-0.2-0.8-0.5-1.1c-0.3-0.2-0.7-0.4-1.1-0.4c-0.4,0-0.7,0.1-1,0.2c-0.3,0.1-0.6,0.3-0.8,0.6
			l-0.6-0.6c0.4-0.3,0.7-0.6,1.2-0.7C1051.7,883.9,1052.1,883.8,1052.5,883.8z"/>
		<path d="M1060.3,883.8c0.9,0,1.6,0.4,2.1,1.1c0.5,0.8,0.7,1.8,0.7,3.2c0,1.4-0.2,2.5-0.7,3.2c-0.5,0.8-1.2,1.1-2.1,1.1
			c-0.9,0-1.6-0.4-2.1-1.1c-0.5-0.8-0.7-1.8-0.7-3.2c0-1.4,0.2-2.5,0.7-3.2S1059.4,883.8,1060.3,883.8z M1060.3,884.6
			c-0.5,0-0.9,0.3-1.2,0.8c-0.3,0.6-0.4,1.5-0.4,2.7c0,0.6,0,1.2,0.1,1.6c0.1,0.5,0.2,0.8,0.3,1.1c0.1,0.3,0.3,0.5,0.5,0.6
			s0.5,0.2,0.8,0.2c0.4,0,0.7-0.1,0.9-0.4c0.3-0.2,0.4-0.6,0.6-1.1c0.1-0.5,0.2-1.2,0.2-2c0-0.8-0.1-1.5-0.2-2s-0.3-0.9-0.5-1.1
			C1061,884.7,1060.7,884.6,1060.3,884.6z M1061.5,884.9l0.3,0.9l-2.7,5.5l-0.4-0.7L1061.5,884.9z"/>
	</g>
</g>
<g>
	<g>
		<path d="M1045.2,1000.8c0.5,0,1,0.1,1.4,0.3c0.4,0.2,0.7,0.5,0.9,0.8c0.2,0.4,0.3,0.8,0.3,1.2c0,0.4-0.1,0.8-0.2,1.1
			c-0.1,0.4-0.4,0.8-0.6,1.2c-0.3,0.4-0.7,0.9-1.2,1.4c-0.5,0.5-1.1,1.1-1.8,1.7h4l-0.1,0.9h-5v-0.8c0.6-0.6,1.2-1.1,1.6-1.6
			s0.8-0.9,1.1-1.2c0.3-0.3,0.5-0.7,0.7-0.9c0.2-0.3,0.3-0.6,0.3-0.8c0.1-0.3,0.1-0.5,0.1-0.8c0-0.5-0.1-0.9-0.4-1.1
			c-0.3-0.3-0.6-0.4-1.1-0.4c-0.4,0-0.8,0.1-1,0.2s-0.5,0.4-0.8,0.7l-0.7-0.6c0.3-0.4,0.7-0.7,1.1-0.9
			C1044.1,1000.9,1044.6,1000.8,1045.2,1000.8z"/>
		<path d="M1052.5,1000.8c0.5,0,1,0.1,1.4,0.3c0.4,0.2,0.7,0.4,0.9,0.8c0.2,0.3,0.3,0.7,0.3,1.1c0,0.3-0.1,0.7-0.2,0.9
			c-0.2,0.3-0.4,0.5-0.6,0.7c-0.3,0.2-0.5,0.3-0.8,0.4c0.3,0,0.6,0.1,0.9,0.3s0.5,0.4,0.7,0.7c0.2,0.3,0.3,0.7,0.3,1.1
			c0,0.5-0.1,0.9-0.4,1.3s-0.6,0.7-1,0.9c-0.4,0.2-1,0.3-1.5,0.3c-0.5,0-0.9-0.1-1.4-0.3c-0.5-0.2-0.9-0.5-1.2-0.9l0.7-0.6
			c0.2,0.3,0.5,0.5,0.9,0.6c0.3,0.1,0.7,0.2,1,0.2c0.6,0,1.1-0.2,1.4-0.5c0.3-0.3,0.5-0.7,0.5-1.3c0-0.4-0.1-0.7-0.2-1
			c-0.2-0.2-0.4-0.4-0.6-0.5s-0.6-0.2-0.9-0.2h-0.7l0.1-0.8h0.5c0.3,0,0.5-0.1,0.8-0.2c0.2-0.1,0.4-0.3,0.6-0.5
			c0.2-0.2,0.2-0.5,0.2-0.8c0-0.5-0.2-0.8-0.5-1.1c-0.3-0.2-0.7-0.4-1.1-0.4c-0.4,0-0.7,0.1-1,0.2c-0.3,0.1-0.6,0.3-0.8,0.6
			l-0.6-0.6c0.4-0.3,0.7-0.6,1.2-0.7C1051.7,1000.9,1052.1,1000.8,1052.5,1000.8z"/>
		<path d="M1061.2,1000.9v8.2h-1v-7.1l-1.9,1.2l-0.4-0.7l2.5-1.6H1061.2z M1063,1008.5v0.8h-4.9v-0.8H1063z"/>
	</g>
</g>
<g>
	<g>
		<path d="M1045.2,1167.8c0.5,0,1,0.1,1.4,0.3c0.4,0.2,0.7,0.5,0.9,0.8c0.2,0.4,0.3,0.8,0.3,1.2c0,0.4-0.1,0.8-0.2,1.1
			c-0.1,0.4-0.4,0.8-0.6,1.2c-0.3,0.4-0.7,0.9-1.2,1.4c-0.5,0.5-1.1,1.1-1.8,1.7h4l-0.1,0.9h-5v-0.8c0.6-0.6,1.2-1.1,1.6-1.6
			s0.8-0.9,1.1-1.2c0.3-0.3,0.5-0.7,0.7-0.9c0.2-0.3,0.3-0.6,0.3-0.8c0.1-0.3,0.1-0.5,0.1-0.8c0-0.5-0.1-0.9-0.4-1.1
			c-0.3-0.3-0.6-0.4-1.1-0.4c-0.4,0-0.8,0.1-1,0.2s-0.5,0.4-0.8,0.7l-0.7-0.6c0.3-0.4,0.7-0.7,1.1-0.9S1044.6,1167.8,1045.2,1167.8z
			"/>
		<path d="M1052.5,1167.8c0.5,0,1,0.1,1.4,0.3s0.7,0.4,0.9,0.8c0.2,0.3,0.3,0.7,0.3,1.1c0,0.3-0.1,0.7-0.2,0.9
			c-0.2,0.3-0.4,0.5-0.6,0.7c-0.3,0.2-0.5,0.3-0.8,0.4c0.3,0,0.6,0.1,0.9,0.3s0.5,0.4,0.7,0.7s0.3,0.7,0.3,1.1
			c0,0.5-0.1,0.9-0.4,1.3s-0.6,0.7-1,0.9c-0.4,0.2-1,0.3-1.5,0.3c-0.5,0-0.9-0.1-1.4-0.3c-0.5-0.2-0.9-0.5-1.2-0.9l0.7-0.6
			c0.2,0.3,0.5,0.5,0.9,0.6c0.3,0.1,0.7,0.2,1,0.2c0.6,0,1.1-0.2,1.4-0.5c0.3-0.3,0.5-0.7,0.5-1.3c0-0.4-0.1-0.7-0.2-1
			c-0.2-0.2-0.4-0.4-0.6-0.5s-0.6-0.2-0.9-0.2h-0.7l0.1-0.8h0.5c0.3,0,0.5-0.1,0.8-0.2s0.4-0.3,0.6-0.5c0.2-0.2,0.2-0.5,0.2-0.8
			c0-0.5-0.2-0.8-0.5-1.1c-0.3-0.2-0.7-0.4-1.1-0.4c-0.4,0-0.7,0.1-1,0.2c-0.3,0.1-0.6,0.3-0.8,0.6l-0.6-0.6
			c0.4-0.3,0.7-0.6,1.2-0.7C1051.7,1167.9,1052.1,1167.8,1052.5,1167.8z"/>
		<path d="M1059.9,1167.8c0.5,0,1,0.1,1.4,0.3c0.4,0.2,0.7,0.5,0.9,0.8c0.2,0.4,0.3,0.8,0.3,1.2c0,0.4-0.1,0.8-0.2,1.1
			c-0.1,0.4-0.4,0.8-0.6,1.2c-0.3,0.4-0.7,0.9-1.2,1.4c-0.5,0.5-1.1,1.1-1.8,1.7h4l-0.1,0.9h-5v-0.8c0.6-0.6,1.2-1.1,1.6-1.6
			s0.8-0.9,1.1-1.2c0.3-0.3,0.5-0.7,0.7-0.9c0.2-0.3,0.3-0.6,0.3-0.8c0.1-0.3,0.1-0.5,0.1-0.8c0-0.5-0.1-0.9-0.4-1.1
			c-0.3-0.3-0.6-0.4-1.1-0.4c-0.4,0-0.8,0.1-1,0.2s-0.5,0.4-0.8,0.7l-0.7-0.6c0.3-0.4,0.7-0.7,1.1-0.9S1059.4,1167.8,1059.9,1167.8z
			"/>
	</g>
</g>
<g>
	<g>
		<path d="M1078.1,1460.5c0.5-0.2,1-0.2,1.4-0.1c0.4,0.1,0.8,0.3,1.1,0.5c0.3,0.3,0.5,0.6,0.7,1.1c0.1,0.4,0.2,0.8,0.2,1.1
			s-0.1,0.8-0.2,1.3c-0.2,0.5-0.4,1-0.7,1.7c-0.3,0.6-0.7,1.3-1.2,2.2l3.8-1.3l0.2,0.9l-4.8,1.6l-0.3-0.8c0.4-0.8,0.8-1.5,1-2
			c0.3-0.6,0.5-1.1,0.7-1.5c0.2-0.4,0.3-0.8,0.4-1.1c0.1-0.3,0.1-0.6,0.1-0.9c0-0.3-0.1-0.5-0.2-0.8c-0.1-0.5-0.4-0.8-0.7-0.9
			c-0.3-0.2-0.7-0.2-1.2,0c-0.4,0.1-0.7,0.3-0.9,0.5c-0.2,0.2-0.4,0.5-0.5,0.9l-0.9-0.3c0.2-0.5,0.4-0.9,0.8-1.2
			C1077.1,1460.9,1077.6,1460.6,1078.1,1460.5z"/>
		<path d="M1085.5,1458c0.9-0.3,1.6-0.1,2.3,0.4c0.7,0.6,1.2,1.5,1.7,2.9c0.4,1.3,0.6,2.4,0.4,3.3c-0.2,0.9-0.7,1.4-1.6,1.7
			c-0.9,0.3-1.6,0.1-2.3-0.4s-1.2-1.5-1.7-2.9c-0.4-1.3-0.6-2.4-0.3-3.3C1084.1,1458.9,1084.6,1458.3,1085.5,1458z M1085.7,1458.8
			c-0.5,0.2-0.8,0.6-0.9,1.2c-0.1,0.6,0,1.5,0.4,2.7c0.2,0.6,0.4,1.1,0.6,1.5s0.4,0.7,0.6,0.9c0.2,0.2,0.4,0.4,0.7,0.4
			c0.2,0.1,0.5,0,0.8,0c0.3-0.1,0.6-0.3,0.7-0.6c0.2-0.3,0.2-0.7,0.2-1.3c0-0.5-0.2-1.2-0.4-2c-0.3-0.8-0.5-1.4-0.8-1.9
			c-0.3-0.5-0.6-0.8-0.9-0.9C1086.4,1458.7,1086.1,1458.7,1085.7,1458.8z M1087,1458.7l0.5,0.8l-0.8,6l-0.6-0.6L1087,1458.7z"/>
		<path d="M1092.1,1455.8c0.5-0.2,1-0.2,1.4-0.1c0.4,0.1,0.8,0.3,1.1,0.5c0.3,0.3,0.5,0.6,0.7,1.1c0.1,0.4,0.2,0.8,0.2,1.1
			c0,0.4-0.1,0.8-0.2,1.3c-0.2,0.5-0.4,1-0.7,1.7c-0.3,0.6-0.7,1.3-1.2,2.2l3.8-1.3l0.2,0.9l-4.8,1.6l-0.3-0.8c0.4-0.8,0.8-1.5,1-2
			s0.5-1.1,0.7-1.5c0.2-0.4,0.3-0.8,0.4-1.1s0.1-0.6,0.1-0.9c0-0.3-0.1-0.5-0.2-0.8c-0.1-0.5-0.4-0.8-0.7-0.9
			c-0.3-0.2-0.7-0.2-1.2,0c-0.4,0.1-0.7,0.3-0.9,0.5s-0.4,0.5-0.5,0.9l-0.9-0.3c0.2-0.5,0.4-0.9,0.8-1.2
			C1091.1,1456.2,1091.6,1456,1092.1,1455.8z"/>
	</g>
</g>
<g>
	<g>
		<path d="M1132,1621.4c0.5-0.2,1-0.2,1.4-0.1c0.4,0.1,0.8,0.2,1.1,0.5c0.3,0.3,0.5,0.6,0.7,1.1c0.1,0.4,0.2,0.8,0.2,1.1
			s-0.1,0.8-0.2,1.3c-0.2,0.5-0.4,1-0.7,1.7c-0.3,0.6-0.7,1.3-1.2,2.2l3.8-1.3l0.2,0.9l-4.8,1.6l-0.3-0.8c0.4-0.8,0.8-1.5,1-2
			s0.5-1.1,0.7-1.5c0.2-0.4,0.3-0.8,0.4-1.1c0.1-0.3,0.1-0.6,0.1-0.9c0-0.3-0.1-0.5-0.2-0.8c-0.1-0.5-0.4-0.8-0.7-0.9
			c-0.3-0.2-0.7-0.2-1.2,0c-0.4,0.1-0.7,0.3-0.9,0.5c-0.2,0.2-0.4,0.5-0.5,0.9l-0.9-0.3c0.2-0.5,0.4-0.9,0.8-1.2
			C1131.1,1621.8,1131.5,1621.6,1132,1621.4z"/>
		<path d="M1139.4,1619c0.9-0.3,1.6-0.1,2.3,0.4c0.7,0.6,1.2,1.5,1.7,2.9c0.4,1.3,0.6,2.4,0.4,3.3c-0.2,0.9-0.7,1.4-1.6,1.7
			c-0.9,0.3-1.6,0.1-2.3-0.4c-0.7-0.6-1.2-1.5-1.7-2.9c-0.4-1.3-0.6-2.4-0.3-3.3C1138,1619.8,1138.5,1619.3,1139.4,1619z
			 M1139.7,1619.8c-0.5,0.2-0.8,0.6-0.9,1.2s0,1.5,0.4,2.7c0.2,0.6,0.4,1.1,0.6,1.5s0.4,0.7,0.6,0.9c0.2,0.2,0.4,0.4,0.7,0.4
			c0.2,0.1,0.5,0,0.8-0.1c0.3-0.1,0.6-0.3,0.7-0.6c0.2-0.3,0.2-0.7,0.2-1.3c0-0.5-0.2-1.2-0.4-2c-0.3-0.8-0.5-1.4-0.8-1.9
			c-0.3-0.5-0.6-0.8-0.9-0.9C1140.4,1619.7,1140,1619.6,1139.7,1619.8z M1140.9,1619.7l0.5,0.8l-0.8,6l-0.6-0.6L1140.9,1619.7z"/>
		<path d="M1146,1616.8c0.5-0.2,1-0.2,1.4-0.2c0.4,0.1,0.8,0.2,1.1,0.4c0.3,0.2,0.5,0.5,0.6,0.9c0.1,0.3,0.1,0.6,0.1,1
			s-0.2,0.6-0.4,0.8c-0.2,0.2-0.4,0.4-0.7,0.6c0.3-0.1,0.6-0.1,1,0c0.3,0.1,0.6,0.2,0.9,0.4s0.5,0.5,0.6,1c0.2,0.5,0.2,0.9,0.1,1.4
			c-0.1,0.4-0.3,0.9-0.7,1.2c-0.3,0.4-0.8,0.6-1.4,0.8c-0.4,0.1-0.9,0.2-1.4,0.2c-0.5,0-1-0.2-1.4-0.4l0.5-0.8
			c0.3,0.2,0.7,0.3,1,0.3c0.4,0,0.7,0,1-0.1c0.6-0.2,1-0.5,1.2-0.9c0.2-0.4,0.2-0.9,0.1-1.4c-0.1-0.4-0.3-0.7-0.5-0.8
			s-0.5-0.3-0.8-0.3c-0.3,0-0.6,0-0.9,0.1l-0.7,0.2l-0.1-0.8l0.5-0.2c0.3-0.1,0.5-0.2,0.7-0.4s0.3-0.4,0.4-0.7
			c0.1-0.3,0.1-0.5,0-0.9c-0.1-0.4-0.4-0.7-0.8-0.9c-0.4-0.1-0.8-0.1-1.2,0c-0.4,0.1-0.6,0.3-0.9,0.5s-0.4,0.5-0.6,0.8l-0.7-0.4
			c0.2-0.4,0.5-0.8,0.9-1.1C1145.3,1617.1,1145.6,1616.9,1146,1616.8z"/>
	</g>
</g>
<g>
	<g>
		<path d="M1169.8,1733.5c0.5-0.2,1-0.2,1.4-0.1c0.4,0.1,0.8,0.3,1.1,0.5s0.5,0.6,0.7,1.1c0.1,0.4,0.2,0.8,0.2,1.1
			c0,0.4-0.1,0.8-0.2,1.3c-0.2,0.5-0.4,1-0.7,1.7s-0.7,1.3-1.2,2.2l3.8-1.3l0.2,0.9l-4.8,1.6l-0.3-0.8c0.4-0.8,0.8-1.5,1-2
			s0.5-1.1,0.7-1.5c0.2-0.4,0.3-0.8,0.4-1.1s0.1-0.6,0.1-0.9c0-0.3-0.1-0.5-0.2-0.8c-0.1-0.5-0.4-0.8-0.7-0.9
			c-0.3-0.2-0.7-0.2-1.2,0c-0.4,0.1-0.7,0.3-0.9,0.5c-0.2,0.2-0.4,0.5-0.5,0.9l-0.9-0.3c0.2-0.5,0.4-0.9,0.8-1.2
			C1168.8,1733.9,1169.3,1733.7,1169.8,1733.5z"/>
		<path d="M1177.2,1731.1c0.9-0.3,1.6-0.1,2.3,0.4c0.7,0.6,1.2,1.5,1.7,2.9c0.4,1.3,0.6,2.4,0.4,3.3c-0.2,0.9-0.7,1.4-1.6,1.7
			c-0.9,0.3-1.6,0.1-2.3-0.4c-0.7-0.6-1.2-1.5-1.7-2.9c-0.4-1.3-0.6-2.4-0.3-3.3C1175.8,1731.9,1176.3,1731.4,1177.2,1731.1z
			 M1177.5,1731.9c-0.5,0.2-0.8,0.6-0.9,1.2c-0.1,0.6,0,1.5,0.4,2.7c0.2,0.6,0.4,1.1,0.6,1.5s0.4,0.7,0.6,0.9
			c0.2,0.2,0.4,0.4,0.7,0.4c0.2,0.1,0.5,0,0.8,0c0.3-0.1,0.6-0.3,0.7-0.6c0.2-0.3,0.2-0.7,0.2-1.3c0-0.5-0.2-1.2-0.4-2
			c-0.3-0.8-0.5-1.4-0.8-1.9c-0.3-0.5-0.6-0.8-0.9-0.9C1178.2,1731.7,1177.8,1731.7,1177.5,1731.9z M1178.7,1731.8l0.5,0.8l-0.8,6
			l-0.6-0.6L1178.7,1731.8z"/>
		<path d="M1183.9,1728.9l0.9,0.1l-0.5,5.8l4.3-1.4l0.3,0.8l-5.3,1.8l-0.2-0.7L1183.9,1728.9z M1186.9,1731.4l1.7,5l-0.9,0.3
			l-0.8-2.6l-0.7-2.5L1186.9,1731.4z"/>
	</g>
</g>
<g>
	<g>
		<path d="M1222.2,1889.6c0.5-0.2,1-0.2,1.4-0.1c0.4,0.1,0.8,0.3,1.1,0.5s0.5,0.6,0.7,1.1c0.1,0.4,0.2,0.8,0.2,1.1
			c0,0.4-0.1,0.8-0.2,1.3c-0.2,0.5-0.4,1-0.7,1.7c-0.3,0.6-0.7,1.3-1.2,2.2l3.8-1.3l0.2,0.9l-4.8,1.6l-0.3-0.8c0.4-0.8,0.8-1.5,1-2
			c0.3-0.6,0.5-1.1,0.7-1.5c0.2-0.4,0.3-0.8,0.4-1.1s0.1-0.6,0.1-0.9c0-0.3-0.1-0.5-0.2-0.8c-0.1-0.5-0.4-0.8-0.7-0.9
			c-0.3-0.2-0.7-0.2-1.2,0c-0.4,0.1-0.7,0.3-0.9,0.5c-0.2,0.2-0.4,0.5-0.5,0.9l-0.9-0.3c0.2-0.5,0.4-0.9,0.8-1.2
			C1221.2,1890.1,1221.6,1889.8,1222.2,1889.6z"/>
		<path d="M1229.5,1887.2c0.9-0.3,1.6-0.1,2.3,0.4c0.7,0.6,1.2,1.5,1.7,2.9c0.4,1.3,0.6,2.4,0.4,3.3c-0.2,0.9-0.7,1.4-1.6,1.7
			c-0.9,0.3-1.6,0.1-2.3-0.4c-0.7-0.6-1.2-1.5-1.7-2.9c-0.4-1.3-0.6-2.4-0.3-3.3C1228.1,1888.1,1228.7,1887.5,1229.5,1887.2z
			 M1229.8,1888c-0.5,0.2-0.8,0.6-0.9,1.2c-0.1,0.6,0,1.5,0.4,2.7c0.2,0.6,0.4,1.1,0.6,1.5s0.4,0.7,0.6,0.9c0.2,0.2,0.4,0.4,0.7,0.4
			c0.2,0.1,0.5,0,0.8,0c0.3-0.1,0.6-0.3,0.7-0.6c0.2-0.3,0.2-0.7,0.2-1.3c0-0.5-0.2-1.2-0.4-2c-0.3-0.8-0.5-1.4-0.8-1.9
			c-0.3-0.5-0.6-0.8-0.9-0.9C1230.5,1887.9,1230.2,1887.9,1229.8,1888z M1231.1,1887.9l0.5,0.8l-0.8,6l-0.6-0.6L1231.1,1887.9z"/>
		<path d="M1238.8,1884.3l0.1,0.8l-3.2,1.1l0.8,2.5c0.2-0.2,0.4-0.4,0.6-0.5c0.2-0.1,0.4-0.2,0.7-0.3c0.4-0.1,0.9-0.2,1.2-0.1
			c0.4,0.1,0.7,0.3,1.1,0.6c0.3,0.3,0.5,0.7,0.7,1.3c0.2,0.5,0.2,1,0.1,1.5c-0.1,0.5-0.3,0.9-0.6,1.3s-0.8,0.6-1.3,0.8
			c-0.5,0.2-0.9,0.2-1.4,0.2c-0.4,0-0.9-0.2-1.3-0.4l0.4-0.8c0.3,0.2,0.7,0.3,1,0.3c0.3,0,0.7,0,1-0.1c0.5-0.2,0.9-0.5,1.1-0.9
			c0.2-0.4,0.2-0.9,0-1.6c-0.1-0.4-0.3-0.8-0.5-1c-0.2-0.2-0.4-0.3-0.7-0.4c-0.3,0-0.5,0-0.8,0.1c-0.2,0.1-0.4,0.2-0.6,0.3
			c-0.2,0.1-0.4,0.2-0.6,0.4l-0.8,0.3l-1.3-4L1238.8,1884.3z"/>
	</g>
</g>
<g>
	<g>
		<path d="M1102.3,2069.6c0.5-0.2,1-0.2,1.4-0.1c0.4,0.1,0.8,0.2,1.1,0.5c0.3,0.3,0.5,0.6,0.7,1.1c0.1,0.4,0.2,0.8,0.2,1.1
			s-0.1,0.8-0.2,1.3c-0.2,0.5-0.4,1-0.7,1.7c-0.3,0.6-0.7,1.3-1.2,2.2l3.8-1.3l0.2,0.9l-4.8,1.6l-0.3-0.8c0.4-0.8,0.8-1.5,1-2
			s0.5-1.1,0.7-1.5c0.2-0.4,0.3-0.8,0.4-1.1c0.1-0.3,0.1-0.6,0.1-0.9c0-0.3-0.1-0.5-0.2-0.8c-0.1-0.5-0.4-0.8-0.7-0.9
			c-0.3-0.2-0.7-0.2-1.2,0c-0.4,0.1-0.7,0.3-0.9,0.5c-0.2,0.2-0.4,0.5-0.5,0.9l-0.9-0.3c0.2-0.5,0.4-0.9,0.8-1.2
			C1101.3,2070,1101.7,2069.7,1102.3,2069.6z"/>
		<path d="M1109.7,2067.1c0.9-0.3,1.6-0.1,2.3,0.4c0.7,0.6,1.2,1.5,1.7,2.9c0.4,1.3,0.6,2.4,0.4,3.3c-0.2,0.9-0.7,1.4-1.6,1.7
			c-0.9,0.3-1.6,0.1-2.3-0.4c-0.7-0.6-1.2-1.5-1.7-2.9c-0.4-1.3-0.6-2.4-0.3-3.3C1108.2,2068,1108.8,2067.4,1109.7,2067.1z
			 M1109.9,2067.9c-0.5,0.2-0.8,0.6-0.9,1.2s0,1.5,0.4,2.7c0.2,0.6,0.4,1.1,0.6,1.5s0.4,0.7,0.6,0.9c0.2,0.2,0.4,0.4,0.7,0.4
			c0.2,0.1,0.5,0,0.8-0.1c0.3-0.1,0.6-0.3,0.7-0.6c0.2-0.3,0.2-0.7,0.2-1.3c0-0.5-0.2-1.2-0.4-2c-0.3-0.8-0.5-1.4-0.8-1.9
			c-0.3-0.5-0.6-0.8-0.9-0.9C1110.6,2067.8,1110.3,2067.8,1109.9,2067.9z M1111.2,2067.8l0.5,0.8l-0.8,6l-0.6-0.6L1111.2,2067.8z"/>
		<path d="M1117.1,2064.7c0.3-0.1,0.6-0.2,0.9-0.2c0.3,0,0.6,0,0.8,0.1l-0.2,0.8c-0.2-0.1-0.4-0.1-0.7-0.1c-0.2,0-0.4,0.1-0.7,0.1
			c-0.4,0.1-0.7,0.4-1,0.8c-0.2,0.4-0.3,0.9-0.3,1.4c0,0.6,0.1,1.2,0.4,1.9l0.1,0.4c0.3,1,0.7,1.7,1.1,2c0.4,0.4,0.9,0.5,1.5,0.3
			c0.5-0.2,0.8-0.5,1-0.9c0.1-0.4,0.1-1-0.1-1.6c-0.1-0.4-0.3-0.8-0.5-1c-0.2-0.2-0.4-0.3-0.7-0.4c-0.2,0-0.5,0-0.8,0.1
			c-0.4,0.1-0.7,0.4-1,0.7c-0.2,0.4-0.4,0.8-0.5,1.2l-0.3-0.9c0.1-0.5,0.3-1,0.6-1.3c0.3-0.3,0.6-0.5,1.1-0.7
			c0.4-0.1,0.8-0.2,1.2-0.1c0.4,0.1,0.8,0.3,1.1,0.6s0.6,0.7,0.8,1.3c0.2,0.6,0.2,1.1,0.2,1.6c-0.1,0.5-0.3,0.9-0.6,1.3
			c-0.3,0.4-0.7,0.6-1.2,0.8c-0.5,0.2-0.9,0.2-1.3,0.1c-0.4-0.1-0.8-0.2-1.1-0.5c-0.3-0.3-0.6-0.6-0.9-1.1s-0.5-1-0.7-1.6
			c-0.3-0.9-0.4-1.7-0.4-2.4s0.2-1.4,0.5-1.9C1116,2065.2,1116.4,2064.9,1117.1,2064.7z"/>
	</g>
</g>
<g>
	<g>
		<path d="M956.3,1629.2c0.5-0.2,1-0.2,1.4-0.1c0.4,0.1,0.8,0.3,1.1,0.5s0.5,0.6,0.7,1.1c0.1,0.4,0.2,0.8,0.2,1.1
			c0,0.4-0.1,0.8-0.2,1.3c-0.2,0.5-0.4,1-0.7,1.7s-0.7,1.3-1.2,2.2l3.8-1.3l0.2,0.9l-4.8,1.6l-0.3-0.8c0.4-0.8,0.8-1.5,1-2
			s0.5-1.1,0.7-1.5c0.2-0.4,0.3-0.8,0.4-1.1s0.1-0.6,0.1-0.9c0-0.3-0.1-0.5-0.2-0.8c-0.1-0.5-0.4-0.8-0.7-0.9
			c-0.3-0.2-0.7-0.2-1.2,0c-0.4,0.1-0.7,0.3-0.9,0.5c-0.2,0.2-0.4,0.5-0.5,0.9l-0.9-0.3c0.2-0.5,0.4-0.9,0.8-1.2
			C955.3,1629.6,955.7,1629.4,956.3,1629.2z"/>
		<path d="M964.6,1626.6l2.6,7.8l-1,0.3l-2.2-6.7l-1.5,1.7l-0.7-0.6l1.9-2.3L964.6,1626.6z M968.6,1633.3l0.3,0.8l-4.6,1.5l-0.3-0.8
			L968.6,1633.3z"/>
		<path d="M971.6,1624.3l2.6,7.8l-1,0.3l-2.2-6.7l-1.5,1.7l-0.7-0.6l1.9-2.3L971.6,1624.3z M975.6,1631l0.3,0.8l-4.6,1.5l-0.3-0.8
			L975.6,1631z"/>
	</g>
</g>
<g>
	<g>
		<path d="M1009.5,1788c0.5-0.2,1-0.2,1.4-0.1c0.4,0.1,0.8,0.3,1.1,0.5c0.3,0.3,0.5,0.6,0.7,1.1c0.1,0.4,0.2,0.8,0.2,1.1
			s-0.1,0.8-0.2,1.3c-0.2,0.5-0.4,1-0.7,1.7c-0.3,0.6-0.7,1.3-1.2,2.2l3.8-1.3l0.2,0.9l-4.8,1.6l-0.3-0.8c0.4-0.8,0.8-1.5,1-2
			c0.3-0.6,0.5-1.1,0.7-1.5c0.2-0.4,0.3-0.8,0.4-1.1c0.1-0.3,0.1-0.6,0.1-0.9c0-0.3-0.1-0.5-0.2-0.8c-0.1-0.5-0.4-0.8-0.7-0.9
			c-0.3-0.2-0.7-0.2-1.2,0c-0.4,0.1-0.7,0.3-0.9,0.5c-0.2,0.2-0.4,0.5-0.5,0.9l-0.9-0.3c0.2-0.5,0.4-0.9,0.8-1.2
			C1008.5,1788.4,1009,1788.2,1009.5,1788z"/>
		<path d="M1017.8,1785.4l2.6,7.8l-1,0.3l-2.2-6.8l-1.5,1.7l-0.7-0.6l1.9-2.3L1017.8,1785.4z M1021.9,1792.1l0.3,0.8l-4.6,1.5
			l-0.3-0.8L1021.9,1792.1z"/>
		<path d="M1023.9,1783.2c0.9-0.3,1.6-0.1,2.3,0.4c0.7,0.6,1.2,1.5,1.7,2.9c0.4,1.3,0.6,2.4,0.4,3.3c-0.2,0.9-0.7,1.4-1.6,1.7
			c-0.9,0.3-1.6,0.1-2.3-0.4c-0.7-0.6-1.2-1.5-1.7-2.9c-0.4-1.3-0.6-2.4-0.3-3.3C1022.5,1784.1,1023,1783.5,1023.9,1783.2z
			 M1024.1,1784c-0.5,0.2-0.8,0.6-0.9,1.2c-0.1,0.6,0,1.5,0.4,2.7c0.2,0.6,0.4,1.1,0.6,1.5c0.2,0.4,0.4,0.7,0.6,0.9
			c0.2,0.2,0.5,0.4,0.7,0.4s0.5,0,0.8,0c0.3-0.1,0.6-0.3,0.7-0.6c0.2-0.3,0.2-0.7,0.2-1.3c0-0.5-0.2-1.2-0.4-2
			c-0.3-0.8-0.5-1.4-0.8-1.9c-0.3-0.5-0.6-0.8-0.9-0.9S1024.5,1783.9,1024.1,1784z M1025.4,1783.9l0.5,0.8l-0.8,6l-0.6-0.6
			L1025.4,1783.9z"/>
	</g>
</g>
<g>
	<g>
		<path d="M1124.7,1953.9l2.4,12.6l-2.6,0.9l-4-8.5l1.8,9.2l-2.7,0.9l-5.5-11.6l2.3-0.8l4,9.7l-1.7-8.9l2.3-0.7l3.9,8.2l-2.4-10.2
			L1124.7,1953.9z"/>
		<path d="M1130.9,1951.5c0.8-0.3,1.6-0.4,2.2-0.4c0.7,0,1.3,0.2,1.9,0.4l-0.7,1.8c-0.4-0.2-0.9-0.3-1.4-0.3c-0.5,0-0.9,0.1-1.4,0.2
			c-0.6,0.2-1,0.5-1.4,1s-0.6,1.1-0.7,1.8c-0.1,0.8,0.1,1.7,0.4,2.7c0.3,1.1,0.8,1.9,1.3,2.4c0.5,0.6,1,0.9,1.6,1.1s1.2,0.1,1.7-0.1
			c0.6-0.2,1.1-0.5,1.5-0.9s0.6-0.7,0.9-1.1l1.6,1.1c-0.3,0.6-0.7,1.1-1.2,1.6c-0.5,0.5-1.3,0.9-2.2,1.2c-1.1,0.3-2.1,0.4-3.1,0.2
			c-1-0.2-1.9-0.7-2.7-1.5c-0.8-0.8-1.4-1.9-1.9-3.2c-0.4-1.4-0.6-2.6-0.4-3.7c0.2-1.1,0.6-2,1.3-2.8
			C1129,1952.4,1129.9,1951.9,1130.9,1951.5z"/>
	</g>
</g>
<g>
	<g>
		<path d="M1142.6,2003.7l2.4,12.6l-2.6,0.9l-4-8.5l1.8,9.2l-2.7,0.9l-5.5-11.6l2.3-0.8l4,9.7l-1.7-8.9l2.3-0.7l3.9,8.2l-2.4-10.2
			L1142.6,2003.7z"/>
		<path d="M1148.8,2001.4c0.8-0.3,1.6-0.4,2.2-0.4c0.7,0,1.3,0.2,1.9,0.4l-0.7,1.8c-0.4-0.2-0.9-0.3-1.4-0.3c-0.5,0-0.9,0.1-1.4,0.2
			c-0.6,0.2-1,0.5-1.4,1c-0.4,0.5-0.6,1.1-0.7,1.8c-0.1,0.8,0.1,1.7,0.4,2.7c0.3,1.1,0.8,1.9,1.3,2.4c0.5,0.6,1,0.9,1.6,1.1
			c0.6,0.1,1.2,0.1,1.7-0.1c0.6-0.2,1.1-0.5,1.5-0.9c0.3-0.4,0.6-0.7,0.9-1.1l1.6,1.1c-0.3,0.6-0.7,1.1-1.2,1.6
			c-0.5,0.5-1.3,0.9-2.2,1.2c-1.1,0.3-2.1,0.4-3.1,0.2c-1-0.2-1.9-0.7-2.7-1.5c-0.8-0.8-1.4-1.9-1.9-3.2c-0.4-1.4-0.6-2.6-0.4-3.7
			c0.2-1.1,0.6-2,1.3-2.8S1147.8,2001.7,1148.8,2001.4z"/>
	</g>
</g>
</svg>
