<?xml version="1.0" encoding="UTF-8" standalone="no"?>
<!-- Generator: Adobe Illustrator 25.2.1, SVG Export Plug-In . SVG Version: 6.00 Build 0)  -->

<svg
        version="1.1"
        id="Layer_1"
        inkscape:version="1.1.2 (b8e25be833, 2022-02-05)"
        x="0px"
        y="0px"
        viewBox="0 0 1400 2200"
        style="enable-background:new 0 0 1400 2200;"
        xml:space="preserve"
        sodipodi:docname="first_floor.svg"
        xmlns:inkscape="http://www.inkscape.org/namespaces/inkscape"
        xmlns:sodipodi="http://sodipodi.sourceforge.net/DTD/sodipodi-0.dtd"
        xmlns="http://www.w3.org/2000/svg"
        xmlns:svg="http://www.w3.org/2000/svg"><defs
   id="defs751" />
    <style
            type="text/css"
            id="style381">
	.st0{fill:#999999;stroke:#000000;stroke-miterlimit:10;}
	.st1{fill:#999999;stroke:#000000;stroke-width:1;stroke-miterlimit:10.0002;}
	.st2{fill:#FFC62A;stroke:#000000;stroke-miterlimit:10;}
	.st3{fill:#FFF6AA;stroke:#000000;stroke-miterlimit:10;}
	.st4{fill:#FFC62A;stroke:#000000;stroke-width:1;stroke-miterlimit:9.9998;}
	.st5{fill:#FFF6AA;stroke:#000000;stroke-width:1;stroke-miterlimit:9.9998;}
	.st6{fill:#74BEFF;stroke:#000000;stroke-width:1;stroke-miterlimit:9.9998;}
	.st7{fill:#74BEFF;stroke:#000000;stroke-miterlimit:10;}
	.st8{fill:none;stroke:#000000;stroke-width:0.5;stroke-miterlimit:9.9998;}
	.st9{fill:#999999;stroke:#000000;stroke-width:0.5;stroke-miterlimit:9.9998;}
	.st10{fill:#999999;stroke:#000000;stroke-width:0.5;stroke-miterlimit:10;}
	.st11{fill:#FFF6AA;}
	.st12{fill:#74BEFF;}
	.st13{fill:#FFC62A;}
	.st14{fill:none;stroke:#000000;stroke-miterlimit:10;}
</style>
    <sodipodi:namedview
            bordercolor="#666666"
            borderopacity="1.0"
            id="namedview2041"
            inkscape:current-layer="Layer_1"
            inkscape:cx="525.5"
            inkscape:cy="343"
            inkscape:pagecheckerboard="0"
            inkscape:pageopacity="0.0"
            inkscape:pageshadow="2"
            inkscape:window-height="1017"
            inkscape:window-maximized="1"
            inkscape:window-width="1920"
            inkscape:window-x="-8"
            inkscape:window-y="-8"
            inkscape:zoom="1"
            pagecolor="#ffffff"
            showgrid="false">
	</sodipodi:namedview>
    <g
            id="Layer_2_1_">
	<g
            id="Layer_1-2">
		<rect
                id="rect1608"
                x="791.5"
                y="31.5"
                class="st0"
                width="373"
                height="1226"/>
        <rect
                id="rect1610"
                x="791.5"
                y="1257.5"
                class="st0"
                width="373"
                height="286"/>

        <rect
                id="rect1612"
                x="1002.6"
                y="1446.7"
                transform="matrix(0.9505 -0.3108 0.3108 0.9505 -501.3736 443.5576)"
                class="st1"
                width="277.2"
                height="696.6"/>

        <rect
                id="rect1614"
                x="814.5"
                y="1521.1"
                transform="matrix(0.9505 -0.3108 0.3108 0.9505 -455.4766 350.5392)"
                class="st1"
                width="115.5"
                height="166.8"/>
        <rect
                id="rect1616"
                x="18.5"
                y="1099.5"
                class="st0"
                width="773"
                height="263"/>
        <rect
                id="rect1618"
                x="18.5"
                y="247.5"
                class="st0"
                width="426"
                height="1887"/>
	</g>
</g>


    <rect
            id="rect1662"
            x="917.3"
            y="1486.9"
            transform="matrix(0.9495 -0.3137 0.3137 0.9495 -436.4106 383.0108)"
            class="st4"
            width="109.2"
            height="121.2"/>


    <rect
            id="rect1676"
            x="791.1"
            y="1525.3"
            transform="matrix(0.9495 -0.3137 0.3137 0.9495 -437.703 343.5592)"
            class="st8"
            width="115.1"
            height="13"/>
    <rect
            id="rect1678"
            x="795"
            y="1537.9"
            transform="matrix(0.9495 -0.3137 0.3137 0.9495 -441.4643 345.4135)"
            class="st8"
            width="115.1"
            height="13"/>
    <rect
            id="rect1680"
            x="799"
            y="1550.1"
            transform="matrix(0.9495 -0.3137 0.3137 0.9495 -445.0872 347.2909)"
            class="st8"
            width="115.1"
            height="13"/>
    <rect
            id="rect1682"
            x="803"
            y="1562.4"
            transform="matrix(0.9495 -0.3137 0.3137 0.9495 -448.7439 349.1663)"
            class="st8"
            width="115.1"
            height="13"/>
    <rect
            id="rect1684"
            x="807"
            y="1574.3"
            transform="matrix(0.9495 -0.3137 0.3137 0.9495 -452.2753 351.0206)"
            class="st8"
            width="115.1"
            height="13"/>
    <rect
            id="rect1686"
            x="811.4"
            y="1586.4"
            transform="matrix(0.9495 -0.3137 0.3137 0.9495 -455.8535 353.0089)"
            class="st8"
            width="115.1"
            height="13"/>
    <rect
            id="rect1688"
            x="815.4"
            y="1598.4"
            transform="matrix(0.9495 -0.3137 0.3137 0.9495 -459.4159 354.8695)"
            class="st8"
            width="115.1"
            height="13"/>
    <rect
            id="rect1690"
            x="819.4"
            y="1611.2"
            transform="matrix(0.9495 -0.3137 0.3137 0.9495 -463.2288 356.7722)"
            class="st8"
            width="115.1"
            height="13"/>
    <rect
            id="rect1692"
            x="845.9"
            y="1523.7"
            transform="matrix(0.9495 -0.3137 0.3137 0.9495 -450.8001 349.5839)"
            class="st9"
            width="29.8"
            height="103.6"/>
    <rect
            id="rect1694"
            x="908.5"
            y="31.5"
            class="st0"
            width="16"
            height="124"/>
    <rect
            id="rect1696"
            x="892.5"
            y="31.5"
            class="st0"
            width="16"
            height="124"/>
    <rect
            id="rect1698"
            x="876.5"
            y="31.5"
            class="st10"
            width="16"
            height="124"/>
    <rect
            id="rect1700"
            x="860.5"
            y="31.5"
            class="st0"
            width="16"
            height="124"/>
    <rect
            id="rect1702"
            x="844.5"
            y="31.5"
            class="st0"
            width="16"
            height="124"/>
    <rect
            id="rect1704"
            x="844.5"
            y="72.5"
            class="st0"
            width="80"
            height="36"/>


    <rect
            id="rect1730"
            x="193.6"
            y="1566.7"
            class="st0"
            width="107.9"
            height="14.1"/>
    <rect
            id="rect1732"
            x="193.6"
            y="1552.6"
            class="st0"
            width="107.9"
            height="14.1"/>
    <rect
            id="rect1734"
            x="193.7"
            y="1538.5"
            class="st10"
            width="107.9"
            height="14.1"/>
    <rect
            id="rect1736"
            x="193.6"
            y="1524.5"
            class="st0"
            width="107.9"
            height="14.1"/>
    <rect
            id="rect1738"
            x="193.6"
            y="1510.4"
            class="st0"
            width="107.9"
            height="14.1"/>
    <rect
            id="rect1740"
            x="234.6"
            y="1510.4"
            class="st0"
            width="31.3"
            height="70.3"/>
    <line
            id="line1742"
            class="st14"
            x1="193.5"
            y1="1490.5"
            x2="301.5"
            y2="1490.5"/>

    <g
            id="221"><g
     id="_x32_21">
	<rect
            id="rect1744"
            x="791.5"
            y="155.5"
            class="st3"
            width="133"
            height="117"/>
	<g
            id="g1754">
		<g
                id="g1752">
			<path
                    id="path1746"
                    d="M803.7,164.7c0.5,0,1,0.1,1.4,0.3s0.7,0.5,0.9,0.8c0.2,0.4,0.3,0.8,0.3,1.2s-0.1,0.8-0.2,1.1     c-0.1,0.4-0.4,0.8-0.6,1.2c-0.3,0.4-0.7,0.9-1.2,1.4s-1.1,1.1-1.8,1.7h4l-0.1,0.9h-5v-0.8c0.6-0.6,1.2-1.1,1.6-1.6     s0.8-0.9,1.1-1.2s0.5-0.7,0.7-0.9c0.2-0.3,0.3-0.6,0.3-0.8c0.1-0.3,0.1-0.5,0.1-0.8c0-0.5-0.1-0.9-0.4-1.1     c-0.3-0.3-0.6-0.4-1.1-0.4c-0.4,0-0.8,0.1-1,0.2s-0.5,0.4-0.8,0.7l-0.7-0.6c0.3-0.4,0.7-0.7,1.1-0.9     C802.6,164.8,803.1,164.7,803.7,164.7z"/>
            <path
                    id="path1748"
                    d="M811.1,164.7c0.5,0,1,0.1,1.4,0.3s0.7,0.5,0.9,0.8c0.2,0.4,0.3,0.8,0.3,1.2s-0.1,0.8-0.2,1.1     c-0.1,0.4-0.4,0.8-0.6,1.2c-0.3,0.4-0.7,0.9-1.2,1.4s-1.1,1.1-1.8,1.7h4l-0.1,0.9h-5v-0.8c0.6-0.6,1.2-1.1,1.6-1.6     s0.8-0.9,1.1-1.2s0.5-0.7,0.7-0.9c0.2-0.3,0.3-0.6,0.3-0.8c0.1-0.3,0.1-0.5,0.1-0.8c0-0.5-0.1-0.9-0.4-1.1     c-0.3-0.3-0.6-0.4-1.1-0.4c-0.4,0-0.8,0.1-1,0.2s-0.5,0.4-0.8,0.7l-0.7-0.6c0.3-0.4,0.7-0.7,1.1-0.9     C810,164.8,810.5,164.7,811.1,164.7z"/>
            <path
                    id="path1750"
                    d="M819.8,164.8v8.2h-1v-7l-1.9,1.2l-0.4-0.7l2.5-1.6L819.8,164.8L819.8,164.8z M821.5,172.5v0.8h-4.9v-0.8     H821.5z"/>
		</g>
	</g>
</g>
        <g
                id="g1762">
	<g
            id="g1760">
		<path
                id="path1756"
                d="M905.3,253.4v8.3h-1.6V255l-1.8,1.1l-0.7-1.1l2.7-1.6H905.3z M906.9,260.7v1.2h-5.3v-1.2H906.9z"/>
        <path
                id="path1758"
                d="M911,253.2c0.6,0,1.1,0.1,1.5,0.3s0.7,0.5,1,0.8c0.2,0.3,0.3,0.7,0.3,1.1c0,0.4-0.1,0.7-0.2,0.9    c-0.1,0.3-0.3,0.5-0.6,0.7s-0.6,0.3-0.9,0.4c0.4,0,0.7,0.1,1,0.3c0.3,0.2,0.5,0.4,0.7,0.7c0.2,0.3,0.3,0.7,0.3,1.1    c0,0.5-0.1,0.9-0.4,1.3c-0.3,0.4-0.6,0.7-1.1,0.9s-1,0.3-1.7,0.3c-0.6,0-1.1-0.1-1.6-0.3c-0.5-0.2-0.9-0.5-1.3-0.9l1-0.9    c0.2,0.3,0.5,0.5,0.8,0.6s0.6,0.2,1,0.2c0.5,0,0.9-0.1,1.2-0.4c0.3-0.2,0.4-0.6,0.4-1c0-0.3-0.1-0.6-0.2-0.8s-0.3-0.4-0.5-0.4    c-0.2-0.1-0.5-0.1-0.8-0.1h-0.8l0.2-1.2h0.5c0.3,0,0.5,0,0.7-0.1s0.4-0.2,0.5-0.4s0.2-0.4,0.2-0.7c0-0.4-0.1-0.7-0.4-0.9    c-0.3-0.2-0.6-0.3-1-0.3s-0.7,0.1-0.9,0.2c-0.3,0.1-0.5,0.3-0.8,0.6l-0.8-0.9c0.4-0.4,0.8-0.6,1.3-0.8    C910,253.3,910.5,253.2,911,253.2z"/>
	</g>
</g></g>
    <g
            id="220">
	<rect
            id="rect1630"
            x="791.5"
            y="271.5"
            class="st2"
            width="133"
            height="165"/>
        <g
                id="g1772">
		<g
                id="g1770">
			<path
                    id="path1764"
                    d="M802.9,282.3c0.5,0,1,0.1,1.4,0.3c0.4,0.2,0.7,0.5,0.9,0.8c0.2,0.4,0.3,0.8,0.3,1.2c0,0.4-0.1,0.8-0.2,1.1     c-0.1,0.4-0.4,0.8-0.6,1.2c-0.3,0.4-0.7,0.9-1.2,1.4s-1.1,1.1-1.8,1.7h4l-0.1,0.9h-5v-0.8c0.6-0.6,1.2-1.1,1.6-1.6     s0.8-0.9,1.1-1.2c0.3-0.3,0.5-0.7,0.7-0.9c0.2-0.3,0.3-0.6,0.3-0.8c0.1-0.3,0.1-0.5,0.1-0.8c0-0.5-0.1-0.9-0.4-1.1     c-0.3-0.3-0.6-0.4-1.1-0.4c-0.4,0-0.8,0.1-1,0.2s-0.5,0.4-0.8,0.7l-0.7-0.6c0.3-0.4,0.7-0.7,1.1-0.9     C801.9,282.4,802.4,282.3,802.9,282.3z"/>
            <path
                    id="path1766"
                    d="M810.3,282.3c0.5,0,1,0.1,1.4,0.3c0.4,0.2,0.7,0.5,0.9,0.8c0.2,0.4,0.3,0.8,0.3,1.2c0,0.4-0.1,0.8-0.2,1.1     c-0.1,0.4-0.4,0.8-0.6,1.2c-0.3,0.4-0.7,0.9-1.2,1.4s-1.1,1.1-1.8,1.7h4l-0.1,0.9h-5v-0.8c0.6-0.6,1.2-1.1,1.6-1.6     s0.8-0.9,1.1-1.2c0.3-0.3,0.5-0.7,0.7-0.9c0.2-0.3,0.3-0.6,0.3-0.8c0.1-0.3,0.1-0.5,0.1-0.8c0-0.5-0.1-0.9-0.4-1.1     c-0.3-0.3-0.6-0.4-1.1-0.4c-0.4,0-0.8,0.1-1,0.2s-0.5,0.4-0.8,0.7l-0.7-0.6c0.3-0.4,0.7-0.7,1.1-0.9     C809.3,282.4,809.8,282.3,810.3,282.3z"/>
            <path
                    id="path1768"
                    d="M818.1,282.3c0.9,0,1.6,0.4,2.1,1.1c0.5,0.8,0.7,1.8,0.7,3.2c0,1.4-0.2,2.5-0.7,3.2     c-0.5,0.8-1.2,1.1-2.1,1.1c-0.9,0-1.6-0.4-2.1-1.1c-0.5-0.8-0.7-1.8-0.7-3.2c0-1.4,0.2-2.5,0.7-3.2S817.2,282.3,818.1,282.3z      M818.1,283.1c-0.5,0-0.9,0.3-1.2,0.8c-0.3,0.6-0.4,1.5-0.4,2.7c0,0.6,0,1.2,0.1,1.6c0.1,0.5,0.2,0.8,0.3,1.1     c0.1,0.3,0.3,0.5,0.5,0.6s0.5,0.2,0.8,0.2c0.4,0,0.7-0.1,0.9-0.4c0.3-0.2,0.4-0.6,0.6-1.1c0.1-0.5,0.2-1.2,0.2-2s-0.1-1.5-0.2-2     s-0.3-0.9-0.5-1.1C818.8,283.3,818.5,283.1,818.1,283.1z M819.3,283.5l0.3,0.9l-2.7,5.5l-0.4-0.7L819.3,283.5z"/>
		</g>
	</g>
</g>


    <g
            id="216B"><rect
     id="rect1646"
     x="791.5"
     y="927.5"
     class="st2"
     width="133"
     height="84" />
        <g
                id="g1814">
	<g
            id="g1812">
		<path
                id="path1804"
                d="M803.9,937.2c0.5,0,1,0.1,1.4,0.3s0.7,0.5,0.9,0.8c0.2,0.4,0.3,0.8,0.3,1.2s-0.1,0.8-0.2,1.1    c-0.1,0.4-0.4,0.8-0.6,1.2c-0.3,0.4-0.7,0.9-1.2,1.4s-1.1,1.1-1.8,1.7h4l-0.1,0.9h-5V945c0.6-0.6,1.2-1.1,1.6-1.6s0.8-0.9,1.1-1.2    s0.5-0.7,0.7-0.9c0.2-0.3,0.3-0.6,0.3-0.8c0.1-0.3,0.1-0.5,0.1-0.8c0-0.5-0.1-0.9-0.4-1.1c-0.3-0.3-0.6-0.4-1.1-0.4    c-0.4,0-0.8,0.1-1,0.2s-0.5,0.4-0.8,0.7l-0.7-0.6c0.3-0.4,0.7-0.7,1.1-0.9C802.9,937.3,803.4,937.2,803.9,937.2z"/>
        <path
                id="path1806"
                d="M812.6,937.4v8.2h-1v-7.1l-1.9,1.2l-0.4-0.7l2.5-1.6L812.6,937.4L812.6,937.4z M814.4,945v0.8h-4.9V945    H814.4z"/>
        <path
                id="path1808"
                d="M819.5,937.2c0.3,0,0.6,0,0.9,0.1c0.3,0.1,0.5,0.2,0.8,0.4l-0.4,0.7c-0.2-0.1-0.4-0.2-0.6-0.3    c-0.2-0.1-0.4-0.1-0.7-0.1c-0.5,0-0.8,0.2-1.2,0.5c-0.3,0.3-0.6,0.7-0.7,1.3c-0.2,0.5-0.2,1.2-0.2,1.9v0.4c0,1,0.1,1.8,0.4,2.3    c0.3,0.5,0.7,0.7,1.3,0.7c0.5,0,0.9-0.2,1.2-0.6c0.3-0.4,0.4-0.9,0.4-1.6c0-0.5-0.1-0.8-0.2-1.1c-0.1-0.3-0.3-0.5-0.5-0.6    s-0.5-0.2-0.8-0.2c-0.4,0-0.8,0.1-1.2,0.4c-0.3,0.3-0.6,0.6-0.8,1v-0.9c0.3-0.5,0.6-0.8,1-1s0.8-0.3,1.2-0.3s0.8,0.1,1.2,0.3    s0.7,0.5,0.9,0.9s0.3,0.9,0.3,1.5s-0.1,1.2-0.4,1.6c-0.2,0.4-0.6,0.8-1,1s-0.9,0.4-1.3,0.4c-0.5,0-1-0.1-1.3-0.3    c-0.4-0.2-0.6-0.5-0.9-0.8c-0.2-0.4-0.4-0.8-0.5-1.3s-0.2-1.1-0.2-1.7c0-0.9,0.1-1.7,0.4-2.4c0.2-0.7,0.6-1.2,1.1-1.6    S818.9,937.2,819.5,937.2z"/>
        <path
                id="path1810"
                d="M829.4,943.4c0,0.5-0.1,0.8-0.3,1.2c-0.2,0.3-0.4,0.6-0.7,0.7s-0.6,0.3-1,0.4s-0.8,0.1-1.1,0.1H824v-8.5    h2.1c0.4,0,0.7,0,1.1,0.1c0.4,0.1,0.7,0.2,1,0.3s0.5,0.4,0.7,0.7s0.3,0.6,0.3,1s-0.1,0.7-0.2,0.9c-0.1,0.3-0.3,0.5-0.6,0.6    c-0.2,0.2-0.5,0.3-0.8,0.3c0.3,0,0.6,0.1,0.9,0.3c0.3,0.1,0.5,0.4,0.7,0.6C829.3,942.6,829.4,942.9,829.4,943.4z M828,939.6    c0-0.5-0.1-0.8-0.4-1c-0.3-0.2-0.7-0.3-1.2-0.3H825v2.7h1.4c0.5,0,0.9-0.1,1.2-0.3S828,940.1,828,939.6z M828.3,943.5    c0-0.4-0.1-0.8-0.2-1s-0.4-0.4-0.7-0.5s-0.6-0.1-0.9-0.1H825v3.1h1.4c0.2,0,0.4,0,0.6-0.1s0.4-0.1,0.6-0.2    c0.2-0.1,0.3-0.3,0.4-0.5C828.2,944,828.3,943.8,828.3,943.5z"/>
	</g>
</g></g>
    <g
            id="216A"><rect
     id="rect1648"
     x="791.5"
     y="1011.5"
     class="st2"
     width="133"
     height="81" />
        <g
                id="g1826">
	<g
            id="g1824">
		<path
                id="path1816"
                d="M803.2,1021.1c0.5,0,1,0.1,1.4,0.3s0.7,0.5,0.9,0.8c0.2,0.4,0.3,0.8,0.3,1.2s-0.1,0.8-0.2,1.1    c-0.1,0.4-0.4,0.8-0.6,1.2c-0.3,0.4-0.7,0.9-1.2,1.4s-1.1,1.1-1.8,1.7h4l-0.1,0.9h-5v-0.8c0.6-0.6,1.2-1.1,1.6-1.6    s0.8-0.9,1.1-1.2c0.3-0.3,0.5-0.7,0.7-0.9c0.2-0.3,0.3-0.6,0.3-0.8c0.1-0.3,0.1-0.5,0.1-0.8c0-0.5-0.1-0.9-0.4-1.1    c-0.3-0.3-0.6-0.4-1.1-0.4c-0.4,0-0.8,0.1-1,0.2s-0.5,0.4-0.8,0.7l-0.7-0.6c0.3-0.4,0.7-0.7,1.1-0.9    C802.2,1021.2,802.7,1021.1,803.2,1021.1z"/>
        <path
                id="path1818"
                d="M811.9,1021.2v8.2h-1v-7.1l-1.9,1.2l-0.4-0.7l2.5-1.6L811.9,1021.2L811.9,1021.2z M813.7,1028.9v0.8h-4.9    v-0.8H813.7z"/>
        <path
                id="path1820"
                d="M818.8,1021.1c0.3,0,0.6,0,0.9,0.1c0.3,0.1,0.5,0.2,0.8,0.4l-0.4,0.7c-0.2-0.1-0.4-0.2-0.6-0.3    c-0.2-0.1-0.4-0.1-0.7-0.1c-0.5,0-0.8,0.2-1.2,0.5c-0.3,0.3-0.6,0.7-0.7,1.3c-0.2,0.5-0.2,1.2-0.2,1.9v0.4c0,1,0.1,1.8,0.4,2.3    c0.3,0.5,0.7,0.7,1.3,0.7c0.5,0,0.9-0.2,1.2-0.6s0.4-0.9,0.4-1.6c0-0.5-0.1-0.8-0.2-1.1c-0.1-0.3-0.3-0.5-0.5-0.6    s-0.5-0.2-0.8-0.2c-0.4,0-0.8,0.1-1.2,0.4c-0.3,0.3-0.6,0.6-0.8,1v-0.9c0.3-0.5,0.6-0.8,1-1s0.8-0.3,1.2-0.3s0.8,0.1,1.2,0.3    c0.4,0.2,0.7,0.5,0.9,0.9s0.3,0.9,0.3,1.5s-0.1,1.2-0.4,1.6c-0.2,0.4-0.6,0.8-1,1s-0.9,0.4-1.3,0.4c-0.5,0-1-0.1-1.3-0.3    c-0.4-0.2-0.6-0.5-0.9-0.8c-0.2-0.4-0.4-0.8-0.5-1.3s-0.2-1.1-0.2-1.7c0-0.9,0.1-1.7,0.4-2.4c0.2-0.7,0.6-1.2,1.1-1.6    S818.2,1021.1,818.8,1021.1z"/>
        <path
                id="path1822"
                d="M827.4,1027.6H824l-0.7,2.2h-1.1l2.8-8.5h1.4l2.8,8.5h-1.1L827.4,1027.6z M824.3,1026.7h2.8l-1.4-4.5    L824.3,1026.7z"/>
	</g>
</g></g>
    <g
            id="263"><rect
     id="rect1622"
     x="791.5"
     y="1092.5"
     class="st2"
     width="133"
     height="313" />
        <g
                id="g1836">
	<g
            id="g1834">
		<path
                id="path1828"
                d="M804.2,1103.9c0.5,0,1,0.1,1.4,0.3c0.4,0.2,0.7,0.5,0.9,0.8c0.2,0.4,0.3,0.8,0.3,1.2c0,0.4-0.1,0.8-0.2,1.1    c-0.1,0.4-0.4,0.8-0.6,1.2c-0.3,0.4-0.7,0.9-1.2,1.4s-1.1,1.1-1.8,1.7h4l-0.1,0.9h-5v-0.8c0.6-0.6,1.2-1.1,1.6-1.6    c0.4-0.5,0.8-0.9,1.1-1.2c0.3-0.3,0.5-0.7,0.7-0.9c0.2-0.3,0.3-0.6,0.3-0.8c0.1-0.3,0.1-0.5,0.1-0.8c0-0.5-0.1-0.9-0.4-1.1    c-0.3-0.3-0.6-0.4-1.1-0.4c-0.4,0-0.8,0.1-1,0.2s-0.5,0.4-0.8,0.7l-0.7-0.6c0.3-0.4,0.7-0.7,1.1-0.9S803.7,1103.9,804.2,1103.9z"/>
        <path
                id="path1830"
                d="M812.4,1103.9c0.3,0,0.6,0,0.9,0.1c0.3,0.1,0.5,0.2,0.8,0.4l-0.4,0.7c-0.2-0.1-0.4-0.2-0.6-0.3    c-0.2-0.1-0.4-0.1-0.7-0.1c-0.5,0-0.8,0.2-1.2,0.5c-0.3,0.3-0.6,0.7-0.7,1.3s-0.2,1.2-0.2,1.9v0.4c0,1,0.1,1.8,0.4,2.3    c0.3,0.5,0.7,0.7,1.3,0.7c0.5,0,0.9-0.2,1.2-0.6s0.4-0.9,0.4-1.6c0-0.5-0.1-0.8-0.2-1.1s-0.3-0.5-0.5-0.6s-0.5-0.2-0.8-0.2    c-0.4,0-0.8,0.1-1.2,0.4c-0.3,0.3-0.6,0.6-0.8,1v-0.9c0.3-0.5,0.6-0.8,1-1s0.8-0.3,1.2-0.3s0.8,0.1,1.2,0.3    c0.4,0.2,0.7,0.5,0.9,0.9s0.3,0.9,0.3,1.5s-0.1,1.2-0.4,1.6c-0.2,0.4-0.6,0.8-1,1s-0.9,0.4-1.3,0.4c-0.5,0-1-0.1-1.3-0.3    c-0.4-0.2-0.6-0.5-0.9-0.8s-0.4-0.8-0.5-1.3s-0.2-1.1-0.2-1.7c0-0.9,0.1-1.7,0.4-2.4c0.2-0.7,0.6-1.2,1.1-1.6    C811.2,1104.1,811.8,1103.9,812.4,1103.9z"/>
        <path
                id="path1832"
                d="M819,1103.9c0.5,0,1,0.1,1.4,0.3c0.4,0.2,0.7,0.4,0.9,0.8c0.2,0.3,0.3,0.7,0.3,1.1c0,0.3-0.1,0.7-0.2,0.9    c-0.2,0.3-0.4,0.5-0.6,0.7c-0.3,0.2-0.5,0.3-0.8,0.4c0.3,0,0.6,0.1,0.9,0.3s0.5,0.4,0.7,0.7c0.2,0.3,0.3,0.7,0.3,1.1    c0,0.5-0.1,0.9-0.4,1.3s-0.6,0.7-1,0.9c-0.4,0.2-1,0.3-1.5,0.3s-0.9-0.1-1.4-0.3s-0.9-0.5-1.2-0.9l0.7-0.6    c0.2,0.3,0.5,0.5,0.9,0.6c0.3,0.1,0.7,0.2,1,0.2c0.6,0,1.1-0.2,1.4-0.5c0.3-0.3,0.5-0.7,0.5-1.3c0-0.4-0.1-0.7-0.2-1    c-0.2-0.2-0.4-0.4-0.6-0.5s-0.6-0.2-0.9-0.2h-0.7l0.1-0.8h0.5c0.3,0,0.5-0.1,0.8-0.2s0.4-0.3,0.6-0.5s0.2-0.5,0.2-0.8    c0-0.5-0.2-0.8-0.5-1.1c-0.3-0.2-0.7-0.4-1.1-0.4c-0.4,0-0.7,0.1-1,0.2s-0.6,0.3-0.8,0.6l-0.6-0.6c0.4-0.3,0.7-0.6,1.2-0.7    C818.2,1104,818.6,1103.9,819,1103.9z"/>
	</g>
</g></g>


    <g
            id="223"
            type="room"><rect
     id="rect1674"
     x="1031.5"
     y="31.5"
     class="st7"
     width="133"
     height="67" />
        <g
                id="g1844">
	<g
            id="g1842">
		<path
                id="path1838"
                d="M1117.3,59.6l-1.7,12.8h-2.8l-1.1-9.3l-1.2,9.3h-2.8l-1.5-12.8h2.4l0.8,10.5l1.2-9h2.4l1.2,9l0.9-10.5    C1115.1,59.6,1117.3,59.6,1117.3,59.6z"/>
        <path
                id="path1840"
                d="M1123.9,59.3c0.9,0,1.6,0.1,2.3,0.3c0.6,0.2,1.2,0.6,1.7,1l-1.3,1.5c-0.4-0.3-0.8-0.5-1.2-0.7    c-0.4-0.2-0.9-0.2-1.4-0.2c-0.6,0-1.1,0.2-1.6,0.5s-0.9,0.8-1.2,1.5c-0.3,0.7-0.4,1.6-0.4,2.7c0,1.1,0.1,2,0.4,2.7    s0.7,1.2,1.2,1.5s1.1,0.5,1.7,0.5c0.7,0,1.2-0.1,1.7-0.4c0.4-0.2,0.8-0.5,1.2-0.8l1.2,1.5c-0.4,0.4-1,0.8-1.7,1.1    s-1.5,0.5-2.5,0.5c-1.1,0-2.1-0.3-3-0.8s-1.6-1.3-2.1-2.3s-0.7-2.2-0.7-3.7c0-1.4,0.3-2.6,0.8-3.6s1.2-1.7,2.1-2.2    S1122.9,59.3,1123.9,59.3z"/>
	</g>
</g>
        <g
                id="g1862">
	<g
            id="g1860">
		<path
                id="path1854"
                d="M1045.2,41.2c0.5,0,1,0.1,1.4,0.3s0.7,0.5,0.9,0.8c0.2,0.4,0.3,0.8,0.3,1.2s-0.1,0.8-0.2,1.1    c-0.1,0.4-0.4,0.8-0.6,1.2c-0.3,0.4-0.7,0.9-1.2,1.4s-1.1,1.1-1.8,1.7h4l-0.1,0.9h-5V49c0.6-0.6,1.2-1.1,1.6-1.6s0.8-0.9,1.1-1.2    c0.3-0.3,0.5-0.7,0.7-0.9c0.2-0.3,0.3-0.6,0.3-0.8c0.1-0.3,0.1-0.5,0.1-0.8c0-0.5-0.1-0.9-0.4-1.1c-0.3-0.3-0.6-0.4-1.1-0.4    c-0.4,0-0.8,0.1-1,0.2s-0.5,0.4-0.8,0.7l-0.7-0.6c0.3-0.4,0.7-0.7,1.1-0.9C1044.1,41.3,1044.6,41.2,1045.2,41.2z"/>
        <path
                id="path1856"
                d="M1052.5,41.2c0.5,0,1,0.1,1.4,0.3s0.7,0.5,0.9,0.8c0.2,0.4,0.3,0.8,0.3,1.2s-0.1,0.8-0.2,1.1    c-0.1,0.4-0.4,0.8-0.6,1.2c-0.3,0.4-0.7,0.9-1.2,1.4s-1.1,1.1-1.8,1.7h4l-0.1,0.9h-5V49c0.6-0.6,1.2-1.1,1.6-1.6s0.8-0.9,1.1-1.2    c0.3-0.3,0.5-0.7,0.7-0.9c0.2-0.3,0.3-0.6,0.3-0.8c0.1-0.3,0.1-0.5,0.1-0.8c0-0.5-0.1-0.9-0.4-1.1c-0.3-0.3-0.6-0.4-1.1-0.4    c-0.4,0-0.8,0.1-1,0.2s-0.5,0.4-0.8,0.7l-0.7-0.6c0.3-0.4,0.7-0.7,1.1-0.9C1051.5,41.3,1052,41.2,1052.5,41.2z"/>
        <path
                id="path1858"
                d="M1059.9,41.2c0.5,0,1,0.1,1.4,0.3s0.7,0.4,0.9,0.8c0.2,0.3,0.3,0.7,0.3,1.1c0,0.3-0.1,0.7-0.2,0.9    c-0.2,0.3-0.4,0.5-0.6,0.7c-0.3,0.2-0.5,0.3-0.8,0.4c0.3,0,0.6,0.1,0.9,0.3s0.5,0.4,0.7,0.7s0.3,0.7,0.3,1.1    c0,0.5-0.1,0.9-0.4,1.3s-0.6,0.7-1,0.9s-1,0.3-1.5,0.3s-0.9-0.1-1.4-0.3s-0.9-0.5-1.2-0.9l0.7-0.6c0.2,0.3,0.5,0.5,0.9,0.6    c0.3,0.1,0.7,0.2,1,0.2c0.6,0,1.1-0.2,1.4-0.5s0.5-0.7,0.5-1.3c0-0.4-0.1-0.7-0.2-1c-0.2-0.2-0.4-0.4-0.6-0.5s-0.6-0.2-0.9-0.2    h-0.7l0.1-0.8h0.5c0.3,0,0.5-0.1,0.8-0.2c0.2-0.1,0.4-0.3,0.6-0.5s0.2-0.5,0.2-0.8c0-0.5-0.2-0.8-0.5-1.1    c-0.3-0.2-0.7-0.4-1.1-0.4s-0.7,0.1-1,0.2c-0.3,0.1-0.6,0.3-0.8,0.6l-0.6-0.6c0.4-0.3,0.7-0.6,1.2-0.7    C1059.1,41.2,1059.5,41.2,1059.9,41.2z"/>
	</g>
</g></g>
    <g
            id="224"
            type="room"><rect
     id="rect1672"
     x="1031.5"
     y="98.5"
     class="st7"
     width="133"
     height="91" />
        <g
                id="g1852">
	<g
            id="g1850">
		<path
                id="path1846"
                d="M1116.3,137.6l-1.7,12.8h-2.8l-1.1-9.3l-1.2,9.3h-2.8l-1.5-12.8h2.4l0.8,10.5l1.2-9h2.4l1.2,9l0.9-10.5    H1116.3z"/>
        <path
                id="path1848"
                d="M1122.9,137.4c0.9,0,1.6,0.1,2.3,0.3c0.6,0.2,1.2,0.6,1.7,1l-1.3,1.5c-0.4-0.3-0.8-0.5-1.2-0.7    c-0.4-0.2-0.9-0.2-1.4-0.2c-0.6,0-1.1,0.2-1.6,0.5s-0.9,0.8-1.2,1.5c-0.3,0.7-0.4,1.6-0.4,2.7c0,1.1,0.1,2,0.4,2.7    s0.7,1.2,1.2,1.5s1.1,0.5,1.7,0.5c0.7,0,1.2-0.1,1.7-0.4c0.4-0.2,0.8-0.5,1.2-0.8l1.2,1.5c-0.4,0.4-1,0.8-1.7,1.1    s-1.5,0.5-2.5,0.5c-1.1,0-2.1-0.3-3-0.8s-1.6-1.3-2.1-2.3s-0.7-2.2-0.7-3.7c0-1.4,0.3-2.6,0.8-3.6s1.2-1.7,2.1-2.2    S1121.8,137.4,1122.9,137.4z"/>
	</g>
</g>
        <g
                id="g1872">
	<g
            id="g1870">
		<path
                id="path1864"
                d="M1046.2,112.2c0.5,0,1,0.1,1.4,0.3c0.4,0.2,0.7,0.5,0.9,0.8c0.2,0.4,0.3,0.8,0.3,1.2c0,0.4-0.1,0.8-0.2,1.1    c-0.1,0.4-0.4,0.8-0.6,1.2c-0.3,0.4-0.7,0.9-1.2,1.4s-1.1,1.1-1.8,1.7h4l-0.1,0.9h-5V120c0.6-0.6,1.2-1.1,1.6-1.6s0.8-0.9,1.1-1.2    c0.3-0.3,0.5-0.7,0.7-0.9c0.2-0.3,0.3-0.6,0.3-0.8c0.1-0.3,0.1-0.5,0.1-0.8c0-0.5-0.1-0.9-0.4-1.1c-0.3-0.3-0.6-0.4-1.1-0.4    c-0.4,0-0.8,0.1-1,0.2s-0.5,0.4-0.8,0.7l-0.7-0.6c0.3-0.4,0.7-0.7,1.1-0.9C1045.1,112.3,1045.6,112.2,1046.2,112.2z"/>
        <path
                id="path1866"
                d="M1053.5,112.2c0.5,0,1,0.1,1.4,0.3c0.4,0.2,0.7,0.5,0.9,0.8c0.2,0.4,0.3,0.8,0.3,1.2c0,0.4-0.1,0.8-0.2,1.1    c-0.1,0.4-0.4,0.8-0.6,1.2c-0.3,0.4-0.7,0.9-1.2,1.4s-1.1,1.1-1.8,1.7h4l-0.1,0.9h-5V120c0.6-0.6,1.2-1.1,1.6-1.6s0.8-0.9,1.1-1.2    c0.3-0.3,0.5-0.7,0.7-0.9c0.2-0.3,0.3-0.6,0.3-0.8c0.1-0.3,0.1-0.5,0.1-0.8c0-0.5-0.1-0.9-0.4-1.1c-0.3-0.3-0.6-0.4-1.1-0.4    c-0.4,0-0.8,0.1-1,0.2s-0.5,0.4-0.8,0.7l-0.7-0.6c0.3-0.4,0.7-0.7,1.1-0.9C1052.5,112.3,1053,112.2,1053.5,112.2z"/>
        <path
                id="path1868"
                d="M1061,112.2l0.9,0.4l-2.3,5.4h4.5v0.8h-5.6V118L1061,112.2z M1063,115.5v5.3h-1v-2.7l0.1-2.6    C1062.1,115.5,1063,115.5,1063,115.5z"/>
	</g>
</g></g>
    <g
            id="225"><rect
     id="rect1632"
     x="1031.5"
     y="189.5"
     class="st2"
     width="133"
     height="165" />
        <g
                id="g1882">
	<g
            id="g1880">
		<path
                id="path1874"
                d="M1046.2,202.4c0.5,0,1,0.1,1.4,0.3s0.7,0.5,0.9,0.8c0.2,0.4,0.3,0.8,0.3,1.2s-0.1,0.8-0.2,1.1    c-0.1,0.4-0.4,0.8-0.6,1.2c-0.3,0.4-0.7,0.9-1.2,1.4s-1.1,1.1-1.8,1.7h4l-0.1,0.9h-5v-0.8c0.6-0.6,1.2-1.1,1.6-1.6    s0.8-0.9,1.1-1.2c0.3-0.3,0.5-0.7,0.7-0.9c0.2-0.3,0.3-0.6,0.3-0.8c0.1-0.3,0.1-0.5,0.1-0.8c0-0.5-0.1-0.9-0.4-1.1    c-0.3-0.3-0.6-0.4-1.1-0.4c-0.4,0-0.8,0.1-1,0.2s-0.5,0.4-0.8,0.7l-0.7-0.6c0.3-0.4,0.7-0.7,1.1-0.9    C1045.1,202.5,1045.6,202.4,1046.2,202.4z"/>
        <path
                id="path1876"
                d="M1053.5,202.4c0.5,0,1,0.1,1.4,0.3s0.7,0.5,0.9,0.8c0.2,0.4,0.3,0.8,0.3,1.2s-0.1,0.8-0.2,1.1    c-0.1,0.4-0.4,0.8-0.6,1.2c-0.3,0.4-0.7,0.9-1.2,1.4s-1.1,1.1-1.8,1.7h4l-0.1,0.9h-5v-0.8c0.6-0.6,1.2-1.1,1.6-1.6    s0.8-0.9,1.1-1.2c0.3-0.3,0.5-0.7,0.7-0.9c0.2-0.3,0.3-0.6,0.3-0.8c0.1-0.3,0.1-0.5,0.1-0.8c0-0.5-0.1-0.9-0.4-1.1    c-0.3-0.3-0.6-0.4-1.1-0.4c-0.4,0-0.8,0.1-1,0.2s-0.5,0.4-0.8,0.7l-0.7-0.6c0.3-0.4,0.7-0.7,1.1-0.9    C1052.5,202.5,1053,202.4,1053.5,202.4z"/>
        <path
                id="path1878"
                d="M1063.6,202.5l-0.2,0.8h-3.3v2.7c0.3-0.1,0.5-0.2,0.7-0.3s0.5-0.1,0.7-0.1c0.5,0,0.9,0.1,1.2,0.3    s0.6,0.5,0.8,0.9c0.2,0.4,0.3,0.9,0.3,1.4s-0.1,1.1-0.4,1.5c-0.2,0.4-0.6,0.8-1,1s-0.9,0.4-1.5,0.4c-0.5,0-1-0.1-1.4-0.3    s-0.8-0.4-1.1-0.8l0.6-0.6c0.3,0.3,0.5,0.5,0.8,0.6s0.6,0.2,1,0.2c0.6,0,1-0.2,1.3-0.5s0.5-0.8,0.5-1.5c0-0.5-0.1-0.8-0.2-1.1    s-0.3-0.5-0.6-0.6c-0.2-0.1-0.5-0.2-0.8-0.2c-0.2,0-0.5,0-0.7,0.1c-0.2,0-0.4,0.1-0.7,0.2h-0.8v-4.2h4.8V202.5z"/>
	</g>
</g></g>


    <g
            id="228"><rect
     id="rect1638"
     x="1031.5"
     y="588.5"
     class="st2"
     width="133"
     height="165" />
        <g
                id="g1912">
	<g
            id="g1910">
		<path
                id="path1904"
                d="M1046.2,602.3c0.5,0,1,0.1,1.4,0.3s0.7,0.5,0.9,0.8c0.2,0.4,0.3,0.8,0.3,1.2s-0.1,0.8-0.2,1.1    c-0.1,0.4-0.4,0.8-0.6,1.2c-0.3,0.4-0.7,0.9-1.2,1.4s-1.1,1.1-1.8,1.7h4l-0.1,0.9h-5V610c0.6-0.6,1.2-1.1,1.6-1.6s0.8-0.9,1.1-1.2    c0.3-0.3,0.5-0.7,0.7-0.9c0.2-0.3,0.3-0.6,0.3-0.8c0.1-0.3,0.1-0.5,0.1-0.8c0-0.5-0.1-0.9-0.4-1.1c-0.3-0.3-0.6-0.4-1.1-0.4    c-0.4,0-0.8,0.1-1,0.2s-0.5,0.4-0.8,0.7l-0.7-0.6c0.3-0.4,0.7-0.7,1.1-0.9C1045.1,602.4,1045.6,602.3,1046.2,602.3z"/>
        <path
                id="path1906"
                d="M1053.5,602.3c0.5,0,1,0.1,1.4,0.3s0.7,0.5,0.9,0.8c0.2,0.4,0.3,0.8,0.3,1.2s-0.1,0.8-0.2,1.1    c-0.1,0.4-0.4,0.8-0.6,1.2c-0.3,0.4-0.7,0.9-1.2,1.4s-1.1,1.1-1.8,1.7h4l-0.1,0.9h-5V610c0.6-0.6,1.2-1.1,1.6-1.6s0.8-0.9,1.1-1.2    c0.3-0.3,0.5-0.7,0.7-0.9c0.2-0.3,0.3-0.6,0.3-0.8c0.1-0.3,0.1-0.5,0.1-0.8c0-0.5-0.1-0.9-0.4-1.1c-0.3-0.3-0.6-0.4-1.1-0.4    c-0.4,0-0.8,0.1-1,0.2s-0.5,0.4-0.8,0.7l-0.7-0.6c0.3-0.4,0.7-0.7,1.1-0.9C1052.5,602.4,1053,602.3,1053.5,602.3z"/>
        <path
                id="path1908"
                d="M1063.8,604.4c0,0.4-0.1,0.8-0.4,1.1s-0.6,0.6-1.1,0.8c0.6,0.2,1,0.5,1.3,0.9s0.5,0.8,0.5,1.4    c0,0.5-0.1,0.9-0.4,1.2c-0.2,0.4-0.6,0.7-1,0.9s-0.9,0.3-1.5,0.3s-1.1-0.1-1.5-0.3s-0.8-0.5-1-0.9s-0.3-0.8-0.3-1.2    c0-0.5,0.2-1,0.5-1.3s0.7-0.7,1.2-0.9c-0.4-0.2-0.8-0.5-1-0.8s-0.3-0.7-0.3-1.2c0-0.4,0.1-0.7,0.2-1s0.4-0.5,0.6-0.7    c0.3-0.2,0.5-0.3,0.8-0.4c0.3-0.1,0.6-0.1,0.9-0.1s0.6,0,0.9,0.1s0.6,0.2,0.8,0.4s0.4,0.4,0.6,0.7    C1063.8,603.7,1063.8,604,1063.8,604.4z M1063.1,608.6c0-0.4-0.1-0.7-0.3-0.9c-0.2-0.2-0.5-0.4-0.8-0.6c-0.3-0.1-0.7-0.3-1.2-0.4    c-0.2,0.1-0.5,0.2-0.7,0.4s-0.4,0.4-0.5,0.6s-0.2,0.5-0.2,0.9c0,0.5,0.1,0.9,0.4,1.1c0.3,0.3,0.7,0.4,1.3,0.4c0.6,0,1-0.1,1.4-0.4    S1063.1,609.1,1063.1,608.6z M1059.8,604.5c0,0.3,0.1,0.6,0.2,0.8c0.2,0.2,0.4,0.3,0.6,0.5c0.3,0.1,0.6,0.2,1,0.4    c0.4-0.2,0.7-0.5,0.9-0.7s0.3-0.5,0.3-0.9s-0.1-0.8-0.4-1s-0.6-0.4-1.1-0.4s-0.9,0.1-1.1,0.4    C1059.9,603.7,1059.8,604,1059.8,604.5z"/>
	</g>
</g></g>


    <g
            id="231"><rect
     id="rect1644"
     x="1031.5"
     y="987.5"
     class="st2"
     width="133"
     height="165" />
        <g
                id="g1942">
	<g
            id="g1940">
		<path
                id="path1934"
                d="M1045.2,1000.8c0.5,0,1,0.1,1.4,0.3s0.7,0.5,0.9,0.8c0.2,0.4,0.3,0.8,0.3,1.2s-0.1,0.8-0.2,1.1    c-0.1,0.4-0.4,0.8-0.6,1.2c-0.3,0.4-0.7,0.9-1.2,1.4s-1.1,1.1-1.8,1.7h4l-0.1,0.9h-5v-0.8c0.6-0.6,1.2-1.1,1.6-1.6    s0.8-0.9,1.1-1.2c0.3-0.3,0.5-0.7,0.7-0.9c0.2-0.3,0.3-0.6,0.3-0.8c0.1-0.3,0.1-0.5,0.1-0.8c0-0.5-0.1-0.9-0.4-1.1    c-0.3-0.3-0.6-0.4-1.1-0.4c-0.4,0-0.8,0.1-1,0.2s-0.5,0.4-0.8,0.7l-0.7-0.6c0.3-0.4,0.7-0.7,1.1-0.9    C1044.1,1000.9,1044.6,1000.8,1045.2,1000.8z"/>
        <path
                id="path1936"
                d="M1052.5,1000.8c0.5,0,1,0.1,1.4,0.3s0.7,0.4,0.9,0.8c0.2,0.3,0.3,0.7,0.3,1.1c0,0.3-0.1,0.7-0.2,0.9    c-0.2,0.3-0.4,0.5-0.6,0.7c-0.3,0.2-0.5,0.3-0.8,0.4c0.3,0,0.6,0.1,0.9,0.3s0.5,0.4,0.7,0.7s0.3,0.7,0.3,1.1    c0,0.5-0.1,0.9-0.4,1.3s-0.6,0.7-1,0.9s-1,0.3-1.5,0.3s-0.9-0.1-1.4-0.3s-0.9-0.5-1.2-0.9l0.7-0.6c0.2,0.3,0.5,0.5,0.9,0.6    c0.3,0.1,0.7,0.2,1,0.2c0.6,0,1.1-0.2,1.4-0.5s0.5-0.7,0.5-1.3c0-0.4-0.1-0.7-0.2-1c-0.2-0.2-0.4-0.4-0.6-0.5s-0.6-0.2-0.9-0.2    h-0.7l0.1-0.8h0.5c0.3,0,0.5-0.1,0.8-0.2c0.2-0.1,0.4-0.3,0.6-0.5s0.2-0.5,0.2-0.8c0-0.5-0.2-0.8-0.5-1.1    c-0.3-0.2-0.7-0.4-1.1-0.4s-0.7,0.1-1,0.2c-0.3,0.1-0.6,0.3-0.8,0.6l-0.6-0.6c0.4-0.3,0.7-0.6,1.2-0.7    C1051.7,1000.9,1052.1,1000.8,1052.5,1000.8z"/>
        <path
                id="path1938"
                d="M1061.2,1000.9v8.2h-1v-7.1l-1.9,1.2l-0.4-0.7l2.5-1.6L1061.2,1000.9L1061.2,1000.9z M1063,1008.5v0.8h-4.9    v-0.8H1063z"/>
	</g>
</g></g>

    <g
            id="202"><rect
     id="rect1652"
     x="1083.7"
     y="1433.7"
     transform="matrix(0.9495 -0.3137 0.3137 0.9495 -418.1884 433.6358)"
     class="st4"
     width="109.2"
     height="165" />
        <g
                id="g1962">
	<g
            id="g1960">
		<path
                id="path1954"
                d="M1078.1,1460.5c0.5-0.2,1-0.2,1.4-0.1s0.8,0.3,1.1,0.5c0.3,0.3,0.5,0.6,0.7,1.1c0.1,0.4,0.2,0.8,0.2,1.1    s-0.1,0.8-0.2,1.3c-0.2,0.5-0.4,1-0.7,1.7c-0.3,0.6-0.7,1.3-1.2,2.2l3.8-1.3l0.2,0.9l-4.8,1.6l-0.3-0.8c0.4-0.8,0.8-1.5,1-2    c0.3-0.6,0.5-1.1,0.7-1.5s0.3-0.8,0.4-1.1c0.1-0.3,0.1-0.6,0.1-0.9s-0.1-0.5-0.2-0.8c-0.1-0.5-0.4-0.8-0.7-0.9    c-0.3-0.2-0.7-0.2-1.2,0c-0.4,0.1-0.7,0.3-0.9,0.5c-0.2,0.2-0.4,0.5-0.5,0.9l-0.9-0.3c0.2-0.5,0.4-0.9,0.8-1.2    C1077.1,1460.9,1077.6,1460.6,1078.1,1460.5z"/>
        <path
                id="path1956"
                d="M1085.5,1458c0.9-0.3,1.6-0.1,2.3,0.4c0.7,0.6,1.2,1.5,1.7,2.9c0.4,1.3,0.6,2.4,0.4,3.3s-0.7,1.4-1.6,1.7    c-0.9,0.3-1.6,0.1-2.3-0.4s-1.2-1.5-1.7-2.9c-0.4-1.3-0.6-2.4-0.3-3.3C1084.1,1458.9,1084.6,1458.3,1085.5,1458z M1085.7,1458.8    c-0.5,0.2-0.8,0.6-0.9,1.2s0,1.5,0.4,2.7c0.2,0.6,0.4,1.1,0.6,1.5s0.4,0.7,0.6,0.9c0.2,0.2,0.4,0.4,0.7,0.4c0.2,0.1,0.5,0,0.8,0    c0.3-0.1,0.6-0.3,0.7-0.6c0.2-0.3,0.2-0.7,0.2-1.3c0-0.5-0.2-1.2-0.4-2c-0.3-0.8-0.5-1.4-0.8-1.9s-0.6-0.8-0.9-0.9    C1086.4,1458.7,1086.1,1458.7,1085.7,1458.8z M1087,1458.7l0.5,0.8l-0.8,6l-0.6-0.6L1087,1458.7z"/>
        <path
                id="path1958"
                d="M1092.1,1455.8c0.5-0.2,1-0.2,1.4-0.1s0.8,0.3,1.1,0.5c0.3,0.3,0.5,0.6,0.7,1.1c0.1,0.4,0.2,0.8,0.2,1.1    c0,0.4-0.1,0.8-0.2,1.3c-0.2,0.5-0.4,1-0.7,1.7c-0.3,0.6-0.7,1.3-1.2,2.2l3.8-1.3l0.2,0.9l-4.8,1.6l-0.3-0.8c0.4-0.8,0.8-1.5,1-2    s0.5-1.1,0.7-1.5s0.3-0.8,0.4-1.1s0.1-0.6,0.1-0.9s-0.1-0.5-0.2-0.8c-0.1-0.5-0.4-0.8-0.7-0.9c-0.3-0.2-0.7-0.2-1.2,0    c-0.4,0.1-0.7,0.3-0.9,0.5s-0.4,0.5-0.5,0.9l-0.9-0.3c0.2-0.5,0.4-0.9,0.8-1.2C1091.1,1456.2,1091.6,1456,1092.1,1455.8z"/>
	</g>
</g></g>
    <g
            id="203"><rect
     id="rect1654"
     x="1128.5"
     y="1591.1"
     transform="matrix(0.9495 -0.3137 0.3137 0.9495 -458.4266 454.5274)"
     class="st4"
     width="109.2"
     height="121.2" />
        <g
                id="g1972">
	<g
            id="g1970">
		<path
                id="path1964"
                d="M1132,1621.4c0.5-0.2,1-0.2,1.4-0.1s0.8,0.2,1.1,0.5c0.3,0.3,0.5,0.6,0.7,1.1c0.1,0.4,0.2,0.8,0.2,1.1    s-0.1,0.8-0.2,1.3c-0.2,0.5-0.4,1-0.7,1.7c-0.3,0.6-0.7,1.3-1.2,2.2l3.8-1.3l0.2,0.9l-4.8,1.6l-0.3-0.8c0.4-0.8,0.8-1.5,1-2    s0.5-1.1,0.7-1.5s0.3-0.8,0.4-1.1c0.1-0.3,0.1-0.6,0.1-0.9s-0.1-0.5-0.2-0.8c-0.1-0.5-0.4-0.8-0.7-0.9c-0.3-0.2-0.7-0.2-1.2,0    c-0.4,0.1-0.7,0.3-0.9,0.5c-0.2,0.2-0.4,0.5-0.5,0.9l-0.9-0.3c0.2-0.5,0.4-0.9,0.8-1.2C1131.1,1621.8,1131.5,1621.6,1132,1621.4z"/>
        <path
                id="path1966"
                d="M1139.4,1619c0.9-0.3,1.6-0.1,2.3,0.4c0.7,0.6,1.2,1.5,1.7,2.9c0.4,1.3,0.6,2.4,0.4,3.3s-0.7,1.4-1.6,1.7    c-0.9,0.3-1.6,0.1-2.3-0.4c-0.7-0.6-1.2-1.5-1.7-2.9c-0.4-1.3-0.6-2.4-0.3-3.3C1138,1619.8,1138.5,1619.3,1139.4,1619z     M1139.7,1619.8c-0.5,0.2-0.8,0.6-0.9,1.2s0,1.5,0.4,2.7c0.2,0.6,0.4,1.1,0.6,1.5s0.4,0.7,0.6,0.9c0.2,0.2,0.4,0.4,0.7,0.4    c0.2,0.1,0.5,0,0.8-0.1s0.6-0.3,0.7-0.6c0.2-0.3,0.2-0.7,0.2-1.3c0-0.5-0.2-1.2-0.4-2c-0.3-0.8-0.5-1.4-0.8-1.9s-0.6-0.8-0.9-0.9    C1140.4,1619.7,1140,1619.6,1139.7,1619.8z M1140.9,1619.7l0.5,0.8l-0.8,6l-0.6-0.6L1140.9,1619.7z"/>
        <path
                id="path1968"
                d="M1146,1616.8c0.5-0.2,1-0.2,1.4-0.2c0.4,0.1,0.8,0.2,1.1,0.4c0.3,0.2,0.5,0.5,0.6,0.9    c0.1,0.3,0.1,0.6,0.1,1s-0.2,0.6-0.4,0.8c-0.2,0.2-0.4,0.4-0.7,0.6c0.3-0.1,0.6-0.1,1,0c0.3,0.1,0.6,0.2,0.9,0.4s0.5,0.5,0.6,1    c0.2,0.5,0.2,0.9,0.1,1.4c-0.1,0.4-0.3,0.9-0.7,1.2c-0.3,0.4-0.8,0.6-1.4,0.8c-0.4,0.1-0.9,0.2-1.4,0.2s-1-0.2-1.4-0.4l0.5-0.8    c0.3,0.2,0.7,0.3,1,0.3c0.4,0,0.7,0,1-0.1c0.6-0.2,1-0.5,1.2-0.9s0.2-0.9,0.1-1.4c-0.1-0.4-0.3-0.7-0.5-0.8s-0.5-0.3-0.8-0.3    s-0.6,0-0.9,0.1l-0.7,0.2l-0.1-0.8l0.5-0.2c0.3-0.1,0.5-0.2,0.7-0.4s0.3-0.4,0.4-0.7c0.1-0.3,0.1-0.5,0-0.9s-0.4-0.7-0.8-0.9    c-0.4-0.1-0.8-0.1-1.2,0c-0.4,0.1-0.6,0.3-0.9,0.5s-0.4,0.5-0.6,0.8l-0.7-0.4c0.2-0.4,0.5-0.8,0.9-1.1    C1145.3,1617.1,1145.6,1616.9,1146,1616.8z"/>
	</g>
</g></g>

    <g
            id="205"><rect
     id="rect1658"
     x="1220.8"
     y="1861.9"
     transform="matrix(0.9495 -0.3137 0.3137 0.9495 -541.5792 497.6086)"
     class="st4"
     width="109.2"
     height="139.4" />
        <g
                id="g1992">
	<g
            id="g1990">
		<path
                id="path1984"
                d="M1222.2,1889.6c0.5-0.2,1-0.2,1.4-0.1s0.8,0.3,1.1,0.5s0.5,0.6,0.7,1.1c0.1,0.4,0.2,0.8,0.2,1.1    c0,0.4-0.1,0.8-0.2,1.3c-0.2,0.5-0.4,1-0.7,1.7c-0.3,0.6-0.7,1.3-1.2,2.2l3.8-1.3l0.2,0.9l-4.8,1.6l-0.3-0.8c0.4-0.8,0.8-1.5,1-2    c0.3-0.6,0.5-1.1,0.7-1.5s0.3-0.8,0.4-1.1s0.1-0.6,0.1-0.9s-0.1-0.5-0.2-0.8c-0.1-0.5-0.4-0.8-0.7-0.9c-0.3-0.2-0.7-0.2-1.2,0    c-0.4,0.1-0.7,0.3-0.9,0.5c-0.2,0.2-0.4,0.5-0.5,0.9l-0.9-0.3c0.2-0.5,0.4-0.9,0.8-1.2C1221.2,1890.1,1221.6,1889.8,1222.2,1889.6    z"/>
        <path
                id="path1986"
                d="M1229.5,1887.2c0.9-0.3,1.6-0.1,2.3,0.4c0.7,0.6,1.2,1.5,1.7,2.9c0.4,1.3,0.6,2.4,0.4,3.3s-0.7,1.4-1.6,1.7    c-0.9,0.3-1.6,0.1-2.3-0.4c-0.7-0.6-1.2-1.5-1.7-2.9c-0.4-1.3-0.6-2.4-0.3-3.3C1228.1,1888.1,1228.7,1887.5,1229.5,1887.2z     M1229.8,1888c-0.5,0.2-0.8,0.6-0.9,1.2s0,1.5,0.4,2.7c0.2,0.6,0.4,1.1,0.6,1.5s0.4,0.7,0.6,0.9c0.2,0.2,0.4,0.4,0.7,0.4    c0.2,0.1,0.5,0,0.8,0c0.3-0.1,0.6-0.3,0.7-0.6c0.2-0.3,0.2-0.7,0.2-1.3c0-0.5-0.2-1.2-0.4-2c-0.3-0.8-0.5-1.4-0.8-1.9    s-0.6-0.8-0.9-0.9C1230.5,1887.9,1230.2,1887.9,1229.8,1888z M1231.1,1887.9l0.5,0.8l-0.8,6l-0.6-0.6L1231.1,1887.9z"/>
        <path
                id="path1988"
                d="M1238.8,1884.3l0.1,0.8l-3.2,1.1l0.8,2.5c0.2-0.2,0.4-0.4,0.6-0.5s0.4-0.2,0.7-0.3c0.4-0.1,0.9-0.2,1.2-0.1    c0.4,0.1,0.7,0.3,1.1,0.6c0.3,0.3,0.5,0.7,0.7,1.3c0.2,0.5,0.2,1,0.1,1.5s-0.3,0.9-0.6,1.3s-0.8,0.6-1.3,0.8    c-0.5,0.2-0.9,0.2-1.4,0.2c-0.4,0-0.9-0.2-1.3-0.4l0.4-0.8c0.3,0.2,0.7,0.3,1,0.3s0.7,0,1-0.1c0.5-0.2,0.9-0.5,1.1-0.9    s0.2-0.9,0-1.6c-0.1-0.4-0.3-0.8-0.5-1s-0.4-0.3-0.7-0.4c-0.3,0-0.5,0-0.8,0.1c-0.2,0.1-0.4,0.2-0.6,0.3c-0.2,0.1-0.4,0.2-0.6,0.4    l-0.8,0.3l-1.3-4L1238.8,1884.3z"/>
	</g>
</g></g>


    <g
            id="219"><rect
     id="rect1628"
     x="791.5"
     y="435.5"
     class="st3"
     width="133"
     height="165" />
        <g
                id="g1782">
	<g
            id="g1780">
		<path
                id="path1774"
                d="M803.9,445.8c0.5,0,1,0.1,1.4,0.3c0.4,0.2,0.7,0.5,0.9,0.8c0.2,0.4,0.3,0.8,0.3,1.2c0,0.4-0.1,0.8-0.2,1.1    c-0.1,0.4-0.4,0.8-0.6,1.2c-0.3,0.4-0.7,0.9-1.2,1.4s-1.1,1.1-1.8,1.7h4l-0.1,0.9h-5v-0.8c0.6-0.6,1.2-1.1,1.6-1.6    s0.8-0.9,1.1-1.2c0.3-0.3,0.5-0.7,0.7-0.9c0.2-0.3,0.3-0.6,0.3-0.8c0.1-0.3,0.1-0.5,0.1-0.8c0-0.5-0.1-0.9-0.4-1.1    c-0.3-0.3-0.6-0.4-1.1-0.4c-0.4,0-0.8,0.1-1,0.2s-0.5,0.4-0.8,0.7l-0.7-0.6c0.3-0.4,0.7-0.7,1.1-0.9    C802.9,445.9,803.4,445.8,803.9,445.8z"/>
        <path
                id="path1776"
                d="M812.6,446v8.2h-1v-7.1l-1.9,1.2l-0.4-0.7l2.5-1.6H812.6z M814.4,453.6v0.8h-4.9v-0.8H814.4z"/>
        <path
                id="path1778"
                d="M819,445.9c0.6,0,1.1,0.1,1.5,0.4s0.7,0.7,0.9,1.2s0.3,1.1,0.3,1.8c0,0.9-0.1,1.6-0.3,2.2s-0.4,1.1-0.8,1.5    c-0.4,0.4-0.8,0.7-1.4,1c-0.6,0.3-1.3,0.5-2,0.7l-0.2-0.8c0.8-0.2,1.5-0.5,2-0.8s0.9-0.7,1.2-1.2s0.4-1.1,0.4-1.8v-0.6    c0-0.7-0.1-1.3-0.2-1.7c-0.1-0.4-0.3-0.7-0.6-0.9c-0.2-0.2-0.6-0.3-1-0.3c-0.5,0-1,0.2-1.2,0.5c-0.3,0.3-0.4,0.8-0.4,1.5    c0,0.6,0.1,1.1,0.4,1.4c0.3,0.3,0.7,0.4,1.1,0.4c0.4,0,0.8-0.1,1.1-0.4c0.3-0.2,0.6-0.6,0.9-1v0.9c-0.2,0.4-0.6,0.7-0.9,0.9    s-0.8,0.4-1.2,0.4c-0.5,0-0.9-0.1-1.3-0.3c-0.4-0.2-0.7-0.5-0.9-0.9s-0.3-0.9-0.3-1.5s0.1-1.1,0.4-1.5c0.2-0.4,0.6-0.7,1-0.9    C818,446,818.4,445.9,819,445.9z"/>
	</g>
</g>
        <g
                id="g609">
	<g
            id="g607">
		<path
                d="M906.6,583.4v8.3H905V585l-1.8,1.1l-0.7-1.1l2.7-1.6H906.6z M908.2,590.6v1.2h-5.3v-1.2H908.2z"
                id="path603"/>
        <path
                d="M914,583.4v8.3h-1.6V585l-1.8,1.1l-0.7-1.1l2.7-1.6H914z M915.6,590.6v1.2h-5.3v-1.2H915.6z"
                id="path605"/>
	</g>
</g></g>
    <g
            id="218"><rect
     id="rect1626"
     x="791.5"
     y="599.5"
     class="st3"
     width="133"
     height="165" />
        <g
                id="g1792">
	<g
            id="g1790">
		<path
                id="path1784"
                d="M802.9,611.5c0.5,0,1,0.1,1.4,0.3s0.7,0.5,0.9,0.8c0.2,0.4,0.3,0.8,0.3,1.2s-0.1,0.8-0.2,1.1    c-0.1,0.4-0.4,0.8-0.6,1.2c-0.3,0.4-0.7,0.9-1.2,1.4s-1.1,1.1-1.8,1.7h4l-0.1,0.9h-5v-0.8c0.6-0.6,1.2-1.1,1.6-1.6    s0.8-0.9,1.1-1.2s0.5-0.7,0.7-0.9c0.2-0.3,0.3-0.6,0.3-0.8c0.1-0.3,0.1-0.5,0.1-0.8c0-0.5-0.1-0.9-0.4-1.1    c-0.3-0.3-0.6-0.4-1.1-0.4c-0.4,0-0.8,0.1-1,0.2s-0.5,0.4-0.8,0.7l-0.7-0.6c0.3-0.4,0.7-0.7,1.1-0.9    C801.9,611.6,802.4,611.5,802.9,611.5z"/>
        <path
                id="path1786"
                d="M811.6,611.7v8.2h-1v-7.1l-1.9,1.2l-0.4-0.7l2.5-1.6L811.6,611.7L811.6,611.7z M813.4,619.3v0.8h-4.9v-0.8    H813.4z"/>
        <path
                id="path1788"
                d="M820.6,613.7c0,0.4-0.1,0.8-0.4,1.1c-0.3,0.3-0.6,0.6-1.1,0.8c0.6,0.2,1,0.5,1.3,0.9s0.5,0.8,0.5,1.4    c0,0.5-0.1,0.9-0.4,1.2c-0.2,0.4-0.6,0.7-1,0.9s-0.9,0.3-1.5,0.3s-1.1-0.1-1.5-0.3s-0.8-0.5-1-0.9s-0.3-0.8-0.3-1.2    c0-0.5,0.2-1,0.5-1.3s0.7-0.7,1.2-0.9c-0.4-0.2-0.8-0.5-1-0.8s-0.3-0.7-0.3-1.2c0-0.4,0.1-0.7,0.2-1s0.4-0.5,0.6-0.7    c0.3-0.2,0.5-0.3,0.8-0.4c0.3-0.1,0.6-0.1,0.9-0.1c0.3,0,0.6,0,0.9,0.1c0.3,0.1,0.6,0.2,0.8,0.4s0.4,0.4,0.6,0.7    C820.6,613,820.6,613.3,820.6,613.7z M819.9,617.9c0-0.4-0.1-0.7-0.3-0.9s-0.5-0.4-0.8-0.6c-0.3-0.1-0.7-0.3-1.2-0.4    c-0.2,0.1-0.5,0.2-0.7,0.4s-0.4,0.4-0.5,0.6s-0.2,0.5-0.2,0.9c0,0.5,0.1,0.9,0.4,1.1c0.3,0.3,0.7,0.4,1.3,0.4s1-0.1,1.4-0.4    S819.9,618.3,819.9,617.9z M816.6,613.8c0,0.3,0.1,0.6,0.2,0.8c0.2,0.2,0.4,0.3,0.6,0.5c0.3,0.1,0.6,0.2,1,0.4    c0.4-0.2,0.7-0.5,0.9-0.7s0.3-0.5,0.3-0.9s-0.1-0.8-0.4-1c-0.3-0.2-0.6-0.4-1.1-0.4s-0.9,0.1-1.1,0.4    C816.7,613,816.6,613.3,816.6,613.8z"/>
	</g>
</g>
        <g
                id="g615">
	<g
            id="g613">
		<path
                d="M906.1,744.8c0.7,0,1.2,0.1,1.7,0.4s0.8,0.7,1,1.2c0.2,0.5,0.3,1.1,0.3,1.8c0,0.8-0.1,1.6-0.3,2.2    c-0.2,0.6-0.5,1.1-0.9,1.6c-0.4,0.4-0.9,0.8-1.5,1.1c-0.6,0.3-1.4,0.5-2.2,0.7l-0.3-1.2c0.8-0.2,1.4-0.4,1.9-0.7    c0.5-0.3,0.9-0.6,1.2-1s0.5-0.9,0.5-1.5l0-0.6c0-0.6,0-1.2-0.1-1.6s-0.2-0.7-0.4-0.9c-0.2-0.2-0.5-0.3-0.8-0.3    c-0.4,0-0.7,0.1-1,0.4c-0.2,0.3-0.3,0.7-0.3,1.3c0,0.6,0.1,1,0.3,1.2c0.2,0.2,0.5,0.4,0.9,0.4c0.3,0,0.6-0.1,0.9-0.2    c0.3-0.2,0.5-0.4,0.8-0.7l0,1c-0.3,0.3-0.6,0.6-0.9,0.8c-0.3,0.2-0.7,0.3-1.2,0.3c-0.5,0-0.9-0.1-1.2-0.3s-0.7-0.5-0.9-0.9    c-0.2-0.4-0.3-0.9-0.3-1.4c0-0.6,0.1-1.1,0.4-1.6c0.3-0.4,0.6-0.8,1.1-1C905,744.9,905.5,744.8,906.1,744.8z"
                id="path611"/>
	</g>
</g></g>
    <g
            id="217"><rect
     id="rect1624"
     x="791.5"
     y="763.5"
     class="st3"
     width="133"
     height="165" />
        <g
                id="g1802">
	<g
            id="g1800">
		<path
                id="path1794"
                d="M802.9,773.9c0.5,0,1,0.1,1.4,0.3s0.7,0.5,0.9,0.8c0.2,0.4,0.3,0.8,0.3,1.2s-0.1,0.8-0.2,1.1    c-0.1,0.4-0.4,0.8-0.6,1.2c-0.3,0.4-0.7,0.9-1.2,1.4s-1.1,1.1-1.8,1.7h4l-0.1,0.9h-5v-0.8c0.6-0.6,1.2-1.1,1.6-1.6    c0.4-0.5,0.8-0.9,1.1-1.2s0.5-0.7,0.7-0.9c0.2-0.3,0.3-0.6,0.3-0.8c0.1-0.3,0.1-0.5,0.1-0.8c0-0.5-0.1-0.9-0.4-1.1    c-0.3-0.3-0.6-0.4-1.1-0.4c-0.4,0-0.8,0.1-1,0.2s-0.5,0.4-0.8,0.7l-0.7-0.6c0.3-0.4,0.7-0.7,1.1-0.9S802.4,773.9,802.9,773.9z"/>
        <path
                id="path1796"
                d="M811.6,774v8.2h-1v-7.1l-1.9,1.2l-0.4-0.7l2.5-1.6L811.6,774L811.6,774z M813.4,781.7v0.8h-4.9v-0.8H813.4z    "/>
        <path
                id="path1798"
                d="M817.2,782.6l-1-0.3l3.3-7.4h-4V774h5v0.8L817.2,782.6z"/>
	</g>
</g>
        <g
                id="g621">
	<g
            id="g619">
		<path
                d="M906.4,917.6l-1.5-0.5l3.2-6.9h-3.8v-1.3h5.5v1.1L906.4,917.6z"
                id="path617"/>
	</g>
</g></g>
    <g
            id="226"><rect
     id="rect1634"
     x="1031.5"
     y="354.5"
     class="st3"
     width="133"
     height="117" />
        <g
                id="g1892">
	<g
            id="g1890">
		<path
                id="path1884"
                d="M1045.2,368c0.5,0,1,0.1,1.4,0.3c0.4,0.2,0.7,0.5,0.9,0.8c0.2,0.4,0.3,0.8,0.3,1.2c0,0.4-0.1,0.8-0.2,1.1    c-0.1,0.4-0.4,0.8-0.6,1.2c-0.3,0.4-0.7,0.9-1.2,1.4s-1.1,1.1-1.8,1.7h4l-0.1,0.9h-5v-0.8c0.6-0.6,1.2-1.1,1.6-1.6    s0.8-0.9,1.1-1.2c0.3-0.3,0.5-0.7,0.7-0.9c0.2-0.3,0.3-0.6,0.3-0.8c0.1-0.3,0.1-0.5,0.1-0.8c0-0.5-0.1-0.9-0.4-1.1    c-0.3-0.3-0.6-0.4-1.1-0.4c-0.4,0-0.8,0.1-1,0.2s-0.5,0.4-0.8,0.7l-0.7-0.6c0.3-0.4,0.7-0.7,1.1-0.9    C1044.1,368.1,1044.6,368,1045.2,368z"/>
        <path
                id="path1886"
                d="M1052.5,368c0.5,0,1,0.1,1.4,0.3c0.4,0.2,0.7,0.5,0.9,0.8c0.2,0.4,0.3,0.8,0.3,1.2c0,0.4-0.1,0.8-0.2,1.1    c-0.1,0.4-0.4,0.8-0.6,1.2c-0.3,0.4-0.7,0.9-1.2,1.4s-1.1,1.1-1.8,1.7h4l-0.1,0.9h-5v-0.8c0.6-0.6,1.2-1.1,1.6-1.6    s0.8-0.9,1.1-1.2c0.3-0.3,0.5-0.7,0.7-0.9c0.2-0.3,0.3-0.6,0.3-0.8c0.1-0.3,0.1-0.5,0.1-0.8c0-0.5-0.1-0.9-0.4-1.1    c-0.3-0.3-0.6-0.4-1.1-0.4c-0.4,0-0.8,0.1-1,0.2s-0.5,0.4-0.8,0.7l-0.7-0.6c0.3-0.4,0.7-0.7,1.1-0.9    C1051.5,368.1,1052,368,1052.5,368z"/>
        <path
                id="path1888"
                d="M1060.7,368c0.3,0,0.6,0,0.9,0.1s0.5,0.2,0.8,0.4l-0.4,0.7c-0.2-0.1-0.4-0.2-0.6-0.3    c-0.2-0.1-0.4-0.1-0.7-0.1c-0.5,0-0.8,0.2-1.2,0.5c-0.3,0.3-0.6,0.7-0.7,1.3c-0.2,0.5-0.2,1.2-0.2,1.9v0.4c0,1,0.1,1.8,0.4,2.3    s0.7,0.7,1.3,0.7c0.5,0,0.9-0.2,1.2-0.6c0.3-0.4,0.4-0.9,0.4-1.6c0-0.5-0.1-0.8-0.2-1.1c-0.1-0.3-0.3-0.5-0.5-0.6    s-0.5-0.2-0.8-0.2c-0.4,0-0.8,0.1-1.2,0.4c-0.3,0.3-0.6,0.6-0.8,1v-0.9c0.3-0.5,0.6-0.8,1-1s0.8-0.3,1.2-0.3    c0.4,0,0.8,0.1,1.2,0.3c0.4,0.2,0.7,0.5,0.9,0.9s0.3,0.9,0.3,1.5s-0.1,1.2-0.4,1.6c-0.2,0.4-0.6,0.8-1,1s-0.9,0.4-1.3,0.4    c-0.5,0-1-0.1-1.3-0.3c-0.4-0.2-0.6-0.5-0.9-0.8c-0.2-0.4-0.4-0.8-0.5-1.3s-0.2-1.1-0.2-1.7c0-0.9,0.1-1.7,0.4-2.4    c0.2-0.7,0.6-1.2,1.1-1.6S1060.1,368,1060.7,368z"/>
	</g>
</g>
        <g
                id="g629">
	<g
            id="g627">
		<path
                d="M1149.5,453.4v8.3h-1.6v-6.6l-1.8,1.1l-0.7-1.1l2.7-1.6H1149.5z M1151.2,460.7v1.2h-5.3v-1.2H1151.2z"
                id="path623"/>
        <path
                d="M1155,453.3l1.4,0.5l-2.1,5.1h4.4v1.2h-6V459L1155,453.3z M1157.7,456.7v5.3h-1.6l0-2.9l0.2-2.4H1157.7z"
                id="path625"/>
	</g>
</g></g>
    <g
            id="227"><rect
     id="rect1636"
     x="1031.5"
     y="471.5"
     class="st3"
     width="133"
     height="117" />
        <g
                id="g1902">
	<g
            id="g1900">
		<path
                id="path1894"
                d="M1045.2,483c0.5,0,1,0.1,1.4,0.3c0.4,0.2,0.7,0.5,0.9,0.8c0.2,0.4,0.3,0.8,0.3,1.2c0,0.4-0.1,0.8-0.2,1.1    c-0.1,0.4-0.4,0.8-0.6,1.2c-0.3,0.4-0.7,0.9-1.2,1.4s-1.1,1.1-1.8,1.7h4l-0.1,0.9h-5v-0.8c0.6-0.6,1.2-1.1,1.6-1.6    s0.8-0.9,1.1-1.2c0.3-0.3,0.5-0.7,0.7-0.9c0.2-0.3,0.3-0.6,0.3-0.8c0.1-0.3,0.1-0.5,0.1-0.8c0-0.5-0.1-0.9-0.4-1.1    c-0.3-0.3-0.6-0.4-1.1-0.4c-0.4,0-0.8,0.1-1,0.2s-0.5,0.4-0.8,0.7l-0.7-0.6c0.3-0.4,0.7-0.7,1.1-0.9    C1044.1,483.1,1044.6,483,1045.2,483z"/>
        <path
                id="path1896"
                d="M1052.5,483c0.5,0,1,0.1,1.4,0.3c0.4,0.2,0.7,0.5,0.9,0.8c0.2,0.4,0.3,0.8,0.3,1.2c0,0.4-0.1,0.8-0.2,1.1    c-0.1,0.4-0.4,0.8-0.6,1.2c-0.3,0.4-0.7,0.9-1.2,1.4s-1.1,1.1-1.8,1.7h4l-0.1,0.9h-5v-0.8c0.6-0.6,1.2-1.1,1.6-1.6    s0.8-0.9,1.1-1.2c0.3-0.3,0.5-0.7,0.7-0.9c0.2-0.3,0.3-0.6,0.3-0.8c0.1-0.3,0.1-0.5,0.1-0.8c0-0.5-0.1-0.9-0.4-1.1    c-0.3-0.3-0.6-0.4-1.1-0.4c-0.4,0-0.8,0.1-1,0.2s-0.5,0.4-0.8,0.7l-0.7-0.6c0.3-0.4,0.7-0.7,1.1-0.9    C1051.5,483.1,1052,483,1052.5,483z"/>
        <path
                id="path1898"
                d="M1059.4,491.7l-1-0.3l3.3-7.4h-4v-0.9h5v0.8L1059.4,491.7z"/>
	</g>
</g>
        <g
                id="g637">
	<g
            id="g635">
		<path
                d="M1150.4,571.4v8.3h-1.6V573l-1.8,1.1l-0.7-1.1l2.7-1.6H1150.4z M1152,578.6v1.2h-5.3v-1.2H1152z"
                id="path631"/>
        <path
                d="M1156.2,571.2c0.6,0,1.1,0.1,1.5,0.3c0.4,0.2,0.7,0.5,0.9,0.9c0.2,0.4,0.3,0.8,0.3,1.2c0,0.4-0.1,0.7-0.2,1.1    s-0.3,0.7-0.6,1.1c-0.3,0.4-0.6,0.8-1.1,1.3c-0.5,0.5-1,1-1.7,1.6h3.8l-0.2,1.3h-5.4v-1.2c0.6-0.6,1.1-1.1,1.5-1.5    c0.4-0.4,0.8-0.8,1.1-1.1c0.3-0.3,0.5-0.6,0.7-0.9c0.2-0.3,0.3-0.5,0.4-0.7c0.1-0.2,0.1-0.5,0.1-0.7c0-0.4-0.1-0.7-0.3-0.9    s-0.5-0.3-0.9-0.3c-0.4,0-0.7,0.1-0.9,0.2c-0.2,0.1-0.5,0.4-0.7,0.7l-1-0.8c0.3-0.4,0.7-0.8,1.2-1    C1155,571.3,1155.5,571.2,1156.2,571.2z"
                id="path633"/>
	</g>
</g></g>
    <g
            id="229"><rect
     id="rect1640"
     x="1031.5"
     y="753.5"
     class="st3"
     width="133"
     height="117" />
        <g
                id="g1922">
	<g
            id="g1920">
		<path
                id="path1914"
                d="M1046.2,764.8c0.5,0,1,0.1,1.4,0.3s0.7,0.5,0.9,0.8c0.2,0.4,0.3,0.8,0.3,1.2s-0.1,0.8-0.2,1.1    c-0.1,0.4-0.4,0.8-0.6,1.2c-0.3,0.4-0.7,0.9-1.2,1.4s-1.1,1.1-1.8,1.7h4l-0.1,0.9h-5v-0.8c0.6-0.6,1.2-1.1,1.6-1.6    s0.8-0.9,1.1-1.2c0.3-0.3,0.5-0.7,0.7-0.9c0.2-0.3,0.3-0.6,0.3-0.8c0.1-0.3,0.1-0.5,0.1-0.8c0-0.5-0.1-0.9-0.4-1.1    c-0.3-0.3-0.6-0.4-1.1-0.4c-0.4,0-0.8,0.1-1,0.2s-0.5,0.4-0.8,0.7l-0.7-0.6c0.3-0.4,0.7-0.7,1.1-0.9    C1045.1,764.9,1045.6,764.8,1046.2,764.8z"/>
        <path
                id="path1916"
                d="M1053.5,764.8c0.5,0,1,0.1,1.4,0.3s0.7,0.5,0.9,0.8c0.2,0.4,0.3,0.8,0.3,1.2s-0.1,0.8-0.2,1.1    c-0.1,0.4-0.4,0.8-0.6,1.2c-0.3,0.4-0.7,0.9-1.2,1.4s-1.1,1.1-1.8,1.7h4l-0.1,0.9h-5v-0.8c0.6-0.6,1.2-1.1,1.6-1.6    s0.8-0.9,1.1-1.2c0.3-0.3,0.5-0.7,0.7-0.9c0.2-0.3,0.3-0.6,0.3-0.8c0.1-0.3,0.1-0.5,0.1-0.8c0-0.5-0.1-0.9-0.4-1.1    c-0.3-0.3-0.6-0.4-1.1-0.4c-0.4,0-0.8,0.1-1,0.2s-0.5,0.4-0.8,0.7l-0.7-0.6c0.3-0.4,0.7-0.7,1.1-0.9    C1052.5,764.9,1053,764.8,1053.5,764.8z"/>
        <path
                id="path1918"
                d="M1061.2,764.8c0.6,0,1.1,0.1,1.5,0.4s0.7,0.7,0.9,1.2c0.2,0.5,0.3,1.1,0.3,1.8c0,0.9-0.1,1.6-0.3,2.2    c-0.2,0.6-0.4,1.1-0.8,1.5s-0.8,0.7-1.4,1s-1.3,0.5-2,0.7l-0.2-0.8c0.8-0.2,1.5-0.5,2-0.8s0.9-0.7,1.2-1.2    c0.3-0.5,0.4-1.1,0.4-1.8v-0.6c0-0.7-0.1-1.3-0.2-1.7s-0.3-0.7-0.6-0.9c-0.2-0.2-0.6-0.3-1-0.3c-0.5,0-1,0.2-1.2,0.5    c-0.3,0.3-0.4,0.8-0.4,1.5c0,0.6,0.1,1.1,0.4,1.4c0.3,0.3,0.7,0.4,1.1,0.4s0.8-0.1,1.1-0.4c0.3-0.2,0.6-0.6,0.9-1v0.9    c-0.2,0.4-0.6,0.7-0.9,0.9s-0.8,0.4-1.2,0.4c-0.5,0-0.9-0.1-1.3-0.3s-0.7-0.5-0.9-0.9c-0.2-0.4-0.3-0.9-0.3-1.5s0.1-1.1,0.4-1.5    c0.2-0.4,0.6-0.7,1-0.9C1060.2,764.9,1060.7,764.8,1061.2,764.8z"/>
	</g>
</g>
        <g
                id="g645">
	<g
            id="g643">
		<path
                d="M1150.4,852.7v8.3h-1.6v-6.6l-1.8,1.1l-0.7-1.1l2.7-1.6H1150.4z M1152,859.9v1.2h-5.3v-1.2H1152z"
                id="path639"/>
        <path
                d="M1156.5,852.5c1,0,1.7,0.4,2.2,1.2c0.5,0.8,0.8,1.9,0.8,3.3c0,1.4-0.3,2.5-0.8,3.3c-0.5,0.8-1.2,1.2-2.2,1.2    c-1,0-1.7-0.4-2.2-1.2c-0.5-0.8-0.7-1.9-0.7-3.3c0-1.4,0.2-2.5,0.7-3.3C1154.8,852.9,1155.5,852.5,1156.5,852.5z M1157.6,854    l0.4,1l-2.4,5l-0.5-0.8L1157.6,854z M1156.5,853.7c-0.5,0-0.8,0.2-1,0.7c-0.2,0.5-0.4,1.3-0.4,2.5c0,0.6,0,1.2,0.1,1.6    c0,0.4,0.1,0.8,0.2,1c0.1,0.2,0.3,0.4,0.4,0.5c0.2,0.1,0.4,0.2,0.7,0.2c0.3,0,0.6-0.1,0.8-0.3s0.4-0.6,0.5-1    c0.1-0.5,0.2-1.1,0.2-1.9c0-0.8,0-1.5-0.1-2s-0.2-0.8-0.4-1C1157.1,853.8,1156.8,853.7,1156.5,853.7z"
                id="path641"/>
	</g>
</g></g>
    <g
            id="230"><rect
     id="rect1642"
     x="1031.5"
     y="870.5"
     class="st3"
     width="133"
     height="117" />
        <g
                id="g1932">
	<g
            id="g1930">
		<path
                id="path1924"
                d="M1045.2,883.8c0.5,0,1,0.1,1.4,0.3s0.7,0.5,0.9,0.8c0.2,0.4,0.3,0.8,0.3,1.2s-0.1,0.8-0.2,1.1    c-0.1,0.4-0.4,0.8-0.6,1.2c-0.3,0.4-0.7,0.9-1.2,1.4s-1.1,1.1-1.8,1.7h4l-0.1,0.9h-5v-0.8c0.6-0.6,1.2-1.1,1.6-1.6    s0.8-0.9,1.1-1.2c0.3-0.3,0.5-0.7,0.7-0.9c0.2-0.3,0.3-0.6,0.3-0.8c0.1-0.3,0.1-0.5,0.1-0.8c0-0.5-0.1-0.9-0.4-1.1    c-0.3-0.3-0.6-0.4-1.1-0.4c-0.4,0-0.8,0.1-1,0.2s-0.5,0.4-0.8,0.7l-0.7-0.6c0.3-0.4,0.7-0.7,1.1-0.9    C1044.1,883.9,1044.6,883.8,1045.2,883.8z"/>
        <path
                id="path1926"
                d="M1052.5,883.8c0.5,0,1,0.1,1.4,0.3s0.7,0.4,0.9,0.8c0.2,0.3,0.3,0.7,0.3,1.1c0,0.3-0.1,0.7-0.2,0.9    c-0.2,0.3-0.4,0.5-0.6,0.7c-0.3,0.2-0.5,0.3-0.8,0.4c0.3,0,0.6,0.1,0.9,0.3s0.5,0.4,0.7,0.7s0.3,0.7,0.3,1.1    c0,0.5-0.1,0.9-0.4,1.3s-0.6,0.7-1,0.9s-1,0.3-1.5,0.3s-0.9-0.1-1.4-0.3s-0.9-0.5-1.2-0.9l0.7-0.6c0.2,0.3,0.5,0.5,0.9,0.6    c0.3,0.1,0.7,0.2,1,0.2c0.6,0,1.1-0.2,1.4-0.5s0.5-0.7,0.5-1.3c0-0.4-0.1-0.7-0.2-1c-0.2-0.2-0.4-0.4-0.6-0.5s-0.6-0.2-0.9-0.2    h-0.7l0.1-0.8h0.5c0.3,0,0.5-0.1,0.8-0.2c0.2-0.1,0.4-0.3,0.6-0.5s0.2-0.5,0.2-0.8c0-0.5-0.2-0.8-0.5-1.1    c-0.3-0.2-0.7-0.4-1.1-0.4s-0.7,0.1-1,0.2c-0.3,0.1-0.6,0.3-0.8,0.6l-0.6-0.6c0.4-0.3,0.7-0.6,1.2-0.7    C1051.7,883.9,1052.1,883.8,1052.5,883.8z"/>
        <path
                id="path1928"
                d="M1060.3,883.8c0.9,0,1.6,0.4,2.1,1.1c0.5,0.8,0.7,1.8,0.7,3.2s-0.2,2.5-0.7,3.2c-0.5,0.8-1.2,1.1-2.1,1.1    s-1.6-0.4-2.1-1.1c-0.5-0.8-0.7-1.8-0.7-3.2s0.2-2.5,0.7-3.2S1059.4,883.8,1060.3,883.8z M1060.3,884.6c-0.5,0-0.9,0.3-1.2,0.8    c-0.3,0.6-0.4,1.5-0.4,2.7c0,0.6,0,1.2,0.1,1.6c0.1,0.5,0.2,0.8,0.3,1.1c0.1,0.3,0.3,0.5,0.5,0.6s0.5,0.2,0.8,0.2    c0.4,0,0.7-0.1,0.9-0.4c0.3-0.2,0.4-0.6,0.6-1.1c0.1-0.5,0.2-1.2,0.2-2s-0.1-1.5-0.2-2s-0.3-0.9-0.5-1.1    C1061,884.7,1060.7,884.6,1060.3,884.6z M1061.5,884.9l0.3,0.9l-2.7,5.5l-0.4-0.7L1061.5,884.9z"/>
	</g>
</g>
        <g
                id="g651">
	<g
            id="g649">
		<path
                d="M1152.7,971.8c0,0.4-0.1,0.7-0.3,1c-0.2,0.3-0.6,0.6-1,0.8c0.6,0.3,1,0.6,1.3,1s0.4,0.8,0.4,1.3c0,0.4-0.1,0.9-0.4,1.2    s-0.6,0.7-1.1,0.9c-0.5,0.2-1,0.3-1.7,0.3c-0.7,0-1.2-0.1-1.7-0.3s-0.8-0.5-1-0.9s-0.3-0.8-0.3-1.2c0-0.5,0.1-0.9,0.4-1.3    s0.7-0.7,1.2-0.9c-0.4-0.3-0.8-0.5-1-0.8s-0.3-0.7-0.3-1.2c0-0.4,0.1-0.7,0.2-1c0.1-0.3,0.3-0.5,0.6-0.7c0.3-0.2,0.5-0.3,0.9-0.4    c0.3-0.1,0.7-0.2,1-0.2c0.4,0,0.7,0,1.1,0.1c0.3,0.1,0.6,0.2,0.9,0.4s0.4,0.4,0.6,0.7C1152.6,971.1,1152.7,971.4,1152.7,971.8z     M1151.4,975.9c0-0.3-0.1-0.6-0.2-0.8c-0.1-0.2-0.3-0.4-0.6-0.5c-0.3-0.1-0.6-0.3-1-0.4c-0.2,0.1-0.4,0.2-0.5,0.4    c-0.1,0.2-0.3,0.3-0.4,0.5c-0.1,0.2-0.1,0.4-0.1,0.7c0,0.4,0.1,0.7,0.4,1c0.2,0.2,0.6,0.4,1.1,0.4c0.5,0,0.8-0.1,1.1-0.4    C1151.3,976.6,1151.4,976.3,1151.4,975.9z M1148.8,971.9c0,0.2,0.1,0.5,0.2,0.6s0.3,0.3,0.5,0.4c0.2,0.1,0.5,0.2,0.8,0.4    c0.3-0.2,0.5-0.4,0.7-0.6c0.1-0.2,0.2-0.5,0.2-0.7c0-0.3-0.1-0.6-0.3-0.8s-0.5-0.3-0.9-0.3c-0.4,0-0.7,0.1-0.9,0.3    S1148.8,971.5,1148.8,971.9z"
                id="path647"/>
	</g>
</g></g>
    <g
            id="232"><rect
     id="rect1650"
     x="1031.5"
     y="1152.5"
     class="st3"
     width="133"
     height="105" />
        <g
                id="g1952">
	<g
            id="g1950">
		<path
                id="path1944"
                d="M1045.2,1167.8c0.5,0,1,0.1,1.4,0.3c0.4,0.2,0.7,0.5,0.9,0.8c0.2,0.4,0.3,0.8,0.3,1.2    c0,0.4-0.1,0.8-0.2,1.1c-0.1,0.4-0.4,0.8-0.6,1.2c-0.3,0.4-0.7,0.9-1.2,1.4s-1.1,1.1-1.8,1.7h4l-0.1,0.9h-5v-0.8    c0.6-0.6,1.2-1.1,1.6-1.6s0.8-0.9,1.1-1.2c0.3-0.3,0.5-0.7,0.7-0.9c0.2-0.3,0.3-0.6,0.3-0.8c0.1-0.3,0.1-0.5,0.1-0.8    c0-0.5-0.1-0.9-0.4-1.1c-0.3-0.3-0.6-0.4-1.1-0.4c-0.4,0-0.8,0.1-1,0.2s-0.5,0.4-0.8,0.7l-0.7-0.6c0.3-0.4,0.7-0.7,1.1-0.9    S1044.6,1167.8,1045.2,1167.8z"/>
        <path
                id="path1946"
                d="M1052.5,1167.8c0.5,0,1,0.1,1.4,0.3s0.7,0.4,0.9,0.8c0.2,0.3,0.3,0.7,0.3,1.1c0,0.3-0.1,0.7-0.2,0.9    c-0.2,0.3-0.4,0.5-0.6,0.7c-0.3,0.2-0.5,0.3-0.8,0.4c0.3,0,0.6,0.1,0.9,0.3s0.5,0.4,0.7,0.7s0.3,0.7,0.3,1.1    c0,0.5-0.1,0.9-0.4,1.3s-0.6,0.7-1,0.9c-0.4,0.2-1,0.3-1.5,0.3s-0.9-0.1-1.4-0.3c-0.5-0.2-0.9-0.5-1.2-0.9l0.7-0.6    c0.2,0.3,0.5,0.5,0.9,0.6c0.3,0.1,0.7,0.2,1,0.2c0.6,0,1.1-0.2,1.4-0.5s0.5-0.7,0.5-1.3c0-0.4-0.1-0.7-0.2-1    c-0.2-0.2-0.4-0.4-0.6-0.5s-0.6-0.2-0.9-0.2h-0.7l0.1-0.8h0.5c0.3,0,0.5-0.1,0.8-0.2s0.4-0.3,0.6-0.5s0.2-0.5,0.2-0.8    c0-0.5-0.2-0.8-0.5-1.1c-0.3-0.2-0.7-0.4-1.1-0.4s-0.7,0.1-1,0.2s-0.6,0.3-0.8,0.6l-0.6-0.6c0.4-0.3,0.7-0.6,1.2-0.7    C1051.7,1167.9,1052.1,1167.8,1052.5,1167.8z"/>
        <path
                id="path1948"
                d="M1059.9,1167.8c0.5,0,1,0.1,1.4,0.3c0.4,0.2,0.7,0.5,0.9,0.8c0.2,0.4,0.3,0.8,0.3,1.2    c0,0.4-0.1,0.8-0.2,1.1c-0.1,0.4-0.4,0.8-0.6,1.2c-0.3,0.4-0.7,0.9-1.2,1.4s-1.1,1.1-1.8,1.7h4l-0.1,0.9h-5v-0.8    c0.6-0.6,1.2-1.1,1.6-1.6s0.8-0.9,1.1-1.2c0.3-0.3,0.5-0.7,0.7-0.9c0.2-0.3,0.3-0.6,0.3-0.8c0.1-0.3,0.1-0.5,0.1-0.8    c0-0.5-0.1-0.9-0.4-1.1c-0.3-0.3-0.6-0.4-1.1-0.4c-0.4,0-0.8,0.1-1,0.2s-0.5,0.4-0.8,0.7l-0.7-0.6c0.3-0.4,0.7-0.7,1.1-0.9    S1059.4,1167.8,1059.9,1167.8z"/>
	</g>
</g>
        <g
                id="g657">
	<g
            id="g655">
		<path
                d="M1149.7,1240.3c0.4,0,0.7,0,1,0.1c0.3,0.1,0.6,0.2,0.8,0.4l-0.6,1c-0.2-0.1-0.4-0.2-0.6-0.3c-0.2-0.1-0.4-0.1-0.6-0.1    c-0.4,0-0.7,0.1-1,0.4c-0.3,0.2-0.5,0.6-0.6,1c-0.2,0.5-0.2,1-0.2,1.6l0,0.5c0,1,0.1,1.7,0.3,2.2c0.2,0.5,0.6,0.7,1.1,0.7    c0.4,0,0.7-0.2,0.9-0.5c0.2-0.3,0.3-0.8,0.3-1.3c0-0.4,0-0.7-0.1-1s-0.2-0.4-0.4-0.5c-0.2-0.1-0.4-0.2-0.6-0.2    c-0.3,0-0.6,0.1-0.9,0.3c-0.3,0.2-0.5,0.4-0.7,0.7l0-1.1c0.3-0.4,0.6-0.6,0.9-0.8c0.3-0.2,0.7-0.3,1.1-0.3c0.4,0,0.8,0.1,1.2,0.3    c0.4,0.2,0.6,0.5,0.9,0.9c0.2,0.4,0.3,0.9,0.3,1.5c0,0.6-0.1,1.1-0.4,1.6c-0.2,0.5-0.6,0.8-1,1.1s-0.9,0.4-1.5,0.4    c-0.5,0-1-0.1-1.4-0.3s-0.7-0.5-0.9-0.9c-0.2-0.4-0.4-0.8-0.5-1.3c-0.1-0.5-0.2-1-0.2-1.6c0-1,0.1-1.8,0.4-2.5s0.7-1.3,1.2-1.7    C1148.3,1240.5,1148.9,1240.3,1149.7,1240.3z"
                id="path653"/>
	</g>
</g></g>
    <g id="204">
        <g id="g1466">
            <rect
                    id="rect1656"
                    x="1172.7"
                    y="1704.5"
                    transform="matrix(0.9495 -0.3137 0.3137 0.9495 -498.646 475.2267)"
                    class="st5"
                    width="109.2"
                    height="165"/>
            <g
                    id="g1982">
	<g
            id="g1980">
		<path
                id="path1974"
                d="M1169.8,1733.5c0.5-0.2,1-0.2,1.4-0.1s0.8,0.3,1.1,0.5s0.5,0.6,0.7,1.1c0.1,0.4,0.2,0.8,0.2,1.1    c0,0.4-0.1,0.8-0.2,1.3c-0.2,0.5-0.4,1-0.7,1.7s-0.7,1.3-1.2,2.2l3.8-1.3l0.2,0.9l-4.8,1.6l-0.3-0.8c0.4-0.8,0.8-1.5,1-2    s0.5-1.1,0.7-1.5s0.3-0.8,0.4-1.1s0.1-0.6,0.1-0.9s-0.1-0.5-0.2-0.8c-0.1-0.5-0.4-0.8-0.7-0.9c-0.3-0.2-0.7-0.2-1.2,0    c-0.4,0.1-0.7,0.3-0.9,0.5c-0.2,0.2-0.4,0.5-0.5,0.9l-0.9-0.3c0.2-0.5,0.4-0.9,0.8-1.2C1168.8,1733.9,1169.3,1733.7,1169.8,1733.5    z"/>
        <path
                id="path1976"
                d="M1177.2,1731.1c0.9-0.3,1.6-0.1,2.3,0.4c0.7,0.6,1.2,1.5,1.7,2.9c0.4,1.3,0.6,2.4,0.4,3.3s-0.7,1.4-1.6,1.7    c-0.9,0.3-1.6,0.1-2.3-0.4c-0.7-0.6-1.2-1.5-1.7-2.9c-0.4-1.3-0.6-2.4-0.3-3.3C1175.8,1731.9,1176.3,1731.4,1177.2,1731.1z     M1177.5,1731.9c-0.5,0.2-0.8,0.6-0.9,1.2s0,1.5,0.4,2.7c0.2,0.6,0.4,1.1,0.6,1.5s0.4,0.7,0.6,0.9c0.2,0.2,0.4,0.4,0.7,0.4    c0.2,0.1,0.5,0,0.8,0c0.3-0.1,0.6-0.3,0.7-0.6c0.2-0.3,0.2-0.7,0.2-1.3c0-0.5-0.2-1.2-0.4-2c-0.3-0.8-0.5-1.4-0.8-1.9    s-0.6-0.8-0.9-0.9C1178.2,1731.7,1177.8,1731.7,1177.5,1731.9z M1178.7,1731.8l0.5,0.8l-0.8,6l-0.6-0.6L1178.7,1731.8z"/>
        <path
                id="path1978"
                d="M1183.9,1728.9l0.9,0.1l-0.5,5.8l4.3-1.4l0.3,0.8l-5.3,1.8l-0.2-0.7L1183.9,1728.9z M1186.9,1731.4l1.7,5    l-0.9,0.3l-0.8-2.6l-0.7-2.5L1186.9,1731.4z"/>
	</g>
</g></g>
        <g
                id="g663">
	<g
            id="g661">
		<path
                d="M1283.6,1839c0.6-0.2,1.1-0.2,1.6-0.2c0.5,0.1,0.9,0.3,1.2,0.5c0.3,0.3,0.5,0.6,0.7,1.1c0.1,0.3,0.2,0.7,0.2,1.1    c0,0.4-0.1,0.8-0.2,1.2c-0.1,0.4-0.4,1-0.7,1.5c-0.3,0.6-0.7,1.3-1.1,2l3.6-1.2l0.2,1.3l-5.2,1.7l-0.4-1.1c0.4-0.7,0.7-1.4,1-1.9    s0.5-1,0.7-1.4s0.3-0.8,0.4-1.1c0.1-0.3,0.1-0.6,0.1-0.8c0-0.2,0-0.5-0.1-0.7c-0.1-0.4-0.3-0.6-0.6-0.8s-0.6-0.2-1,0    c-0.3,0.1-0.6,0.3-0.8,0.5c-0.2,0.2-0.4,0.5-0.5,0.9l-1.2-0.4c0.2-0.5,0.4-1,0.8-1.3S1283,1839.2,1283.6,1839z"
                id="path659"/>
	</g>
</g></g>
    <g
            id="210"><rect
     id="rect1666"
     x="1016.3"
     y="1757.2"
     transform="matrix(0.9495 -0.3137 0.3137 0.9495 -526.5662 429.3789)"
     class="st5"
     width="109.2"
     height="187.3" />
        <g
                id="g2022">
	<g
            id="g2020">
		<path
                id="path2014"
                d="M1009.5,1788c0.5-0.2,1-0.2,1.4-0.1s0.8,0.3,1.1,0.5c0.3,0.3,0.5,0.6,0.7,1.1c0.1,0.4,0.2,0.8,0.2,1.1    s-0.1,0.8-0.2,1.3c-0.2,0.5-0.4,1-0.7,1.7c-0.3,0.6-0.7,1.3-1.2,2.2l3.8-1.3l0.2,0.9l-4.8,1.6l-0.3-0.8c0.4-0.8,0.8-1.5,1-2    c0.3-0.6,0.5-1.1,0.7-1.5s0.3-0.8,0.4-1.1c0.1-0.3,0.1-0.6,0.1-0.9s-0.1-0.5-0.2-0.8c-0.1-0.5-0.4-0.8-0.7-0.9    c-0.3-0.2-0.7-0.2-1.2,0c-0.4,0.1-0.7,0.3-0.9,0.5s-0.4,0.5-0.5,0.9l-0.9-0.3c0.2-0.5,0.4-0.9,0.8-1.2    C1008.5,1788.4,1009,1788.2,1009.5,1788z"/>
        <path
                id="path2016"
                d="M1017.8,1785.4l2.6,7.8l-1,0.3l-2.2-6.8l-1.5,1.7l-0.7-0.6l1.9-2.3L1017.8,1785.4z M1021.9,1792.1l0.3,0.8    l-4.6,1.5l-0.3-0.8L1021.9,1792.1z"/>
        <path
                id="path2018"
                d="M1023.9,1783.2c0.9-0.3,1.6-0.1,2.3,0.4c0.7,0.6,1.2,1.5,1.7,2.9c0.4,1.3,0.6,2.4,0.4,3.3s-0.7,1.4-1.6,1.7    c-0.9,0.3-1.6,0.1-2.3-0.4c-0.7-0.6-1.2-1.5-1.7-2.9c-0.4-1.3-0.6-2.4-0.3-3.3C1022.5,1784.1,1023,1783.5,1023.9,1783.2z     M1024.1,1784c-0.5,0.2-0.8,0.6-0.9,1.2c-0.1,0.6,0,1.5,0.4,2.7c0.2,0.6,0.4,1.1,0.6,1.5s0.4,0.7,0.6,0.9c0.2,0.2,0.5,0.4,0.7,0.4    s0.5,0,0.8,0c0.3-0.1,0.6-0.3,0.7-0.6c0.2-0.3,0.2-0.7,0.2-1.3c0-0.5-0.2-1.2-0.4-2c-0.3-0.8-0.5-1.4-0.8-1.9s-0.6-0.8-0.9-0.9    S1024.5,1783.9,1024.1,1784z M1025.4,1783.9l0.5,0.8l-0.8,6l-0.6-0.6L1025.4,1783.9z"/>
	</g>
</g>
        <g
                id="g669">
	<g
            id="g667">
		<path
                d="M1127.3,1911.1c0.6-0.2,1.1-0.2,1.5-0.2c0.5,0.1,0.8,0.2,1.2,0.5c0.3,0.2,0.5,0.6,0.6,0.9c0.1,0.3,0.1,0.7,0.1,1    s-0.2,0.6-0.4,0.8c-0.2,0.3-0.4,0.5-0.7,0.7c0.4-0.1,0.7-0.1,1.1,0c0.3,0.1,0.6,0.2,0.9,0.4c0.3,0.2,0.5,0.6,0.6,1    c0.1,0.5,0.2,0.9,0,1.4c-0.1,0.5-0.4,0.9-0.8,1.2c-0.4,0.4-0.9,0.6-1.5,0.8c-0.6,0.2-1.1,0.2-1.6,0.2c-0.5,0-1-0.2-1.5-0.5    l0.6-1.1c0.3,0.2,0.6,0.3,1,0.3c0.3,0,0.7,0,1-0.1c0.5-0.1,0.8-0.4,1-0.7c0.2-0.3,0.2-0.7,0.1-1.1c-0.1-0.3-0.2-0.6-0.4-0.7    s-0.4-0.2-0.6-0.3c-0.2,0-0.5,0-0.8,0.1l-0.7,0.2l-0.2-1.2l0.5-0.2c0.2-0.1,0.5-0.2,0.6-0.3c0.2-0.2,0.3-0.3,0.4-0.5    c0.1-0.2,0.1-0.5,0-0.7c-0.1-0.4-0.3-0.6-0.6-0.7c-0.3-0.1-0.7-0.1-1,0c-0.3,0.1-0.6,0.3-0.8,0.5c-0.2,0.2-0.4,0.5-0.6,0.8    l-1.1-0.6c0.2-0.5,0.6-0.9,0.9-1.2C1126.4,1911.5,1126.8,1911.2,1127.3,1911.1z"
                id="path665"/>
	</g>
</g></g>
    <g
            id="206"><rect
     id="rect1660"
     x="1093.9"
     y="2016.4"
     transform="matrix(0.9495 -0.3137 0.3137 0.9495 -587.8661 491.3812)"
     class="st5"
     width="278"
     height="111.9" />
        <g
                id="g2002">
	<g
            id="g2000">
		<path
                id="path1994"
                d="M1102.3,2069.6c0.5-0.2,1-0.2,1.4-0.1c0.4,0.1,0.8,0.2,1.1,0.5c0.3,0.3,0.5,0.6,0.7,1.1    c0.1,0.4,0.2,0.8,0.2,1.1s-0.1,0.8-0.2,1.3c-0.2,0.5-0.4,1-0.7,1.7c-0.3,0.6-0.7,1.3-1.2,2.2l3.8-1.3l0.2,0.9l-4.8,1.6l-0.3-0.8    c0.4-0.8,0.8-1.5,1-2s0.5-1.1,0.7-1.5s0.3-0.8,0.4-1.1s0.1-0.6,0.1-0.9c0-0.3-0.1-0.5-0.2-0.8c-0.1-0.5-0.4-0.8-0.7-0.9    c-0.3-0.2-0.7-0.2-1.2,0c-0.4,0.1-0.7,0.3-0.9,0.5c-0.2,0.2-0.4,0.5-0.5,0.9l-0.9-0.3c0.2-0.5,0.4-0.9,0.8-1.2    C1101.3,2070,1101.7,2069.7,1102.3,2069.6z"/>
        <path
                id="path1996"
                d="M1109.7,2067.1c0.9-0.3,1.6-0.1,2.3,0.4c0.7,0.6,1.2,1.5,1.7,2.9c0.4,1.3,0.6,2.4,0.4,3.3    c-0.2,0.9-0.7,1.4-1.6,1.7s-1.6,0.1-2.3-0.4c-0.7-0.6-1.2-1.5-1.7-2.9c-0.4-1.3-0.6-2.4-0.3-3.3    C1108.2,2068,1108.8,2067.4,1109.7,2067.1z M1109.9,2067.9c-0.5,0.2-0.8,0.6-0.9,1.2s0,1.5,0.4,2.7c0.2,0.6,0.4,1.1,0.6,1.5    s0.4,0.7,0.6,0.9s0.4,0.4,0.7,0.4c0.2,0.1,0.5,0,0.8-0.1s0.6-0.3,0.7-0.6c0.2-0.3,0.2-0.7,0.2-1.3c0-0.5-0.2-1.2-0.4-2    c-0.3-0.8-0.5-1.4-0.8-1.9s-0.6-0.8-0.9-0.9C1110.6,2067.8,1110.3,2067.8,1109.9,2067.9z M1111.2,2067.8l0.5,0.8l-0.8,6l-0.6-0.6    L1111.2,2067.8z"/>
        <path
                id="path1998"
                d="M1117.1,2064.7c0.3-0.1,0.6-0.2,0.9-0.2s0.6,0,0.8,0.1l-0.2,0.8c-0.2-0.1-0.4-0.1-0.7-0.1    c-0.2,0-0.4,0.1-0.7,0.1c-0.4,0.1-0.7,0.4-1,0.8c-0.2,0.4-0.3,0.9-0.3,1.4c0,0.6,0.1,1.2,0.4,1.9l0.1,0.4c0.3,1,0.7,1.7,1.1,2    c0.4,0.4,0.9,0.5,1.5,0.3c0.5-0.2,0.8-0.5,1-0.9c0.1-0.4,0.1-1-0.1-1.6c-0.1-0.4-0.3-0.8-0.5-1s-0.4-0.3-0.7-0.4    c-0.2,0-0.5,0-0.8,0.1c-0.4,0.1-0.7,0.4-1,0.7c-0.2,0.4-0.4,0.8-0.5,1.2l-0.3-0.9c0.1-0.5,0.3-1,0.6-1.3c0.3-0.3,0.6-0.5,1.1-0.7    c0.4-0.1,0.8-0.2,1.2-0.1c0.4,0.1,0.8,0.3,1.1,0.6s0.6,0.7,0.8,1.3c0.2,0.6,0.2,1.1,0.2,1.6c-0.1,0.5-0.3,0.9-0.6,1.3    c-0.3,0.4-0.7,0.6-1.2,0.8s-0.9,0.2-1.3,0.1c-0.4-0.1-0.8-0.2-1.1-0.5c-0.3-0.3-0.6-0.6-0.9-1.1s-0.5-1-0.7-1.6    c-0.3-0.9-0.4-1.7-0.4-2.4s0.2-1.4,0.5-1.9C1116,2065.2,1116.4,2064.9,1117.1,2064.7z"/>
	</g>
</g>
        <g
                id="g675">
	<g
            id="g673">
		<path
                d="M1361.1,2069.8l2.5,7.9l-1.5,0.5l-2-6.3l-1.4,1.6l-1-0.9l2-2.4L1361.1,2069.8z M1364.9,2076.2l0.4,1.2l-5.1,1.6l-0.4-1.2    L1364.9,2076.2z"
                id="path671"/>
	</g>
</g></g>
    <g
            id="211"><rect
     id="rect1664"
     x="961.8"
     y="1601.1"
     transform="matrix(0.9495 -0.3137 0.3137 0.9495 -476.8492 403.8469)"
     class="st5"
     width="109.2"
     height="165" />
        <g
                id="g2012">
	<g
            id="g2010">
		<path
                id="path2004"
                d="M956.3,1629.2c0.5-0.2,1-0.2,1.4-0.1s0.8,0.3,1.1,0.5s0.5,0.6,0.7,1.1c0.1,0.4,0.2,0.8,0.2,1.1    c0,0.4-0.1,0.8-0.2,1.3c-0.2,0.5-0.4,1-0.7,1.7s-0.7,1.3-1.2,2.2l3.8-1.3l0.2,0.9l-4.8,1.6l-0.3-0.8c0.4-0.8,0.8-1.5,1-2    s0.5-1.1,0.7-1.5s0.3-0.8,0.4-1.1s0.1-0.6,0.1-0.9s-0.1-0.5-0.2-0.8c-0.1-0.5-0.4-0.8-0.7-0.9c-0.3-0.2-0.7-0.2-1.2,0    c-0.4,0.1-0.7,0.3-0.9,0.5s-0.4,0.5-0.5,0.9l-0.9-0.3c0.2-0.5,0.4-0.9,0.8-1.2C955.3,1629.6,955.7,1629.4,956.3,1629.2z"/>
        <path
                id="path2006"
                d="M964.6,1626.6l2.6,7.8l-1,0.3l-2.2-6.7l-1.5,1.7l-0.7-0.6l1.9-2.3L964.6,1626.6z M968.6,1633.3l0.3,0.8    l-4.6,1.5l-0.3-0.8L968.6,1633.3z"/>
        <path
                id="path2008"
                d="M971.6,1624.3l2.6,7.8l-1,0.3l-2.2-6.7l-1.5,1.7l-0.7-0.6l1.9-2.3L971.6,1624.3z M975.6,1631l0.3,0.8    l-4.6,1.5l-0.3-0.8L975.6,1631z"/>
	</g>
</g>
        <g
                id="g681">
	<g
            id="g679">
		<path
                d="M1073.3,1734.8l0.2,1.2l-3,1l0.7,2c0.2-0.2,0.4-0.3,0.6-0.4c0.2-0.1,0.4-0.2,0.6-0.3c0.4-0.1,0.8-0.2,1.3-0.1    c0.4,0.1,0.8,0.3,1.1,0.6s0.6,0.8,0.7,1.3c0.2,0.5,0.2,1.1,0.1,1.6c-0.1,0.5-0.4,1-0.7,1.3c-0.4,0.4-0.9,0.7-1.5,0.9    c-0.6,0.2-1.1,0.2-1.6,0.2c-0.5-0.1-0.9-0.2-1.4-0.5l0.6-1.1c0.3,0.2,0.6,0.3,0.9,0.3c0.3,0,0.6,0,0.9-0.1c0.5-0.2,0.8-0.4,1-0.8    s0.2-0.8,0-1.3c-0.1-0.4-0.3-0.6-0.4-0.8c-0.2-0.2-0.4-0.3-0.6-0.3c-0.2,0-0.4,0-0.7,0.1c-0.2,0.1-0.3,0.1-0.5,0.2    s-0.3,0.2-0.5,0.4l-1.1,0.4l-1.4-4.2L1073.3,1734.8z"
                id="path677"/>
	</g>
</g></g>


    <g
            id="208"><rect
     id="rect1668"
     x="1053.7"
     y="1937.9"
     transform="matrix(0.9495 -0.3137 0.3137 0.9495 -560.7853 446.9301)"
     class="st6"
     width="109.2"
     height="56.1" />
        <g
                id="g2030">
	<g
            id="g2028">
		<path
                id="path2024"
                d="M1124.7,1953.9l2.4,12.6l-2.6,0.9l-4-8.5l1.8,9.2l-2.7,0.9l-5.5-11.6l2.3-0.8l4,9.7l-1.7-8.9l2.3-0.7    l3.9,8.2l-2.4-10.2L1124.7,1953.9z"/>
        <path
                id="path2026"
                d="M1130.9,1951.5c0.8-0.3,1.6-0.4,2.2-0.4c0.7,0,1.3,0.2,1.9,0.4l-0.7,1.8c-0.4-0.2-0.9-0.3-1.4-0.3    s-0.9,0.1-1.4,0.2c-0.6,0.2-1,0.5-1.4,1s-0.6,1.1-0.7,1.8c-0.1,0.8,0.1,1.7,0.4,2.7c0.3,1.1,0.8,1.9,1.3,2.4    c0.5,0.6,1,0.9,1.6,1.1s1.2,0.1,1.7-0.1c0.6-0.2,1.1-0.5,1.5-0.9s0.6-0.7,0.9-1.1l1.6,1.1c-0.3,0.6-0.7,1.1-1.2,1.6    s-1.3,0.9-2.2,1.2c-1.1,0.3-2.1,0.4-3.1,0.2c-1-0.2-1.9-0.7-2.7-1.5c-0.8-0.8-1.4-1.9-1.9-3.2c-0.4-1.4-0.6-2.6-0.4-3.7    s0.6-2,1.3-2.8C1129,1952.4,1129.9,1951.9,1130.9,1951.5z"/>
	</g>
</g>
        <g
                id="g704">
	<g
            id="g702">
		<path
                d="M1061.1,1959.7c0.6-0.2,1-0.2,1.5-0.1s0.8,0.3,1.1,0.5c0.3,0.3,0.5,0.6,0.7,1.1c0.1,0.4,0.2,0.7,0.2,1.1    c0,0.4-0.1,0.8-0.2,1.3c-0.2,0.5-0.4,1-0.7,1.6c-0.3,0.6-0.7,1.3-1.1,2.1l3.7-1.2l0.2,1.1l-5,1.6l-0.3-1c0.4-0.7,0.7-1.4,1-2    c0.3-0.6,0.5-1,0.7-1.5c0.2-0.4,0.3-0.8,0.4-1.1c0.1-0.3,0.1-0.6,0.1-0.8s0-0.5-0.1-0.7c-0.1-0.4-0.4-0.7-0.7-0.8    c-0.3-0.2-0.7-0.2-1.1,0c-0.4,0.1-0.6,0.3-0.8,0.5c-0.2,0.2-0.4,0.5-0.5,0.9l-1.1-0.4c0.2-0.5,0.4-0.9,0.8-1.3    C1060.1,1960.2,1060.5,1959.9,1061.1,1959.7z"
                id="path696"/>
        <path
                d="M1068.5,1957.3c0.9-0.3,1.7-0.1,2.4,0.4s1.3,1.5,1.7,2.9c0.4,1.3,0.5,2.4,0.3,3.3c-0.2,0.9-0.8,1.5-1.7,1.8    c-0.9,0.3-1.7,0.2-2.4-0.4c-0.7-0.6-1.3-1.5-1.7-2.9c-0.4-1.3-0.5-2.4-0.3-3.3C1067,1958.2,1067.5,1957.6,1068.5,1957.3z     M1068.8,1958.3c-0.5,0.2-0.7,0.5-0.8,1.1c-0.1,0.6,0,1.4,0.4,2.6c0.2,0.6,0.4,1.1,0.6,1.5c0.2,0.4,0.4,0.7,0.6,0.9    c0.2,0.2,0.4,0.3,0.6,0.4c0.2,0,0.5,0,0.7-0.1c0.3-0.1,0.5-0.3,0.7-0.6c0.1-0.3,0.2-0.7,0.2-1.2c0-0.5-0.2-1.1-0.4-1.9    c-0.3-0.8-0.5-1.4-0.8-1.9c-0.2-0.4-0.5-0.7-0.8-0.8C1069.4,1958.2,1069.1,1958.2,1068.8,1958.3z M1070,1958.3l0.6,0.8l-0.8,5.7    l-0.7-0.6L1070,1958.3z"
                id="path698"/>
        <path
                d="M1078.7,1956.3c0.1,0.4,0.1,0.8,0,1.1c-0.1,0.4-0.4,0.7-0.7,1.1c0.6,0.1,1.1,0.2,1.5,0.5c0.4,0.3,0.7,0.7,0.8,1.1    c0.1,0.4,0.2,0.9,0,1.3c-0.1,0.4-0.3,0.8-0.7,1.2c-0.4,0.3-0.8,0.6-1.5,0.8c-0.6,0.2-1.2,0.3-1.6,0.2s-0.9-0.2-1.2-0.5    c-0.3-0.3-0.6-0.6-0.7-1.1c-0.2-0.5-0.1-0.9,0-1.4c0.2-0.4,0.5-0.8,0.9-1.2c-0.5-0.1-0.9-0.2-1.2-0.5c-0.3-0.2-0.5-0.5-0.7-1    c-0.1-0.4-0.1-0.7-0.1-1s0.2-0.6,0.4-0.9c0.2-0.3,0.4-0.5,0.7-0.7c0.3-0.2,0.6-0.3,0.9-0.4c0.3-0.1,0.7-0.2,1-0.2    c0.3,0,0.6,0,0.9,0.1c0.3,0.1,0.5,0.3,0.8,0.5C1078.4,1955.7,1078.6,1956,1078.7,1956.3z M1074.9,1957.6c0.1,0.3,0.2,0.5,0.4,0.6    s0.4,0.2,0.7,0.2c0.3,0,0.6,0.1,0.9,0.1c0.3-0.3,0.4-0.6,0.5-0.9c0.1-0.3,0.1-0.5,0-0.9c-0.1-0.4-0.3-0.6-0.6-0.8s-0.6-0.2-1,0    c-0.4,0.1-0.7,0.3-0.8,0.6S1074.8,1957.3,1074.9,1957.6z M1079,1960.6c-0.1-0.3-0.3-0.6-0.5-0.7c-0.2-0.1-0.5-0.2-0.8-0.3    c-0.3,0-0.7-0.1-1.2-0.1c-0.2,0.2-0.3,0.3-0.4,0.6c-0.1,0.2-0.2,0.4-0.2,0.7s0,0.5,0.1,0.8c0.1,0.4,0.4,0.7,0.7,0.9s0.7,0.2,1.2,0    c0.5-0.2,0.8-0.4,1-0.8C1079,1961.4,1079.1,1961,1079,1960.6z"
                id="path700"/>
	</g>
</g></g>
    <g
            id="207"><rect
     id="rect1670"
     x="1070.7"
     y="1990.7"
     transform="matrix(0.9495 -0.3137 0.3137 0.9495 -576.5703 454.9411)"
     class="st6"
     width="109.2"
     height="56.6" />
        <g
                id="g2038">
	<g
            id="g2036">
		<path
                id="path2032"
                d="M1142.6,2003.7l2.4,12.6l-2.6,0.9l-4-8.5l1.8,9.2l-2.7,0.9l-5.5-11.6l2.3-0.8l4,9.7l-1.7-8.9l2.3-0.7    l3.9,8.2l-2.4-10.2L1142.6,2003.7z"/>
        <path
                id="path2034"
                d="M1148.8,2001.4c0.8-0.3,1.6-0.4,2.2-0.4c0.7,0,1.3,0.2,1.9,0.4l-0.7,1.8c-0.4-0.2-0.9-0.3-1.4-0.3    s-0.9,0.1-1.4,0.2c-0.6,0.2-1,0.5-1.4,1s-0.6,1.1-0.7,1.8c-0.1,0.8,0.1,1.7,0.4,2.7c0.3,1.1,0.8,1.9,1.3,2.4    c0.5,0.6,1,0.9,1.6,1.1c0.6,0.1,1.2,0.1,1.7-0.1c0.6-0.2,1.1-0.5,1.5-0.9c0.3-0.4,0.6-0.7,0.9-1.1l1.6,1.1    c-0.3,0.6-0.7,1.1-1.2,1.6s-1.3,0.9-2.2,1.2c-1.1,0.3-2.1,0.4-3.1,0.2c-1-0.2-1.9-0.7-2.7-1.5c-0.8-0.8-1.4-1.9-1.9-3.2    c-0.4-1.4-0.6-2.6-0.4-3.7s0.6-2,1.3-2.8S1147.8,2001.7,1148.8,2001.4z"/>
	</g>
</g>
        <g
                id="g714">
	<g
            id="g712">
		<path
                d="M1077.6,2013c0.6-0.2,1-0.2,1.5-0.1c0.4,0.1,0.8,0.3,1.1,0.5c0.3,0.3,0.5,0.6,0.7,1.1c0.1,0.4,0.2,0.7,0.2,1.1    c0,0.4-0.1,0.8-0.2,1.3c-0.2,0.5-0.4,1-0.7,1.6c-0.3,0.6-0.7,1.3-1.1,2.1l3.7-1.2l0.2,1.1l-5,1.6l-0.3-1c0.4-0.7,0.7-1.4,1-2    c0.3-0.6,0.5-1,0.7-1.5c0.2-0.4,0.3-0.8,0.4-1.1c0.1-0.3,0.1-0.6,0.1-0.8c0-0.3,0-0.5-0.1-0.7c-0.1-0.4-0.4-0.7-0.7-0.8    c-0.3-0.2-0.7-0.2-1.1,0c-0.4,0.1-0.6,0.3-0.8,0.5c-0.2,0.2-0.4,0.5-0.5,0.9l-1.1-0.4c0.2-0.5,0.4-0.9,0.8-1.3    C1076.6,2013.4,1077,2013.1,1077.6,2013z"
                id="path706"/>
        <path
                d="M1085,2010.6c0.9-0.3,1.7-0.2,2.4,0.4s1.3,1.5,1.7,2.9c0.4,1.3,0.5,2.5,0.3,3.3c-0.2,0.9-0.8,1.5-1.7,1.8    c-0.9,0.3-1.7,0.2-2.4-0.4c-0.7-0.6-1.3-1.5-1.7-2.9c-0.4-1.3-0.5-2.4-0.3-3.3C1083.5,2011.5,1084.1,2010.9,1085,2010.6z     M1085.3,2011.6c-0.5,0.2-0.7,0.5-0.8,1.1s0,1.4,0.4,2.6c0.2,0.6,0.4,1.1,0.6,1.5c0.2,0.4,0.4,0.7,0.6,0.9    c0.2,0.2,0.4,0.3,0.6,0.4c0.2,0,0.5,0,0.7-0.1c0.3-0.1,0.5-0.3,0.7-0.6s0.2-0.7,0.2-1.2c0-0.5-0.2-1.1-0.4-1.9    c-0.3-0.8-0.5-1.4-0.8-1.9c-0.2-0.4-0.5-0.7-0.8-0.8C1086,2011.5,1085.6,2011.5,1085.3,2011.6z M1086.5,2011.5l0.6,0.8l-0.8,5.7    l-0.7-0.6L1086.5,2011.5z"
                id="path708"/>
        <path
                d="M1094,2016.9l-1.4,0l0.9-7.8l-3.7,1.2l-0.3-1l5-1.6l0.3,0.9L1094,2016.9z"
                id="path710"/>
	</g>
</g></g>
    <g
            id="42"><g
     id="g1722">
	<rect
            id="rect1718"
            x="301.5"
            y="1490.5"
            class="st12"
            width="143"
            height="90"/>
	<path
            id="path1720"
            d="M444,1491v89H302v-89H444 M445,1490H301v91h144V1490L445,1490z"/>
</g>
        <g
                id="g722">
	<g
            id="g720">
		<path
                d="M312.7,1497.3l1.2,0.5l-2.2,5.2h4.4v1.1h-5.9v-1L312.7,1497.3z M315.1,1500.6v5.3h-1.3l0-2.8l0.2-2.5H315.1z"
                id="path716"/>
        <path
                d="M320.2,1497.3c0.6,0,1.1,0.1,1.5,0.3s0.7,0.5,0.9,0.9c0.2,0.4,0.3,0.8,0.3,1.2c0,0.4-0.1,0.7-0.2,1.1    c-0.1,0.4-0.3,0.7-0.6,1.1s-0.7,0.8-1.1,1.3c-0.5,0.5-1,1-1.7,1.6h3.9l-0.2,1.1h-5.3v-1c0.6-0.6,1.1-1.1,1.6-1.5    c0.4-0.4,0.8-0.8,1.1-1.2c0.3-0.3,0.5-0.6,0.7-0.9c0.2-0.3,0.3-0.5,0.4-0.8c0.1-0.2,0.1-0.5,0.1-0.7c0-0.4-0.1-0.8-0.4-1    c-0.2-0.2-0.6-0.4-1-0.4c-0.4,0-0.7,0.1-1,0.2c-0.3,0.1-0.5,0.4-0.8,0.7l-0.9-0.7c0.3-0.4,0.7-0.7,1.1-1    S319.6,1497.3,320.2,1497.3z"
                id="path718"/>
	</g>
</g></g>
    <g
            id="g2007"
            transform="translate(-201.11122,-1.8284271)"><g
     id="g1728"
     transform="translate(200.11122,2.8284271)">
	<rect
            id="rect1724"
            x="363.5"
            y="1618.5"
            class="st13"
            width="81"
            height="188"/>
	<path
            id="path1726"
            d="m 444,1619 v 187 h -80 v -187 h 80 m 1,-1 h -82 v 189 h 82 z"/>
</g>
        <g
                id="g732"
                transform="translate(198.697,32.526912)">
	<g
            id="g730">
		<path
                d="m 376.2,1626.5 1.2,0.5 -2.2,5.2 h 4.4 v 1.1 h -5.9 v -1 z m 2.4,3.4 v 5.3 h -1.3 v -2.8 l 0.2,-2.5 z"
                id="path724"/>
        <path
                d="m 385.2,1626.7 v 8.2 h -1.4 v -6.8 l -1.9,1.2 -0.6,-1 2.6,-1.6 z m 1.7,7.4 v 1.1 h -5.1 v -1.1 z"
                id="path726"/>
        <path
                d="m 393,1633.1 h -3 l -0.6,2 h -1.5 l 2.7,-8.5 h 1.8 l 2.7,8.5 h -1.5 z m -2.8,-1.1 h 2.4 l -1.2,-4.2 z"
                id="path728"/>
	</g>
</g></g>
    <g
            id="41"><g
     id="g1716">
	<rect
            id="rect1712"
            x="318.5"
            y="1618.5"
            class="st11"
            width="126"
            height="516"/>
	<path
            id="path1714"
            d="M444,1619v515H319v-515H444 M445,1618H318v517h127V1618L445,1618z"/>
</g>
        <g
                id="g689">
	<g
            id="g687">
		<path
                d="M424.1,2112v8.3h-1.6v-6.6l-1.8,1.1l-0.7-1.1l2.7-1.6H424.1z M425.7,2119.3v1.2h-5.3v-1.2H425.7z"
                id="path683"/>
        <path
                d="M429.5,2111.9l1.4,0.5l-2.1,5.1h4.4v1.2h-6v-1.1L429.5,2111.9z M432.2,2115.3v5.3h-1.6l0-2.9l0.2-2.4H432.2z"
                id="path685"/>
	</g>
</g>
        <g
                id="g740">
	<g
            id="g738">
		<path
                d="M330.8,1626.5l1.2,0.5l-2.2,5.2h4.4v1.1h-5.9v-1L330.8,1626.5z M333.2,1629.9v5.3h-1.3l0-2.8l0.2-2.5H333.2z"
                id="path734"/>
        <path
                d="M339.8,1626.7v8.2h-1.4v-6.8l-1.9,1.2l-0.6-1l2.6-1.6H339.8z M341.5,1634.1v1.1h-5.1v-1.1H341.5z"
                id="path736"/>
	</g>
</g></g>
    <g
            id="43"><g
     id="g1710">
	<rect
            id="rect1706"
            x="19.5"
            y="1490.5"
            class="st11"
            width="174"
            height="127"/>
	<path
            id="path1708"
            d="M193,1491v126H20v-126H193 M194,1490H19v128h175V1490L194,1490z"/>
</g>
        <g
                id="g748">
	<g
            id="g746">
		<path
                d="M32.7,1499l1.2,0.5l-2.2,5.2h4.4v1.1h-5.9v-1L32.7,1499z M35.1,1502.4v5.3h-1.3l0-2.8l0.2-2.5H35.1z"
                id="path742"/>
        <path
                d="M40.2,1499c0.6,0,1,0.1,1.5,0.3c0.4,0.2,0.7,0.5,0.9,0.8c0.2,0.3,0.3,0.7,0.3,1.1c0,0.3-0.1,0.7-0.2,0.9    c-0.1,0.3-0.3,0.5-0.6,0.7c-0.3,0.2-0.5,0.3-0.9,0.4c0.4,0,0.7,0.1,1,0.3c0.3,0.2,0.5,0.4,0.7,0.7c0.2,0.3,0.3,0.7,0.3,1.1    c0,0.5-0.1,0.9-0.4,1.3c-0.3,0.4-0.6,0.7-1.1,0.9s-1,0.3-1.6,0.3c-0.5,0-1-0.1-1.5-0.3c-0.5-0.2-0.9-0.5-1.2-0.9l0.8-0.7    c0.2,0.3,0.5,0.5,0.8,0.6c0.3,0.1,0.7,0.2,1,0.2c0.5,0,0.9-0.1,1.2-0.4c0.3-0.3,0.5-0.7,0.5-1.1c0-0.4-0.1-0.7-0.2-0.9    c-0.1-0.2-0.3-0.4-0.6-0.5c-0.2-0.1-0.5-0.1-0.9-0.1h-0.7l0.2-1h0.5c0.3,0,0.5,0,0.7-0.1s0.4-0.2,0.5-0.4s0.2-0.5,0.2-0.8    c0-0.4-0.1-0.7-0.4-1c-0.3-0.2-0.6-0.3-1-0.3c-0.4,0-0.7,0.1-0.9,0.2c-0.3,0.1-0.5,0.3-0.8,0.6l-0.7-0.8c0.4-0.4,0.8-0.6,1.2-0.8    C39.3,1499.1,39.7,1499,40.2,1499z"
                id="path744"/>
	</g>
</g></g>
</svg>
