<?xml version="1.0" encoding="UTF-8" standalone="no"?>
<!-- Generator: Adobe Illustrator 25.2.1, SVG Export Plug-In . SVG Version: 6.00 Build 0)  -->

<svg
   version="1.1"
   id="Layer_1"
   inkscape:version="1.1.2 (b8e25be833, 2022-02-05)"
   sodipodi:docname="fourth_floor.svg"
   x="0px"
   y="0px"
   viewBox="0 0 1400 2200"
   style="enable-background:new 0 0 1400 2200;"
   xml:space="preserve"
   xmlns:inkscape="http://www.inkscape.org/namespaces/inkscape"
   xmlns:sodipodi="http://sodipodi.sourceforge.net/DTD/sodipodi-0.dtd"
   xmlns="http://www.w3.org/2000/svg"
   xmlns:svg="http://www.w3.org/2000/svg"><defs
   id="defs20399">
	
		
	
<pattern
   id="EMFhbasepattern"
   patternUnits="userSpaceOnUse"
   width="6"
   height="6"
   x="0"
   y="0" /><pattern
   id="EMFhbasepattern-0"
   patternUnits="userSpaceOnUse"
   width="6"
   height="6"
   x="0"
   y="0" /><pattern
   id="EMFhbasepattern-1"
   patternUnits="userSpaceOnUse"
   width="6"
   height="6"
   x="0"
   y="0" /></defs>
<style
   type="text/css"
   id="style19962">
	.st0{fill:#999999;stroke:#000000;stroke-miterlimit:10;}
	.st1{fill:#999999;stroke:#000000;stroke-width:1;stroke-miterlimit:10.0006;}
	.st2{fill:none;stroke:#000000;stroke-width:0.5;stroke-miterlimit:9.9994;}
	.st3{fill:#999999;stroke:#000000;stroke-width:0.5;stroke-miterlimit:9.9994;}
	.st4{fill:#999999;stroke:#000000;stroke-width:0.5;stroke-miterlimit:10;}
	.st5{fill:#74BEFF;stroke:#000000;stroke-miterlimit:10;}
	.st6{fill:#FFF6AA;stroke:#000000;stroke-width:1;stroke-miterlimit:9.9999;}
	.st7{fill:#FFC62A;stroke:#231F20;stroke-miterlimit:10;}
	.st8{fill:#FFC62A;stroke:#231F20;stroke-width:1;stroke-miterlimit:9.9999;}
	.st9{fill:#74BEFF;stroke:#231F20;stroke-width:1;stroke-miterlimit:9.9999;}
	.st10{fill:#FFF6AA;stroke:#000000;stroke-miterlimit:10;}
	.st11{fill:#FFF6AA;stroke:#231F20;stroke-width:1;stroke-miterlimit:9.9999;}
	.st12{fill:#FFF6AA;}
</style>
<sodipodi:namedview
   bordercolor="#666666"
   borderopacity="1.0"
   id="namedview2041"
   inkscape:current-layer="Layer_1"
   inkscape:cx="906.33412"
   inkscape:cy="1633.7702"
   inkscape:pagecheckerboard="0"
   inkscape:pageopacity="0.0"
   inkscape:pageshadow="2"
   inkscape:window-height="1017"
   inkscape:window-maximized="1"
   inkscape:window-width="1920"
   inkscape:window-x="-8"
   inkscape:window-y="-8"
   inkscape:zoom="2.8284271"
   pagecolor="#ffffff"
   showgrid="false">
	</sodipodi:namedview>
<g
   id="Layer_2_1_">
	<g
   id="Layer_1-2">
		<rect
   id="rect1608"
   x="791.5"
   y="31.5"
   class="st0"
   width="373"
   height="1226" />
		<polyline
   id="rect1610_1_"
   class="st0"
   points="814.2,1257.5 1164.5,1257.5 1164.5,1543.5 791.5,1543.5 791.5,1257.5     792.6,1257.5   " />
		<line
   id="rect1610"
   class="st0"
   x1="792.6"
   y1="1257.5"
   x2="814.2"
   y2="1257.5" />
		
			<rect
   id="rect1612"
   x="1002.6"
   y="1446.7"
   transform="matrix(0.9505 -0.3108 0.3108 0.9505 -501.3687 443.5815)"
   class="st1"
   width="277.2"
   height="696.6" />
		
			<rect
   id="rect1614"
   x="814.5"
   y="1521.1"
   transform="matrix(0.9505 -0.3108 0.3108 0.9505 -455.4817 350.5573)"
   class="st1"
   width="115.5"
   height="166.8" />
		<line
   class="st0"
   x1="791.5"
   y1="1362.5"
   x2="791.5"
   y2="1099.5"
   id="line19970" />
	</g>
</g>
<rect
   id="rect1676"
   x="791.1"
   y="1525.3"
   transform="matrix(0.9495 -0.3137 0.3137 0.9495 -437.6856 343.5433)"
   class="st2"
   width="115.1"
   height="13" />
<rect
   id="rect1678"
   x="795"
   y="1537.9"
   transform="matrix(0.9495 -0.3137 0.3137 0.9495 -441.4406 345.4031)"
   class="st2"
   width="115.1"
   height="13" />
<rect
   id="rect1680"
   x="799"
   y="1550.1"
   transform="matrix(0.9495 -0.3137 0.3137 0.9495 -445.0663 347.2732)"
   class="st2"
   width="115.1"
   height="13" />
<rect
   id="rect1682"
   x="803"
   y="1562.4"
   transform="matrix(0.9495 -0.3137 0.3137 0.9495 -448.7228 349.1489)"
   class="st2"
   width="115.1"
   height="13" />
<rect
   id="rect1684"
   x="807"
   y="1574.3"
   transform="matrix(0.9495 -0.3137 0.3137 0.9495 -452.2539 351.0045)"
   class="st2"
   width="115.1"
   height="13" />
<rect
   id="rect1686"
   x="811.4"
   y="1586.4"
   transform="matrix(0.9495 -0.3137 0.3137 0.9495 -455.827 352.9957)"
   class="st2"
   width="115.1"
   height="13" />
<rect
   id="rect1688"
   x="815.4"
   y="1598.4"
   transform="matrix(0.9495 -0.3137 0.3137 0.9495 -459.3895 354.8562)"
   class="st2"
   width="115.1"
   height="13" />
<rect
   id="rect1690"
   x="819.4"
   y="1611.2"
   transform="matrix(0.9495 -0.3137 0.3137 0.9495 -463.2031 356.757)"
   class="st2"
   width="115.1"
   height="13" />
<rect
   id="rect1692"
   x="845.9"
   y="1523.7"
   transform="matrix(0.9495 -0.3137 0.3137 0.9495 -450.781 349.56)"
   class="st3"
   width="29.8"
   height="103.6" />
<rect
   id="rect1694"
   x="908.5"
   y="31.5"
   class="st0"
   width="16"
   height="124" />
<rect
   id="rect1696"
   x="892.5"
   y="31.5"
   class="st0"
   width="16"
   height="124" />
<rect
   id="rect1698"
   x="876.5"
   y="31.5"
   class="st4"
   width="16"
   height="124" />
<rect
   id="rect1700"
   x="860.5"
   y="31.5"
   class="st0"
   width="16"
   height="124" />
<rect
   id="rect1702"
   x="844.5"
   y="31.5"
   class="st0"
   width="16"
   height="124" />
<rect
   id="rect1704"
   x="844.5"
   y="72.5"
   class="st0"
   width="80"
   height="36" />
<g
   id="g19994">
	<rect
   id="rect1674"
   x="1031.5"
   y="31.5"
   class="st5"
   width="133"
   height="67" />
	<g
   id="g1844">
		<g
   id="g1842">
			<path
   id="path1838"
   d="M1098.1,58.7l-1.7,12.8h-2.8l-1.1-9.3l-1.2,9.3h-2.8l-1.5-12.8h2.4l0.8,10.5l1.2-9h2.4l1.2,9l0.9-10.5     C1095.9,58.7,1098.1,58.7,1098.1,58.7z" />
			<path
   id="path1840"
   d="M1104.7,58.4c0.9,0,1.6,0.1,2.3,0.3c0.6,0.2,1.2,0.6,1.7,1l-1.3,1.5c-0.4-0.3-0.8-0.5-1.2-0.7     c-0.4-0.2-0.9-0.2-1.4-0.2c-0.6,0-1.1,0.2-1.6,0.5s-0.9,0.8-1.2,1.5c-0.3,0.7-0.4,1.6-0.4,2.7c0,1.1,0.1,2,0.4,2.7     s0.7,1.2,1.2,1.5s1.1,0.5,1.7,0.5c0.7,0,1.2-0.1,1.7-0.4c0.4-0.2,0.8-0.5,1.2-0.8l1.2,1.5c-0.4,0.4-1,0.8-1.7,1.1     s-1.5,0.5-2.5,0.5c-1.1,0-2.1-0.3-3-0.8s-1.6-1.3-2.1-2.3s-0.7-2.2-0.7-3.7c0-1.4,0.3-2.6,0.8-3.6s1.2-1.7,2.1-2.2     S1103.7,58.4,1104.7,58.4z" />
		</g>
	</g>
</g>
<g
   id="g20001">
	<rect
   id="rect1672"
   x="1031.5"
   y="98.5"
   class="st5"
   width="133"
   height="91" />
	<g
   id="g1852">
		<g
   id="g1850">
			<path
   id="path1846"
   d="M1098.1,144l-1.7,12.8h-2.8l-1.1-9.3l-1.2,9.3h-2.8L1087,144h2.4l0.8,10.5l1.2-9h2.4l1.2,9l0.9-10.5     H1098.1z" />
			<path
   id="path1848"
   d="M1104.7,143.8c0.9,0,1.6,0.1,2.3,0.3c0.6,0.2,1.2,0.6,1.7,1l-1.3,1.5c-0.4-0.3-0.8-0.5-1.2-0.7     c-0.4-0.2-0.9-0.2-1.4-0.2c-0.6,0-1.1,0.2-1.6,0.5s-0.9,0.8-1.2,1.5c-0.3,0.7-0.4,1.6-0.4,2.7c0,1.1,0.1,2,0.4,2.7     s0.7,1.2,1.2,1.5s1.1,0.5,1.7,0.5c0.7,0,1.2-0.1,1.7-0.4c0.4-0.2,0.8-0.5,1.2-0.8l1.2,1.5c-0.4,0.4-1,0.8-1.7,1.1     s-1.5,0.5-2.5,0.5c-1.1,0-2.1-0.3-3-0.8s-1.6-1.3-2.1-2.3s-0.7-2.2-0.7-3.7c0-1.4,0.3-2.6,0.8-3.6s1.2-1.7,2.1-2.2     S1103.6,143.8,1104.7,143.8z" />
		</g>
	</g>
</g>

<g
   id="557">
	<ellipse
   class="st5"
   cx="916.3"
   cy="781"
   rx="90.9"
   ry="169.4"
   id="ellipse20005" />
	<g
   id="g20015">
		<g
   id="g20013">
			<path
   d="M937,645.1l-0.2,1.2h-3.2v2.1c0.2-0.1,0.5-0.2,0.7-0.2c0.2,0,0.4-0.1,0.7-0.1c0.4,0,0.8,0.1,1.2,0.3     c0.4,0.2,0.6,0.5,0.8,0.9s0.3,0.9,0.3,1.5s-0.1,1.1-0.4,1.5c-0.3,0.4-0.6,0.8-1.1,1c-0.5,0.3-1,0.4-1.7,0.4     c-0.6,0-1.1-0.1-1.5-0.3s-0.8-0.5-1.2-0.9l0.9-0.9c0.2,0.3,0.5,0.5,0.8,0.6s0.6,0.2,0.9,0.2c0.5,0,0.9-0.1,1.2-0.4     s0.4-0.7,0.4-1.2c0-0.4-0.1-0.7-0.2-0.9c-0.1-0.2-0.3-0.4-0.5-0.5c-0.2-0.1-0.4-0.2-0.7-0.2c-0.2,0-0.4,0-0.6,0.1     s-0.4,0.1-0.6,0.2H932v-4.5H937z"
   id="path20007" />
			<path
   d="M944.3,645.1l-0.2,1.2h-3.2v2.1c0.2-0.1,0.5-0.2,0.7-0.2c0.2,0,0.4-0.1,0.7-0.1c0.4,0,0.8,0.1,1.2,0.3     c0.4,0.2,0.6,0.5,0.8,0.9s0.3,0.9,0.3,1.5s-0.1,1.1-0.4,1.5c-0.3,0.4-0.6,0.8-1.1,1c-0.5,0.3-1,0.4-1.7,0.4     c-0.6,0-1.1-0.1-1.5-0.3s-0.8-0.5-1.2-0.9l0.9-0.9c0.2,0.3,0.5,0.5,0.8,0.6s0.6,0.2,0.9,0.2c0.5,0,0.9-0.1,1.2-0.4     s0.4-0.7,0.4-1.2c0-0.4-0.1-0.7-0.2-0.9c-0.1-0.2-0.3-0.4-0.5-0.5c-0.2-0.1-0.4-0.2-0.7-0.2c-0.2,0-0.4,0-0.6,0.1     s-0.4,0.1-0.6,0.2h-1.1v-4.5H944.3z"
   id="path20009" />
			<path
   d="M948.6,653.8l-1.5-0.5l3.2-6.9h-3.8v-1.3h5.5v1.1L948.6,653.8z"
   id="path20011" />
		</g>
	</g>
</g>
<g
   id="554">
	<rect
   x="791.9"
   y="951"
   class="st7"
   width="76.7"
   height="103.9"
   id="rect20019" />
	<g
   id="g20029">
		<g
   id="g20027">
			<path
   d="M805.8,959.9l-0.2,1.2h-3.2v2.1c0.2-0.1,0.5-0.2,0.7-0.2c0.2,0,0.4-0.1,0.7-0.1c0.4,0,0.8,0.1,1.2,0.3s0.6,0.5,0.8,0.9     s0.3,0.9,0.3,1.5s-0.1,1.1-0.4,1.5c-0.3,0.4-0.6,0.8-1.1,1c-0.5,0.3-1,0.4-1.7,0.4c-0.6,0-1.1-0.1-1.5-0.3s-0.8-0.5-1.2-0.9     l0.9-0.9c0.2,0.3,0.5,0.5,0.8,0.6s0.6,0.2,0.9,0.2c0.5,0,0.9-0.1,1.2-0.4s0.4-0.7,0.4-1.2c0-0.4-0.1-0.7-0.2-0.9     c-0.1-0.2-0.3-0.4-0.5-0.5c-0.2-0.1-0.4-0.2-0.7-0.2c-0.2,0-0.4,0-0.6,0.1c-0.2,0-0.4,0.1-0.6,0.2h-1.1v-4.5H805.8z"
   id="path20021" />
			<path
   d="M813.2,959.9l-0.2,1.2h-3.2v2.1c0.2-0.1,0.5-0.2,0.7-0.2c0.2,0,0.4-0.1,0.7-0.1c0.4,0,0.8,0.1,1.2,0.3s0.6,0.5,0.8,0.9     s0.3,0.9,0.3,1.5s-0.1,1.1-0.4,1.5c-0.3,0.4-0.6,0.8-1.1,1c-0.5,0.3-1,0.4-1.7,0.4c-0.6,0-1.1-0.1-1.5-0.3s-0.8-0.5-1.2-0.9     l0.9-0.9c0.2,0.3,0.5,0.5,0.8,0.6s0.6,0.2,0.9,0.2c0.5,0,0.9-0.1,1.2-0.4s0.4-0.7,0.4-1.2c0-0.4-0.1-0.7-0.2-0.9     c-0.1-0.2-0.3-0.4-0.5-0.5c-0.2-0.1-0.4-0.2-0.7-0.2c-0.2,0-0.4,0-0.6,0.1c-0.2,0-0.4,0.1-0.6,0.2h-1.1v-4.5H813.2z"
   id="path20023" />
			<path
   d="M817.4,959.7l1.4,0.5l-2.1,5.1h4.4v1.2h-6v-1.1L817.4,959.7z M820.1,963.1v5.3h-1.6l0-2.9l0.2-2.4H820.1z"
   id="path20025" />
		</g>
	</g>
</g>
<g
   id="553">
	<path
   class="st7"
   d="M791.4,1055.3v45c0,0.3,0,0.7,0,1v57.9h77.2v-103.9H791.4z"
   id="path20033" />
	<g
   id="g20043">
		<g
   id="g20041">
			<path
   d="M805.8,1063.2l-0.2,1.2h-3.2v2.1c0.2-0.1,0.5-0.2,0.7-0.2c0.2,0,0.4-0.1,0.7-0.1c0.4,0,0.8,0.1,1.2,0.3s0.6,0.5,0.8,0.9     s0.3,0.9,0.3,1.5s-0.1,1.1-0.4,1.5c-0.3,0.4-0.6,0.8-1.1,1c-0.5,0.3-1,0.4-1.7,0.4c-0.6,0-1.1-0.1-1.5-0.3s-0.8-0.5-1.2-0.9     l0.9-0.9c0.2,0.3,0.5,0.5,0.8,0.6s0.6,0.2,0.9,0.2c0.5,0,0.9-0.1,1.2-0.4s0.4-0.7,0.4-1.2c0-0.4-0.1-0.7-0.2-0.9     c-0.1-0.2-0.3-0.4-0.5-0.5c-0.2-0.1-0.4-0.2-0.7-0.2c-0.2,0-0.4,0-0.6,0.1c-0.2,0-0.4,0.1-0.6,0.2h-1.1v-4.5H805.8z"
   id="path20035" />
			<path
   d="M813.2,1063.2l-0.2,1.2h-3.2v2.1c0.2-0.1,0.5-0.2,0.7-0.2c0.2,0,0.4-0.1,0.7-0.1c0.4,0,0.8,0.1,1.2,0.3s0.6,0.5,0.8,0.9     s0.3,0.9,0.3,1.5s-0.1,1.1-0.4,1.5c-0.3,0.4-0.6,0.8-1.1,1c-0.5,0.3-1,0.4-1.7,0.4c-0.6,0-1.1-0.1-1.5-0.3s-0.8-0.5-1.2-0.9     l0.9-0.9c0.2,0.3,0.5,0.5,0.8,0.6s0.6,0.2,0.9,0.2c0.5,0,0.9-0.1,1.2-0.4s0.4-0.7,0.4-1.2c0-0.4-0.1-0.7-0.2-0.9     c-0.1-0.2-0.3-0.4-0.5-0.5c-0.2-0.1-0.4-0.2-0.7-0.2c-0.2,0-0.4,0-0.6,0.1c-0.2,0-0.4,0.1-0.6,0.2h-1.1v-4.5H813.2z"
   id="path20037" />
			<path
   d="M817.7,1063c0.6,0,1.1,0.1,1.5,0.3c0.4,0.2,0.7,0.5,1,0.8c0.2,0.3,0.3,0.7,0.3,1.1c0,0.4-0.1,0.7-0.2,0.9     c-0.1,0.3-0.3,0.5-0.6,0.7c-0.3,0.2-0.6,0.3-0.9,0.4c0.4,0,0.7,0.1,1,0.3c0.3,0.2,0.5,0.4,0.7,0.7c0.2,0.3,0.3,0.7,0.3,1.1     c0,0.5-0.1,0.9-0.4,1.3s-0.6,0.7-1.1,0.9c-0.5,0.2-1,0.3-1.7,0.3c-0.6,0-1.1-0.1-1.6-0.3c-0.5-0.2-0.9-0.5-1.3-0.9l1-0.9     c0.2,0.3,0.5,0.5,0.8,0.6s0.6,0.2,1,0.2c0.5,0,0.9-0.1,1.2-0.4c0.3-0.2,0.4-0.6,0.4-1c0-0.3-0.1-0.6-0.2-0.8s-0.3-0.4-0.5-0.4     s-0.5-0.1-0.8-0.1h-0.8l0.2-1.2h0.5c0.3,0,0.5,0,0.7-0.1c0.2-0.1,0.4-0.2,0.5-0.4s0.2-0.4,0.2-0.7c0-0.4-0.1-0.7-0.4-0.9     c-0.3-0.2-0.6-0.3-1-0.3c-0.4,0-0.7,0.1-0.9,0.2c-0.3,0.1-0.5,0.3-0.8,0.6l-0.8-0.9c0.4-0.4,0.8-0.6,1.3-0.8     C816.7,1063.1,817.2,1063,817.7,1063z"
   id="path20039" />
		</g>
	</g>
</g>
<g
   id="513">
	
		<rect
   x="1084.2"
   y="1433.7"
   transform="matrix(0.9506 -0.3104 0.3104 0.9506 -414.0389 428.1776)"
   class="st8"
   width="108.2"
   height="162.7"
   id="rect20047" />
	<g
   id="g20057">
		<g
   id="g20055">
			<path
   d="M1072.2,1456.1l0.2,1.2l-3,1.1l0.7,2c0.2-0.2,0.4-0.3,0.6-0.4c0.2-0.1,0.4-0.2,0.6-0.3c0.4-0.2,0.8-0.2,1.2-0.1     c0.4,0.1,0.8,0.3,1.1,0.6c0.3,0.3,0.6,0.7,0.8,1.3s0.2,1.1,0.1,1.6c-0.1,0.5-0.3,1-0.7,1.4c-0.4,0.4-0.8,0.7-1.4,0.9     c-0.5,0.2-1.1,0.3-1.6,0.2s-1-0.2-1.4-0.4l0.6-1.1c0.3,0.2,0.6,0.3,0.9,0.3s0.6,0,0.9-0.1c0.5-0.2,0.8-0.4,0.9-0.8     c0.2-0.4,0.2-0.8,0-1.3c-0.1-0.4-0.3-0.6-0.5-0.8c-0.2-0.2-0.4-0.3-0.6-0.3c-0.2,0-0.4,0-0.7,0.1c-0.2,0.1-0.3,0.1-0.5,0.2     s-0.3,0.2-0.5,0.4l-1.1,0.4l-1.5-4.2L1072.2,1456.1z"
   id="path20049" />
			<path
   d="M1078,1454l2.8,7.8l-1.5,0.5l-2.2-6.2l-1.3,1.7l-1-0.8l2-2.4L1078,1454z M1082,1460.3l0.4,1.2l-5,1.8l-0.4-1.2     L1082,1460.3z"
   id="path20051" />
			<path
   d="M1083.3,1451.9c0.6-0.2,1.1-0.3,1.5-0.2c0.5,0,0.8,0.2,1.2,0.4c0.3,0.2,0.5,0.5,0.7,0.9c0.1,0.3,0.2,0.7,0.1,1     c0,0.3-0.2,0.6-0.3,0.8c-0.2,0.3-0.4,0.5-0.7,0.7c0.4-0.1,0.7-0.1,1-0.1c0.3,0,0.6,0.2,0.9,0.4c0.3,0.2,0.5,0.5,0.6,1     c0.2,0.5,0.2,0.9,0.1,1.4s-0.3,0.9-0.7,1.3s-0.9,0.7-1.5,0.9c-0.5,0.2-1.1,0.3-1.6,0.2c-0.5,0-1-0.2-1.5-0.4l0.6-1.1     c0.3,0.2,0.7,0.3,1,0.3c0.3,0,0.7,0,1-0.1c0.5-0.2,0.8-0.4,1-0.7s0.2-0.7,0.1-1.1c-0.1-0.3-0.3-0.5-0.5-0.7     c-0.2-0.1-0.4-0.2-0.7-0.2s-0.5,0-0.8,0.1l-0.7,0.3l-0.2-1.2l0.5-0.2c0.2-0.1,0.4-0.2,0.6-0.4c0.2-0.2,0.3-0.3,0.3-0.6     c0.1-0.2,0-0.5-0.1-0.7c-0.1-0.3-0.3-0.6-0.7-0.7c-0.3-0.1-0.7-0.1-1,0c-0.3,0.1-0.6,0.3-0.8,0.5c-0.2,0.2-0.4,0.5-0.6,0.8     l-1.1-0.6c0.2-0.5,0.5-0.9,0.9-1.2S1082.8,1452.1,1083.3,1451.9z"
   id="path20053" />
		</g>
	</g>
</g>

<g
   id="508">
	
		<rect
   x="961"
   y="1622.2"
   transform="matrix(0.9506 -0.3104 0.3104 0.9506 -472.2567 398.2324)"
   class="st8"
   width="108.2"
   height="121.6"
   id="rect20071" />
	<g
   id="g20081">
		<g
   id="g20079">
			<path
   d="M957.8,1643.9l0.2,1.2l-3,1.1l0.7,2c0.2-0.2,0.4-0.3,0.6-0.4c0.2-0.1,0.4-0.2,0.6-0.3c0.4-0.2,0.8-0.2,1.2-0.1     c0.4,0.1,0.8,0.3,1.1,0.6c0.3,0.3,0.6,0.7,0.8,1.3s0.2,1.1,0.1,1.6c-0.1,0.5-0.3,1-0.7,1.4c-0.4,0.4-0.8,0.7-1.4,0.9     c-0.5,0.2-1.1,0.3-1.6,0.2s-1-0.2-1.4-0.4l0.6-1.1c0.3,0.2,0.6,0.3,0.9,0.3s0.6,0,0.9-0.1c0.5-0.2,0.8-0.4,0.9-0.8     c0.2-0.4,0.2-0.8,0-1.3c-0.1-0.4-0.3-0.6-0.5-0.8c-0.2-0.2-0.4-0.3-0.6-0.3c-0.2,0-0.4,0-0.7,0.1c-0.2,0.1-0.3,0.1-0.5,0.2     s-0.3,0.2-0.5,0.4l-1.1,0.4l-1.5-4.2L957.8,1643.9z"
   id="path20073" />
			<path
   d="M962.3,1642.1c0.9-0.3,1.8-0.2,2.5,0.3c0.7,0.6,1.3,1.5,1.8,2.8c0.5,1.3,0.6,2.4,0.4,3.3c-0.2,0.9-0.8,1.5-1.7,1.9     c-0.9,0.3-1.8,0.2-2.5-0.4c-0.7-0.6-1.3-1.5-1.8-2.8c-0.5-1.3-0.6-2.4-0.4-3.3C960.8,1643,961.4,1642.4,962.3,1642.1z      M962.7,1643.2c-0.4,0.2-0.7,0.5-0.7,1.1c-0.1,0.5,0.1,1.4,0.5,2.5c0.2,0.6,0.4,1.1,0.6,1.5c0.2,0.4,0.4,0.7,0.6,0.9     s0.4,0.3,0.6,0.3c0.2,0,0.4,0,0.7-0.1c0.3-0.1,0.5-0.3,0.6-0.6c0.1-0.3,0.2-0.6,0.1-1.1c-0.1-0.5-0.2-1.1-0.5-1.8     c-0.3-0.8-0.5-1.4-0.8-1.8c-0.2-0.4-0.5-0.7-0.7-0.8C963.3,1643.1,963,1643.1,962.7,1643.2z M963.8,1643.1l0.7,0.8l-0.6,5.5     l-0.7-0.6L963.8,1643.1z"
   id="path20075" />
			<path
   d="M972.6,1640.7c0.1,0.4,0.1,0.7,0,1.1c-0.1,0.4-0.3,0.7-0.7,1.1c0.6,0.1,1.1,0.2,1.5,0.5c0.4,0.3,0.7,0.6,0.9,1.1     c0.2,0.4,0.2,0.8,0.1,1.3c-0.1,0.4-0.3,0.8-0.7,1.2c-0.4,0.4-0.8,0.7-1.5,0.9c-0.6,0.2-1.2,0.3-1.7,0.2c-0.5-0.1-0.9-0.2-1.3-0.5     c-0.3-0.3-0.6-0.6-0.7-1c-0.2-0.5-0.2-0.9,0-1.4s0.4-0.8,0.8-1.2c-0.5-0.1-0.9-0.2-1.2-0.4s-0.5-0.5-0.7-1     c-0.1-0.4-0.2-0.7-0.1-1c0-0.3,0.2-0.6,0.3-0.9c0.2-0.3,0.4-0.5,0.7-0.7c0.3-0.2,0.6-0.4,0.9-0.5c0.4-0.1,0.7-0.2,1-0.2     c0.3,0,0.7,0,1,0.1c0.3,0.1,0.6,0.2,0.8,0.5C972.3,1640.1,972.4,1640.4,972.6,1640.7z M968.9,1642.1c0.1,0.2,0.2,0.4,0.4,0.5     s0.4,0.2,0.6,0.2c0.2,0,0.5,0.1,0.9,0.1c0.2-0.3,0.4-0.6,0.4-0.8s0-0.5-0.1-0.8c-0.1-0.3-0.3-0.6-0.6-0.7c-0.3-0.1-0.6-0.1-0.9,0     c-0.4,0.1-0.6,0.3-0.7,0.6C968.8,1641.5,968.8,1641.8,968.9,1642.1z M972.7,1645.1c-0.1-0.3-0.3-0.5-0.5-0.6s-0.4-0.2-0.8-0.2     c-0.3,0-0.7-0.1-1.1,0c-0.1,0.2-0.3,0.3-0.3,0.5c-0.1,0.2-0.1,0.4-0.2,0.6c0,0.2,0,0.5,0.1,0.7c0.1,0.4,0.4,0.6,0.7,0.8     c0.3,0.1,0.7,0.1,1.1,0c0.5-0.2,0.7-0.4,0.9-0.7C972.8,1645.8,972.9,1645.4,972.7,1645.1z"
   id="path20077" />
		</g>
	</g>
</g>
<g
   id="505">
	
		<rect
   x="907.6"
   y="1488.4"
   transform="matrix(0.9501 -0.312 0.312 0.9501 -425.4975 375.7592)"
   class="st9"
   width="107.6"
   height="58"
   id="rect20085" />
	<g
   id="g20095">
		<g
   id="g20093">
			<path
   d="M916.2,1507.3l0.2,1.2l-3,1.1l0.7,2c0.2-0.2,0.4-0.3,0.6-0.4s0.4-0.2,0.6-0.3c0.4-0.2,0.8-0.2,1.2-0.1     c0.4,0.1,0.8,0.3,1.1,0.6s0.6,0.7,0.8,1.3c0.2,0.5,0.2,1.1,0.1,1.6c-0.1,0.5-0.3,1-0.7,1.4c-0.4,0.4-0.8,0.7-1.4,0.9     c-0.5,0.2-1.1,0.3-1.6,0.2c-0.5,0-1-0.2-1.4-0.4l0.6-1.1c0.3,0.2,0.6,0.3,0.9,0.3c0.3,0,0.6,0,0.9-0.1c0.5-0.2,0.8-0.4,0.9-0.8     c0.2-0.4,0.2-0.8,0-1.3c-0.1-0.4-0.3-0.6-0.5-0.8c-0.2-0.2-0.4-0.3-0.6-0.3c-0.2,0-0.4,0-0.7,0.1c-0.2,0.1-0.3,0.1-0.5,0.2     c-0.2,0.1-0.3,0.2-0.5,0.4l-1.1,0.4l-1.5-4.2L916.2,1507.3z"
   id="path20087" />
			<path
   d="M920.7,1505.5c0.9-0.3,1.8-0.2,2.5,0.3c0.7,0.6,1.3,1.5,1.8,2.8c0.5,1.3,0.6,2.4,0.4,3.3c-0.2,0.9-0.8,1.5-1.7,1.9     c-0.9,0.3-1.8,0.2-2.5-0.4c-0.7-0.6-1.3-1.5-1.8-2.8c-0.5-1.3-0.6-2.4-0.4-3.3C919.2,1506.5,919.8,1505.9,920.7,1505.5z      M921.1,1506.7c-0.4,0.2-0.7,0.5-0.7,1.1s0.1,1.4,0.5,2.5c0.2,0.6,0.4,1.1,0.6,1.5c0.2,0.4,0.4,0.7,0.6,0.9     c0.2,0.2,0.4,0.3,0.6,0.3c0.2,0,0.4,0,0.7-0.1c0.3-0.1,0.5-0.3,0.6-0.6c0.1-0.3,0.2-0.6,0.1-1.1c-0.1-0.5-0.2-1.1-0.5-1.8     c-0.3-0.8-0.5-1.4-0.8-1.8c-0.2-0.4-0.5-0.7-0.7-0.8C921.7,1506.5,921.4,1506.5,921.1,1506.7z M922.2,1506.6l0.7,0.8l-0.6,5.5     l-0.7-0.6L922.2,1506.6z"
   id="path20089" />
			<path
   d="M930.1,1502.4l0.2,1.2l-3,1.1l0.7,2c0.2-0.2,0.4-0.3,0.6-0.4s0.4-0.2,0.6-0.3c0.4-0.2,0.8-0.2,1.2-0.1     c0.4,0.1,0.8,0.3,1.1,0.6s0.6,0.7,0.8,1.3c0.2,0.5,0.2,1.1,0.1,1.6c-0.1,0.5-0.3,1-0.7,1.4c-0.4,0.4-0.8,0.7-1.4,0.9     c-0.5,0.2-1.1,0.3-1.6,0.2c-0.5,0-1-0.2-1.4-0.4l0.6-1.1c0.3,0.2,0.6,0.3,0.9,0.3c0.3,0,0.6,0,0.9-0.1c0.5-0.2,0.8-0.4,0.9-0.8     s0.2-0.8,0-1.3c-0.1-0.4-0.3-0.6-0.5-0.8c-0.2-0.2-0.4-0.3-0.6-0.3c-0.2,0-0.4,0-0.7,0.1c-0.2,0.1-0.3,0.1-0.5,0.2     c-0.2,0.1-0.3,0.2-0.5,0.4l-1.1,0.4l-1.5-4.2L930.1,1502.4z"
   id="path20091" />
		</g>
	</g>
</g>
<g
   id="507">
	
		<rect
   x="931.3"
   y="1552.1"
   transform="matrix(0.9501 -0.312 0.312 0.9501 -449.7527 377.799)"
   class="st9"
   width="48.8"
   height="84.3"
   id="rect20099" />
	<g
   id="g20109">
		<g
   id="g20107">
			<path
   d="M933.1,1565.4l0.2,1.2l-3,1.1l0.7,2c0.2-0.2,0.4-0.3,0.6-0.4c0.2-0.1,0.4-0.2,0.6-0.3c0.4-0.2,0.8-0.2,1.2-0.1     c0.4,0.1,0.8,0.3,1.1,0.6s0.6,0.7,0.8,1.3c0.2,0.5,0.2,1.1,0.1,1.6c-0.1,0.5-0.3,1-0.7,1.4c-0.4,0.4-0.8,0.7-1.4,0.9     c-0.5,0.2-1.1,0.3-1.6,0.2c-0.5,0-1-0.2-1.4-0.4l0.6-1.1c0.3,0.2,0.6,0.3,0.9,0.3c0.3,0,0.6,0,0.9-0.1c0.5-0.2,0.8-0.4,0.9-0.8     c0.2-0.4,0.2-0.8,0-1.3c-0.1-0.4-0.3-0.6-0.5-0.8c-0.2-0.2-0.4-0.3-0.6-0.3c-0.2,0-0.4,0-0.7,0.1c-0.2,0.1-0.3,0.1-0.5,0.2     c-0.2,0.1-0.3,0.2-0.5,0.4l-1.1,0.4l-1.5-4.2L933.1,1565.4z"
   id="path20101" />
			<path
   d="M937.6,1563.5c0.9-0.3,1.8-0.2,2.5,0.3c0.7,0.6,1.3,1.5,1.8,2.8c0.5,1.3,0.6,2.4,0.4,3.3c-0.2,0.9-0.8,1.5-1.7,1.9     c-0.9,0.3-1.8,0.2-2.5-0.4c-0.7-0.6-1.3-1.5-1.8-2.8c-0.5-1.3-0.6-2.4-0.4-3.3C936.1,1564.5,936.7,1563.9,937.6,1563.5z      M938,1564.7c-0.4,0.2-0.7,0.5-0.7,1.1s0.1,1.4,0.5,2.5c0.2,0.6,0.4,1.1,0.6,1.5c0.2,0.4,0.4,0.7,0.6,0.9     c0.2,0.2,0.4,0.3,0.6,0.3s0.4,0,0.7-0.1c0.3-0.1,0.5-0.3,0.6-0.6c0.1-0.3,0.2-0.6,0.1-1.1c-0.1-0.5-0.2-1.1-0.5-1.8     c-0.3-0.8-0.5-1.4-0.8-1.8s-0.5-0.7-0.7-0.8S938.3,1564.6,938,1564.7z M939.1,1564.6l0.7,0.8l-0.6,5.5l-0.7-0.6L939.1,1564.6z"
   id="path20103" />
			<path
   d="M947,1569.6l-1.6,0.1l0.7-7.6l-3.6,1.3l-0.4-1.2l5.2-1.8l0.4,1.1L947,1569.6z"
   id="path20105" />
		</g>
	</g>
</g>

<g
   id="561">
	<rect
   id="rect1632_1_"
   x="791.5"
   y="155.6"
   class="st10"
   width="132.5"
   height="173.4" />
	<g
   id="g20136">
		<g
   id="g20134">
			<path
   d="M805.8,162.3l-0.2,1.2h-3.2v2.1c0.2-0.1,0.5-0.2,0.7-0.2c0.2,0,0.4-0.1,0.7-0.1c0.4,0,0.8,0.1,1.2,0.3     c0.4,0.2,0.6,0.5,0.8,0.9s0.3,0.9,0.3,1.5s-0.1,1.1-0.4,1.5c-0.3,0.4-0.6,0.8-1.1,1c-0.5,0.3-1,0.4-1.7,0.4     c-0.6,0-1.1-0.1-1.5-0.3s-0.8-0.5-1.2-0.9l0.9-0.9c0.2,0.3,0.5,0.5,0.8,0.6s0.6,0.2,0.9,0.2c0.5,0,0.9-0.1,1.2-0.4     s0.4-0.7,0.4-1.2c0-0.4-0.1-0.7-0.2-0.9c-0.1-0.2-0.3-0.4-0.5-0.5c-0.2-0.1-0.4-0.2-0.7-0.2c-0.2,0-0.4,0-0.6,0.1     s-0.4,0.1-0.6,0.2h-1.1v-4.5H805.8z"
   id="path20128" />
			<path
   d="M811.2,162.1c0.4,0,0.7,0,1,0.1c0.3,0.1,0.6,0.2,0.8,0.4l-0.6,1c-0.2-0.1-0.4-0.2-0.6-0.3c-0.2-0.1-0.4-0.1-0.6-0.1     c-0.4,0-0.7,0.1-1,0.4c-0.3,0.2-0.5,0.6-0.6,1c-0.2,0.5-0.2,1-0.2,1.6l0,0.5c0,1,0.1,1.7,0.3,2.2c0.2,0.5,0.6,0.7,1.1,0.7     c0.4,0,0.7-0.2,0.9-0.5s0.3-0.8,0.3-1.3c0-0.4,0-0.7-0.1-1s-0.2-0.4-0.4-0.5c-0.2-0.1-0.4-0.2-0.6-0.2c-0.3,0-0.6,0.1-0.9,0.3     c-0.3,0.2-0.5,0.4-0.7,0.7l0-1.1c0.3-0.4,0.6-0.6,0.9-0.8s0.7-0.3,1.1-0.3c0.4,0,0.8,0.1,1.2,0.3c0.4,0.2,0.6,0.5,0.9,0.9     c0.2,0.4,0.3,0.9,0.3,1.5c0,0.6-0.1,1.1-0.4,1.6c-0.2,0.5-0.6,0.8-1,1.1s-0.9,0.4-1.5,0.4c-0.5,0-1-0.1-1.4-0.3     c-0.4-0.2-0.7-0.5-0.9-0.9c-0.2-0.4-0.4-0.8-0.5-1.3c-0.1-0.5-0.2-1-0.2-1.6c0-1,0.1-1.8,0.4-2.5c0.3-0.7,0.7-1.3,1.2-1.7     C809.9,162.3,810.5,162.1,811.2,162.1z"
   id="path20130" />
			<path
   d="M819.3,162.3v8.3h-1.6v-6.6l-1.8,1.1l-0.7-1.1l2.7-1.6H819.3z M821,169.5v1.2h-5.3v-1.2H821z"
   id="path20132" />
		</g>
	</g>
	<g
   id="g20144">
		<g
   id="g20142">
			<path
   d="M904.8,312.8c0.4,0,0.7,0,1,0.1c0.3,0.1,0.6,0.2,0.8,0.4l-0.7,1.2c-0.2-0.1-0.3-0.2-0.5-0.3c-0.2-0.1-0.4-0.1-0.6-0.1     c-0.3,0-0.6,0.1-0.9,0.3c-0.3,0.2-0.5,0.5-0.6,0.9c-0.1,0.4-0.2,0.9-0.2,1.5l0,0.6c0,1,0.1,1.7,0.2,2.2c0.2,0.5,0.5,0.7,0.9,0.7     c0.4,0,0.6-0.2,0.8-0.5c0.2-0.3,0.3-0.7,0.3-1.1c0-0.4,0-0.7-0.1-0.9s-0.2-0.4-0.3-0.5c-0.1-0.1-0.3-0.2-0.5-0.2     c-0.3,0-0.5,0.1-0.8,0.2c-0.2,0.1-0.5,0.3-0.7,0.6l0-1.2c0.3-0.3,0.6-0.6,0.9-0.7s0.7-0.2,1-0.2c0.4,0,0.8,0.1,1.2,0.3     c0.4,0.2,0.6,0.5,0.9,1c0.2,0.4,0.3,0.9,0.3,1.5c0,0.6-0.1,1.1-0.4,1.6c-0.2,0.5-0.6,0.8-1,1.1c-0.5,0.3-1,0.4-1.6,0.4     c-0.6,0-1.1-0.1-1.5-0.3c-0.4-0.2-0.7-0.5-1-0.9c-0.3-0.4-0.4-0.8-0.6-1.3s-0.2-1-0.2-1.6c0-1,0.1-1.8,0.4-2.5s0.7-1.3,1.3-1.7     S904,312.8,904.8,312.8z"
   id="path20138" />
			<path
   d="M911.6,312.8c1,0,1.8,0.4,2.3,1.2c0.5,0.8,0.8,1.9,0.8,3.3c0,1.4-0.3,2.5-0.8,3.3c-0.5,0.8-1.3,1.2-2.3,1.2     c-1,0-1.8-0.4-2.3-1.2c-0.5-0.8-0.8-1.9-0.8-3.3c0-1.4,0.3-2.5,0.8-3.3C909.8,313.2,910.6,312.8,911.6,312.8z M912.5,314.5     l0.5,1.1l-2.3,4.7l-0.6-0.9L912.5,314.5z M911.6,314.2c-0.4,0-0.8,0.2-1,0.7c-0.2,0.5-0.3,1.2-0.3,2.4c0,0.6,0,1.2,0.1,1.6     c0,0.4,0.1,0.7,0.2,0.9c0.1,0.2,0.2,0.4,0.4,0.5s0.4,0.1,0.6,0.1c0.3,0,0.5-0.1,0.7-0.3s0.3-0.5,0.4-1c0.1-0.5,0.1-1.1,0.1-1.8     c0-0.8,0-1.5-0.1-1.9c-0.1-0.4-0.2-0.7-0.4-0.9C912.2,314.3,911.9,314.2,911.6,314.2z"
   id="path20140" />
		</g>
	</g>
</g>
<g
   id="560">
	<rect
   id="rect1632_2_"
   x="791.5"
   y="328.9"
   class="st10"
   width="132.5"
   height="148.1" />
	<g
   id="g20157">
		<g
   id="g20155">
			<path
   d="M806.4,337.6l-0.2,1.2h-3.2v2.1c0.2-0.1,0.5-0.2,0.7-0.2c0.2,0,0.4-0.1,0.7-0.1c0.4,0,0.8,0.1,1.2,0.3     c0.4,0.2,0.6,0.5,0.8,0.9s0.3,0.9,0.3,1.5s-0.1,1.1-0.4,1.5c-0.3,0.4-0.6,0.8-1.1,1c-0.5,0.3-1,0.4-1.7,0.4     c-0.6,0-1.1-0.1-1.5-0.3s-0.8-0.5-1.2-0.9l0.9-0.9c0.2,0.3,0.5,0.5,0.8,0.6s0.6,0.2,0.9,0.2c0.5,0,0.9-0.1,1.2-0.4     s0.4-0.7,0.4-1.2c0-0.4-0.1-0.7-0.2-0.9c-0.1-0.2-0.3-0.4-0.5-0.5c-0.2-0.1-0.4-0.2-0.7-0.2c-0.2,0-0.4,0-0.6,0.1     s-0.4,0.1-0.6,0.2h-1.1v-4.5H806.4z"
   id="path20149" />
			<path
   d="M811.9,337.4c0.4,0,0.7,0,1,0.1c0.3,0.1,0.6,0.2,0.8,0.4l-0.6,1c-0.2-0.1-0.4-0.2-0.6-0.3c-0.2-0.1-0.4-0.1-0.6-0.1     c-0.4,0-0.7,0.1-1,0.4c-0.3,0.2-0.5,0.6-0.6,1c-0.2,0.5-0.2,1-0.2,1.6l0,0.5c0,1,0.1,1.7,0.3,2.2c0.2,0.5,0.6,0.7,1.1,0.7     c0.4,0,0.7-0.2,0.9-0.5s0.3-0.8,0.3-1.3c0-0.4,0-0.7-0.1-1s-0.2-0.4-0.4-0.5c-0.2-0.1-0.4-0.2-0.6-0.2c-0.3,0-0.6,0.1-0.9,0.3     c-0.3,0.2-0.5,0.4-0.7,0.7l0-1.1c0.3-0.4,0.6-0.6,0.9-0.8s0.7-0.3,1.1-0.3c0.4,0,0.8,0.1,1.2,0.3c0.4,0.2,0.6,0.5,0.9,0.9     c0.2,0.4,0.3,0.9,0.3,1.5c0,0.6-0.1,1.1-0.4,1.6c-0.2,0.5-0.6,0.8-1,1.1s-0.9,0.4-1.5,0.4c-0.5,0-1-0.1-1.4-0.3     c-0.4-0.2-0.7-0.5-0.9-0.9c-0.2-0.4-0.4-0.8-0.5-1.3c-0.1-0.5-0.2-1-0.2-1.6c0-1,0.1-1.8,0.4-2.5c0.3-0.7,0.7-1.3,1.2-1.7     C810.5,337.6,811.1,337.4,811.9,337.4z"
   id="path20151" />
			<path
   d="M818.7,337.4c1,0,1.7,0.4,2.2,1.2c0.5,0.8,0.8,1.9,0.8,3.3c0,1.4-0.3,2.5-0.8,3.3c-0.5,0.8-1.2,1.2-2.2,1.2     c-1,0-1.7-0.4-2.2-1.2c-0.5-0.8-0.7-1.9-0.7-3.3c0-1.4,0.2-2.5,0.7-3.3C817,337.8,817.7,337.4,818.7,337.4z M819.8,338.9l0.4,1     l-2.4,5l-0.5-0.8L819.8,338.9z M818.7,338.6c-0.5,0-0.8,0.2-1,0.7c-0.2,0.5-0.4,1.3-0.4,2.5c0,0.6,0,1.2,0.1,1.6     c0,0.4,0.1,0.8,0.2,1c0.1,0.2,0.3,0.4,0.4,0.5c0.2,0.1,0.4,0.2,0.7,0.2c0.3,0,0.6-0.1,0.8-0.3s0.4-0.6,0.5-1     c0.1-0.5,0.2-1.1,0.2-1.9c0-0.8,0-1.5-0.1-2s-0.2-0.8-0.4-1C819.3,338.7,819,338.6,818.7,338.6z"
   id="path20153" />
		</g>
	</g>
	<g
   id="g20165">
		<g
   id="g20163">
			<path
   d="M906.8,461.2l-0.2,1.4h-3.1v1.8c0.2-0.1,0.4-0.2,0.6-0.2s0.4-0.1,0.6-0.1c0.4,0,0.8,0.1,1.2,0.3c0.4,0.2,0.7,0.5,0.9,1     c0.2,0.4,0.3,0.9,0.3,1.5c0,0.6-0.1,1.1-0.4,1.5c-0.3,0.5-0.7,0.8-1.2,1.1c-0.5,0.3-1.1,0.4-1.8,0.4c-0.6,0-1.2-0.1-1.6-0.3     c-0.5-0.2-0.9-0.5-1.2-0.9l1.1-1c0.2,0.3,0.4,0.5,0.7,0.6c0.3,0.1,0.6,0.2,0.8,0.2c0.5,0,0.8-0.1,1.1-0.4     c0.3-0.3,0.4-0.6,0.4-1.1c0-0.4,0-0.6-0.1-0.8c-0.1-0.2-0.2-0.4-0.4-0.5c-0.2-0.1-0.4-0.1-0.6-0.1c-0.2,0-0.3,0-0.5,0.1     s-0.4,0.1-0.5,0.2h-1.3v-4.6H906.8z"
   id="path20159" />
			<path
   d="M914.4,463.3c0,0.4-0.1,0.7-0.3,1c-0.2,0.3-0.5,0.6-1,0.8c0.6,0.3,1,0.6,1.3,1c0.3,0.4,0.4,0.8,0.4,1.3     c0,0.4-0.1,0.9-0.4,1.2c-0.2,0.4-0.6,0.7-1.1,0.9c-0.5,0.2-1.1,0.4-1.8,0.4c-0.7,0-1.3-0.1-1.7-0.3c-0.5-0.2-0.8-0.5-1-0.9     c-0.2-0.4-0.3-0.8-0.3-1.2c0-0.5,0.1-0.9,0.4-1.3c0.3-0.4,0.7-0.6,1.1-0.9c-0.4-0.3-0.8-0.6-0.9-0.9c-0.2-0.3-0.3-0.7-0.3-1.1     c0-0.4,0.1-0.7,0.2-1c0.1-0.3,0.3-0.5,0.6-0.7c0.3-0.2,0.6-0.4,0.9-0.5s0.7-0.2,1.1-0.2c0.4,0,0.8,0.1,1.1,0.2     c0.3,0.1,0.6,0.3,0.9,0.5c0.3,0.2,0.4,0.4,0.6,0.7C914.3,462.6,914.4,462.9,914.4,463.3z M912.8,467.4c0-0.3-0.1-0.5-0.2-0.7     c-0.1-0.2-0.3-0.3-0.5-0.5c-0.2-0.1-0.5-0.3-0.9-0.4c-0.2,0.1-0.3,0.2-0.4,0.4s-0.2,0.3-0.3,0.5s-0.1,0.4-0.1,0.6     c0,0.4,0.1,0.6,0.3,0.9s0.5,0.3,0.9,0.3c0.4,0,0.7-0.1,0.9-0.3C912.7,468,912.8,467.7,912.8,467.4z M910.6,463.4     c0,0.2,0,0.4,0.1,0.5s0.2,0.3,0.4,0.4c0.2,0.1,0.4,0.2,0.7,0.3c0.3-0.2,0.5-0.4,0.6-0.6c0.1-0.2,0.2-0.4,0.2-0.7     c0-0.3-0.1-0.6-0.2-0.8c-0.2-0.2-0.4-0.3-0.7-0.3c-0.3,0-0.6,0.1-0.7,0.3C910.7,462.8,910.6,463,910.6,463.4z"
   id="path20161" />
		</g>
	</g>
</g>
<g
   id="559">
	<rect
   id="rect1632_3_"
   x="791.5"
   y="476.7"
   class="st10"
   width="132.5"
   height="135.6" />
	<g
   id="g20178">
		<g
   id="g20176">
			<path
   d="M805.8,484.2l-0.2,1.2h-3.2v2.1c0.2-0.1,0.5-0.2,0.7-0.2c0.2,0,0.4-0.1,0.7-0.1c0.4,0,0.8,0.1,1.2,0.3     c0.4,0.2,0.6,0.5,0.8,0.9s0.3,0.9,0.3,1.5s-0.1,1.1-0.4,1.5c-0.3,0.4-0.6,0.8-1.1,1c-0.5,0.3-1,0.4-1.7,0.4     c-0.6,0-1.1-0.1-1.5-0.3s-0.8-0.5-1.2-0.9l0.9-0.9c0.2,0.3,0.5,0.5,0.8,0.6s0.6,0.2,0.9,0.2c0.5,0,0.9-0.1,1.2-0.4     s0.4-0.7,0.4-1.2c0-0.4-0.1-0.7-0.2-0.9c-0.1-0.2-0.3-0.4-0.5-0.5c-0.2-0.1-0.4-0.2-0.7-0.2c-0.2,0-0.4,0-0.6,0.1     s-0.4,0.1-0.6,0.2h-1.1v-4.5H805.8z"
   id="path20170" />
			<path
   d="M813.2,484.2l-0.2,1.2h-3.2v2.1c0.2-0.1,0.5-0.2,0.7-0.2c0.2,0,0.4-0.1,0.7-0.1c0.4,0,0.8,0.1,1.2,0.3     c0.4,0.2,0.6,0.5,0.8,0.9s0.3,0.9,0.3,1.5s-0.1,1.1-0.4,1.5c-0.3,0.4-0.6,0.8-1.1,1c-0.5,0.3-1,0.4-1.7,0.4     c-0.6,0-1.1-0.1-1.5-0.3s-0.8-0.5-1.2-0.9l0.9-0.9c0.2,0.3,0.5,0.5,0.8,0.6s0.6,0.2,0.9,0.2c0.5,0,0.9-0.1,1.2-0.4     s0.4-0.7,0.4-1.2c0-0.4-0.1-0.7-0.2-0.9c-0.1-0.2-0.3-0.4-0.5-0.5c-0.2-0.1-0.4-0.2-0.7-0.2c-0.2,0-0.4,0-0.6,0.1     s-0.4,0.1-0.6,0.2h-1.1v-4.5H813.2z"
   id="path20172" />
			<path
   d="M818,484c0.7,0,1.2,0.1,1.7,0.4s0.8,0.7,1,1.2c0.2,0.5,0.3,1.1,0.3,1.8c0,0.8-0.1,1.6-0.3,2.2c-0.2,0.6-0.5,1.1-0.9,1.6     c-0.4,0.4-0.9,0.8-1.5,1.1c-0.6,0.3-1.4,0.5-2.2,0.7l-0.3-1.2c0.8-0.2,1.4-0.4,1.9-0.7c0.5-0.3,0.9-0.6,1.2-1s0.5-0.9,0.5-1.5     l0-0.6c0-0.6,0-1.2-0.1-1.6s-0.2-0.7-0.4-0.9c-0.2-0.2-0.5-0.3-0.8-0.3c-0.4,0-0.7,0.1-1,0.4c-0.2,0.3-0.3,0.7-0.3,1.3     c0,0.6,0.1,1,0.3,1.2c0.2,0.2,0.5,0.4,0.9,0.4c0.3,0,0.6-0.1,0.9-0.2c0.3-0.2,0.5-0.4,0.8-0.7l0,1c-0.3,0.3-0.6,0.6-0.9,0.8     c-0.3,0.2-0.7,0.3-1.2,0.3c-0.5,0-0.9-0.1-1.2-0.3s-0.7-0.5-0.9-0.9c-0.2-0.4-0.3-0.9-0.3-1.4c0-0.6,0.1-1.1,0.4-1.6     c0.3-0.4,0.6-0.8,1.1-1C816.9,484.1,817.4,484,818,484z"
   id="path20174" />
		</g>
	</g>
	<g
   id="g20186">
		<g
   id="g20184">
			<path
   d="M907.5,597l-0.2,1.4h-3.1v1.8c0.2-0.1,0.4-0.2,0.6-0.2s0.4-0.1,0.6-0.1c0.4,0,0.8,0.1,1.2,0.3c0.4,0.2,0.7,0.5,0.9,1     c0.2,0.4,0.3,0.9,0.3,1.5c0,0.6-0.1,1.1-0.4,1.5c-0.3,0.5-0.7,0.8-1.2,1.1c-0.5,0.3-1.1,0.4-1.8,0.4c-0.6,0-1.2-0.1-1.6-0.3     c-0.5-0.2-0.9-0.5-1.2-0.9l1.1-1c0.2,0.3,0.4,0.5,0.7,0.6c0.3,0.1,0.6,0.2,0.8,0.2c0.5,0,0.8-0.1,1.1-0.4     c0.3-0.3,0.4-0.6,0.4-1.1c0-0.4,0-0.6-0.1-0.8c-0.1-0.2-0.2-0.4-0.4-0.5c-0.2-0.1-0.4-0.1-0.6-0.1c-0.2,0-0.3,0-0.5,0.1     s-0.4,0.1-0.5,0.2h-1.3V597H907.5z"
   id="path20180" />
			<path
   d="M912.8,596.8c0.4,0,0.7,0,1,0.1c0.3,0.1,0.6,0.2,0.8,0.4l-0.7,1.2c-0.2-0.1-0.3-0.2-0.5-0.3c-0.2-0.1-0.4-0.1-0.6-0.1     c-0.3,0-0.6,0.1-0.9,0.3c-0.3,0.2-0.5,0.5-0.6,0.9c-0.1,0.4-0.2,0.9-0.2,1.5l0,0.6c0,1,0.1,1.7,0.2,2.2c0.2,0.5,0.5,0.7,0.9,0.7     c0.4,0,0.6-0.2,0.8-0.5c0.2-0.3,0.3-0.7,0.3-1.1c0-0.4,0-0.7-0.1-0.9s-0.2-0.4-0.3-0.5c-0.1-0.1-0.3-0.2-0.5-0.2     c-0.3,0-0.5,0.1-0.8,0.2c-0.2,0.1-0.5,0.3-0.7,0.6l0-1.2c0.3-0.3,0.6-0.6,0.9-0.7s0.7-0.2,1-0.2c0.4,0,0.8,0.1,1.2,0.3     c0.4,0.2,0.6,0.5,0.9,1c0.2,0.4,0.3,0.9,0.3,1.5c0,0.6-0.1,1.1-0.4,1.6c-0.2,0.5-0.6,0.8-1,1.1c-0.5,0.3-1,0.4-1.6,0.4     c-0.6,0-1.1-0.1-1.5-0.3c-0.4-0.2-0.7-0.5-1-0.9c-0.3-0.4-0.4-0.8-0.6-1.3s-0.2-1-0.2-1.6c0-1,0.1-1.8,0.4-2.5s0.7-1.3,1.3-1.7     S912,596.8,912.8,596.8z"
   id="path20182" />
		</g>
	</g>
</g>
<g
   id="563">
	<rect
   id="rect1632"
   x="1031.5"
   y="189.5"
   class="st10"
   width="133"
   height="165" />
	<g
   id="g20199">
		<g
   id="g20197">
			<path
   d="M1046.3,199.6l-0.2,1.2h-3.2v2.1c0.2-0.1,0.5-0.2,0.7-0.2c0.2,0,0.4-0.1,0.7-0.1c0.4,0,0.8,0.1,1.2,0.3     c0.4,0.2,0.6,0.5,0.8,0.9s0.3,0.9,0.3,1.5s-0.1,1.1-0.4,1.5c-0.3,0.4-0.6,0.8-1.1,1c-0.5,0.3-1,0.4-1.7,0.4     c-0.6,0-1.1-0.1-1.5-0.3s-0.8-0.5-1.2-0.9l0.9-0.9c0.2,0.3,0.5,0.5,0.8,0.6s0.6,0.2,0.9,0.2c0.5,0,0.9-0.1,1.2-0.4     s0.4-0.7,0.4-1.2c0-0.4-0.1-0.7-0.2-0.9c-0.1-0.2-0.3-0.4-0.5-0.5c-0.2-0.1-0.4-0.2-0.7-0.2c-0.2,0-0.4,0-0.6,0.1     s-0.4,0.1-0.6,0.2h-1.1v-4.5H1046.3z"
   id="path20191" />
			<path
   d="M1051.7,199.4c0.4,0,0.7,0,1,0.1c0.3,0.1,0.6,0.2,0.8,0.4l-0.6,1c-0.2-0.1-0.4-0.2-0.6-0.3c-0.2-0.1-0.4-0.1-0.6-0.1     c-0.4,0-0.7,0.1-1,0.4c-0.3,0.2-0.5,0.6-0.6,1c-0.2,0.5-0.2,1-0.2,1.6l0,0.5c0,1,0.1,1.7,0.3,2.2c0.2,0.5,0.6,0.7,1.1,0.7     c0.4,0,0.7-0.2,0.9-0.5s0.3-0.8,0.3-1.3c0-0.4,0-0.7-0.1-1s-0.2-0.4-0.4-0.5c-0.2-0.1-0.4-0.2-0.6-0.2c-0.3,0-0.6,0.1-0.9,0.3     c-0.3,0.2-0.5,0.4-0.7,0.7l0-1.1c0.3-0.4,0.6-0.6,0.9-0.8s0.7-0.3,1.1-0.3c0.4,0,0.8,0.1,1.2,0.3c0.4,0.2,0.6,0.5,0.9,0.9     c0.2,0.4,0.3,0.9,0.3,1.5c0,0.6-0.1,1.1-0.4,1.6c-0.2,0.5-0.6,0.8-1,1.1s-0.9,0.4-1.5,0.4c-0.5,0-1-0.1-1.4-0.3     c-0.4-0.2-0.7-0.5-0.9-0.9c-0.2-0.4-0.4-0.8-0.5-1.3c-0.1-0.5-0.2-1-0.2-1.6c0-1,0.1-1.8,0.4-2.5c0.3-0.7,0.7-1.3,1.2-1.7     C1050.3,199.6,1050.9,199.4,1051.7,199.4z"
   id="path20193" />
			<path
   d="M1058.1,199.4c0.6,0,1.1,0.1,1.5,0.3c0.4,0.2,0.7,0.5,1,0.8c0.2,0.3,0.3,0.7,0.3,1.1c0,0.4-0.1,0.7-0.2,0.9     c-0.1,0.3-0.3,0.5-0.6,0.7c-0.3,0.2-0.6,0.3-0.9,0.4c0.4,0,0.7,0.1,1,0.3c0.3,0.2,0.5,0.4,0.7,0.7c0.2,0.3,0.3,0.7,0.3,1.1     c0,0.5-0.1,0.9-0.4,1.3c-0.3,0.4-0.6,0.7-1.1,0.9s-1,0.3-1.7,0.3c-0.6,0-1.1-0.1-1.6-0.3c-0.5-0.2-0.9-0.5-1.3-0.9l1-0.9     c0.2,0.3,0.5,0.5,0.8,0.6c0.3,0.1,0.6,0.2,1,0.2c0.5,0,0.9-0.1,1.2-0.4c0.3-0.2,0.4-0.6,0.4-1c0-0.3-0.1-0.6-0.2-0.8     s-0.3-0.4-0.5-0.4c-0.2-0.1-0.5-0.1-0.8-0.1h-0.8l0.2-1.2h0.5c0.3,0,0.5,0,0.7-0.1c0.2-0.1,0.4-0.2,0.5-0.4s0.2-0.4,0.2-0.7     c0-0.4-0.1-0.7-0.4-0.9c-0.3-0.2-0.6-0.3-1-0.3c-0.4,0-0.7,0.1-0.9,0.2c-0.3,0.1-0.5,0.3-0.8,0.6l-0.8-0.9     c0.4-0.4,0.8-0.6,1.3-0.8C1057.1,199.5,1057.6,199.4,1058.1,199.4z"
   id="path20195" />
		</g>
	</g>
	<g
   id="g20207">
		<g
   id="g20205">
			<path
   d="M1149.9,337.8l-0.2,1.4h-3.1v1.8c0.2-0.1,0.4-0.2,0.6-0.2s0.4-0.1,0.6-0.1c0.4,0,0.8,0.1,1.2,0.3c0.4,0.2,0.7,0.5,0.9,1     c0.2,0.4,0.3,0.9,0.3,1.5c0,0.6-0.1,1.1-0.4,1.5c-0.3,0.5-0.7,0.8-1.2,1.1c-0.5,0.3-1.1,0.4-1.8,0.4c-0.6,0-1.2-0.1-1.6-0.3     c-0.5-0.2-0.9-0.5-1.2-0.9l1.1-1c0.2,0.3,0.4,0.5,0.7,0.6c0.3,0.1,0.6,0.2,0.8,0.2c0.5,0,0.8-0.1,1.1-0.4     c0.3-0.3,0.4-0.6,0.4-1.1c0-0.4,0-0.6-0.1-0.8c-0.1-0.2-0.2-0.4-0.4-0.5c-0.2-0.1-0.4-0.1-0.6-0.1c-0.2,0-0.3,0-0.5,0.1     s-0.4,0.1-0.5,0.2h-1.3v-4.6H1149.9z"
   id="path20201" />
			<path
   d="M1154.6,337.5c0.7,0,1.3,0.1,1.7,0.4s0.8,0.7,1,1.2c0.2,0.5,0.4,1.1,0.4,1.8c0,0.8-0.1,1.5-0.3,2.2s-0.5,1.2-0.9,1.6     c-0.4,0.5-1,0.8-1.6,1.2s-1.4,0.6-2.3,0.7l-0.4-1.4c0.7-0.2,1.3-0.4,1.8-0.7c0.5-0.3,0.9-0.6,1.2-1c0.3-0.4,0.5-0.8,0.6-1.4v-0.7     c0-0.6,0-1.1-0.1-1.5c-0.1-0.4-0.2-0.7-0.3-0.9c-0.2-0.2-0.4-0.3-0.8-0.3c-0.3,0-0.6,0.1-0.8,0.4c-0.2,0.3-0.3,0.7-0.3,1.2     c0,0.5,0.1,0.9,0.3,1.1c0.2,0.2,0.5,0.3,0.7,0.3c0.3,0,0.5-0.1,0.8-0.2c0.2-0.1,0.5-0.3,0.7-0.5l0,1.1c-0.3,0.3-0.6,0.5-0.9,0.7     c-0.3,0.2-0.7,0.3-1.1,0.3c-0.4,0-0.9-0.1-1.2-0.3s-0.7-0.5-0.9-1c-0.2-0.4-0.3-0.9-0.3-1.4c0-0.6,0.1-1.2,0.4-1.6     c0.3-0.5,0.6-0.8,1.1-1.1C1153.5,337.7,1154,337.5,1154.6,337.5z"
   id="path20203" />
		</g>
	</g>
</g>
<g
   id="562">
	<rect
   id="rect1632_4_"
   x="1031.5"
   y="354.5"
   class="st10"
   width="133"
   height="165" />
	<g
   id="g20220">
		<g
   id="g20218">
			<path
   d="M1046.9,363.5l-0.2,1.2h-3.2v2.1c0.2-0.1,0.5-0.2,0.7-0.2c0.2,0,0.4-0.1,0.7-0.1c0.4,0,0.8,0.1,1.2,0.3     c0.4,0.2,0.6,0.5,0.8,0.9s0.3,0.9,0.3,1.5s-0.1,1.1-0.4,1.5c-0.3,0.4-0.6,0.8-1.1,1c-0.5,0.3-1,0.4-1.7,0.4     c-0.6,0-1.1-0.1-1.5-0.3s-0.8-0.5-1.2-0.9l0.9-0.9c0.2,0.3,0.5,0.5,0.8,0.6s0.6,0.2,0.9,0.2c0.5,0,0.9-0.1,1.2-0.4     s0.4-0.7,0.4-1.2c0-0.4-0.1-0.7-0.2-0.9c-0.1-0.2-0.3-0.4-0.5-0.5c-0.2-0.1-0.4-0.2-0.7-0.2c-0.2,0-0.4,0-0.6,0.1     s-0.4,0.1-0.6,0.2h-1.1v-4.5H1046.9z"
   id="path20212" />
			<path
   d="M1052.3,363.3c0.4,0,0.7,0,1,0.1c0.3,0.1,0.6,0.2,0.8,0.4l-0.6,1c-0.2-0.1-0.4-0.2-0.6-0.3c-0.2-0.1-0.4-0.1-0.6-0.1     c-0.4,0-0.7,0.1-1,0.4c-0.3,0.2-0.5,0.6-0.6,1c-0.2,0.5-0.2,1-0.2,1.6l0,0.5c0,1,0.1,1.7,0.3,2.2c0.2,0.5,0.6,0.7,1.1,0.7     c0.4,0,0.7-0.2,0.9-0.5s0.3-0.8,0.3-1.3c0-0.4,0-0.7-0.1-1s-0.2-0.4-0.4-0.5c-0.2-0.1-0.4-0.2-0.6-0.2c-0.3,0-0.6,0.1-0.9,0.3     c-0.3,0.2-0.5,0.4-0.7,0.7l0-1.1c0.3-0.4,0.6-0.6,0.9-0.8s0.7-0.3,1.1-0.3c0.4,0,0.8,0.1,1.2,0.3c0.4,0.2,0.6,0.5,0.9,0.9     c0.2,0.4,0.3,0.9,0.3,1.5c0,0.6-0.1,1.1-0.4,1.6c-0.2,0.5-0.6,0.8-1,1.1s-0.9,0.4-1.5,0.4c-0.5,0-1-0.1-1.4-0.3     c-0.4-0.2-0.7-0.5-0.9-0.9c-0.2-0.4-0.4-0.8-0.5-1.3c-0.1-0.5-0.2-1-0.2-1.6c0-1,0.1-1.8,0.4-2.5c0.3-0.7,0.7-1.3,1.2-1.7     C1051,363.5,1051.6,363.3,1052.3,363.3z"
   id="path20214" />
			<path
   d="M1058.8,363.3c0.6,0,1.1,0.1,1.5,0.3c0.4,0.2,0.7,0.5,0.9,0.9c0.2,0.4,0.3,0.8,0.3,1.2c0,0.4-0.1,0.7-0.2,1.1     s-0.3,0.7-0.6,1.1c-0.3,0.4-0.6,0.8-1.1,1.3c-0.5,0.5-1,1-1.7,1.6h3.8l-0.2,1.3h-5.4v-1.2c0.6-0.6,1.1-1.1,1.5-1.5     c0.4-0.4,0.8-0.8,1.1-1.1c0.3-0.3,0.5-0.6,0.7-0.9c0.2-0.3,0.3-0.5,0.4-0.7c0.1-0.2,0.1-0.5,0.1-0.7c0-0.4-0.1-0.7-0.3-0.9     s-0.5-0.3-0.9-0.3c-0.4,0-0.7,0.1-0.9,0.2c-0.2,0.1-0.5,0.4-0.7,0.7l-1-0.8c0.3-0.4,0.7-0.8,1.2-1     C1057.6,363.4,1058.2,363.3,1058.8,363.3z"
   id="path20216" />
		</g>
	</g>
	<g
   id="g20228">
		<g
   id="g20226">
			<path
   d="M1150.4,504.4l-0.2,1.4h-3.1v1.8c0.2-0.1,0.4-0.2,0.6-0.2s0.4-0.1,0.6-0.1c0.4,0,0.8,0.1,1.2,0.3c0.4,0.2,0.7,0.5,0.9,1     c0.2,0.4,0.3,0.9,0.3,1.5c0,0.6-0.1,1.1-0.4,1.5c-0.3,0.5-0.7,0.8-1.2,1.1c-0.5,0.3-1.1,0.4-1.8,0.4c-0.6,0-1.2-0.1-1.6-0.3     c-0.5-0.2-0.9-0.5-1.2-0.9l1.1-1c0.2,0.3,0.4,0.5,0.7,0.6c0.3,0.1,0.6,0.2,0.8,0.2c0.5,0,0.8-0.1,1.1-0.4     c0.3-0.3,0.4-0.6,0.4-1.1c0-0.4,0-0.6-0.1-0.8c-0.1-0.2-0.2-0.4-0.4-0.5c-0.2-0.1-0.4-0.1-0.6-0.1c-0.2,0-0.3,0-0.5,0.1     s-0.4,0.1-0.5,0.2h-1.3v-4.6H1150.4z"
   id="path20222" />
			<path
   d="M1154.7,513.1l-1.8-0.6l3.2-6.7h-3.7v-1.5h5.7v1.3L1154.7,513.1z"
   id="path20224" />
		</g>
	</g>
</g>
<g
   id="556">
	<rect
   x="791.9"
   y="612.3"
   class="st10"
   width="132.1"
   height="168.7"
   id="rect20232" />
	<g
   id="g20242">
		<g
   id="g20240">
			<path
   d="M805.8,618.7l-0.2,1.2h-3.2v2.1c0.2-0.1,0.5-0.2,0.7-0.2c0.2,0,0.4-0.1,0.7-0.1c0.4,0,0.8,0.1,1.2,0.3     c0.4,0.2,0.6,0.5,0.8,0.9s0.3,0.9,0.3,1.5s-0.1,1.1-0.4,1.5c-0.3,0.4-0.6,0.8-1.1,1s-1,0.4-1.7,0.4c-0.6,0-1.1-0.1-1.5-0.3     c-0.4-0.2-0.8-0.5-1.2-0.9l0.9-0.9c0.2,0.3,0.5,0.5,0.8,0.6c0.3,0.1,0.6,0.2,0.9,0.2c0.5,0,0.9-0.1,1.2-0.4     c0.3-0.3,0.4-0.7,0.4-1.2c0-0.4-0.1-0.7-0.2-0.9s-0.3-0.4-0.5-0.5c-0.2-0.1-0.4-0.2-0.7-0.2c-0.2,0-0.4,0-0.6,0.1     c-0.2,0-0.4,0.1-0.6,0.2h-1.1v-4.5H805.8z"
   id="path20234" />
			<path
   d="M813.2,618.7l-0.2,1.2h-3.2v2.1c0.2-0.1,0.5-0.2,0.7-0.2c0.2,0,0.4-0.1,0.7-0.1c0.4,0,0.8,0.1,1.2,0.3     c0.4,0.2,0.6,0.5,0.8,0.9s0.3,0.9,0.3,1.5s-0.1,1.1-0.4,1.5c-0.3,0.4-0.6,0.8-1.1,1s-1,0.4-1.7,0.4c-0.6,0-1.1-0.1-1.5-0.3     c-0.4-0.2-0.8-0.5-1.2-0.9l0.9-0.9c0.2,0.3,0.5,0.5,0.8,0.6c0.3,0.1,0.6,0.2,0.9,0.2c0.5,0,0.9-0.1,1.2-0.4     c0.3-0.3,0.4-0.7,0.4-1.2c0-0.4-0.1-0.7-0.2-0.9s-0.3-0.4-0.5-0.5c-0.2-0.1-0.4-0.2-0.7-0.2c-0.2,0-0.4,0-0.6,0.1     c-0.2,0-0.4,0.1-0.6,0.2h-1.1v-4.5H813.2z"
   id="path20236" />
			<path
   d="M818.6,618.5c0.4,0,0.7,0,1,0.1c0.3,0.1,0.6,0.2,0.8,0.4l-0.6,1c-0.2-0.1-0.4-0.2-0.6-0.3c-0.2-0.1-0.4-0.1-0.6-0.1     c-0.4,0-0.7,0.1-1,0.4s-0.5,0.6-0.6,1c-0.2,0.5-0.2,1-0.2,1.6l0,0.5c0,1,0.1,1.7,0.3,2.2c0.2,0.5,0.6,0.7,1.1,0.7     c0.4,0,0.7-0.2,0.9-0.5c0.2-0.3,0.3-0.8,0.3-1.3c0-0.4,0-0.7-0.1-1c-0.1-0.2-0.2-0.4-0.4-0.5c-0.2-0.1-0.4-0.2-0.6-0.2     c-0.3,0-0.6,0.1-0.9,0.3c-0.3,0.2-0.5,0.4-0.7,0.7l0-1.1c0.3-0.4,0.6-0.6,0.9-0.8c0.3-0.2,0.7-0.3,1.1-0.3c0.4,0,0.8,0.1,1.2,0.3     c0.4,0.2,0.6,0.5,0.9,0.9s0.3,0.9,0.3,1.5c0,0.6-0.1,1.1-0.4,1.6c-0.2,0.5-0.6,0.8-1,1.1c-0.4,0.3-0.9,0.4-1.5,0.4     c-0.6,0-1-0.1-1.4-0.3c-0.4-0.2-0.7-0.5-0.9-0.9c-0.2-0.4-0.4-0.8-0.5-1.3c-0.1-0.5-0.2-1-0.2-1.6c0-1,0.1-1.8,0.4-2.5     s0.7-1.3,1.2-1.7C817.2,618.7,817.9,618.5,818.6,618.5z"
   id="path20238" />
		</g>
	</g>
	<g
   id="g20250">
		<g
   id="g20248">
			<path
   d="M907.9,766.9l-0.2,1.4h-3.1v1.8c0.2-0.1,0.4-0.2,0.6-0.2s0.4-0.1,0.6-0.1c0.4,0,0.8,0.1,1.2,0.3c0.4,0.2,0.7,0.5,0.9,1     c0.2,0.4,0.3,0.9,0.3,1.5c0,0.6-0.1,1.1-0.4,1.5c-0.3,0.5-0.7,0.8-1.2,1.1c-0.5,0.3-1.1,0.4-1.8,0.4c-0.6,0-1.2-0.1-1.6-0.3     c-0.5-0.2-0.9-0.5-1.2-0.9l1.1-1c0.2,0.3,0.4,0.5,0.7,0.6c0.3,0.1,0.6,0.2,0.8,0.2c0.5,0,0.8-0.1,1.1-0.4     c0.3-0.3,0.4-0.6,0.4-1.1c0-0.4,0-0.6-0.1-0.8c-0.1-0.2-0.2-0.4-0.4-0.5c-0.2-0.1-0.4-0.1-0.6-0.1c-0.2,0-0.3,0-0.5,0.1     s-0.4,0.1-0.5,0.2h-1.3v-4.6H907.9z"
   id="path20244" />
			<path
   d="M914.2,766.9v8.3h-1.9v-6.4l-1.8,1.1l-0.8-1.3l2.8-1.7H914.2z M915.8,773.9v1.5h-5.5v-1.5H915.8z"
   id="path20246" />
		</g>
	</g>
</g>
<g
   id="555">
	<rect
   x="791.9"
   y="781"
   class="st10"
   width="132.1"
   height="169.4"
   id="rect20254" />
	<g
   id="g20264">
		<g
   id="g20262">
			<path
   d="M805.8,790l-0.2,1.2h-3.2v2.1c0.2-0.1,0.5-0.2,0.7-0.2c0.2,0,0.4-0.1,0.7-0.1c0.4,0,0.8,0.1,1.2,0.3s0.6,0.5,0.8,0.9     s0.3,0.9,0.3,1.5s-0.1,1.1-0.4,1.5c-0.3,0.4-0.6,0.8-1.1,1c-0.5,0.3-1,0.4-1.7,0.4c-0.6,0-1.1-0.1-1.5-0.3s-0.8-0.5-1.2-0.9     l0.9-0.9c0.2,0.3,0.5,0.5,0.8,0.6s0.6,0.2,0.9,0.2c0.5,0,0.9-0.1,1.2-0.4s0.4-0.7,0.4-1.2c0-0.4-0.1-0.7-0.2-0.9     c-0.1-0.2-0.3-0.4-0.5-0.5c-0.2-0.1-0.4-0.2-0.7-0.2c-0.2,0-0.4,0-0.6,0.1c-0.2,0-0.4,0.1-0.6,0.2h-1.1V790H805.8z"
   id="path20256" />
			<path
   d="M813.2,790l-0.2,1.2h-3.2v2.1c0.2-0.1,0.5-0.2,0.7-0.2c0.2,0,0.4-0.1,0.7-0.1c0.4,0,0.8,0.1,1.2,0.3s0.6,0.5,0.8,0.9     s0.3,0.9,0.3,1.5s-0.1,1.1-0.4,1.5c-0.3,0.4-0.6,0.8-1.1,1c-0.5,0.3-1,0.4-1.7,0.4c-0.6,0-1.1-0.1-1.5-0.3s-0.8-0.5-1.2-0.9     l0.9-0.9c0.2,0.3,0.5,0.5,0.8,0.6s0.6,0.2,0.9,0.2c0.5,0,0.9-0.1,1.2-0.4s0.4-0.7,0.4-1.2c0-0.4-0.1-0.7-0.2-0.9     c-0.1-0.2-0.3-0.4-0.5-0.5c-0.2-0.1-0.4-0.2-0.7-0.2c-0.2,0-0.4,0-0.6,0.1c-0.2,0-0.4,0.1-0.6,0.2h-1.1V790H813.2z"
   id="path20258" />
			<path
   d="M820.6,790l-0.2,1.2h-3.2v2.1c0.2-0.1,0.5-0.2,0.7-0.2c0.2,0,0.4-0.1,0.7-0.1c0.4,0,0.8,0.1,1.2,0.3     c0.4,0.2,0.6,0.5,0.8,0.9s0.3,0.9,0.3,1.5s-0.1,1.1-0.4,1.5c-0.3,0.4-0.6,0.8-1.1,1c-0.5,0.3-1,0.4-1.7,0.4     c-0.6,0-1.1-0.1-1.5-0.3s-0.8-0.5-1.2-0.9l0.9-0.9c0.2,0.3,0.5,0.5,0.8,0.6s0.6,0.2,0.9,0.2c0.5,0,0.9-0.1,1.2-0.4     s0.4-0.7,0.4-1.2c0-0.4-0.1-0.7-0.2-0.9c-0.1-0.2-0.3-0.4-0.5-0.5s-0.4-0.2-0.7-0.2c-0.2,0-0.4,0-0.6,0.1c-0.2,0-0.4,0.1-0.6,0.2     h-1.1V790H820.6z"
   id="path20260" />
		</g>
	</g>
	<g
   id="g20272">
		<g
   id="g20270">
			<path
   d="M908.4,934.9l-0.2,1.4h-3.1v1.8c0.2-0.1,0.4-0.2,0.6-0.2s0.4-0.1,0.6-0.1c0.4,0,0.8,0.1,1.2,0.3c0.4,0.2,0.7,0.5,0.9,1     c0.2,0.4,0.3,0.9,0.3,1.5c0,0.6-0.1,1.1-0.4,1.5c-0.3,0.5-0.7,0.8-1.2,1.1c-0.5,0.3-1.1,0.4-1.8,0.4c-0.6,0-1.2-0.1-1.6-0.3     c-0.5-0.2-0.9-0.5-1.2-0.9l1.1-1c0.2,0.3,0.4,0.5,0.7,0.6c0.3,0.1,0.6,0.2,0.8,0.2c0.5,0,0.8-0.1,1.1-0.4     c0.3-0.3,0.4-0.6,0.4-1.1c0-0.4,0-0.6-0.1-0.8c-0.1-0.2-0.2-0.4-0.4-0.5c-0.2-0.1-0.4-0.1-0.6-0.1c-0.2,0-0.3,0-0.5,0.1     s-0.4,0.1-0.5,0.2h-1.3v-4.6H908.4z"
   id="path20266" />
			<path
   d="M913.2,934.6c1,0,1.8,0.4,2.3,1.2c0.5,0.8,0.8,1.9,0.8,3.3c0,1.4-0.3,2.5-0.8,3.3c-0.5,0.8-1.3,1.2-2.3,1.2     c-1,0-1.8-0.4-2.3-1.2c-0.5-0.8-0.8-1.9-0.8-3.3c0-1.4,0.3-2.5,0.8-3.3C911.4,935,912.1,934.6,913.2,934.6z M914.1,936.3l0.5,1.1     l-2.3,4.7l-0.6-0.9L914.1,936.3z M913.2,936c-0.4,0-0.8,0.2-1,0.7c-0.2,0.5-0.3,1.2-0.3,2.4c0,0.6,0,1.2,0.1,1.6     c0,0.4,0.1,0.7,0.2,0.9c0.1,0.2,0.2,0.4,0.4,0.5s0.4,0.1,0.6,0.1c0.3,0,0.5-0.1,0.7-0.3s0.3-0.5,0.4-1c0.1-0.5,0.1-1.1,0.1-1.8     c0-0.8,0-1.5-0.1-1.9c-0.1-0.4-0.2-0.7-0.4-0.9C913.7,936.1,913.5,936,913.2,936z"
   id="path20268" />
		</g>
	</g>
</g>
<g
   id="509">
	
		<rect
   x="1016.6"
   y="1734.8"
   transform="matrix(0.9506 -0.3104 0.3104 0.9506 -522.2531 423.8836)"
   class="st6"
   width="108.2"
   height="236.1"
   id="rect20276" />
	<g
   id="g20286">
		<g
   id="g20284">
			<path
   d="M995.5,1759.7l0.2,1.2l-3,1.1l0.7,2c0.2-0.2,0.4-0.3,0.6-0.4c0.2-0.1,0.4-0.2,0.6-0.3c0.4-0.2,0.8-0.2,1.2-0.1     c0.4,0.1,0.8,0.3,1.1,0.6c0.3,0.3,0.6,0.7,0.8,1.3s0.2,1.1,0.1,1.6c-0.1,0.5-0.3,1-0.7,1.4c-0.4,0.4-0.8,0.7-1.4,0.9     c-0.5,0.2-1.1,0.3-1.6,0.2c-0.5,0-1-0.2-1.4-0.4l0.6-1.1c0.3,0.2,0.6,0.3,0.9,0.3c0.3,0,0.6,0,0.9-0.1c0.5-0.2,0.8-0.4,0.9-0.8     c0.2-0.4,0.2-0.8,0-1.3c-0.1-0.4-0.3-0.6-0.5-0.8c-0.2-0.2-0.4-0.3-0.6-0.3c-0.2,0-0.4,0-0.7,0.1c-0.2,0.1-0.3,0.1-0.5,0.2     c-0.2,0.1-0.3,0.2-0.5,0.4l-1.1,0.4l-1.5-4.2L995.5,1759.7z"
   id="path20278" />
			<path
   d="M1000,1757.9c0.9-0.3,1.8-0.2,2.5,0.3c0.7,0.6,1.3,1.5,1.8,2.8c0.5,1.3,0.6,2.4,0.4,3.3c-0.2,0.9-0.8,1.5-1.7,1.9     c-0.9,0.3-1.8,0.2-2.5-0.4c-0.7-0.6-1.3-1.5-1.8-2.8c-0.5-1.3-0.6-2.4-0.4-3.3C998.5,1758.9,999.1,1758.3,1000,1757.9z      M1000.4,1759.1c-0.4,0.2-0.7,0.5-0.7,1.1c-0.1,0.5,0.1,1.4,0.5,2.5c0.2,0.6,0.4,1.1,0.6,1.5c0.2,0.4,0.4,0.7,0.6,0.9     c0.2,0.2,0.4,0.3,0.6,0.3c0.2,0,0.4,0,0.7-0.1c0.3-0.1,0.5-0.3,0.6-0.6c0.1-0.3,0.2-0.6,0.1-1.1c-0.1-0.5-0.2-1.1-0.5-1.8     c-0.3-0.8-0.5-1.4-0.8-1.8c-0.2-0.4-0.5-0.7-0.7-0.8C1001.1,1759,1000.8,1759,1000.4,1759.1z M1001.5,1759l0.7,0.8l-0.6,5.5     l-0.7-0.6L1001.5,1759z"
   id="path20280" />
			<path
   d="M1006.9,1755.5c0.6-0.2,1.2-0.3,1.7-0.2c0.5,0.1,1,0.4,1.3,0.8c0.4,0.4,0.7,0.9,0.9,1.6c0.3,0.8,0.4,1.5,0.5,2.1     c0,0.6-0.1,1.2-0.3,1.8s-0.6,1.1-1.1,1.6c-0.5,0.5-1.1,1-1.8,1.5l-0.7-1c0.6-0.4,1.2-0.9,1.5-1.3c0.4-0.4,0.6-0.9,0.8-1.4     c0.1-0.5,0.1-1,0-1.6l-0.2-0.6c-0.2-0.6-0.4-1.1-0.6-1.4c-0.2-0.4-0.4-0.6-0.7-0.7c-0.2-0.1-0.5-0.1-0.9,0     c-0.4,0.1-0.7,0.4-0.8,0.7s-0.1,0.8,0.1,1.4c0.2,0.5,0.4,0.9,0.7,1c0.3,0.1,0.6,0.2,1,0c0.3-0.1,0.6-0.3,0.8-0.5s0.3-0.5,0.5-0.9     l0.3,1c-0.2,0.4-0.4,0.8-0.6,1c-0.2,0.3-0.6,0.5-1,0.7c-0.4,0.2-0.9,0.2-1.3,0.1c-0.4-0.1-0.8-0.3-1.1-0.6     c-0.3-0.3-0.6-0.7-0.8-1.3c-0.2-0.6-0.3-1.1-0.2-1.6c0.1-0.5,0.3-0.9,0.7-1.3C1005.9,1755.9,1006.4,1755.7,1006.9,1755.5z"
   id="path20282" />
		</g>
	</g>
	<g
   id="g20294">
		<g
   id="g20292">
			<path
   d="M1138.4,1936.9l0.3,1.4l-2.9,1.1l0.6,1.7c0.2-0.2,0.3-0.3,0.5-0.4c0.2-0.1,0.4-0.2,0.6-0.3c0.4-0.1,0.8-0.2,1.2-0.1     c0.4,0.1,0.8,0.3,1.1,0.6c0.3,0.3,0.6,0.7,0.8,1.3s0.2,1.1,0.1,1.6c-0.1,0.5-0.4,1-0.7,1.4s-0.9,0.7-1.5,1     c-0.6,0.2-1.1,0.3-1.7,0.2c-0.5-0.1-1-0.2-1.4-0.5l0.7-1.3c0.3,0.2,0.6,0.3,0.9,0.3c0.3,0,0.6,0,0.9-0.1c0.4-0.2,0.7-0.4,0.9-0.8     c0.2-0.4,0.2-0.7,0-1.2c-0.1-0.3-0.3-0.6-0.4-0.8c-0.2-0.2-0.3-0.3-0.5-0.3c-0.2,0-0.4,0-0.6,0.1c-0.1,0.1-0.3,0.1-0.4,0.2     s-0.3,0.2-0.4,0.4l-1.2,0.4l-1.5-4.3L1138.4,1936.9z"
   id="path20288" />
			<path
   d="M1142.4,1935.2c0.6-0.2,1.1-0.3,1.6-0.2s0.9,0.2,1.2,0.4c0.3,0.2,0.6,0.5,0.7,0.9c0.1,0.3,0.2,0.7,0.1,1     c0,0.3-0.2,0.6-0.3,0.8c-0.2,0.3-0.4,0.5-0.7,0.7c0.4-0.1,0.8-0.1,1.1-0.1c0.3,0,0.6,0.2,0.9,0.4s0.5,0.5,0.6,1     c0.2,0.5,0.2,0.9,0.1,1.4c-0.1,0.5-0.4,0.9-0.8,1.3c-0.4,0.4-0.9,0.7-1.5,0.9c-0.6,0.2-1.2,0.3-1.7,0.3s-1.1-0.2-1.5-0.5l0.7-1.3     c0.3,0.2,0.7,0.3,1,0.3c0.3,0,0.7,0,1-0.1c0.4-0.1,0.7-0.4,0.9-0.7c0.2-0.3,0.2-0.6,0.1-1c-0.1-0.3-0.2-0.5-0.4-0.6     c-0.2-0.1-0.4-0.2-0.6-0.2c-0.2,0-0.5,0-0.8,0.1l-0.7,0.3l-0.2-1.3l0.5-0.2c0.2-0.1,0.4-0.2,0.6-0.3c0.2-0.1,0.3-0.3,0.3-0.5     c0-0.2,0-0.4-0.1-0.6c-0.1-0.3-0.3-0.5-0.6-0.6c-0.3-0.1-0.6-0.1-0.9,0c-0.3,0.1-0.6,0.3-0.8,0.5c-0.2,0.2-0.4,0.5-0.5,0.8     l-1.3-0.6c0.2-0.5,0.6-0.9,0.9-1.2S1141.9,1935.4,1142.4,1935.2z"
   id="path20290" />
		</g>
	</g>
</g>
<g
   id="512">
	
		<rect
   x="1142.1"
   y="1587.2"
   transform="matrix(0.9506 -0.3104 0.3104 0.9506 -466.1455 454.8954)"
   class="st6"
   width="108.2"
   height="209.9"
   id="rect20298" />
	<g
   id="g20308">
		<g
   id="g20306">
			<path
   d="M1124,1610.1l0.2,1.2l-3,1.1l0.7,2c0.2-0.2,0.4-0.3,0.6-0.4c0.2-0.1,0.4-0.2,0.6-0.3c0.4-0.2,0.8-0.2,1.2-0.1     c0.4,0.1,0.8,0.3,1.1,0.6c0.3,0.3,0.6,0.7,0.8,1.3s0.2,1.1,0.1,1.6c-0.1,0.5-0.3,1-0.7,1.4c-0.4,0.4-0.8,0.7-1.4,0.9     c-0.5,0.2-1.1,0.3-1.6,0.2s-1-0.2-1.4-0.4l0.6-1.1c0.3,0.2,0.6,0.3,0.9,0.3s0.6,0,0.9-0.1c0.5-0.2,0.8-0.4,0.9-0.8     c0.2-0.4,0.2-0.8,0-1.3c-0.1-0.4-0.3-0.6-0.5-0.8c-0.2-0.2-0.4-0.3-0.6-0.3c-0.2,0-0.4,0-0.7,0.1c-0.2,0.1-0.3,0.1-0.5,0.2     s-0.3,0.2-0.5,0.4l-1.1,0.4l-1.5-4.2L1124,1610.1z"
   id="path20300" />
			<path
   d="M1129.8,1608l2.8,7.8l-1.5,0.5l-2.2-6.2l-1.3,1.7l-1-0.8l2-2.4L1129.8,1608z M1133.8,1614.3l0.4,1.2l-5,1.8l-0.4-1.2     L1133.8,1614.3z"
   id="path20302" />
			<path
   d="M1135.2,1605.9c0.6-0.2,1.1-0.3,1.6-0.2c0.5,0.1,0.9,0.2,1.2,0.5c0.3,0.3,0.6,0.6,0.7,1c0.1,0.3,0.2,0.7,0.2,1.1     c0,0.4-0.1,0.8-0.2,1.2c-0.1,0.5-0.3,1-0.6,1.6s-0.6,1.3-1.1,2.1l3.5-1.3l0.3,1.3l-5.1,1.8l-0.4-1.1c0.4-0.7,0.7-1.4,0.9-1.9     c0.3-0.6,0.5-1,0.6-1.4s0.3-0.8,0.3-1.1c0.1-0.3,0.1-0.6,0.1-0.8c0-0.2-0.1-0.5-0.1-0.7c-0.1-0.4-0.3-0.6-0.6-0.8     c-0.3-0.1-0.6-0.1-1,0c-0.3,0.1-0.6,0.3-0.8,0.5c-0.2,0.2-0.3,0.5-0.5,0.9l-1.2-0.4c0.2-0.5,0.4-1,0.7-1.3     C1134.1,1606.4,1134.6,1606.1,1135.2,1605.9z"
   id="path20304" />
		</g>
	</g>
	<g
   id="g20316">
		<g
   id="g20314">
			<path
   d="M1259.3,1763.8l0.3,1.4l-2.9,1.1l0.6,1.7c0.2-0.2,0.3-0.3,0.5-0.4c0.2-0.1,0.4-0.2,0.6-0.3c0.4-0.1,0.8-0.2,1.2-0.1     c0.4,0.1,0.8,0.3,1.1,0.6c0.3,0.3,0.6,0.7,0.8,1.3c0.2,0.5,0.2,1.1,0.1,1.6c-0.1,0.5-0.4,1-0.7,1.4s-0.9,0.7-1.5,1     c-0.6,0.2-1.1,0.3-1.7,0.2c-0.5-0.1-1-0.2-1.4-0.5l0.7-1.3c0.3,0.2,0.6,0.3,0.9,0.3s0.6,0,0.9-0.1c0.4-0.2,0.7-0.4,0.9-0.8     c0.2-0.4,0.2-0.7,0-1.2c-0.1-0.3-0.3-0.6-0.4-0.8c-0.2-0.2-0.3-0.3-0.5-0.3c-0.2,0-0.4,0-0.6,0.1c-0.1,0.1-0.3,0.1-0.4,0.2     c-0.2,0.1-0.3,0.2-0.4,0.4l-1.2,0.4l-1.5-4.3L1259.3,1763.8z"
   id="path20310" />
			<path
   d="M1263.4,1762.1c0.6-0.2,1.2-0.3,1.6-0.2c0.5,0.1,0.9,0.2,1.2,0.5c0.3,0.3,0.6,0.6,0.7,1c0.1,0.3,0.2,0.7,0.2,1     c0,0.4-0.1,0.7-0.2,1.2s-0.3,0.9-0.6,1.5c-0.3,0.6-0.6,1.2-1,2l3.4-1.2l0.3,1.5l-5.3,1.9l-0.5-1.3c0.3-0.7,0.6-1.3,0.9-1.8     c0.2-0.5,0.5-1,0.6-1.4c0.2-0.4,0.3-0.8,0.4-1c0.1-0.3,0.1-0.6,0.1-0.8s0-0.4-0.1-0.6c-0.1-0.3-0.3-0.5-0.6-0.7     c-0.3-0.1-0.6-0.1-0.9,0c-0.3,0.1-0.5,0.3-0.7,0.5c-0.2,0.2-0.3,0.5-0.4,0.9l-1.4-0.4c0.2-0.5,0.4-1,0.8-1.4     C1262.3,1762.6,1262.8,1762.3,1263.4,1762.1z"
   id="path20312" />
		</g>
	</g>
</g>
<g
   id="511"><rect
     x="1207.4"
     y="1785.5"
     transform="matrix(0.9506 -0.3104 0.3104 0.9506 -525.0502 485.0488)"
     class="st6"
     width="108.2"
     height="213.6"
     id="rect20003" /><g
     id="g20069">
	<g
   id="g20067">
		<path
   d="M1189.1,1808.6l0.2,1.2l-3,1.1l0.7,2c0.2-0.2,0.4-0.3,0.6-0.4c0.2-0.1,0.4-0.2,0.6-0.3c0.4-0.2,0.8-0.2,1.2-0.1    c0.4,0.1,0.8,0.3,1.1,0.6c0.3,0.3,0.6,0.7,0.8,1.3s0.2,1.1,0.1,1.6c-0.1,0.5-0.3,1-0.7,1.4c-0.4,0.4-0.8,0.7-1.4,0.9    c-0.5,0.2-1.1,0.3-1.6,0.2c-0.5,0-1-0.2-1.4-0.4l0.6-1.1c0.3,0.2,0.6,0.3,0.9,0.3c0.3,0,0.6,0,0.9-0.1c0.5-0.2,0.8-0.4,0.9-0.8    c0.2-0.4,0.2-0.8,0-1.3c-0.1-0.4-0.3-0.6-0.5-0.8c-0.2-0.2-0.4-0.3-0.6-0.3c-0.2,0-0.4,0-0.7,0.1c-0.2,0.1-0.3,0.1-0.5,0.2    c-0.2,0.1-0.3,0.2-0.5,0.4l-1.1,0.4l-1.5-4.2L1189.1,1808.6z"
   id="path20061" />
		<path
   d="M1194.8,1806.6l2.8,7.8l-1.5,0.5l-2.2-6.2l-1.3,1.7l-1-0.8l2-2.4L1194.8,1806.6z M1198.9,1812.9l0.4,1.2l-5,1.8l-0.4-1.2    L1198.9,1812.9z"
   id="path20063" />
		<path
   d="M1201.8,1804.1l2.8,7.8l-1.5,0.5l-2.2-6.2l-1.3,1.7l-1-0.8l2-2.4L1201.8,1804.1z M1205.8,1810.4l0.4,1.2l-5,1.8l-0.4-1.2    L1205.8,1810.4z"
   id="path20065" />
	</g>
</g><g
     id="g20326">
	<g
   id="g20324">
		<path
   d="M1327.4,1966.6l0.3,1.4l-2.9,1.1l0.6,1.7c0.2-0.2,0.3-0.3,0.5-0.4c0.2-0.1,0.4-0.2,0.6-0.3c0.4-0.1,0.8-0.2,1.2-0.1    c0.4,0.1,0.8,0.3,1.1,0.6c0.3,0.3,0.6,0.7,0.8,1.3s0.2,1.1,0.1,1.6c-0.1,0.5-0.4,1-0.7,1.4s-0.9,0.7-1.5,1    c-0.6,0.2-1.1,0.3-1.7,0.2c-0.5-0.1-1-0.2-1.4-0.5l0.7-1.3c0.3,0.2,0.6,0.3,0.9,0.3c0.3,0,0.6,0,0.9-0.1c0.4-0.2,0.7-0.4,0.9-0.8    c0.2-0.4,0.2-0.7,0-1.2c-0.1-0.3-0.3-0.6-0.4-0.8c-0.2-0.2-0.3-0.3-0.5-0.3c-0.2,0-0.4,0-0.6,0.1c-0.1,0.1-0.3,0.1-0.4,0.2    s-0.3,0.2-0.4,0.4l-1.2,0.4l-1.5-4.3L1327.4,1966.6z"
   id="path20320" />
		<path
   d="M1331,1965.1l1.8,0l-0.3,5.3l4-1.4l0.5,1.4l-5.9,2.1l-0.4-1.2L1331,1965.1z M1335.1,1967.3l1.8,5l-1.8,0.6l-1.1-2.9    l-0.5-2.2L1335.1,1967.3z"
   id="path20322" />
	</g>
</g></g>
<g
   id="510">
	
		<rect
   x="1093.4"
   y="2017.1"
   transform="matrix(0.9506 -0.3104 0.3104 0.9506 -582.5988 484.8144)"
   class="st11"
   width="277.2"
   height="111.8"
   id="rect20328" />
	
		<rect
   x="1180.4"
   y="1980.9"
   transform="matrix(0.9506 -0.3104 0.3104 0.9506 -561.2706 474.1636)"
   class="st11"
   width="57.6"
   height="39.5"
   id="rect20330" />
	
		<rect
   x="1191.5"
   y="2012"
   transform="matrix(0.9506 -0.3104 0.3104 0.9506 -570.4147 478.8937)"
   class="st12"
   width="56"
   height="39.5"
   id="rect20332" />
	<g
   id="g20342">
		<g
   id="g20340">
			<path
   d="M1096.3,2065.7l0.2,1.2l-3,1.1l0.7,2c0.2-0.2,0.4-0.3,0.6-0.4c0.2-0.1,0.4-0.2,0.6-0.3c0.4-0.2,0.8-0.2,1.2-0.1     c0.4,0.1,0.8,0.3,1.1,0.6s0.6,0.7,0.8,1.3c0.2,0.5,0.2,1.1,0.1,1.6c-0.1,0.5-0.3,1-0.7,1.4c-0.4,0.4-0.8,0.7-1.4,0.9     c-0.5,0.2-1.1,0.3-1.6,0.2c-0.5,0-1-0.2-1.4-0.4l0.6-1.1c0.3,0.2,0.6,0.3,0.9,0.3c0.3,0,0.6,0,0.9-0.1c0.5-0.2,0.8-0.4,0.9-0.8     c0.2-0.4,0.2-0.8,0-1.3c-0.1-0.4-0.3-0.6-0.5-0.8c-0.2-0.2-0.4-0.3-0.6-0.3c-0.2,0-0.4,0-0.7,0.1c-0.2,0.1-0.3,0.1-0.5,0.2     c-0.2,0.1-0.3,0.2-0.5,0.4l-1.1,0.4l-1.5-4.2L1096.3,2065.7z"
   id="path20334" />
			<path
   d="M1102.1,2063.6l2.8,7.8l-1.5,0.5l-2.2-6.2l-1.3,1.7l-1-0.8l2-2.4L1102.1,2063.6z M1106.1,2069.9l0.4,1.2l-5,1.8l-0.4-1.2     L1106.1,2069.9z"
   id="path20336" />
			<path
   d="M1107.8,2061.4c0.9-0.3,1.8-0.2,2.5,0.3s1.3,1.5,1.8,2.8c0.5,1.3,0.6,2.4,0.4,3.3c-0.2,0.9-0.8,1.5-1.7,1.9     c-0.9,0.3-1.8,0.2-2.5-0.4c-0.7-0.6-1.3-1.5-1.8-2.8c-0.5-1.3-0.6-2.4-0.4-3.3C1106.3,2062.3,1106.8,2061.7,1107.8,2061.4z      M1108.2,2062.5c-0.4,0.2-0.7,0.5-0.7,1.1c-0.1,0.5,0.1,1.4,0.5,2.5c0.2,0.6,0.4,1.1,0.6,1.5c0.2,0.4,0.4,0.7,0.6,0.9     c0.2,0.2,0.4,0.3,0.6,0.3c0.2,0,0.4,0,0.7-0.1c0.3-0.1,0.5-0.3,0.6-0.6c0.1-0.3,0.2-0.6,0.1-1.1c-0.1-0.5-0.2-1.1-0.5-1.8     c-0.3-0.8-0.5-1.4-0.8-1.8c-0.2-0.4-0.5-0.7-0.7-0.8C1108.8,2062.4,1108.5,2062.4,1108.2,2062.5z M1109.3,2062.4l0.7,0.8     l-0.6,5.5l-0.7-0.6L1109.3,2062.4z"
   id="path20338" />
		</g>
	</g>
	<g
   id="g20350">
		<g
   id="g20348">
			<path
   d="M1362.3,2074.2l0.3,1.4l-2.9,1.1l0.6,1.7c0.2-0.2,0.3-0.3,0.5-0.4c0.2-0.1,0.4-0.2,0.6-0.3c0.4-0.1,0.8-0.2,1.2-0.1     c0.4,0.1,0.8,0.3,1.1,0.6c0.3,0.3,0.6,0.7,0.8,1.3s0.2,1.1,0.1,1.6c-0.1,0.5-0.4,1-0.7,1.4s-0.9,0.7-1.5,1     c-0.6,0.2-1.1,0.3-1.7,0.2c-0.5-0.1-1-0.2-1.4-0.5l0.7-1.3c0.3,0.2,0.6,0.3,0.9,0.3c0.3,0,0.6,0,0.9-0.1c0.4-0.2,0.7-0.4,0.9-0.8     c0.2-0.4,0.2-0.7,0-1.2c-0.1-0.3-0.3-0.6-0.4-0.8c-0.2-0.2-0.3-0.3-0.5-0.3c-0.2,0-0.4,0-0.6,0.1c-0.1,0.1-0.3,0.1-0.4,0.2     c-0.2,0.1-0.3,0.2-0.4,0.4l-1.2,0.4l-1.5-4.3L1362.3,2074.2z"
   id="path20344" />
			<path
   d="M1369.2,2071.7l0.3,1.4l-2.9,1.1l0.6,1.7c0.2-0.2,0.3-0.3,0.5-0.4c0.2-0.1,0.4-0.2,0.6-0.3c0.4-0.1,0.8-0.2,1.2-0.1     s0.8,0.3,1.1,0.6c0.3,0.3,0.6,0.7,0.8,1.3c0.2,0.5,0.2,1.1,0.1,1.6c-0.1,0.5-0.4,1-0.7,1.4c-0.4,0.4-0.9,0.7-1.5,1     c-0.6,0.2-1.1,0.3-1.7,0.2s-1-0.2-1.4-0.5l0.7-1.3c0.3,0.2,0.6,0.3,0.9,0.3s0.6,0,0.9-0.1c0.4-0.2,0.7-0.4,0.9-0.8     c0.2-0.4,0.2-0.7,0-1.2c-0.1-0.3-0.3-0.6-0.4-0.8c-0.2-0.2-0.3-0.3-0.5-0.3c-0.2,0-0.4,0-0.6,0.1c-0.1,0.1-0.3,0.1-0.4,0.2     c-0.2,0.1-0.3,0.2-0.4,0.4l-1.2,0.4l-1.5-4.3L1369.2,2071.7z"
   id="path20346" />
		</g>
	</g>
</g>
<g
   id="519">
	
		<rect
   x="1060.6"
   y="1968.6"
   transform="matrix(0.9506 -0.3104 0.3104 0.9506 -563.0895 439.557)"
   class="st9"
   width="77.9"
   height="40.8"
   id="rect20354" />
	<g
   id="g20364">
		<g
   id="g20362">
			<path
   d="M1068.5,1983.2l0.2,1.2l-3,1.1l0.7,2c0.2-0.2,0.4-0.3,0.6-0.4c0.2-0.1,0.4-0.2,0.6-0.3c0.4-0.2,0.8-0.2,1.2-0.1     c0.4,0.1,0.8,0.3,1.1,0.6c0.3,0.3,0.6,0.7,0.8,1.3c0.2,0.5,0.2,1.1,0.1,1.6c-0.1,0.5-0.3,1-0.7,1.4c-0.4,0.4-0.8,0.7-1.4,0.9     c-0.5,0.2-1.1,0.3-1.6,0.2c-0.5,0-1-0.2-1.4-0.4l0.6-1.1c0.3,0.2,0.6,0.3,0.9,0.3s0.6,0,0.9-0.1c0.5-0.2,0.8-0.4,0.9-0.8     c0.2-0.4,0.2-0.8,0-1.3c-0.1-0.4-0.3-0.6-0.5-0.8c-0.2-0.2-0.4-0.3-0.6-0.3c-0.2,0-0.4,0-0.7,0.1c-0.2,0.1-0.3,0.1-0.5,0.2     c-0.2,0.1-0.3,0.2-0.5,0.4l-1.1,0.4l-1.5-4.2L1068.5,1983.2z"
   id="path20356" />
			<path
   d="M1074.3,1981.1l2.8,7.8l-1.5,0.5l-2.2-6.2l-1.3,1.7l-1-0.8l2-2.4L1074.3,1981.1z M1078.3,1987.4l0.4,1.2l-5,1.8l-0.4-1.2     L1078.3,1987.4z"
   id="path20358" />
			<path
   d="M1079.9,1978.9c0.6-0.2,1.2-0.3,1.7-0.2c0.5,0.1,1,0.4,1.3,0.8c0.4,0.4,0.7,0.9,0.9,1.6c0.3,0.8,0.4,1.5,0.5,2.1     c0,0.6-0.1,1.2-0.3,1.8s-0.6,1.1-1.1,1.6c-0.5,0.5-1.1,1-1.8,1.5l-0.7-1c0.6-0.4,1.2-0.9,1.5-1.3c0.4-0.4,0.6-0.9,0.8-1.4     c0.1-0.5,0.1-1,0-1.6l-0.2-0.6c-0.2-0.6-0.4-1.1-0.6-1.4s-0.4-0.6-0.7-0.7c-0.2-0.1-0.5-0.1-0.9,0c-0.4,0.1-0.7,0.4-0.8,0.7     c-0.1,0.4-0.1,0.8,0.1,1.4c0.2,0.5,0.4,0.9,0.7,1c0.3,0.1,0.6,0.2,1,0c0.3-0.1,0.6-0.3,0.8-0.5c0.2-0.2,0.3-0.5,0.5-0.9l0.3,1     c-0.2,0.4-0.4,0.8-0.6,1c-0.2,0.3-0.6,0.5-1,0.7c-0.4,0.2-0.9,0.2-1.3,0.1s-0.8-0.3-1.1-0.6c-0.3-0.3-0.6-0.7-0.8-1.3     c-0.2-0.6-0.3-1.1-0.2-1.6c0.1-0.5,0.3-0.9,0.7-1.3C1079,1979.4,1079.4,1979.1,1079.9,1978.9z"
   id="path20360" />
		</g>
	</g>
	<g
   id="g1852_1_">
		<g
   id="g1850_1_">
			<path
   id="path1846_1_"
   d="M1110.8,1979.7l2.7,12.6l-2.6,0.9l-4.2-8.4l2,9.2l-2.6,0.9l-5.7-11.5l2.3-0.8l4.3,9.6l-1.9-8.9l2.3-0.8     l4.2,8.1l-2.7-10.2L1110.8,1979.7z" />
			<path
   id="path1848_1_"
   d="M1117,1977.3c0.8-0.3,1.5-0.4,2.3-0.5c0.6,0,1.3,0.2,1.9,0.4l-0.7,1.9c-0.5-0.1-0.9-0.2-1.4-0.3     s-0.9,0.1-1.4,0.3c-0.6,0.2-1,0.6-1.3,1c-0.4,0.5-0.6,1.1-0.6,1.8c0,0.8,0.2,1.6,0.5,2.7c0.4,1,0.8,1.8,1.3,2.4s1.1,0.9,1.6,1     c0.6,0.1,1.2,0.1,1.8-0.1c0.7-0.2,1.1-0.5,1.5-0.9c0.3-0.3,0.6-0.7,0.9-1.2l1.6,1c-0.2,0.5-0.7,1.1-1.2,1.6     c-0.6,0.5-1.2,1-2.2,1.3c-1,0.4-2.1,0.4-3.1,0.3s-1.9-0.7-2.8-1.5c-0.8-0.8-1.4-1.8-1.9-3.2c-0.5-1.3-0.6-2.5-0.5-3.7     c0.1-1.1,0.6-2,1.2-2.8C1115.2,1978,1116,1977.7,1117,1977.3z" />
		</g>
	</g>
</g>
<g
   id="516">
	
		<rect
   x="1073.7"
   y="2007.4"
   transform="matrix(0.9506 -0.3104 0.3104 0.9506 -574.9579 445.6151)"
   class="st9"
   width="77.9"
   height="44"
   id="rect20372" />
	<g
   id="g20382">
		<g
   id="g20380">
			<path
   d="M1080.4,2023.4l0.2,1.2l-3,1.1l0.7,2c0.2-0.2,0.4-0.3,0.6-0.4c0.2-0.1,0.4-0.2,0.6-0.3c0.4-0.2,0.8-0.2,1.2-0.1     c0.4,0.1,0.8,0.3,1.1,0.6c0.3,0.3,0.6,0.7,0.8,1.3s0.2,1.1,0.1,1.6c-0.1,0.5-0.3,1-0.7,1.4c-0.4,0.4-0.8,0.7-1.4,0.9     c-0.5,0.2-1.1,0.3-1.6,0.2c-0.5,0-1-0.2-1.4-0.4l0.6-1.1c0.3,0.2,0.6,0.3,0.9,0.3c0.3,0,0.6,0,0.9-0.1c0.5-0.2,0.8-0.4,0.9-0.8     c0.2-0.4,0.2-0.8,0-1.3c-0.1-0.4-0.3-0.6-0.5-0.8c-0.2-0.2-0.4-0.3-0.6-0.3c-0.2,0-0.4,0-0.7,0.1c-0.2,0.1-0.3,0.1-0.5,0.2     c-0.2,0.1-0.3,0.2-0.5,0.4l-1.1,0.4l-1.5-4.2L1080.4,2023.4z"
   id="path20374" />
			<path
   d="M1086.2,2021.3l2.8,7.8l-1.5,0.5l-2.2-6.2l-1.3,1.7l-1-0.8l2-2.4L1086.2,2021.3z M1090.2,2027.6l0.4,1.2l-5,1.8l-0.4-1.2     L1090.2,2027.6z"
   id="path20376" />
			<path
   d="M1092.4,2018.9c0.3-0.1,0.7-0.2,1-0.2c0.3,0,0.6,0,0.9,0.1l-0.2,1.2c-0.2-0.1-0.4-0.1-0.6-0.1c-0.2,0-0.4,0.1-0.6,0.1     c-0.3,0.1-0.6,0.3-0.8,0.7c-0.2,0.3-0.3,0.7-0.3,1.2c0,0.5,0.1,1,0.3,1.6l0.2,0.5c0.3,0.9,0.7,1.6,1,2c0.4,0.4,0.8,0.5,1.3,0.3     c0.4-0.1,0.6-0.4,0.7-0.8c0.1-0.4,0-0.8-0.1-1.3c-0.1-0.4-0.3-0.7-0.5-0.9c-0.2-0.2-0.4-0.3-0.5-0.4c-0.2,0-0.4,0-0.6,0.1     c-0.3,0.1-0.6,0.3-0.8,0.6s-0.3,0.6-0.4,0.9l-0.4-1.1c0.1-0.4,0.3-0.8,0.6-1.1c0.3-0.3,0.6-0.5,0.9-0.6c0.4-0.1,0.8-0.2,1.2-0.1     c0.4,0.1,0.8,0.3,1.1,0.6c0.3,0.3,0.6,0.8,0.8,1.3c0.2,0.6,0.3,1.1,0.2,1.6c-0.1,0.5-0.3,1-0.6,1.4c-0.3,0.4-0.8,0.7-1.3,0.9     c-0.5,0.2-1,0.2-1.4,0.2s-0.8-0.2-1.2-0.5c-0.4-0.3-0.7-0.6-0.9-1c-0.3-0.4-0.5-0.9-0.7-1.5c-0.3-0.9-0.5-1.7-0.5-2.5     c0-0.8,0.2-1.4,0.6-2C1091.2,2019.5,1091.7,2019.1,1092.4,2018.9z"
   id="path20378" />
		</g>
	</g>
	<g
   id="g1852_2_">
		<g
   id="g1850_2_">
			<path
   id="path1846_2_"
   d="M1125.8,2017l2.7,12.6l-2.6,0.9l-4.2-8.4l2,9.2l-2.6,0.9l-5.7-11.5l2.3-0.8l4.3,9.6l-1.9-8.9l2.3-0.8     l4.2,8.1l-2.7-10.2L1125.8,2017z" />
			<path
   id="path1848_2_"
   d="M1132,2014.6c0.8-0.3,1.5-0.4,2.3-0.5c0.6,0,1.3,0.2,1.9,0.4l-0.7,1.9c-0.5-0.1-0.9-0.2-1.4-0.3     s-0.9,0.1-1.4,0.3c-0.6,0.2-1,0.6-1.3,1s-0.6,1.1-0.6,1.8c0,0.8,0.2,1.6,0.5,2.7s0.8,1.8,1.3,2.4c0.5,0.6,1.1,0.9,1.6,1     s1.2,0.1,1.8-0.1c0.7-0.2,1.1-0.5,1.5-0.9c0.3-0.3,0.6-0.7,0.9-1.2l1.6,1c-0.2,0.5-0.7,1.1-1.2,1.6c-0.6,0.5-1.2,1-2.2,1.3     c-1,0.4-2.1,0.4-3.1,0.3c-1-0.2-1.9-0.7-2.8-1.5c-0.8-0.8-1.4-1.8-1.9-3.2c-0.5-1.3-0.6-2.5-0.5-3.7s0.6-2,1.2-2.8     C1130.2,2015.4,1131,2015,1132,2014.6z" />
		</g>
	</g>
</g>
<g
   id="g20396">
	
		<rect
   x="1150.4"
   y="2006.2"
   transform="matrix(0.9506 -0.3104 0.3104 0.9506 -569.3586 462.1957)"
   class="st9"
   width="34.3"
   height="27.8"
   id="rect20390" />
	<g
   id="g1852_3_">
		<g
   id="g1850_3_">
			<path
   id="path1846_3_"
   d="M1163.9,2013.9l2.7,12.6l-2.6,0.9l-4.2-8.4l2,9.2l-2.6,0.9l-5.7-11.5l2.3-0.8l4.3,9.6l-1.9-8.9l2.3-0.8     l4.2,8.1l-2.7-10.2L1163.9,2013.9z" />
			<path
   id="path1848_3_"
   d="M1170.1,2011.5c0.8-0.3,1.5-0.4,2.3-0.5c0.6,0,1.3,0.2,1.9,0.4l-0.7,1.9c-0.5-0.1-0.9-0.2-1.4-0.3     c-0.4-0.1-0.9,0.1-1.4,0.3c-0.6,0.2-1,0.6-1.3,1c-0.4,0.5-0.6,1.1-0.6,1.8c0,0.8,0.2,1.6,0.5,2.7c0.4,1,0.8,1.8,1.3,2.4     c0.5,0.6,1.1,0.9,1.6,1c0.6,0.1,1.2,0.1,1.8-0.1c0.7-0.2,1.1-0.5,1.5-0.9c0.3-0.3,0.6-0.7,0.9-1.2l1.6,1     c-0.2,0.5-0.7,1.1-1.2,1.6c-0.6,0.5-1.2,1-2.2,1.3c-1,0.4-2.1,0.4-3.1,0.3c-1-0.2-1.9-0.7-2.8-1.5c-0.8-0.8-1.4-1.8-1.9-3.2     c-0.5-1.3-0.6-2.5-0.5-3.7c0.1-1.1,0.6-2,1.2-2.8C1168.3,2012.2,1169,2011.8,1170.1,2011.5z" />
		</g>
	</g>
</g>
<text
   xml:space="preserve"
   style="font-style:normal;font-weight:normal;font-size:10px;line-height:1.25;font-family:sans-serif;fill:#000000;fill-opacity:1;stroke:none"
   x="992.77789"
   y="1583.5656"
   id="text22127"><tspan
     sodipodi:role="line"
     id="tspan22125"
     x="992.77789"
     y="1583.5656" /></text><g
   id="506"><rect
     x="434.57388"
     y="1801.7059"
     transform="rotate(-18.179481)"
     class="st9"
     width="58.800999"
     height="53.300907"
     id="rect20113" /><path
     style="fill:#000000;fill-opacity:1;fill-rule:nonzero;stroke:none"
     d="m 987.09103,1577.5301 c 0.33334,1 0.33334,1 0.33334,1 -3,1 -3,1 -3,1 0.66666,1.6666 0.66666,1.6666 0.66666,1.6666 0.33334,0 0.33334,-0.3333 0.66667,-0.3333 0,0 0.33333,0 0.33333,-0.3333 0.33334,0 0.66667,0 1.33334,0 0.33333,0.3333 0.66666,0.3333 0.66666,0.6666 0.33334,0.3334 0.66667,0.6667 0.66667,1.3334 0.33333,0.3333 0.33333,1 0,1.3333 0,0.3333 -0.33333,0.6667 -0.66667,1 -0.33333,0.3333 -0.66666,0.6667 -1.33333,1 -0.33333,0 -1,0 -1.33333,0 -0.33334,0 -1,-0.3333 -1.33334,-0.6667 0.66667,-0.6666 0.66667,-0.6666 0.66667,-0.6666 0.33333,0 0.66667,0 1,0 0,0.3333 0.33333,0.3333 0.66667,0 0.33333,0 0.66666,-0.3334 1,-0.6667 0,-0.3333 0,-0.6667 0,-1 0,-0.3333 -0.33334,-0.6667 -0.33334,-0.6667 -0.33333,-0.3333 -0.33333,-0.3333 -0.66666,-0.3333 0,0 -0.33334,0 -0.66667,0 0,0 0,0 -0.33333,0 0,0.3333 -0.33334,0.3333 -0.33334,0.3333 -1,0.3334 -1,0.3334 -1,0.3334 -1,-3.6667 -1,-3.6667 -1,-3.6667 z"
     id="path34590" /><path
     style="fill:#000000;fill-opacity:1;fill-rule:nonzero;stroke:none"
     d="m 991.42437,1576.1967 c 0.66666,-0.3333 1.33333,0 2,0.6667 0.66666,0.3333 1,1.3333 1.33333,2.3333 0.33335,1.3334 0.66665,2.3334 0.33335,3 -0.33335,1 -0.66668,1.3334 -1.66668,1.6667 -0.66667,0.3333 -1.66667,0 -2.33334,-0.3333 -0.33333,-0.6667 -1,-1.6667 -1.33333,-2.6667 -0.33333,-1.3333 -0.33333,-2.3333 0,-3 0.33333,-1 0.66667,-1.3333 1.66667,-1.6667 z m 0.33333,1 c -0.66667,0.3334 -0.66667,0.6667 -1,1 0,0.3334 0,1.3334 0.33333,2.3334 0.33334,0.3333 0.33334,1 0.66667,1.3333 0,0.3333 0,0.3333 0.33333,0.6667 0,0.3333 0.33334,0.3333 0.33334,0.3333 0.33333,0 0.66666,0 0.66666,0 0.33334,0 0.66667,-0.3333 0.66667,-0.3333 0,-0.3334 0,-0.6667 0,-1 0,-0.6667 0,-1 -0.33333,-1.6667 0,-1 -0.33334,-1.3333 -0.33334,-1.6667 -0.33333,-0.6666 -0.33333,-0.6666 -0.66666,-1 -0.33334,0 -0.66667,0 -0.66667,0 z m 0.66667,0 c 0.66666,1 0.66666,1 0.66666,1 -0.66666,4.6667 -0.66666,4.6667 -0.66666,4.6667 -0.66667,-0.6667 -0.66667,-0.6667 -0.66667,-0.6667 z"
     id="path34592" /><path
     style="fill:#000000;fill-opacity:1;fill-rule:nonzero;stroke:none"
     d="m 998.09105,1574.5301 c 0.3333,-0.3334 0.6666,-0.3334 1,-0.3334 0.3333,0 0.3333,0 0.6666,0.3334 -0.3333,1 -0.3333,1 -0.3333,1 0,-0.3334 -0.3333,-0.3334 -0.3333,-0.3334 -0.3334,0 -0.6667,0 -0.6667,0.3334 -0.3333,0 -0.6667,0 -0.6667,0.3333 -0.3333,0.3333 -0.3333,0.6667 -0.3333,1 0,0.6667 0,1 0,1.6667 0.3333,0.3333 0.3333,0.3333 0.3333,0.3333 0.3334,1 0.3334,1.3333 0.6667,1.6667 0.3333,0.6666 0.6667,0.6666 1,0.6666 0.66675,-0.3333 0.66675,-0.3333 1.00005,-0.6666 0,-0.3334 0,-1 -0.3333,-1.3334 0,-0.3333 0,-0.6666 -0.33345,-0.6666 0,-0.3334 -0.3333,-0.3334 -0.3333,-0.3334 -0.3333,-0.3333 -0.3333,-0.3333 -0.6667,0 -0.3333,0 -0.3333,0 -0.6666,0.3334 0,0.3333 -0.3334,0.3333 -0.3334,0.6666 -0.3333,-1 -0.3333,-1 -0.3333,-1 0,-0.3333 0.3333,-0.6666 0.6667,-0.6666 0.3333,-0.3334 0.3333,-0.3334 0.6666,-0.6667 0.6667,0 1,0 1.33345,0 0.3333,0.3333 0.6666,0.3333 1,0.6667 0,0.3333 0.3333,0.6666 0.6666,1.3333 0,0.3333 0,1 0,1.3333 -0.3333,0.3334 -0.3333,1 -0.6666,1.3334 -0.3334,0.3333 -0.6667,0.3333 -1.33345,0.6666 -0.3333,0 -0.6666,0 -1.3333,0 -0.3333,0 -0.6667,-0.3333 -1,-0.6666 0,0 -0.3333,-0.3334 -0.6667,-1 -0.3333,-0.3334 -0.3333,-0.6667 -0.3333,-1.3334 -0.3333,-0.6666 -0.3333,-1.3333 -0.3333,-2 0,-0.6666 0.3333,-1.3333 0.6666,-2 0.3334,-0.3333 0.6667,-0.6666 1.3334,-0.6666 z"
     id="path34594" /></g></svg>
