<?xml version="1.0" encoding="utf-8"?>
<!-- Generator: Adobe Illustrator 25.2.1, SVG Export Plug-In . SVG Version: 6.00 Build 0)  -->
<svg version="1.1"
	 id="Layer_1" inkscape:version="1.1.2 (b8e25be833, 2022-02-05)" sodipodi:docname="first_floor.svg" xmlns:inkscape="http://www.inkscape.org/namespaces/inkscape" xmlns:sodipodi="http://sodipodi.sourceforge.net/DTD/sodipodi-0.dtd" xmlns:svg="http://www.w3.org/2000/svg"
	 xmlns="http://www.w3.org/2000/svg" xmlns:xlink="http://www.w3.org/1999/xlink" x="0px" y="0px" viewBox="0 0 1400 2200"
	 style="enable-background:new 0 0 1400 2200;" xml:space="preserve">
<style type="text/css">
	.st0{fill:#999999;stroke:#000000;stroke-miterlimit:10;}
	.st1{fill:#999999;stroke:#000000;stroke-width:1;stroke-miterlimit:10.0004;}
	.st2{fill:none;stroke:#000000;stroke-width:0.5;stroke-miterlimit:9.9996;}
	.st3{fill:#999999;stroke:#000000;stroke-width:0.5;stroke-miterlimit:9.9996;}
	.st4{fill:#999999;stroke:#000000;stroke-width:0.5;stroke-miterlimit:10;}
	.st5{fill:none;stroke:#000000;stroke-miterlimit:10;}
	.st6{fill:#74BEFF;stroke:#000000;stroke-miterlimit:10;}
	.st7{fill:#FFC62A;stroke:#000000;stroke-miterlimit:10;}
	.st8{fill:#74BEFF;}
	.st9{fill:#FFC62A;}
	.st10{fill:#FFF6AA;}
	.st11{fill:#FFF6AA;stroke:#231F20;stroke-miterlimit:10;}
	.st12{fill:#FFFFFF;}
	.st13{fill:#74BEFF;stroke:#231F20;stroke-miterlimit:10;}
</style>
<sodipodi:namedview  bordercolor="#666666" borderopacity="1.0" id="namedview2041" inkscape:current-layer="Layer_1" inkscape:cx="525.5" inkscape:cy="343" inkscape:pagecheckerboard="0" inkscape:pageopacity="0.0" inkscape:pageshadow="2" inkscape:window-height="1017" inkscape:window-maximized="1" inkscape:window-width="1920" inkscape:window-x="-8" inkscape:window-y="-8" inkscape:zoom="1" pagecolor="#ffffff" showgrid="false">
	</sodipodi:namedview>
<g id="Layer_2_1_">
	<g id="Layer_1-2">
		<rect id="rect1608" x="791.5" y="31.5" class="st0" width="373" height="1226"/>
		<rect id="rect1610" x="791.5" y="1257.5" class="st0" width="373" height="286"/>
		
			<rect id="rect1612" x="1002.6" y="1446.7" transform="matrix(0.9505 -0.3108 0.3108 0.9505 -501.3632 443.5772)" class="st1" width="277.2" height="696.6"/>
		
			<rect id="rect1614" x="814.5" y="1521.1" transform="matrix(0.9505 -0.3108 0.3108 0.9505 -455.4764 350.5564)" class="st1" width="115.5" height="166.8"/>
		<rect id="rect1616" x="18.5" y="1099.5" class="st0" width="773" height="263"/>
		<rect id="rect1618" x="18.5" y="247.5" class="st0" width="426" height="1887"/>
	</g>
</g>
<rect id="rect1676" x="791.1" y="1525.3" transform="matrix(0.9495 -0.3137 0.3137 0.9495 -437.6919 343.5408)" class="st2" width="115.1" height="13"/>
<rect id="rect1678" x="795" y="1537.9" transform="matrix(0.9495 -0.3137 0.3137 0.9495 -441.4463 345.3982)" class="st2" width="115.1" height="13"/>
<rect id="rect1680" x="799" y="1550.1" transform="matrix(0.9495 -0.3137 0.3137 0.9495 -445.0735 347.2699)" class="st2" width="115.1" height="13"/>
<rect id="rect1682" x="803" y="1562.4" transform="matrix(0.9495 -0.3137 0.3137 0.9495 -448.73 349.1456)" class="st2" width="115.1" height="13"/>
<rect id="rect1684" x="807" y="1574.3" transform="matrix(0.9495 -0.3137 0.3137 0.9495 -452.2608 351.0009)" class="st2" width="115.1" height="13"/>
<rect id="rect1686" x="811.4" y="1586.4" transform="matrix(0.9495 -0.3137 0.3137 0.9495 -455.8338 352.9904)" class="st2" width="115.1" height="13"/>
<rect id="rect1688" x="815.4" y="1598.4" transform="matrix(0.9495 -0.3137 0.3137 0.9495 -459.3963 354.851)" class="st2" width="115.1" height="13"/>
<rect id="rect1690" x="819.4" y="1611.2" transform="matrix(0.9495 -0.3137 0.3137 0.9495 -463.2103 356.7522)" class="st2" width="115.1" height="13"/>
<rect id="rect1692" x="845.9" y="1523.7" transform="matrix(0.9495 -0.3137 0.3137 0.9495 -450.7896 349.558)" class="st3" width="29.8" height="103.6"/>
<rect id="rect1694" x="908.5" y="31.5" class="st0" width="16" height="124"/>
<rect id="rect1696" x="892.5" y="31.5" class="st0" width="16" height="124"/>
<rect id="rect1698" x="876.5" y="31.5" class="st4" width="16" height="124"/>
<rect id="rect1700" x="860.5" y="31.5" class="st0" width="16" height="124"/>
<rect id="rect1702" x="844.5" y="31.5" class="st0" width="16" height="124"/>
<rect id="rect1704" x="844.5" y="72.5" class="st0" width="80" height="36"/>
<rect id="rect1730" x="193.6" y="1566.7" class="st0" width="107.9" height="14.1"/>
<rect id="rect1732" x="193.6" y="1552.6" class="st0" width="107.9" height="14.1"/>
<rect id="rect1734" x="193.7" y="1538.5" class="st4" width="107.9" height="14.1"/>
<rect id="rect1736" x="193.6" y="1524.5" class="st0" width="107.9" height="14.1"/>
<rect id="rect1738" x="193.6" y="1510.4" class="st0" width="107.9" height="14.1"/>
<rect id="rect1740" x="234.6" y="1510.4" class="st0" width="31.3" height="70.3"/>
<line id="line1742" class="st5" x1="193.5" y1="1490.5" x2="301.5" y2="1490.5"/>
<g id="_x32_23">
	<rect id="rect1674" x="1031.5" y="31.5" class="st6" width="133" height="67"/>
	<g id="g1844">
		<g id="g1842">
			<path id="path1838" d="M1117.3,59.6l-1.7,12.8h-2.8l-1.1-9.3l-1.2,9.3h-2.8l-1.5-12.8h2.4l0.8,10.5l1.2-9h2.4l1.2,9l0.9-10.5
				C1115.1,59.6,1117.3,59.6,1117.3,59.6z"/>
			<path id="path1840" d="M1123.9,59.3c0.9,0,1.6,0.1,2.3,0.3c0.6,0.2,1.2,0.6,1.7,1l-1.3,1.5c-0.4-0.3-0.8-0.5-1.2-0.7
				c-0.4-0.2-0.9-0.2-1.4-0.2c-0.6,0-1.1,0.2-1.6,0.5s-0.9,0.8-1.2,1.5c-0.3,0.7-0.4,1.6-0.4,2.7s0.1,2,0.4,2.7s0.7,1.2,1.2,1.5
				s1.1,0.5,1.7,0.5c0.7,0,1.2-0.1,1.7-0.4c0.4-0.2,0.8-0.5,1.2-0.8l1.2,1.5c-0.4,0.4-1,0.8-1.7,1.1s-1.5,0.5-2.5,0.5
				c-1.1,0-2.1-0.3-3-0.8s-1.6-1.3-2.1-2.3s-0.7-2.2-0.7-3.7c0-1.4,0.3-2.6,0.8-3.6s1.2-1.7,2.1-2.2S1122.9,59.3,1123.9,59.3z"/>
		</g>
	</g>
	<g id="g1862">
		<g id="g1860">
			<path id="path1854" d="M1045.2,41.2c0.5,0,1,0.1,1.4,0.3s0.7,0.5,0.9,0.8c0.2,0.4,0.3,0.8,0.3,1.2s-0.1,0.8-0.2,1.1
				c-0.1,0.4-0.4,0.8-0.6,1.2c-0.3,0.4-0.7,0.9-1.2,1.4s-1.1,1.1-1.8,1.7h4l-0.1,0.9h-5V49c0.6-0.6,1.2-1.1,1.6-1.6s0.8-0.9,1.1-1.2
				c0.3-0.3,0.5-0.7,0.7-0.9c0.2-0.3,0.3-0.6,0.3-0.8c0.1-0.3,0.1-0.5,0.1-0.8c0-0.5-0.1-0.9-0.4-1.1c-0.3-0.3-0.6-0.4-1.1-0.4
				c-0.4,0-0.8,0.1-1,0.2s-0.5,0.4-0.8,0.7l-0.7-0.6c0.3-0.4,0.7-0.7,1.1-0.9C1044.1,41.3,1044.6,41.2,1045.2,41.2z"/>
			<path id="path1856" d="M1052.5,41.2c0.5,0,1,0.1,1.4,0.3s0.7,0.5,0.9,0.8c0.2,0.4,0.3,0.8,0.3,1.2s-0.1,0.8-0.2,1.1
				c-0.1,0.4-0.4,0.8-0.6,1.2c-0.3,0.4-0.7,0.9-1.2,1.4s-1.1,1.1-1.8,1.7h4l-0.1,0.9h-5V49c0.6-0.6,1.2-1.1,1.6-1.6s0.8-0.9,1.1-1.2
				c0.3-0.3,0.5-0.7,0.7-0.9c0.2-0.3,0.3-0.6,0.3-0.8c0.1-0.3,0.1-0.5,0.1-0.8c0-0.5-0.1-0.9-0.4-1.1c-0.3-0.3-0.6-0.4-1.1-0.4
				c-0.4,0-0.8,0.1-1,0.2s-0.5,0.4-0.8,0.7l-0.7-0.6c0.3-0.4,0.7-0.7,1.1-0.9C1051.5,41.3,1052,41.2,1052.5,41.2z"/>
			<path id="path1858" d="M1059.9,41.2c0.5,0,1,0.1,1.4,0.3s0.7,0.4,0.9,0.8c0.2,0.3,0.3,0.7,0.3,1.1c0,0.3-0.1,0.7-0.2,0.9
				c-0.2,0.3-0.4,0.5-0.6,0.7c-0.3,0.2-0.5,0.3-0.8,0.4c0.3,0,0.6,0.1,0.9,0.3s0.5,0.4,0.7,0.7s0.3,0.7,0.3,1.1
				c0,0.5-0.1,0.9-0.4,1.3s-0.6,0.7-1,0.9s-1,0.3-1.5,0.3s-0.9-0.1-1.4-0.3s-0.9-0.5-1.2-0.9l0.7-0.6c0.2,0.3,0.5,0.5,0.9,0.6
				c0.3,0.1,0.7,0.2,1,0.2c0.6,0,1.1-0.2,1.4-0.5s0.5-0.7,0.5-1.3c0-0.4-0.1-0.7-0.2-1c-0.2-0.2-0.4-0.4-0.6-0.5s-0.6-0.2-0.9-0.2
				h-0.7l0.1-0.8h0.5c0.3,0,0.5-0.1,0.8-0.2c0.2-0.1,0.4-0.3,0.6-0.5s0.2-0.5,0.2-0.8c0-0.5-0.2-0.8-0.5-1.1
				c-0.3-0.2-0.7-0.4-1.1-0.4s-0.7,0.1-1,0.2c-0.3,0.1-0.6,0.3-0.8,0.6l-0.6-0.6c0.4-0.3,0.7-0.6,1.2-0.7
				C1059.1,41.2,1059.5,41.2,1059.9,41.2z"/>
		</g>
	</g>
</g>
<g id="_x32_24">
	<rect id="rect1672" x="1031.5" y="98.5" class="st6" width="133" height="91"/>
	<g id="g1852">
		<g id="g1850">
			<path id="path1846" d="M1116.3,137.6l-1.7,12.8h-2.8l-1.1-9.3l-1.2,9.3h-2.8l-1.5-12.8h2.4l0.8,10.5l1.2-9h2.4l1.2,9l0.9-10.5
				H1116.3z"/>
			<path id="path1848" d="M1122.9,137.4c0.9,0,1.6,0.1,2.3,0.3c0.6,0.2,1.2,0.6,1.7,1l-1.3,1.5c-0.4-0.3-0.8-0.5-1.2-0.7
				c-0.4-0.2-0.9-0.2-1.4-0.2c-0.6,0-1.1,0.2-1.6,0.5s-0.9,0.8-1.2,1.5c-0.3,0.7-0.4,1.6-0.4,2.7c0,1.1,0.1,2,0.4,2.7
				s0.7,1.2,1.2,1.5s1.1,0.5,1.7,0.5c0.7,0,1.2-0.1,1.7-0.4c0.4-0.2,0.8-0.5,1.2-0.8l1.2,1.5c-0.4,0.4-1,0.8-1.7,1.1
				s-1.5,0.5-2.5,0.5c-1.1,0-2.1-0.3-3-0.8s-1.6-1.3-2.1-2.3s-0.7-2.2-0.7-3.7c0-1.4,0.3-2.6,0.8-3.6s1.2-1.7,2.1-2.2
				S1121.8,137.4,1122.9,137.4z"/>
		</g>
	</g>
	<g id="g1872">
		<g id="g1870">
			<path id="path1864" d="M1046.2,112.2c0.5,0,1,0.1,1.4,0.3c0.4,0.2,0.7,0.5,0.9,0.8c0.2,0.4,0.3,0.8,0.3,1.2
				c0,0.4-0.1,0.8-0.2,1.1c-0.1,0.4-0.4,0.8-0.6,1.2c-0.3,0.4-0.7,0.9-1.2,1.4s-1.1,1.1-1.8,1.7h4l-0.1,0.9h-5V120
				c0.6-0.6,1.2-1.1,1.6-1.6s0.8-0.9,1.1-1.2c0.3-0.3,0.5-0.7,0.7-0.9c0.2-0.3,0.3-0.6,0.3-0.8c0.1-0.3,0.1-0.5,0.1-0.8
				c0-0.5-0.1-0.9-0.4-1.1c-0.3-0.3-0.6-0.4-1.1-0.4c-0.4,0-0.8,0.1-1,0.2s-0.5,0.4-0.8,0.7l-0.7-0.6c0.3-0.4,0.7-0.7,1.1-0.9
				C1045.1,112.3,1045.6,112.2,1046.2,112.2z"/>
			<path id="path1866" d="M1053.5,112.2c0.5,0,1,0.1,1.4,0.3c0.4,0.2,0.7,0.5,0.9,0.8c0.2,0.4,0.3,0.8,0.3,1.2
				c0,0.4-0.1,0.8-0.2,1.1c-0.1,0.4-0.4,0.8-0.6,1.2c-0.3,0.4-0.7,0.9-1.2,1.4s-1.1,1.1-1.8,1.7h4l-0.1,0.9h-5V120
				c0.6-0.6,1.2-1.1,1.6-1.6s0.8-0.9,1.1-1.2c0.3-0.3,0.5-0.7,0.7-0.9c0.2-0.3,0.3-0.6,0.3-0.8c0.1-0.3,0.1-0.5,0.1-0.8
				c0-0.5-0.1-0.9-0.4-1.1c-0.3-0.3-0.6-0.4-1.1-0.4c-0.4,0-0.8,0.1-1,0.2s-0.5,0.4-0.8,0.7l-0.7-0.6c0.3-0.4,0.7-0.7,1.1-0.9
				C1052.5,112.3,1053,112.2,1053.5,112.2z"/>
			<path id="path1868" d="M1061,112.2l0.9,0.4l-2.3,5.4h4.5v0.8h-5.6V118L1061,112.2z M1063,115.5v5.3h-1v-2.7l0.1-2.6
				C1062.1,115.5,1063,115.5,1063,115.5z"/>
		</g>
	</g>
</g>
<g id="_x32_25">
	<rect id="rect1632" x="1031.5" y="189.5" class="st7" width="133" height="165"/>
	<g id="g1882">
		<g id="g1880">
			<path id="path1874" d="M1046.2,202.4c0.5,0,1,0.1,1.4,0.3s0.7,0.5,0.9,0.8c0.2,0.4,0.3,0.8,0.3,1.2s-0.1,0.8-0.2,1.1
				c-0.1,0.4-0.4,0.8-0.6,1.2c-0.3,0.4-0.7,0.9-1.2,1.4s-1.1,1.1-1.8,1.7h4l-0.1,0.9h-5v-0.8c0.6-0.6,1.2-1.1,1.6-1.6
				s0.8-0.9,1.1-1.2c0.3-0.3,0.5-0.7,0.7-0.9c0.2-0.3,0.3-0.6,0.3-0.8c0.1-0.3,0.1-0.5,0.1-0.8c0-0.5-0.1-0.9-0.4-1.1
				c-0.3-0.3-0.6-0.4-1.1-0.4c-0.4,0-0.8,0.1-1,0.2s-0.5,0.4-0.8,0.7l-0.7-0.6c0.3-0.4,0.7-0.7,1.1-0.9
				C1045.1,202.5,1045.6,202.4,1046.2,202.4z"/>
			<path id="path1876" d="M1053.5,202.4c0.5,0,1,0.1,1.4,0.3s0.7,0.5,0.9,0.8c0.2,0.4,0.3,0.8,0.3,1.2s-0.1,0.8-0.2,1.1
				c-0.1,0.4-0.4,0.8-0.6,1.2c-0.3,0.4-0.7,0.9-1.2,1.4s-1.1,1.1-1.8,1.7h4l-0.1,0.9h-5v-0.8c0.6-0.6,1.2-1.1,1.6-1.6
				s0.8-0.9,1.1-1.2c0.3-0.3,0.5-0.7,0.7-0.9c0.2-0.3,0.3-0.6,0.3-0.8c0.1-0.3,0.1-0.5,0.1-0.8c0-0.5-0.1-0.9-0.4-1.1
				c-0.3-0.3-0.6-0.4-1.1-0.4c-0.4,0-0.8,0.1-1,0.2s-0.5,0.4-0.8,0.7l-0.7-0.6c0.3-0.4,0.7-0.7,1.1-0.9
				C1052.5,202.5,1053,202.4,1053.5,202.4z"/>
			<path id="path1878" d="M1063.6,202.5l-0.2,0.8h-3.3v2.7c0.3-0.1,0.5-0.2,0.7-0.3s0.5-0.1,0.7-0.1c0.5,0,0.9,0.1,1.2,0.3
				s0.6,0.5,0.8,0.9c0.2,0.4,0.3,0.9,0.3,1.4s-0.1,1.1-0.4,1.5c-0.2,0.4-0.6,0.8-1,1s-0.9,0.4-1.5,0.4c-0.5,0-1-0.1-1.4-0.3
				s-0.8-0.4-1.1-0.8l0.6-0.6c0.3,0.3,0.5,0.5,0.8,0.6s0.6,0.2,1,0.2c0.6,0,1-0.2,1.3-0.5s0.5-0.8,0.5-1.5c0-0.5-0.1-0.8-0.2-1.1
				s-0.3-0.5-0.6-0.6c-0.2-0.1-0.5-0.2-0.8-0.2c-0.2,0-0.5,0-0.7,0.1c-0.2,0-0.4,0.1-0.7,0.2h-0.8v-4.2h4.8L1063.6,202.5
				L1063.6,202.5z"/>
		</g>
	</g>
</g>
<g id="_x34_2">
	<g id="g1722">
		<rect id="rect1718" x="301.5" y="1490.5" class="st8" width="143" height="90"/>
		<path id="path1720" d="M444,1491v89H302v-89H444 M445,1490H301v91h144V1490L445,1490z"/>
	</g>
	<g id="g722">
		<g id="g720">
			<path id="path716" d="M312.7,1497.3l1.2,0.5l-2.2,5.2h4.4v1.1h-5.9v-1L312.7,1497.3z M315.1,1500.6v5.3h-1.3v-2.8l0.2-2.5H315.1z
				"/>
			<path id="path718" d="M320.2,1497.3c0.6,0,1.1,0.1,1.5,0.3s0.7,0.5,0.9,0.9c0.2,0.4,0.3,0.8,0.3,1.2c0,0.4-0.1,0.7-0.2,1.1
				s-0.3,0.7-0.6,1.1s-0.7,0.8-1.1,1.3c-0.5,0.5-1,1-1.7,1.6h3.9l-0.2,1.1h-5.3v-1c0.6-0.6,1.1-1.1,1.6-1.5c0.4-0.4,0.8-0.8,1.1-1.2
				c0.3-0.3,0.5-0.6,0.7-0.9s0.3-0.5,0.4-0.8c0.1-0.2,0.1-0.5,0.1-0.7c0-0.4-0.1-0.8-0.4-1c-0.2-0.2-0.6-0.4-1-0.4s-0.7,0.1-1,0.2
				s-0.5,0.4-0.8,0.7l-0.9-0.7c0.3-0.4,0.7-0.7,1.1-1S319.6,1497.3,320.2,1497.3z"/>
		</g>
	</g>
</g>
<g id="g2007" transform="translate(-201.11122,-1.8284271)">
	<g id="g1728" transform="translate(200.11122,2.8284271)">
		<rect id="rect1724" x="363.5" y="1618.5" class="st9" width="81" height="188"/>
		<path id="path1726" d="M444,1619v187h-80v-187H444 M445,1618h-82v189h82V1618z"/>
	</g>
	<g id="g732" transform="translate(198.697,32.526912)">
		<g id="g730">
			<path id="path724" d="M376.2,1626.5l1.2,0.5l-2.2,5.2h4.4v1.1h-5.9v-1L376.2,1626.5z M378.6,1629.9v5.3h-1.3v-2.8l0.2-2.5H378.6z
				"/>
			<path id="path726" d="M385.2,1626.7v8.2h-1.4v-6.8l-1.9,1.2l-0.6-1l2.6-1.6L385.2,1626.7z M386.9,1634.1v1.1h-5.1v-1.1H386.9z"/>
			<path id="path728" d="M393,1633.1h-3l-0.6,2h-1.5l2.7-8.5h1.8l2.7,8.5h-1.5L393,1633.1z M390.2,1632h2.4l-1.2-4.2L390.2,1632z"/>
		</g>
	</g>
</g>
<g id="_x34_1">
	<g id="g1716">
		<rect id="rect1712" x="318.5" y="1618.5" class="st10" width="126" height="516"/>
		<path id="path1714" d="M444,1619v515H319v-515H444 M445,1618H318v517h127V1618L445,1618z"/>
	</g>
	<g id="g689">
		<g id="g687">
			<path id="path683" d="M424.1,2112v8.3h-1.6v-6.6l-1.8,1.1l-0.7-1.1l2.7-1.6L424.1,2112L424.1,2112z M425.7,2119.3v1.2h-5.3v-1.2
				H425.7z"/>
			<path id="path685" d="M429.5,2111.9l1.4,0.5l-2.1,5.1h4.4v1.2h-6v-1.1L429.5,2111.9z M432.2,2115.3v5.3h-1.6v-2.9l0.2-2.4
				L432.2,2115.3L432.2,2115.3z"/>
		</g>
	</g>
	<g id="g740">
		<g id="g738">
			<path id="path734" d="M330.8,1626.5l1.2,0.5l-2.2,5.2h4.4v1.1h-5.9v-1L330.8,1626.5z M333.2,1629.9v5.3h-1.3v-2.8l0.2-2.5H333.2z
				"/>
			<path id="path736" d="M339.8,1626.7v8.2h-1.4v-6.8l-1.9,1.2l-0.6-1l2.6-1.6L339.8,1626.7L339.8,1626.7z M341.5,1634.1v1.1h-5.1
				v-1.1H341.5z"/>
		</g>
	</g>
</g>
<g id="_x34_3">
	<g id="g1710">
		<rect id="rect1706" x="19.5" y="1490.5" class="st10" width="174" height="127"/>
		<path id="path1708" d="M193,1491v126H20v-126H193 M194,1490H19v128h175V1490L194,1490z"/>
	</g>
	<g id="g748">
		<g id="g746">
			<path id="path742" d="M32.7,1499l1.2,0.5l-2.2,5.2h4.4v1.1h-5.9v-1L32.7,1499z M35.1,1502.4v5.3h-1.3v-2.8l0.2-2.5H35.1z"/>
			<path id="path744" d="M40.2,1499c0.6,0,1,0.1,1.5,0.3c0.4,0.2,0.7,0.5,0.9,0.8s0.3,0.7,0.3,1.1c0,0.3-0.1,0.7-0.2,0.9
				c-0.1,0.3-0.3,0.5-0.6,0.7s-0.5,0.3-0.9,0.4c0.4,0,0.7,0.1,1,0.3c0.3,0.2,0.5,0.4,0.7,0.7c0.2,0.3,0.3,0.7,0.3,1.1
				c0,0.5-0.1,0.9-0.4,1.3c-0.3,0.4-0.6,0.7-1.1,0.9s-1,0.3-1.6,0.3c-0.5,0-1-0.1-1.5-0.3c-0.5-0.2-0.9-0.5-1.2-0.9l0.8-0.7
				c0.2,0.3,0.5,0.5,0.8,0.6s0.7,0.2,1,0.2c0.5,0,0.9-0.1,1.2-0.4s0.5-0.7,0.5-1.1s-0.1-0.7-0.2-0.9c-0.1-0.2-0.3-0.4-0.6-0.5
				c-0.2-0.1-0.5-0.1-0.9-0.1h-0.7l0.2-1H40c0.3,0,0.5,0,0.7-0.1s0.4-0.2,0.5-0.4s0.2-0.5,0.2-0.8c0-0.4-0.1-0.7-0.4-1
				c-0.3-0.2-0.6-0.3-1-0.3s-0.7,0.1-0.9,0.2c-0.3,0.1-0.5,0.3-0.8,0.6l-0.7-0.8c0.4-0.4,0.8-0.6,1.2-0.8
				C39.3,1499.1,39.7,1499,40.2,1499z"/>
		</g>
	</g>
</g>
<rect id="rect1632_1_" x="791.5" y="155.6" class="st7" width="132.5" height="173.4"/>
<rect id="rect1632_2_" x="791.5" y="328.9" class="st7" width="132.5" height="148.1"/>
<rect id="rect1632_3_" x="791.5" y="476.7" class="st7" width="132.5" height="135.6"/>
<rect x="791.9" y="951" class="st11" width="76.7" height="103.9"/>
<rect x="791.4" y="1055.3" class="st11" width="77.2" height="103.9"/>
<ellipse class="st7" cx="916.3" cy="781" rx="90.9" ry="169.4"/>
<rect x="791.9" y="612.3" class="st7" width="132.1" height="168.7"/>
<rect x="791.9" y="781" class="st7" width="132.1" height="169.4"/>
<rect x="7" y="156.4" class="st12" width="783.3" height="1991"/>
<rect x="1084.3" y="1433.6" transform="matrix(0.9506 -0.3104 0.3104 0.9506 -414.0608 428.274)" class="st11" width="108.2" height="162.7"/>
<rect x="1142.2" y="1587.1" transform="matrix(0.9506 -0.3104 0.3104 0.9506 -466.1767 454.9761)" class="st7" width="108.2" height="209.9"/>
<rect x="1207.5" y="1785.4" transform="matrix(0.9506 -0.3104 0.3104 0.9506 -525.0859 485.1418)" class="st7" width="108.2" height="213.6"/>
<rect x="1093.5" y="2017" transform="matrix(0.9506 -0.3104 0.3104 0.9506 -582.6432 484.9156)" class="st11" width="277.2" height="111.8"/>
<rect x="961.1" y="1622.1" transform="matrix(0.9506 -0.3104 0.3104 0.9506 -472.2773 398.331)" class="st11" width="108.2" height="121.6"/>
<rect x="1016.7" y="1734.8" transform="matrix(0.9506 -0.3104 0.3104 0.9506 -522.2836 423.9522)" class="st7" width="108.2" height="236.1"/>
<rect x="1060.7" y="1968.6" transform="matrix(0.9506 -0.3104 0.3104 0.9506 -563.1407 439.6307)" class="st13" width="77.9" height="40.8"/>
<rect x="1073.8" y="2007.3" transform="matrix(0.9506 -0.3104 0.3104 0.9506 -575.0021 445.708)" class="st13" width="77.9" height="44"/>
<rect x="1151.5" y="2006.1" transform="matrix(0.9506 -0.3104 0.3104 0.9506 -569.3568 462.597)" class="st13" width="34.3" height="27.8"/>
<rect x="1180.5" y="1980.8" transform="matrix(0.9506 -0.3104 0.3104 0.9506 -561.3135 474.2746)" class="st11" width="57.6" height="39.5"/>
<rect x="1191.6" y="2011.9" transform="matrix(0.9506 -0.3104 0.3104 0.9506 -570.4678 479.0045)" class="st10" width="56" height="39.5"/>
</svg>
