<?xml version="1.0" encoding="UTF-8" standalone="no"?>
<!-- Generator: Adobe Illustrator 25.2.1, SVG Export Plug-In . SVG Version: 6.00 Build 0)  -->

<svg
   version="1.1"
   id="Layer_1"
   sodipodi:docname="ground_floor.svg"
   x="0px"
   y="0px"
   viewBox="0 0 1400 2200"
   style="enable-background:new 0 0 1400 2200;"
   xml:space="preserve"
   inkscape:version="1.1.2 (b8e25be833, 2022-02-05)"
   xmlns:inkscape="http://www.inkscape.org/namespaces/inkscape"
   xmlns:sodipodi="http://sodipodi.sourceforge.net/DTD/sodipodi-0.dtd"
   xmlns="http://www.w3.org/2000/svg"
   xmlns:svg="http://www.w3.org/2000/svg"><defs
   id="defs1409" />
<style
   type="text/css"
   id="style710">
	.st0{fill:#999999;stroke:#000000;stroke-miterlimit:10;}
	.st1{fill:#999999;stroke:#000000;stroke-width:1;stroke-miterlimit:10.0004;}
	.st2{fill:none;stroke:#000000;stroke-width:0.5;stroke-miterlimit:9.9996;}
	.st3{fill:#999999;stroke:#000000;stroke-width:0.5;stroke-miterlimit:9.9996;}
	.st4{fill:#FFC62A;stroke:#000000;stroke-miterlimit:10;}
	.st5{fill:#FFC62A;}
	.st6{fill:#74BEFF;stroke:#000000;stroke-miterlimit:10;}
	.st7{fill:#BEFF74;stroke:#000000;stroke-miterlimit:10;}
	.st8{fill:#999999;}
	.st9{fill:none;stroke:#000000;stroke-miterlimit:9.9996;}
	.st10{fill:#FFC62A;stroke:#000000;stroke-miterlimit:9.9996;}
	.st11{fill:#FFF6AA;stroke:#000000;stroke-miterlimit:9.9996;}
	.st12{fill:#FFF6AA;stroke:#000000;stroke-miterlimit:10;}
</style>
<sodipodi:namedview
   bordercolor="#666666"
   borderopacity="1.0"
   id="namedview2041"
   inkscape:current-layer="Layer_1"
   inkscape:cx="958.5"
   inkscape:cy="342"
   inkscape:pagecheckerboard="0"
   inkscape:pageopacity="0.0"
   inkscape:pageshadow="2"
   inkscape:window-height="1017"
   inkscape:window-maximized="1"
   inkscape:window-width="1920"
   inkscape:window-x="-8"
   inkscape:window-y="-8"
   inkscape:zoom="1"
   pagecolor="#ffffff"
   showgrid="false">
	</sodipodi:namedview>
<g
   id="Layer_2_1_">
	<g
   id="Layer_1-2">
		<rect
   id="rect1608"
   x="791.5"
   y="31.5"
   class="st0"
   width="373"
   height="1226" />
		<rect
   id="rect1610"
   x="791.5"
   y="1257.5"
   class="st0"
   width="373"
   height="286" />
		
			<rect
   id="rect1612"
   x="1002.6"
   y="1446.7"
   transform="matrix(0.9505 -0.3108 0.3108 0.9505 -501.3632 443.5772)"
   class="st1"
   width="277.2"
   height="696.6" />
		
			<rect
   id="rect1614"
   x="814.5"
   y="1521.1"
   transform="matrix(0.9505 -0.3108 0.3108 0.9505 -455.4764 350.5564)"
   class="st1"
   width="115.5"
   height="166.8" />
		<rect
   id="rect1616"
   x="18.5"
   y="1099.5"
   class="st0"
   width="773"
   height="263" />
		<rect
   id="rect1618"
   x="18.5"
   y="247.5"
   class="st0"
   width="426"
   height="1887" />
	</g>
</g>
<rect
   id="rect1676"
   x="791.1"
   y="1525.3"
   transform="matrix(0.9495 -0.3137 0.3137 0.9495 -437.6919 343.5408)"
   class="st2"
   width="115.1"
   height="13" />
<rect
   id="rect1678"
   x="795"
   y="1537.9"
   transform="matrix(0.9495 -0.3137 0.3137 0.9495 -441.4463 345.3982)"
   class="st2"
   width="115.1"
   height="13" />
<rect
   id="rect1680"
   x="799"
   y="1550.1"
   transform="matrix(0.9495 -0.3137 0.3137 0.9495 -445.0735 347.2699)"
   class="st2"
   width="115.1"
   height="13" />
<rect
   id="rect1682"
   x="803"
   y="1562.4"
   transform="matrix(0.9495 -0.3137 0.3137 0.9495 -448.73 349.1456)"
   class="st2"
   width="115.1"
   height="13" />
<rect
   id="rect1684"
   x="807"
   y="1574.3"
   transform="matrix(0.9495 -0.3137 0.3137 0.9495 -452.2608 351.0009)"
   class="st2"
   width="115.1"
   height="13" />
<rect
   id="rect1686"
   x="811.4"
   y="1586.4"
   transform="matrix(0.9495 -0.3137 0.3137 0.9495 -455.8338 352.9904)"
   class="st2"
   width="115.1"
   height="13" />
<rect
   id="rect1688"
   x="815.4"
   y="1598.4"
   transform="matrix(0.9495 -0.3137 0.3137 0.9495 -459.3963 354.851)"
   class="st2"
   width="115.1"
   height="13" />
<rect
   id="rect1690"
   x="819.4"
   y="1611.2"
   transform="matrix(0.9495 -0.3137 0.3137 0.9495 -463.2103 356.7522)"
   class="st2"
   width="115.1"
   height="13" />
<rect
   id="rect1692"
   x="845.9"
   y="1523.7"
   transform="matrix(0.9495 -0.3137 0.3137 0.9495 -450.7896 349.558)"
   class="st3"
   width="29.8"
   height="103.6" />
<path
   class="st4"
   d="M1206,2002.6"
   id="path730" />
<path
   class="st4"
   d="M1243.3,2116.1"
   id="path732" />
<path
   class="st4"
   d="M1216.3,2034.1"
   id="path734" />
<path
   class="st4"
   d="M1216.2,2033.8"
   id="path736" />
<line
   class="st4"
   x1="1210.4"
   y1="2016.3"
   x2="1210.8"
   y2="2017.3"
   id="line738" />
<path
   class="st4"
   d="M1210.4,2016.3"
   id="path740" />
<line
   class="st4"
   x1="1204.4"
   y1="1997.8"
   x2="1204.8"
   y2="1999.2"
   id="line742" />
<line
   class="st4"
   x1="1204"
   y1="1996.8"
   x2="1204.4"
   y2="1997.8"
   id="line744" />
<g
   id="138">
	<g
   id="g756">
		<polyline
   class="st4"
   points="1206,2003.1 1165.4,1879.8 1299.6,1835.7 1381.2,2084 1247,2128.1 1246.7,2127.1   "
   id="polyline746" />
		<polyline
   class="st4"
   points="1246.7,2127.1 1117.3,2169.6 1074.7,2039.8 1204,1997.2   "
   id="polyline748" />
		<rect
   x="1204.8"
   y="2015.4"
   class="st5"
   width="33.2"
   height="28"
   id="rect750" />
		
			<rect
   x="1190.5"
   y="1997.5"
   transform="matrix(0.9363 -0.3512 0.3512 0.9363 -629.5114 552.028)"
   class="st5"
   width="33.2"
   height="28"
   id="rect752" />
		
			<rect
   x="1230.1"
   y="2096.5"
   transform="matrix(0.952 -0.3061 0.3061 0.952 -586.1985 482.9592)"
   class="st5"
   width="33.2"
   height="28"
   id="rect754" />
	</g>
	<g
   id="g766">
		<g
   id="g764">
			<path
   d="M1175.5,1880.9l2.5,7.9l-1.5,0.5l-2-6.3l-1.4,1.6l-1-0.9l2-2.4L1175.5,1880.9z M1179.3,1887.3l0.4,1.2l-5.1,1.6l-0.4-1.2     L1179.3,1887.3z"
   id="path758" />
			<path
   d="M1180.9,1878.9c0.6-0.2,1.1-0.2,1.5-0.2c0.5,0.1,0.8,0.2,1.2,0.5c0.3,0.2,0.5,0.6,0.6,0.9c0.1,0.3,0.1,0.7,0.1,1     c-0.1,0.3-0.2,0.6-0.4,0.8c-0.2,0.3-0.4,0.5-0.7,0.7c0.4-0.1,0.7-0.1,1.1,0c0.3,0.1,0.6,0.2,0.9,0.4s0.5,0.6,0.6,1     c0.1,0.5,0.2,0.9,0,1.4c-0.1,0.5-0.4,0.9-0.8,1.2s-0.9,0.6-1.5,0.8c-0.6,0.2-1.1,0.2-1.6,0.2c-0.5,0-1-0.2-1.5-0.5l0.6-1.1     c0.3,0.2,0.6,0.3,1,0.3c0.3,0,0.7,0,1-0.1c0.5-0.1,0.8-0.4,1-0.7s0.2-0.7,0.1-1.1c-0.1-0.3-0.2-0.6-0.4-0.7     c-0.2-0.2-0.4-0.2-0.6-0.3c-0.2,0-0.5,0-0.8,0.1l-0.7,0.2l-0.2-1.2l0.5-0.2c0.2-0.1,0.5-0.2,0.6-0.3c0.2-0.2,0.3-0.3,0.4-0.5     c0.1-0.2,0.1-0.5,0-0.7c-0.1-0.4-0.3-0.6-0.6-0.7c-0.3-0.1-0.7-0.1-1,0c-0.3,0.1-0.6,0.3-0.8,0.5c-0.2,0.2-0.4,0.5-0.6,0.8     l-1.1-0.6c0.2-0.5,0.6-0.9,0.9-1.2C1179.9,1879.3,1180.4,1879.1,1180.9,1878.9z"
   id="path760" />
			<path
   d="M1191.5,1877.9c0.1,0.4,0.1,0.7,0,1.1c-0.1,0.3-0.4,0.7-0.7,1.1c0.6,0.1,1.1,0.3,1.5,0.5c0.4,0.3,0.7,0.7,0.8,1.1     c0.1,0.4,0.2,0.9,0,1.3c-0.1,0.4-0.4,0.8-0.7,1.2s-0.9,0.6-1.5,0.8c-0.6,0.2-1.2,0.3-1.7,0.2c-0.5-0.1-0.9-0.3-1.2-0.5     s-0.6-0.6-0.7-1.1c-0.2-0.5-0.1-0.9,0-1.4c0.2-0.4,0.5-0.8,0.9-1.2c-0.5-0.1-0.9-0.3-1.2-0.5c-0.3-0.2-0.5-0.6-0.6-1     c-0.1-0.4-0.1-0.7-0.1-1c0.1-0.3,0.2-0.6,0.4-0.9c0.2-0.3,0.4-0.5,0.7-0.7c0.3-0.2,0.6-0.3,0.9-0.5c0.4-0.1,0.7-0.2,1.1-0.2     c0.3,0,0.7,0,1,0.1s0.6,0.3,0.8,0.5C1191.3,1877.2,1191.4,1877.5,1191.5,1877.9z M1187.9,1879.1c0.1,0.2,0.2,0.4,0.3,0.5     c0.2,0.1,0.4,0.2,0.6,0.2s0.5,0.1,0.9,0.1c0.2-0.3,0.4-0.6,0.5-0.8c0.1-0.2,0.1-0.5,0-0.8c-0.1-0.3-0.3-0.6-0.5-0.7     c-0.3-0.1-0.6-0.2-0.9,0c-0.4,0.1-0.6,0.3-0.7,0.6C1187.7,1878.5,1187.7,1878.8,1187.9,1879.1z M1191.6,1882.2     c-0.1-0.3-0.2-0.5-0.4-0.7c-0.2-0.1-0.4-0.2-0.7-0.3c-0.3,0-0.7-0.1-1.1-0.1c-0.1,0.2-0.3,0.3-0.4,0.5c-0.1,0.2-0.2,0.4-0.2,0.6     c0,0.2,0,0.5,0.1,0.7c0.1,0.4,0.3,0.6,0.6,0.8c0.3,0.2,0.7,0.2,1.1,0c0.5-0.1,0.8-0.4,0.9-0.7     C1191.7,1882.9,1191.7,1882.6,1191.6,1882.2z"
   id="path762" />
		</g>
	</g>
</g>
<g
   id="140">
	
		<rect
   x="1052.6"
   y="1905.6"
   transform="matrix(0.947 -0.3213 0.3213 0.947 -573.7937 458.1139)"
   class="st4"
   width="96.6"
   height="123.4"
   id="rect770" />
	<g
   id="g780">
		<g
   id="g778">
			<path
   d="M1046.1,1926.1l2.5,7.9l-1.5,0.5l-2-6.3l-1.4,1.6l-1-0.9l2-2.4L1046.1,1926.1z M1049.9,1932.5l0.4,1.2l-5.1,1.6l-0.4-1.2     L1049.9,1932.5z"
   id="path772" />
			<path
   d="M1051.2,1924.2l1.5,0.1l-0.5,5.5l4.1-1.3l0.4,1.2l-5.7,1.8l-0.3-1.1L1051.2,1924.2z M1054.8,1926.7l1.6,5l-1.5,0.5     l-0.9-2.8l-0.5-2.3L1054.8,1926.7z"
   id="path774" />
			<path
   d="M1058.9,1921.8c0.9-0.3,1.8-0.2,2.5,0.4c0.7,0.6,1.3,1.5,1.7,2.9c0.4,1.3,0.5,2.5,0.3,3.4c-0.2,0.9-0.8,1.5-1.8,1.8     c-0.9,0.3-1.8,0.2-2.5-0.4c-0.7-0.6-1.3-1.6-1.7-2.9c-0.4-1.3-0.5-2.4-0.3-3.3C1057.3,1922.7,1057.9,1922.1,1058.9,1921.8z      M1059.2,1922.9c-0.4,0.1-0.7,0.5-0.8,1s0.1,1.4,0.4,2.5c0.2,0.6,0.4,1.1,0.6,1.5c0.2,0.4,0.4,0.7,0.5,0.9     c0.2,0.2,0.4,0.3,0.6,0.4c0.2,0,0.4,0,0.7-0.1c0.3-0.1,0.5-0.3,0.6-0.5c0.1-0.3,0.2-0.6,0.1-1.1c0-0.5-0.2-1.1-0.4-1.9     c-0.3-0.8-0.5-1.4-0.7-1.8c-0.2-0.4-0.5-0.7-0.7-0.8C1059.9,1922.8,1059.6,1922.8,1059.2,1922.9z M1060.3,1922.9l0.7,0.8     l-0.8,5.5l-0.7-0.6L1060.3,1922.9z"
   id="path776" />
		</g>
	</g>
</g>
<g
   id="g794">
	
		<rect
   x="1146"
   y="1883.1"
   transform="matrix(0.947 -0.3213 0.3213 0.947 -563.1906 477.9989)"
   class="st6"
   width="40.9"
   height="124.1"
   id="rect784" />
	<g
   id="g792">
		<g
   id="g790">
			<path
   d="M1178.8,1976.4l2,9.8l-2,0.7l-3.1-6.6l1.5,7.1l-2.1,0.7l-4.3-9l1.8-0.6l3.2,7.5l-1.3-6.9l1.8-0.6l3.1,6.3l-1.9-7.9     L1178.8,1976.4z"
   id="path786" />
			<path
   d="M1183.6,1974.6c0.7-0.2,1.2-0.3,1.7-0.3c0.5,0,1,0.1,1.5,0.3l-0.6,1.4c-0.3-0.1-0.7-0.2-1.1-0.2c-0.4,0-0.7,0-1.1,0.2     c-0.4,0.1-0.8,0.4-1.1,0.8c-0.3,0.4-0.5,0.8-0.5,1.4c0,0.6,0.1,1.3,0.4,2.1c0.3,0.8,0.6,1.4,1,1.9c0.4,0.4,0.8,0.7,1.2,0.8     c0.4,0.1,0.9,0.1,1.4-0.1c0.5-0.2,0.9-0.4,1.1-0.7c0.3-0.3,0.5-0.6,0.7-0.9l1.3,0.8c-0.2,0.4-0.5,0.9-1,1.3c-0.4,0.4-1,0.7-1.7,1     c-0.8,0.3-1.6,0.3-2.4,0.2c-0.8-0.2-1.5-0.5-2.1-1.1c-0.6-0.6-1.1-1.4-1.5-2.5c-0.4-1.1-0.5-2-0.3-2.9c0.1-0.9,0.5-1.6,1-2.2     C1182.1,1975.3,1182.8,1974.8,1183.6,1974.6z"
   id="path788" />
		</g>
	</g>
</g>
<g
   id="g812">
	
		<rect
   x="1002.3"
   y="1453.1"
   transform="matrix(0.9498 -0.3127 0.3127 0.9498 -467.2472 428.6849)"
   class="st7"
   width="200.9"
   height="435.8"
   id="rect796" />
	<g
   id="g810">
		<g
   id="g808">
			<path
   d="M1081.9,1663.7l0.9,0.5l-1.3,2.3l-1.1,0.4l-2.5-1l0.4-1l2.2,0.5L1081.9,1663.7z M1086.9,1673.1c0.2,0.6,0.2,1.1,0.1,1.7     c-0.1,0.5-0.4,1-0.9,1.5c-0.5,0.4-1.1,0.8-1.9,1c-0.8,0.3-1.6,0.4-2.2,0.3c-0.7,0-1.3-0.2-1.8-0.4l0.6-1.4     c0.4,0.2,0.9,0.3,1.4,0.3c0.5,0,1,0,1.5-0.2c0.3-0.1,0.6-0.3,0.9-0.5c0.2-0.2,0.4-0.4,0.5-0.7c0.1-0.3,0.1-0.5,0-0.8     c-0.1-0.3-0.2-0.5-0.4-0.6c-0.2-0.1-0.4-0.2-0.7-0.3c-0.3,0-0.7-0.1-1.2,0c-0.8,0-1.4,0-2-0.1c-0.5-0.1-1-0.3-1.3-0.6     c-0.3-0.3-0.6-0.7-0.8-1.1c-0.2-0.5-0.2-1.1,0-1.5c0.2-0.5,0.5-0.9,0.9-1.3c0.4-0.4,1-0.7,1.6-0.9c0.7-0.2,1.3-0.3,1.9-0.3     c0.6,0,1.2,0.2,1.7,0.4l-0.6,1.4c-0.4-0.2-0.8-0.3-1.3-0.3c-0.4,0-0.8,0.1-1.2,0.2c-0.3,0.1-0.6,0.2-0.8,0.4     c-0.2,0.2-0.4,0.3-0.4,0.6c-0.1,0.2-0.1,0.4,0,0.7c0.1,0.2,0.2,0.4,0.4,0.5c0.2,0.1,0.4,0.2,0.8,0.2c0.3,0,0.8,0,1.4,0     c0.6,0,1.2,0,1.7,0.1c0.5,0.1,0.9,0.3,1.3,0.6C1086.4,1672.1,1086.7,1672.5,1086.9,1673.1z"
   id="path798" />
			<path
   d="M1093.3,1671.6l-3.1,1l0.1,2.4l-1.9,0.7l-0.2-10.4l2.3-0.8l6.1,8.4l-2,0.7L1093.3,1671.6z M1090.1,1671.1l2.4-0.8     l-2.7-4.1L1090.1,1671.1z"
   id="path800" />
			<path
   d="M1098.9,1663.2l2.7,7.9l-1.9,0.6l-2.7-7.9l-2.7,0.9l-0.5-1.5l7.4-2.5l0.3,1.5L1098.9,1663.2z"
   id="path802" />
			<path
   d="M1109.7,1668.4l-5.4-6.9c0.1,0.2,0.2,0.4,0.3,0.6c0.1,0.3,0.3,0.6,0.4,0.9c0.1,0.3,0.3,0.7,0.4,1.1     c0.2,0.4,0.3,0.8,0.4,1.2l1.3,4l-1.6,0.5l-3.2-9.4l2.4-0.8l5.4,6.9c-0.1-0.2-0.3-0.5-0.4-0.9c-0.2-0.4-0.4-0.8-0.6-1.3     c-0.2-0.5-0.4-1-0.6-1.6l-1.4-4l1.6-0.5l3.2,9.4L1109.7,1668.4z"
   id="path804" />
			<path
   d="M1116.7,1662.1l1.2,3.6l-1.9,0.6l-1.2-3.5l-5.1-4.8l2-0.7l3.5,3.6l0.6-5l2-0.7L1116.7,1662.1z"
   id="path806" />
		</g>
	</g>
</g>
<rect
   x="775.8"
   y="1231.8"
   class="st2"
   width="15.7"
   height="130.7"
   id="rect814" />
<rect
   x="760.2"
   y="1231.8"
   class="st2"
   width="15.7"
   height="130.7"
   id="rect816" />
<rect
   x="744.5"
   y="1231.8"
   class="st2"
   width="15.7"
   height="130.7"
   id="rect818" />
<rect
   x="728.9"
   y="1231.8"
   class="st2"
   width="15.7"
   height="130.7"
   id="rect820" />
<rect
   x="713.2"
   y="1231.8"
   class="st2"
   width="15.7"
   height="130.7"
   id="rect822" />
<rect
   x="732.1"
   y="1261.2"
   transform="matrix(-1.836970e-16 1 -1 -1.836970e-16 2052.6616 547.9224)"
   class="st3"
   width="40.5"
   height="78.3"
   id="rect824" />
<rect
   x="760.2"
   y="1099.8"
   class="st2"
   width="15.7"
   height="132"
   id="rect826" />
<rect
   x="744.5"
   y="1099.8"
   class="st2"
   width="15.7"
   height="132"
   id="rect828" />
<rect
   x="728.9"
   y="1099.8"
   class="st2"
   width="15.7"
   height="132"
   id="rect830" />
<rect
   x="713.2"
   y="1099.8"
   class="st2"
   width="15.7"
   height="132"
   id="rect832" />
<rect
   x="731.9"
   y="1129.8"
   transform="matrix(-1.836970e-16 1 -1 -1.836970e-16 1921.3191 416.58)"
   class="st3"
   width="40.9"
   height="78.3"
   id="rect834" />
<rect
   x="480.7"
   y="1095"
   transform="matrix(6.123234e-17 -1 1 6.123234e-17 -650.5242 1627.4868)"
   class="st2"
   width="15.7"
   height="88.1"
   id="rect836" />
<rect
   x="480.7"
   y="1110.6"
   transform="matrix(6.123234e-17 -1 1 6.123234e-17 -666.1764 1643.139)"
   class="st2"
   width="15.7"
   height="88.1"
   id="rect838" />
<rect
   x="480.7"
   y="1126.3"
   transform="matrix(6.123234e-17 -1 1 6.123234e-17 -681.8286 1658.7913)"
   class="st2"
   width="15.7"
   height="88.1"
   id="rect840" />
<path
   class="st2"
   d="M493.9,1115.7"
   id="path842" />
<line
   class="st2"
   x1="529.9"
   y1="1115.7"
   x2="529.6"
   y2="1115.7"
   id="line844" />
<path
   class="st2"
   d="M529.9,1115.7"
   id="path846" />
<line
   class="st2"
   x1="533.5"
   y1="1115.7"
   x2="532.9"
   y2="1115.7"
   id="line848" />
<rect
   x="526.3"
   y="1113.6"
   class="st8"
   width="7.2"
   height="5.4"
   id="rect850" />
<rect
   x="493.9"
   y="1112.1"
   class="st8"
   width="15.3"
   height="7"
   id="rect852" />
<rect
   x="480.7"
   y="1079.2"
   transform="matrix(6.123234e-17 -1 1 6.123234e-17 -634.808 1611.7706)"
   class="st2"
   width="15.7"
   height="88.1"
   id="rect854" />
<rect
   x="480.7"
   y="1063.7"
   transform="matrix(6.123234e-17 -1 1 6.123234e-17 -619.2198 1596.1825)"
   class="st2"
   width="15.7"
   height="88.1"
   id="rect856" />
<rect
   x="472.4"
   y="1100.4"
   class="st3"
   width="32.2"
   height="78"
   id="rect858" />
<line
   class="st9"
   x1="444.2"
   y1="1262.2"
   x2="18.5"
   y2="1257.5"
   id="line860" />
<line
   class="st9"
   x1="444.2"
   y1="1362.5"
   x2="399"
   y2="1362.3"
   id="line862" />
<g
   id="g874">
	
		<rect
   x="391.8"
   y="1604.1"
   transform="matrix(-5.402070e-08 -1 1 -5.402070e-08 -1224.3459 2048.8513)"
   class="st6"
   width="40.9"
   height="65"
   id="rect864" />
	<g
   id="g872">
		<g
   id="g870">
			<path
   d="M419.8,1637.9l9.9,1.3v2.2l-7.2,0.9l7.2,0.9v2.2l-9.9,1.2v-1.9l8.1-0.6l-7-0.9v-1.9l7-0.9l-8.1-0.7V1637.9z"
   id="path866" />
			<path
   d="M419.6,1632.7c0-0.7,0.1-1.3,0.3-1.8c0.2-0.5,0.4-0.9,0.8-1.3l1.2,1c-0.2,0.3-0.4,0.6-0.5,0.9c-0.1,0.3-0.2,0.7-0.2,1.1     c0,0.5,0.1,0.9,0.4,1.3c0.2,0.4,0.6,0.7,1.2,0.9c0.5,0.2,1.2,0.3,2.1,0.3c0.9,0,1.6-0.1,2.1-0.3c0.5-0.2,0.9-0.5,1.2-0.9     c0.2-0.4,0.4-0.8,0.4-1.3c0-0.5-0.1-0.9-0.3-1.3c-0.2-0.3-0.4-0.6-0.6-0.9l1.2-0.9c0.3,0.3,0.6,0.8,0.9,1.3     c0.2,0.5,0.4,1.2,0.4,1.9c0,0.9-0.2,1.6-0.6,2.3c-0.4,0.7-1,1.2-1.8,1.6c-0.8,0.4-1.7,0.6-2.9,0.6c-1.1,0-2-0.2-2.8-0.6     c-0.8-0.4-1.4-0.9-1.7-1.6S419.6,1633.6,419.6,1632.7z"
   id="path868" />
		</g>
	</g>
</g>
<g
   id="g886">
	
		<rect
   x="391.5"
   y="1644.9"
   transform="matrix(-5.402070e-08 -1 1 -5.402070e-08 -1265.4102 2089.3884)"
   class="st6"
   width="40.9"
   height="65"
   id="rect876" />
	<g
   id="g884">
		<g
   id="g882">
			<path
   d="M419.8,1675.6l9.9,1.3v2.2l-7.2,0.9l7.2,0.9v2.2l-9.9,1.2v-1.9l8.1-0.6l-7-0.9v-1.9l7-0.9l-8.1-0.7V1675.6z"
   id="path878" />
			<path
   d="M419.6,1670.5c0-0.7,0.1-1.3,0.3-1.8c0.2-0.5,0.4-0.9,0.8-1.3l1.2,1c-0.2,0.3-0.4,0.6-0.5,0.9c-0.1,0.3-0.2,0.7-0.2,1.1     c0,0.5,0.1,0.9,0.4,1.3c0.2,0.4,0.6,0.7,1.2,0.9c0.5,0.2,1.2,0.3,2.1,0.3c0.9,0,1.6-0.1,2.1-0.3c0.5-0.2,0.9-0.5,1.2-0.9     c0.2-0.4,0.4-0.8,0.4-1.3c0-0.5-0.1-0.9-0.3-1.3c-0.2-0.3-0.4-0.6-0.6-0.9l1.2-0.9c0.3,0.3,0.6,0.8,0.9,1.3     c0.2,0.5,0.4,1.2,0.4,1.9c0,0.9-0.2,1.6-0.6,2.3c-0.4,0.7-1,1.2-1.8,1.6c-0.8,0.4-1.7,0.6-2.9,0.6c-1.1,0-2-0.2-2.8-0.6     c-0.8-0.4-1.4-0.9-1.7-1.6S419.6,1671.3,419.6,1670.5z"
   id="path880" />
		</g>
	</g>
</g>
<rect
   x="83.8"
   y="1339.4"
   transform="matrix(6.207864e-07 -1 1 6.207864e-07 -1320.9225 1504.0737)"
   class="st2"
   width="15.7"
   height="146.2"
   id="rect888" />
<rect
   x="83.5"
   y="1323.5"
   transform="matrix(6.207864e-07 -1 1 6.207864e-07 -1305.2701 1487.9215)"
   class="st2"
   width="15.7"
   height="146.2"
   id="rect890" />
<rect
   x="83.9"
   y="1307.6"
   transform="matrix(6.207864e-07 -1 1 6.207864e-07 -1288.9929 1472.3943)"
   class="st2"
   width="15.7"
   height="146.2"
   id="rect892" />
<rect
   x="83.6"
   y="1291.7"
   transform="matrix(6.207864e-07 -1 1 6.207864e-07 -1273.3406 1456.2421)"
   class="st2"
   width="15.7"
   height="146.2"
   id="rect894" />
<rect
   x="83.9"
   y="1276.3"
   transform="matrix(6.207864e-07 -1 1 6.207864e-07 -1257.5955 1441.1218)"
   class="st2"
   width="15.7"
   height="146.2"
   id="rect896" />
<rect
   x="83.7"
   y="1260.4"
   transform="matrix(6.207864e-07 -1 1 6.207864e-07 -1241.9431 1424.9696)"
   class="st2"
   width="15.7"
   height="146.2"
   id="rect898" />
<rect
   x="84.1"
   y="1244.5"
   transform="matrix(6.207864e-07 -1 1 6.207864e-07 -1225.6659 1409.4424)"
   class="st2"
   width="15.7"
   height="146.2"
   id="rect900" />
<rect
   x="83.8"
   y="1228.6"
   transform="matrix(6.207864e-07 -1 1 6.207864e-07 -1210.0135 1393.2902)"
   class="st2"
   width="15.7"
   height="146.2"
   id="rect902" />
<line
   class="st2"
   x1="165.2"
   y1="1259.1"
   x2="165.2"
   y2="1259.1"
   id="line904" />
<line
   class="st2"
   x1="164.7"
   y1="1290.1"
   x2="164.7"
   y2="1290.1"
   id="line906" />
<line
   class="st2"
   x1="165.2"
   y1="1259.1"
   x2="164.7"
   y2="1293.8"
   id="line908" />
<rect
   x="56.9"
   y="1293.8"
   transform="matrix(-1 -1.224647e-16 1.224647e-16 -1 180.8881 2713.6506)"
   class="st3"
   width="67"
   height="126"
   id="rect910" />
<rect
   x="791.5"
   y="377.5"
   class="st6"
   width="156.8"
   height="216.4"
   id="rect912" />
<g
   id="g924">
	
		<rect
   x="979.4"
   y="520.7"
   transform="matrix(-8.454478e-08 -1 1 -8.454478e-08 427.5501 1573.2385)"
   class="st6"
   width="41.9"
   height="104.3"
   id="rect914" />
	<g
   id="g922">
		<g
   id="g920">
			<path
   d="M974.8,574.2l9.9,1.3v2.2l-7.2,0.9l7.2,0.9v2.2l-9.9,1.2v-1.9l8.1-0.6l-7-0.9v-1.9l7-0.9l-8.1-0.7V574.2z"
   id="path916" />
			<path
   d="M974.6,569c0-0.7,0.1-1.3,0.3-1.8c0.2-0.5,0.4-0.9,0.8-1.3l1.2,1c-0.2,0.3-0.4,0.6-0.5,0.9c-0.1,0.3-0.2,0.7-0.2,1.1     c0,0.5,0.1,0.9,0.4,1.3c0.2,0.4,0.6,0.7,1.2,0.9c0.5,0.2,1.2,0.3,2.1,0.3c0.9,0,1.6-0.1,2.1-0.3c0.5-0.2,0.9-0.5,1.2-0.9     s0.4-0.8,0.4-1.3c0-0.5-0.1-0.9-0.3-1.3c-0.2-0.3-0.4-0.6-0.6-0.9l1.2-0.9c0.3,0.3,0.6,0.8,0.9,1.3c0.2,0.5,0.4,1.2,0.4,1.9     c0,0.9-0.2,1.6-0.6,2.3c-0.4,0.7-1,1.2-1.8,1.6c-0.8,0.4-1.7,0.6-2.9,0.6c-1.1,0-2-0.2-2.8-0.6c-0.8-0.4-1.4-0.9-1.7-1.6     C974.8,570.6,974.6,569.9,974.6,569z"
   id="path918" />
		</g>
	</g>
</g>
<g
   id="g936">
	
		<rect
   x="979.4"
   y="346.3"
   transform="matrix(-8.454478e-08 -1 1 -8.454478e-08 601.9808 1398.8081)"
   class="st6"
   width="41.9"
   height="104.3"
   id="rect926" />
	<g
   id="g934">
		<g
   id="g932">
			<path
   d="M974.8,399.3l9.9,1.3v2.2l-7.2,0.9l7.2,0.9v2.2l-9.9,1.2V406l8.1-0.6l-7-0.9v-1.9l7-0.9l-8.1-0.7V399.3z"
   id="path928" />
			<path
   d="M974.6,394.1c0-0.7,0.1-1.3,0.3-1.8c0.2-0.5,0.4-0.9,0.8-1.3l1.2,1c-0.2,0.3-0.4,0.6-0.5,0.9c-0.1,0.3-0.2,0.7-0.2,1.1     c0,0.5,0.1,0.9,0.4,1.3c0.2,0.4,0.6,0.7,1.2,0.9c0.5,0.2,1.2,0.3,2.1,0.3c0.9,0,1.6-0.1,2.1-0.3c0.5-0.2,0.9-0.5,1.2-0.9     s0.4-0.8,0.4-1.3c0-0.5-0.1-0.9-0.3-1.3c-0.2-0.3-0.4-0.6-0.6-0.9l1.2-0.9c0.3,0.3,0.6,0.8,0.9,1.3c0.2,0.5,0.4,1.2,0.4,1.9     c0,0.9-0.2,1.6-0.6,2.3c-0.4,0.7-1,1.2-1.8,1.6c-0.8,0.4-1.7,0.6-2.9,0.6c-1.1,0-2-0.2-2.8-0.6c-0.8-0.4-1.4-0.9-1.7-1.6     C974.8,395.7,974.6,395,974.6,394.1z"
   id="path930" />
		</g>
	</g>
</g>
<rect
   x="914.9"
   y="874.2"
   class="st6"
   width="137.7"
   height="100.8"
   id="rect938" />
<rect
   x="314.9"
   y="1055.7"
   class="st6"
   width="129.8"
   height="107"
   id="rect940" />
<rect
   x="240.2"
   y="1195.3"
   class="st6"
   width="204.2"
   height="64.5"
   id="rect942" />
<g
   id="g964">
	<rect
   x="791.5"
   y="31.5"
   class="st6"
   width="241.2"
   height="345.4"
   id="rect944" />
	<g
   id="g962">
		<g
   id="g960">
			<path
   d="M863,132.6v11.1c0,0.9-0.1,1.7-0.4,2.5c-0.3,0.8-0.7,1.4-1.2,2c-0.5,0.6-1.2,1-2,1.3c-0.8,0.3-1.8,0.5-2.9,0.5     c-1,0-1.9-0.1-2.7-0.4s-1.6-0.7-2.3-1.2l1.3-2.1c0.6,0.4,1.2,0.7,1.8,0.9s1.1,0.2,1.7,0.2c1,0,1.8-0.3,2.4-0.9     c0.6-0.6,0.9-1.6,0.9-2.8v-8.5h-5.2v-2.5H863z"
   id="path946" />
			<path
   d="M877.7,132.6v2.5h-3.6v12h3.6v2.5h-10.6v-2.5h3.6v-12h-3.6v-2.5H877.7z M874.4,126.6l1.3,2.5l-5.6,2l-0.8-1.7     L874.4,126.6z"
   id="path948" />
			<path
   d="M893.8,141c0,1.4-0.2,2.6-0.4,3.6c-0.3,1-0.7,1.8-1.2,2.5s-1.1,1.2-1.8,1.5c-0.7,0.4-1.4,0.6-2.2,0.8s-1.6,0.2-2.4,0.2     h-4.4v-17h4.1c1.1,0,2.1,0.1,3.1,0.3c1,0.2,1.9,0.6,2.7,1.2c0.8,0.6,1.4,1.5,1.9,2.6C893.6,137.8,893.8,139.3,893.8,141z      M890.3,141c0-1.3-0.1-2.3-0.4-3.1c-0.2-0.8-0.6-1.4-1-1.8c-0.4-0.4-0.9-0.7-1.4-0.8c-0.5-0.1-1-0.2-1.6-0.2h-1.3v12h1.3     c0.6,0,1.1-0.1,1.6-0.3c0.5-0.2,1-0.5,1.4-0.9c0.4-0.4,0.7-1.1,0.9-1.9C890.2,143.3,890.3,142.3,890.3,141z"
   id="path950" />
			<path
   d="M900.5,135.1v4.7h6v2.4h-6v4.9h7.3v2.5h-10.7v-17h10.6l-0.3,2.5H900.5z"
   id="path952" />
			<path
   d="M912,149.6v-17h3.4v14.3h7.5l-0.4,2.7H912z"
   id="path954" />
			<path
   d="M933.1,149.6l-5-14.1c0,0.3,0.1,0.7,0.1,1.2c0.1,0.5,0.1,1.1,0.2,1.7c0.1,0.6,0.1,1.3,0.1,2c0,0.7,0.1,1.4,0.1,2.1v7.2     h-2.9v-17h4.3l5,14.1c-0.1-0.4-0.1-1-0.2-1.7c-0.1-0.7-0.1-1.5-0.2-2.4c-0.1-0.9-0.1-1.8-0.1-2.9v-7.2h2.9v17H933.1z"
   id="path956" />
			<path
   d="M949.1,145.7h-5.6l-1.1,3.9h-3.5l5.3-17h4.1l5.3,17h-3.6L949.1,145.7z M944.1,143.2h4.4l-2.2-8.1L944.1,143.2z"
   id="path958" />
		</g>
	</g>
</g>
<g
   id="136">
	<rect
   x="1032.7"
   y="31.5"
   class="st4"
   width="131.8"
   height="271.5"
   id="rect966" />
	<g
   id="g984">
		<g
   id="g982">
			<path
   d="M1063.1,162h-2.5v-12.8h2.5V162z M1063.2,155.2l4-6h2.7l-4.1,5.8l4.4,7h-3L1063.2,155.2z"
   id="path968" />
			<path
   d="M1077.9,159.1h-4.2l-0.8,2.9h-2.6l4-12.8h3.1l4,12.8h-2.7L1077.9,159.1z M1074.1,157.2h3.3l-1.6-6.1L1074.1,157.2z"
   id="path970" />
			<path
   d="M1088.1,162l-3.8-10.6c0,0.2,0.1,0.5,0.1,0.9c0,0.4,0.1,0.8,0.1,1.3c0,0.5,0.1,1,0.1,1.5s0,1.1,0,1.6v5.4h-2.2v-12.8h3.2     l3.7,10.6c0-0.3-0.1-0.7-0.2-1.2c-0.1-0.5-0.1-1.1-0.2-1.8s-0.1-1.4-0.1-2.1v-5.4h2.2V162H1088.1z"
   id="path972" />
			<path
   d="M1099.2,151.3V162h-2.5v-10.8h-3.7v-2h10.1l-0.3,2H1099.2z"
   id="path974" />
			<path
   d="M1110.3,157.2v4.8h-2.5v-4.8l-4.2-7.9h2.8l2.8,5.8l2.8-5.8h2.6L1110.3,157.2z M1110.5,144.8l1,1.9l-4.2,1.5l-0.6-1.3     L1110.5,144.8z"
   id="path976" />
			<path
   d="M1121.3,162l-3.8-10.6c0,0.2,0.1,0.5,0.1,0.9c0,0.4,0.1,0.8,0.1,1.3c0,0.5,0.1,1,0.1,1.5s0,1.1,0,1.6v5.4h-2.2v-12.8h3.2     l3.7,10.6c0-0.3-0.1-0.7-0.2-1.2c-0.1-0.5-0.1-1.1-0.2-1.8s-0.1-1.4-0.1-2.1v-5.4h2.2V162H1121.3z"
   id="path978" />
			<path
   d="M1133.3,159.1h-4.2l-0.8,2.9h-2.6l4-12.8h3.1l4,12.8h-2.7L1133.3,159.1z M1129.5,157.2h3.3l-1.6-6.1L1129.5,157.2z"
   id="path980" />
		</g>
	</g>
	<g
   id="g994">
		<g
   id="g992">
			<path
   d="M1047.1,44.6v8.3h-1.6v-6.6l-1.8,1.1l-0.7-1.1l2.7-1.6H1047.1z M1048.7,51.9v1.2h-5.3v-1.2H1048.7z"
   id="path986" />
			<path
   d="M1052.8,44.4c0.6,0,1.1,0.1,1.5,0.3c0.4,0.2,0.7,0.5,1,0.8c0.2,0.3,0.3,0.7,0.3,1.1c0,0.4-0.1,0.7-0.2,0.9     c-0.1,0.3-0.3,0.5-0.6,0.7c-0.3,0.2-0.6,0.3-0.9,0.4c0.4,0,0.7,0.1,1,0.3c0.3,0.2,0.5,0.4,0.7,0.7c0.2,0.3,0.3,0.7,0.3,1.1     c0,0.5-0.1,0.9-0.4,1.3c-0.3,0.4-0.6,0.7-1.1,0.9s-1,0.3-1.7,0.3c-0.6,0-1.1-0.1-1.6-0.3c-0.5-0.2-0.9-0.5-1.3-0.9l1-0.9     c0.2,0.3,0.5,0.5,0.8,0.6c0.3,0.1,0.6,0.2,1,0.2c0.5,0,0.9-0.1,1.2-0.4c0.3-0.2,0.4-0.6,0.4-1c0-0.3-0.1-0.6-0.2-0.8     s-0.3-0.4-0.5-0.4c-0.2-0.1-0.5-0.1-0.8-0.1h-0.8l0.2-1.2h0.5c0.3,0,0.5,0,0.7-0.1c0.2-0.1,0.4-0.2,0.5-0.4s0.2-0.4,0.2-0.7     c0-0.4-0.1-0.7-0.4-0.9c-0.3-0.2-0.6-0.3-1-0.3c-0.4,0-0.7,0.1-0.9,0.2c-0.3,0.1-0.5,0.3-0.8,0.6l-0.8-0.9     c0.4-0.4,0.8-0.6,1.3-0.8C1051.8,44.5,1052.3,44.4,1052.8,44.4z"
   id="path988" />
			<path
   d="M1061.1,44.4c0.4,0,0.7,0,1,0.1c0.3,0.1,0.6,0.2,0.8,0.4l-0.6,1c-0.2-0.1-0.4-0.2-0.6-0.3c-0.2-0.1-0.4-0.1-0.6-0.1     c-0.4,0-0.7,0.1-1,0.4c-0.3,0.2-0.5,0.6-0.6,1c-0.2,0.5-0.2,1-0.2,1.6l0,0.5c0,1,0.1,1.7,0.3,2.2c0.2,0.5,0.6,0.7,1.1,0.7     c0.4,0,0.7-0.2,0.9-0.5s0.3-0.8,0.3-1.3c0-0.4,0-0.7-0.1-1s-0.2-0.4-0.4-0.5c-0.2-0.1-0.4-0.2-0.6-0.2c-0.3,0-0.6,0.1-0.9,0.3     c-0.3,0.2-0.5,0.4-0.7,0.7l0-1.1c0.3-0.4,0.6-0.6,0.9-0.8s0.7-0.3,1.1-0.3c0.4,0,0.8,0.1,1.2,0.3c0.4,0.2,0.6,0.5,0.9,0.9     c0.2,0.4,0.3,0.9,0.3,1.5c0,0.6-0.1,1.1-0.4,1.6c-0.2,0.5-0.6,0.8-1,1.1s-0.9,0.4-1.5,0.4c-0.5,0-1-0.1-1.4-0.3     c-0.4-0.2-0.7-0.5-0.9-0.9c-0.2-0.4-0.4-0.8-0.5-1.3c-0.1-0.5-0.2-1-0.2-1.6c0-1,0.1-1.8,0.4-2.5c0.3-0.7,0.7-1.3,1.2-1.7     C1059.7,44.6,1060.4,44.4,1061.1,44.4z"
   id="path990" />
		</g>
	</g>
</g>
<g
   id="132">
	<rect
   x="948.3"
   y="419.9"
   class="st4"
   width="104.3"
   height="131.5"
   id="rect998" />
	<g
   id="g1008">
		<g
   id="g1006">
			<path
   d="M960,426.8v8.3h-1.6v-6.6l-1.8,1.1l-0.7-1.1l2.7-1.6H960z M961.7,434v1.2h-5.3V434H961.7z"
   id="path1000" />
			<path
   d="M965.8,426.6c0.6,0,1.1,0.1,1.5,0.3c0.4,0.2,0.7,0.5,1,0.8c0.2,0.3,0.3,0.7,0.3,1.1c0,0.4-0.1,0.7-0.2,0.9     c-0.1,0.3-0.3,0.5-0.6,0.7c-0.3,0.2-0.6,0.3-0.9,0.4c0.4,0,0.7,0.1,1,0.3c0.3,0.2,0.5,0.4,0.7,0.7c0.2,0.3,0.3,0.7,0.3,1.1     c0,0.5-0.1,0.9-0.4,1.3c-0.3,0.4-0.6,0.7-1.1,0.9s-1,0.3-1.7,0.3c-0.6,0-1.1-0.1-1.6-0.3c-0.5-0.2-0.9-0.5-1.3-0.9l1-0.9     c0.2,0.3,0.5,0.5,0.8,0.6c0.3,0.1,0.6,0.2,1,0.2c0.5,0,0.9-0.1,1.2-0.4c0.3-0.2,0.4-0.6,0.4-1c0-0.3-0.1-0.6-0.2-0.8     s-0.3-0.4-0.5-0.4c-0.2-0.1-0.5-0.1-0.8-0.1h-0.8l0.2-1.2h0.5c0.3,0,0.5,0,0.7-0.1c0.2-0.1,0.4-0.2,0.5-0.4s0.2-0.4,0.2-0.7     c0-0.4-0.1-0.7-0.4-0.9c-0.3-0.2-0.6-0.3-1-0.3c-0.4,0-0.7,0.1-0.9,0.2c-0.3,0.1-0.5,0.3-0.8,0.6l-0.8-0.9     c0.4-0.4,0.8-0.6,1.3-0.8C964.8,426.7,965.3,426.6,965.8,426.6z"
   id="path1002" />
			<path
   d="M973.2,426.6c0.6,0,1.1,0.1,1.5,0.3c0.4,0.2,0.7,0.5,0.9,0.9c0.2,0.4,0.3,0.8,0.3,1.2c0,0.4-0.1,0.7-0.2,1.1     s-0.3,0.7-0.6,1.1c-0.3,0.4-0.6,0.8-1.1,1.3c-0.5,0.5-1,1-1.7,1.6h3.8l-0.2,1.3h-5.4v-1.2c0.6-0.6,1.1-1.1,1.5-1.5     c0.4-0.4,0.8-0.8,1.1-1.1c0.3-0.3,0.5-0.6,0.7-0.9c0.2-0.3,0.3-0.5,0.4-0.7c0.1-0.2,0.1-0.5,0.1-0.7c0-0.4-0.1-0.7-0.3-0.9     s-0.5-0.3-0.9-0.3c-0.4,0-0.7,0.1-0.9,0.2c-0.2,0.1-0.5,0.4-0.7,0.7l-1-0.8c0.3-0.4,0.7-0.8,1.2-1     C972,426.7,972.6,426.6,973.2,426.6z"
   id="path1004" />
		</g>
	</g>
</g>
<g
   id="130">
	<rect
   x="792.4"
   y="593.9"
   class="st4"
   width="260.1"
   height="280.3"
   id="rect1012" />
	<g
   id="g1022">
		<g
   id="g1020">
			<path
   d="M805.1,601.5v8.3h-1.6v-6.6l-1.8,1.1l-0.7-1.1l2.7-1.6H805.1z M806.7,608.7v1.2h-5.3v-1.2H806.7z"
   id="path1014" />
			<path
   d="M810.8,601.3c0.6,0,1.1,0.1,1.5,0.3c0.4,0.2,0.7,0.5,1,0.8c0.2,0.3,0.3,0.7,0.3,1.1c0,0.4-0.1,0.7-0.2,0.9     c-0.1,0.3-0.3,0.5-0.6,0.7c-0.3,0.2-0.6,0.3-0.9,0.4c0.4,0,0.7,0.1,1,0.3c0.3,0.2,0.5,0.4,0.7,0.7c0.2,0.3,0.3,0.7,0.3,1.1     c0,0.5-0.1,0.9-0.4,1.3c-0.3,0.4-0.6,0.7-1.1,0.9s-1,0.3-1.7,0.3c-0.6,0-1.1-0.1-1.6-0.3c-0.5-0.2-0.9-0.5-1.3-0.9l1-0.9     c0.2,0.3,0.5,0.5,0.8,0.6c0.3,0.1,0.6,0.2,1,0.2c0.5,0,0.9-0.1,1.2-0.4c0.3-0.2,0.4-0.6,0.4-1c0-0.3-0.1-0.6-0.2-0.8     s-0.3-0.4-0.5-0.4c-0.2-0.1-0.5-0.1-0.8-0.1h-0.8l0.2-1.2h0.5c0.3,0,0.5,0,0.7-0.1c0.2-0.1,0.4-0.2,0.5-0.4s0.2-0.4,0.2-0.7     c0-0.4-0.1-0.7-0.4-0.9c-0.3-0.2-0.6-0.3-1-0.3c-0.4,0-0.7,0.1-0.9,0.2c-0.3,0.1-0.5,0.3-0.8,0.6l-0.8-0.9     c0.4-0.4,0.8-0.6,1.3-0.8C809.8,601.4,810.3,601.3,810.8,601.3z"
   id="path1016" />
			<path
   d="M818.5,601.3c1,0,1.7,0.4,2.2,1.2c0.5,0.8,0.8,1.9,0.8,3.3c0,1.4-0.3,2.5-0.8,3.3c-0.5,0.8-1.2,1.2-2.2,1.2     c-1,0-1.7-0.4-2.2-1.2c-0.5-0.8-0.7-1.9-0.7-3.3c0-1.4,0.2-2.5,0.7-3.3C816.8,601.7,817.6,601.3,818.5,601.3z M819.6,602.8l0.4,1     l-2.4,5l-0.5-0.8L819.6,602.8z M818.5,602.5c-0.5,0-0.8,0.2-1,0.7c-0.2,0.5-0.4,1.3-0.4,2.5c0,0.6,0,1.2,0.1,1.6     c0,0.4,0.1,0.8,0.2,1c0.1,0.2,0.3,0.4,0.4,0.5c0.2,0.1,0.4,0.2,0.7,0.2c0.3,0,0.6-0.1,0.8-0.3s0.4-0.6,0.5-1     c0.1-0.5,0.2-1.1,0.2-1.9c0-0.8,0-1.5-0.1-2s-0.2-0.8-0.4-1C819.2,602.6,818.9,602.5,818.5,602.5z"
   id="path1018" />
		</g>
	</g>
</g>
<g
   id="g1046">
	<rect
   x="914.9"
   y="975"
   class="st6"
   width="137.7"
   height="123.5"
   id="rect1026" />
	<g
   id="g1044">
		<g
   id="g1042">
			<path
   d="M961.9,1036.9c0,0.4-0.1,0.8-0.2,1.1c-0.2,0.3-0.4,0.6-0.7,0.8c-0.3,0.2-0.6,0.4-0.9,0.5l2.3,3.7h-1.9l-2-3.4h-0.8v3.4     H956v-8.5h2.5c1.1,0,2,0.2,2.5,0.6S961.9,1036,961.9,1036.9z M960.1,1036.9c0-0.5-0.1-0.8-0.4-1s-0.7-0.3-1.2-0.3h-0.9v2.7h0.9     c0.5,0,0.9-0.1,1.1-0.3S960.1,1037.3,960.1,1036.9z"
   id="path1028" />
			<path
   d="M965.4,1035.6v2.3h3v1.2h-3v2.5h3.7v1.2h-5.3v-8.5h5.3l-0.2,1.2H965.4z"
   id="path1030" />
			<path
   d="M974.2,1034.2c0.6,0,1.1,0.1,1.5,0.2c0.4,0.2,0.8,0.4,1.1,0.7l-0.9,1c-0.2-0.2-0.5-0.4-0.8-0.5c-0.3-0.1-0.6-0.2-0.9-0.2     c-0.4,0-0.8,0.1-1.1,0.3c-0.3,0.2-0.6,0.5-0.8,1c-0.2,0.5-0.3,1.1-0.3,1.8c0,0.7,0.1,1.3,0.3,1.8c0.2,0.5,0.5,0.8,0.8,1     c0.3,0.2,0.7,0.3,1.1,0.3c0.4,0,0.8-0.1,1.1-0.2c0.3-0.2,0.6-0.3,0.8-0.5l0.8,1c-0.3,0.3-0.7,0.5-1.1,0.8c-0.4,0.2-1,0.3-1.6,0.3     c-0.7,0-1.4-0.2-2-0.5c-0.6-0.3-1-0.8-1.4-1.5c-0.3-0.7-0.5-1.5-0.5-2.4c0-1,0.2-1.8,0.5-2.4c0.3-0.7,0.8-1.2,1.4-1.5     C972.9,1034.3,973.5,1034.2,974.2,1034.2z"
   id="path1032" />
			<path
   d="M980.2,1035.6v2.3h3v1.2h-3v2.5h3.7v1.2h-5.3v-8.5h5.3l-0.2,1.2H980.2z"
   id="path1034" />
			<path
   d="M991.6,1037c0,0.7-0.1,1.2-0.4,1.6s-0.7,0.7-1.2,0.9s-1.1,0.3-1.7,0.3h-1v2.9h-1.7v-8.5h2.5c1.1,0,2,0.2,2.6,0.7     S991.6,1036.1,991.6,1037z M989.9,1037.1c0-0.4-0.1-0.6-0.2-0.9c-0.1-0.2-0.3-0.4-0.6-0.5c-0.3-0.1-0.6-0.2-0.9-0.2h-0.9v3.1h0.9     c0.3,0,0.6-0.1,0.9-0.2c0.2-0.1,0.4-0.3,0.6-0.5C989.8,1037.8,989.9,1037.4,989.9,1037.1z"
   id="path1036" />
			<path
   d="M996.4,1034.2c0.6,0,1.1,0.1,1.5,0.2c0.4,0.2,0.8,0.4,1.1,0.7l-0.9,1c-0.2-0.2-0.5-0.4-0.8-0.5c-0.3-0.1-0.6-0.2-0.9-0.2     c-0.4,0-0.8,0.1-1.1,0.3c-0.3,0.2-0.6,0.5-0.8,1c-0.2,0.5-0.3,1.1-0.3,1.8c0,0.7,0.1,1.3,0.3,1.8c0.2,0.5,0.5,0.8,0.8,1     c0.3,0.2,0.7,0.3,1.1,0.3c0.4,0,0.8-0.1,1.1-0.2c0.3-0.2,0.6-0.3,0.8-0.5l0.8,1c-0.3,0.3-0.7,0.5-1.1,0.8c-0.4,0.2-1,0.3-1.6,0.3     c-0.7,0-1.4-0.2-2-0.5c-0.6-0.3-1-0.8-1.4-1.5c-0.3-0.7-0.5-1.5-0.5-2.4c0-1,0.2-1.8,0.5-2.4c0.3-0.7,0.8-1.2,1.4-1.5     C995,1034.3,995.7,1034.2,996.4,1034.2z"
   id="path1038" />
			<path
   d="M1002.3,1035.6v2.3h3v1.2h-3v2.5h3.7v1.2h-5.3v-8.5h5.3l-0.2,1.2H1002.3z"
   id="path1040" />
		</g>
	</g>
</g>
<g
   id="g1050">
	<g
   id="g1048">
	</g>
</g>
<g
   id="g1068">
	<rect
   x="791.9"
   y="874.3"
   class="st7"
   width="123"
   height="225.2"
   id="rect1052" />
	<g
   id="g1066">
		<g
   id="g1064">
			<path
   d="M839.7,985.8c0,0.5-0.1,1-0.4,1.4c-0.3,0.4-0.6,0.7-1.1,0.9c-0.5,0.2-1.1,0.3-1.8,0.3c-0.7,0-1.4-0.1-1.9-0.3     c-0.5-0.2-1-0.5-1.3-0.8l0.9-1c0.3,0.3,0.7,0.5,1,0.6c0.4,0.2,0.8,0.2,1.3,0.2c0.3,0,0.6,0,0.8-0.1c0.2-0.1,0.4-0.2,0.6-0.4     c0.1-0.2,0.2-0.4,0.2-0.7c0-0.2,0-0.4-0.1-0.6c-0.1-0.2-0.3-0.3-0.5-0.4c-0.2-0.1-0.6-0.3-1-0.4c-0.6-0.2-1.1-0.4-1.6-0.6     c-0.4-0.2-0.7-0.5-0.9-0.8c-0.2-0.3-0.3-0.7-0.3-1.1c0-0.5,0.1-0.9,0.4-1.3s0.6-0.6,1.1-0.8c0.5-0.2,1-0.3,1.5-0.3     c0.6,0,1.2,0.1,1.7,0.3c0.5,0.2,0.9,0.4,1.3,0.8l-0.8,1c-0.3-0.2-0.6-0.4-0.9-0.6c-0.3-0.1-0.7-0.2-1-0.2c-0.3,0-0.5,0-0.7,0.1     c-0.2,0.1-0.4,0.2-0.5,0.3s-0.2,0.3-0.2,0.5c0,0.2,0.1,0.4,0.2,0.5c0.1,0.1,0.3,0.3,0.6,0.4c0.3,0.1,0.7,0.3,1.1,0.4     c0.5,0.2,0.9,0.3,1.3,0.5c0.4,0.2,0.7,0.5,0.9,0.8C839.6,984.8,839.7,985.3,839.7,985.8z M838.3,976.8l0.6,0.7l-1.7,1.5h-1     l-1.7-1.5l0.6-0.7l1.6,1L838.3,976.8z"
   id="path1054" />
			<path
   d="M845.3,986.3h-2.8l-0.5,2h-1.7l2.7-8.5h2.1l2.7,8.5h-1.8L845.3,986.3z M842.8,985h2.2l-1.1-4L842.8,985z"
   id="path1056" />
			<path
   d="M852.2,981.1v7.2h-1.7v-7.2H848v-1.3h6.7l-0.2,1.3H852.2z"
   id="path1058" />
			<path
   d="M859.5,988.2l-2.5-7.1c0,0.2,0,0.4,0.1,0.6s0.1,0.5,0.1,0.8c0,0.3,0,0.6,0.1,1c0,0.3,0,0.7,0,1.1v3.6h-1.5v-8.5h2.1     l2.5,7.1c0-0.2-0.1-0.5-0.1-0.8s-0.1-0.7-0.1-1.2c0-0.4,0-0.9,0-1.4v-3.6h1.5v8.5H859.5z"
   id="path1060" />
			<path
   d="M866.9,985v3.2h-1.7V985l-2.8-5.3h1.8l1.8,3.9l1.9-3.9h1.8L866.9,985z"
   id="path1062" />
		</g>
	</g>
</g>
<g
   id="g1086">
	
		<rect
   x="592"
   y="1140.7"
   transform="matrix(-1.836970e-16 1 -1 -1.836970e-16 1853.7336 608.2663)"
   class="st7"
   width="61.5"
   height="180.5"
   id="rect1070" />
	<g
   id="g1084">
		<g
   id="g1082">
			<path
   d="M610.7,1235c0,0.5-0.1,1-0.4,1.4c-0.3,0.4-0.6,0.7-1.1,0.9s-1.1,0.3-1.8,0.3c-0.7,0-1.4-0.1-1.9-0.3s-1-0.5-1.3-0.8     l0.9-1c0.3,0.3,0.7,0.5,1,0.6c0.4,0.2,0.8,0.2,1.3,0.2c0.3,0,0.6,0,0.8-0.1s0.4-0.2,0.6-0.4s0.2-0.4,0.2-0.7c0-0.2,0-0.4-0.1-0.6     c-0.1-0.2-0.3-0.3-0.5-0.4c-0.2-0.1-0.6-0.3-1-0.4c-0.6-0.2-1.1-0.4-1.6-0.6c-0.4-0.2-0.7-0.5-0.9-0.8c-0.2-0.3-0.3-0.7-0.3-1.1     c0-0.5,0.1-0.9,0.4-1.3c0.3-0.4,0.6-0.6,1.1-0.8c0.5-0.2,1-0.3,1.5-0.3c0.6,0,1.2,0.1,1.7,0.3s0.9,0.4,1.3,0.8l-0.8,1     c-0.3-0.2-0.6-0.4-0.9-0.6s-0.7-0.2-1-0.2c-0.3,0-0.5,0-0.7,0.1c-0.2,0.1-0.4,0.2-0.5,0.3s-0.2,0.3-0.2,0.5     c0,0.2,0.1,0.4,0.2,0.5s0.3,0.3,0.6,0.4s0.7,0.3,1.1,0.4c0.5,0.2,0.9,0.3,1.3,0.5s0.7,0.5,0.9,0.8     C610.6,1234,610.7,1234.5,610.7,1235z M609.3,1226l0.6,0.7l-1.7,1.5h-1l-1.7-1.5l0.6-0.7l1.6,1L609.3,1226z"
   id="path1072" />
			<path
   d="M616.3,1235.5h-2.8l-0.5,2h-1.7l2.7-8.5h2.1l2.7,8.5h-1.8L616.3,1235.5z M613.8,1234.2h2.2l-1.1-4L613.8,1234.2z"
   id="path1074" />
			<path
   d="M623.2,1230.3v7.2h-1.7v-7.2H619v-1.3h6.7l-0.2,1.3H623.2z"
   id="path1076" />
			<path
   d="M630.5,1237.5l-2.5-7.1c0,0.2,0,0.4,0.1,0.6s0.1,0.5,0.1,0.8s0,0.6,0.1,1s0,0.7,0,1.1v3.6h-1.5v-8.5h2.1l2.5,7.1     c0-0.2-0.1-0.5-0.1-0.8s-0.1-0.7-0.1-1.2c0-0.4,0-0.9,0-1.4v-3.6h1.5v8.5H630.5z"
   id="path1078" />
			<path
   d="M638,1234.2v3.2h-1.7v-3.2l-2.8-5.3h1.8l1.8,3.9l1.9-3.9h1.8L638,1234.2z"
   id="path1080" />
		</g>
	</g>
</g>
<g
   id="g1104">
	
		<rect
   x="591.7"
   y="1240.5"
   transform="matrix(-1.836970e-16 1 -1 -1.836970e-16 1953.5168 708.5494)"
   class="st7"
   width="61.5"
   height="181"
   id="rect1088" />
	<g
   id="g1102">
		<g
   id="g1100">
			<path
   d="M611,1328.6c0,0.5-0.1,1-0.4,1.4c-0.3,0.4-0.6,0.7-1.1,0.9s-1.1,0.3-1.8,0.3c-0.7,0-1.4-0.1-1.9-0.3s-1-0.5-1.3-0.8     l0.9-1c0.3,0.3,0.7,0.5,1,0.6c0.4,0.2,0.8,0.2,1.3,0.2c0.3,0,0.6,0,0.8-0.1s0.4-0.2,0.6-0.4s0.2-0.4,0.2-0.7c0-0.2,0-0.4-0.1-0.6     c-0.1-0.2-0.3-0.3-0.5-0.4c-0.2-0.1-0.6-0.3-1-0.4c-0.6-0.2-1.1-0.4-1.6-0.6c-0.4-0.2-0.7-0.5-0.9-0.8c-0.2-0.3-0.3-0.7-0.3-1.1     c0-0.5,0.1-0.9,0.4-1.3c0.3-0.4,0.6-0.6,1.1-0.8c0.5-0.2,1-0.3,1.5-0.3c0.6,0,1.2,0.1,1.7,0.3s0.9,0.4,1.3,0.8l-0.8,1     c-0.3-0.2-0.6-0.4-0.9-0.6s-0.7-0.2-1-0.2c-0.3,0-0.5,0-0.7,0.1c-0.2,0.1-0.4,0.2-0.5,0.3s-0.2,0.3-0.2,0.5     c0,0.2,0.1,0.4,0.2,0.5s0.3,0.3,0.6,0.4s0.7,0.3,1.1,0.4c0.5,0.2,0.9,0.3,1.3,0.5s0.7,0.5,0.9,0.8     C610.9,1327.6,611,1328.1,611,1328.6z M609.6,1319.6l0.6,0.7l-1.7,1.5h-1l-1.7-1.5l0.6-0.7l1.6,1L609.6,1319.6z"
   id="path1090" />
			<path
   d="M616.6,1329.1h-2.8l-0.5,2h-1.7l2.7-8.5h2.1l2.7,8.5h-1.8L616.6,1329.1z M614.1,1327.8h2.2l-1.1-4L614.1,1327.8z"
   id="path1092" />
			<path
   d="M623.5,1323.8v7.2h-1.7v-7.2h-2.5v-1.3h6.7l-0.2,1.3H623.5z"
   id="path1094" />
			<path
   d="M630.8,1331l-2.5-7.1c0,0.2,0,0.4,0.1,0.6s0.1,0.5,0.1,0.8s0,0.6,0.1,1s0,0.7,0,1.1v3.6h-1.5v-8.5h2.1l2.5,7.1     c0-0.2-0.1-0.5-0.1-0.8s-0.1-0.7-0.1-1.2c0-0.4,0-0.9,0-1.4v-3.6h1.5v8.5H630.8z"
   id="path1096" />
			<path
   d="M638.2,1327.8v3.2h-1.7v-3.2l-2.8-5.3h1.8l1.8,3.9l1.9-3.9h1.8L638.2,1327.8z"
   id="path1098" />
		</g>
	</g>
</g>
<g
   id="g1122">
	
		<rect
   x="336"
   y="1213.6"
   transform="matrix(-1.836970e-16 1 -1 -1.836970e-16 1657.8312 924.2706)"
   class="st7"
   width="61.5"
   height="154.8"
   id="rect1106" />
	<g
   id="g1120">
		<g
   id="g1118">
			<path
   d="M355.6,1288.6c0,0.5-0.1,1-0.4,1.4c-0.3,0.4-0.6,0.7-1.1,0.9s-1.1,0.3-1.8,0.3c-0.7,0-1.4-0.1-1.9-0.3s-1-0.5-1.3-0.8     l0.9-1c0.3,0.3,0.7,0.5,1,0.6c0.4,0.2,0.8,0.2,1.3,0.2c0.3,0,0.6,0,0.8-0.1s0.4-0.2,0.6-0.4s0.2-0.4,0.2-0.7c0-0.2,0-0.4-0.1-0.6     c-0.1-0.2-0.3-0.3-0.5-0.4c-0.2-0.1-0.6-0.3-1-0.4c-0.6-0.2-1.1-0.4-1.6-0.6c-0.4-0.2-0.7-0.5-0.9-0.8c-0.2-0.3-0.3-0.7-0.3-1.1     c0-0.5,0.1-0.9,0.4-1.3c0.3-0.4,0.6-0.6,1.1-0.8c0.5-0.2,1-0.3,1.5-0.3c0.6,0,1.2,0.1,1.7,0.3s0.9,0.4,1.3,0.8l-0.8,1     c-0.3-0.2-0.6-0.4-0.9-0.6s-0.7-0.2-1-0.2c-0.3,0-0.5,0-0.7,0.1c-0.2,0.1-0.4,0.2-0.5,0.3s-0.2,0.3-0.2,0.5     c0,0.2,0.1,0.4,0.2,0.5s0.3,0.3,0.6,0.4s0.7,0.3,1.1,0.4c0.5,0.2,0.9,0.3,1.3,0.5s0.7,0.5,0.9,0.8     C355.5,1287.6,355.6,1288.1,355.6,1288.6z M354.1,1279.6l0.6,0.7l-1.7,1.5h-1l-1.7-1.5l0.6-0.7l1.6,1L354.1,1279.6z"
   id="path1108" />
			<path
   d="M361.2,1289.1h-2.8l-0.5,2h-1.7l2.7-8.5h2.1l2.7,8.5h-1.8L361.2,1289.1z M358.7,1287.8h2.2l-1.1-4L358.7,1287.8z"
   id="path1110" />
			<path
   d="M368,1283.9v7.2h-1.7v-7.2h-2.5v-1.3h6.7l-0.2,1.3H368z"
   id="path1112" />
			<path
   d="M375.4,1291.1l-2.5-7.1c0,0.2,0,0.4,0.1,0.6s0.1,0.5,0.1,0.8s0,0.6,0.1,1s0,0.7,0,1.1v3.6h-1.5v-8.5h2.1l2.5,7.1     c0-0.2-0.1-0.5-0.1-0.8s-0.1-0.7-0.1-1.2c0-0.4,0-0.9,0-1.4v-3.6h1.5v8.5H375.4z"
   id="path1114" />
			<path
   d="M382.8,1287.8v3.2h-1.7v-3.2l-2.8-5.3h1.8l1.8,3.9l1.9-3.9h1.8L382.8,1287.8z"
   id="path1116" />
		</g>
	</g>
</g>
<g
   id="g1134">
	<rect
   x="379.5"
   y="1362.3"
   class="st10"
   width="65"
   height="253.7"
   id="rect1124" />
	<g
   id="g1132">
		<g
   id="g1130">
			<path
   d="M391.4,1372c0.6,0,1.1,0.1,1.5,0.3c0.4,0.2,0.7,0.5,1,0.8s0.3,0.7,0.3,1.1c0,0.4-0.1,0.7-0.2,0.9     c-0.1,0.3-0.3,0.5-0.6,0.7s-0.6,0.3-0.9,0.4c0.4,0,0.7,0.1,1,0.3c0.3,0.2,0.5,0.4,0.7,0.7c0.2,0.3,0.3,0.7,0.3,1.1     c0,0.5-0.1,0.9-0.4,1.3c-0.3,0.4-0.6,0.7-1.1,0.9c-0.5,0.2-1,0.3-1.7,0.3c-0.6,0-1.1-0.1-1.6-0.3s-0.9-0.5-1.3-0.9l1-0.9     c0.2,0.3,0.5,0.5,0.8,0.6c0.3,0.1,0.6,0.2,1,0.2c0.5,0,0.9-0.1,1.2-0.4c0.3-0.2,0.4-0.6,0.4-1c0-0.3-0.1-0.6-0.2-0.8     c-0.1-0.2-0.3-0.4-0.5-0.4c-0.2-0.1-0.5-0.1-0.8-0.1h-0.8l0.2-1.2h0.5c0.3,0,0.5,0,0.7-0.1c0.2-0.1,0.4-0.2,0.5-0.4     c0.1-0.2,0.2-0.4,0.2-0.7c0-0.4-0.1-0.7-0.4-0.9s-0.6-0.3-1-0.3c-0.4,0-0.7,0.1-0.9,0.2c-0.3,0.1-0.5,0.3-0.8,0.6l-0.8-0.9     c0.4-0.4,0.8-0.6,1.3-0.8S390.8,1372,391.4,1372z"
   id="path1126" />
			<path
   d="M398.8,1372c0.6,0,1.1,0.1,1.5,0.3s0.7,0.5,0.9,0.9c0.2,0.4,0.3,0.8,0.3,1.2c0,0.4-0.1,0.7-0.2,1.1s-0.3,0.7-0.6,1.1     c-0.3,0.4-0.6,0.8-1.1,1.3c-0.5,0.5-1,1-1.7,1.6h3.8l-0.2,1.3h-5.4v-1.2c0.6-0.6,1.1-1.1,1.5-1.5c0.4-0.4,0.8-0.8,1.1-1.1     c0.3-0.3,0.5-0.6,0.7-0.9c0.2-0.3,0.3-0.5,0.4-0.7c0.1-0.2,0.1-0.5,0.1-0.7c0-0.4-0.1-0.7-0.3-0.9c-0.2-0.2-0.5-0.3-0.9-0.3     c-0.4,0-0.7,0.1-0.9,0.2c-0.2,0.1-0.5,0.4-0.7,0.7l-1-0.8c0.3-0.4,0.7-0.8,1.2-1C397.6,1372.1,398.2,1372,398.8,1372z"
   id="path1128" />
		</g>
	</g>
</g>
<g
   id="g1152">
	
		<rect
   x="379"
   y="1697.4"
   transform="matrix(-1 -1.224647e-16 1.224647e-16 -1 823.2418 3579.6782)"
   class="st7"
   width="65.3"
   height="185"
   id="rect1136" />
	<g
   id="g1150">
		<g
   id="g1148">
			<path
   d="M408.2,1812.3l0.7-0.6l1.5,1.7v1l-1.5,1.7l-0.7-0.6l1-1.6L408.2,1812.3z M417.2,1810.9c0.5,0,1,0.1,1.4,0.4     c0.4,0.3,0.7,0.6,0.9,1.1c0.2,0.5,0.3,1.1,0.3,1.8c0,0.7-0.1,1.4-0.3,1.9s-0.5,1-0.8,1.3l-1-0.9c0.3-0.3,0.5-0.7,0.6-1     c0.2-0.4,0.2-0.8,0.2-1.3c0-0.3,0-0.6-0.1-0.8s-0.2-0.4-0.4-0.6c-0.2-0.1-0.4-0.2-0.7-0.2c-0.2,0-0.4,0-0.6,0.1     c-0.2,0.1-0.3,0.3-0.4,0.5c-0.1,0.2-0.3,0.6-0.4,1c-0.2,0.6-0.4,1.1-0.6,1.6c-0.2,0.4-0.5,0.7-0.8,0.9c-0.3,0.2-0.7,0.3-1.1,0.3     c-0.5,0-0.9-0.1-1.3-0.4c-0.4-0.3-0.6-0.6-0.8-1.1s-0.3-1-0.3-1.5c0-0.6,0.1-1.2,0.3-1.7c0.2-0.5,0.4-0.9,0.8-1.3l1,0.8     c-0.2,0.3-0.4,0.6-0.6,0.9s-0.2,0.7-0.2,1c0,0.3,0,0.5,0.1,0.7c0.1,0.2,0.2,0.4,0.3,0.5s0.3,0.2,0.5,0.2c0.2,0,0.4-0.1,0.5-0.2     c0.1-0.1,0.3-0.3,0.4-0.6s0.3-0.7,0.4-1.1c0.2-0.5,0.3-0.9,0.5-1.3c0.2-0.4,0.5-0.7,0.8-0.9     C416.2,1811,416.6,1810.9,417.2,1810.9z"
   id="path1138" />
			<path
   d="M417.7,1805.3v2.8l2,0.5v1.7l-8.5-2.7v-2.1l8.5-2.7v1.8L417.7,1805.3z M416.4,1807.8v-2.2l-4,1.1L416.4,1807.8z"
   id="path1140" />
			<path
   d="M412.4,1798.5h7.2v1.7h-7.2v2.5h-1.3v-6.7l1.3,0.2V1798.5z"
   id="path1142" />
			<path
   d="M419.6,1791.1l-7.1,2.5c0.2,0,0.4,0,0.6-0.1s0.5-0.1,0.8-0.1s0.6,0,1-0.1c0.3,0,0.7,0,1.1,0h3.6v1.5h-8.5v-2.1l7.1-2.5     c-0.2,0-0.5,0.1-0.8,0.1s-0.7,0.1-1.2,0.1s-0.9,0-1.4,0h-3.6v-1.5h8.5V1791.1z"
   id="path1144" />
			<path
   d="M416.4,1783.7h3.2v1.7h-3.2l-5.3,2.8v-1.8l3.9-1.8l-3.9-1.9v-1.8L416.4,1783.7z"
   id="path1146" />
		</g>
	</g>
</g>
<g
   id="g1170">
	
		<rect
   x="333.2"
   y="2023.5"
   transform="matrix(-1.836970e-16 1 -1 -1.836970e-16 2467.7151 1733.5804)"
   class="st7"
   width="67.7"
   height="154.4"
   id="rect1154" />
	<g
   id="g1168">
		<g
   id="g1166">
			<path
   d="M350.6,2104.5c0,0.5-0.1,1-0.4,1.4c-0.3,0.4-0.6,0.7-1.1,0.9s-1.1,0.3-1.8,0.3c-0.7,0-1.4-0.1-1.9-0.3s-1-0.5-1.3-0.8     l0.9-1c0.3,0.3,0.7,0.5,1,0.6c0.4,0.2,0.8,0.2,1.3,0.2c0.3,0,0.6,0,0.8-0.1s0.4-0.2,0.6-0.4s0.2-0.4,0.2-0.7c0-0.2,0-0.4-0.1-0.6     c-0.1-0.2-0.3-0.3-0.5-0.4c-0.2-0.1-0.6-0.3-1-0.4c-0.6-0.2-1.1-0.4-1.6-0.6c-0.4-0.2-0.7-0.5-0.9-0.8c-0.2-0.3-0.3-0.7-0.3-1.1     c0-0.5,0.1-0.9,0.4-1.3c0.3-0.4,0.6-0.6,1.1-0.8c0.5-0.2,1-0.3,1.5-0.3c0.6,0,1.2,0.1,1.7,0.3s0.9,0.4,1.3,0.8l-0.8,1     c-0.3-0.2-0.6-0.4-0.9-0.6s-0.7-0.2-1-0.2c-0.3,0-0.5,0-0.7,0.1c-0.2,0.1-0.4,0.2-0.5,0.3s-0.2,0.3-0.2,0.5     c0,0.2,0.1,0.4,0.2,0.5s0.3,0.3,0.6,0.4s0.7,0.3,1.1,0.4c0.5,0.2,0.9,0.3,1.3,0.5s0.7,0.5,0.9,0.8     C350.5,2103.6,350.6,2104,350.6,2104.5z M349.2,2095.5l0.6,0.7l-1.7,1.5h-1l-1.7-1.5l0.6-0.7l1.6,1L349.2,2095.5z"
   id="path1156" />
			<path
   d="M356.2,2105h-2.8l-0.5,2h-1.7l2.7-8.5h2.1l2.7,8.5h-1.8L356.2,2105z M353.7,2103.8h2.2l-1.1-4L353.7,2103.8z"
   id="path1158" />
			<path
   d="M363,2099.8v7.2h-1.7v-7.2h-2.5v-1.3h6.7l-0.2,1.3H363z"
   id="path1160" />
			<path
   d="M370.4,2107l-2.5-7.1c0,0.2,0,0.4,0.1,0.6s0.1,0.5,0.1,0.8s0,0.6,0.1,1s0,0.7,0,1.1v3.6h-1.5v-8.5h2.1l2.5,7.1     c0-0.2-0.1-0.5-0.1-0.8s-0.1-0.7-0.1-1.2c0-0.4,0-0.9,0-1.4v-3.6h1.5v8.5H370.4z"
   id="path1162" />
			<path
   d="M377.8,2103.8v3.2h-1.7v-3.2l-2.8-5.3h1.8l1.8,3.9l1.9-3.9h1.8L377.8,2103.8z"
   id="path1164" />
		</g>
	</g>
</g>
<g
   id="g1188">
	
		<rect
   x="379"
   y="1881.8"
   transform="matrix(-1 -1.224647e-16 1.224647e-16 -1 823.2418 3948.6201)"
   class="st7"
   width="65.3"
   height="185"
   id="rect1172" />
	<g
   id="g1186">
		<g
   id="g1184">
			<path
   d="M403.7,1998.2l0.7-0.6l1.5,1.7v1l-1.5,1.7l-0.7-0.6l1-1.6L403.7,1998.2z M412.7,1996.7c0.5,0,1,0.1,1.4,0.4     c0.4,0.3,0.7,0.6,0.9,1.1s0.3,1.1,0.3,1.8c0,0.7-0.1,1.4-0.3,1.9s-0.5,1-0.8,1.3l-1-0.9c0.3-0.3,0.5-0.7,0.6-1     c0.2-0.4,0.2-0.8,0.2-1.3c0-0.3,0-0.6-0.1-0.8s-0.2-0.4-0.4-0.6s-0.4-0.2-0.7-0.2c-0.2,0-0.4,0-0.6,0.1c-0.2,0.1-0.3,0.3-0.4,0.5     c-0.1,0.2-0.3,0.6-0.4,1c-0.2,0.6-0.4,1.1-0.6,1.6c-0.2,0.4-0.5,0.7-0.8,0.9c-0.3,0.2-0.7,0.3-1.1,0.3c-0.5,0-0.9-0.1-1.3-0.4     c-0.4-0.3-0.6-0.6-0.8-1.1c-0.2-0.5-0.3-1-0.3-1.5c0-0.6,0.1-1.2,0.3-1.7s0.4-0.9,0.8-1.3l1,0.8c-0.2,0.3-0.4,0.6-0.6,0.9     c-0.1,0.3-0.2,0.7-0.2,1c0,0.3,0,0.5,0.1,0.7c0.1,0.2,0.2,0.4,0.3,0.5s0.3,0.2,0.5,0.2c0.2,0,0.4-0.1,0.5-0.2s0.3-0.3,0.4-0.6     c0.1-0.3,0.3-0.7,0.4-1.1c0.2-0.5,0.3-0.9,0.5-1.3s0.5-0.7,0.8-0.9C411.8,1996.9,412.2,1996.7,412.7,1996.7z"
   id="path1174" />
			<path
   d="M413.2,1991.1v2.8l2,0.5v1.7l-8.5-2.7v-2.1l8.5-2.7v1.8L413.2,1991.1z M412,1993.6v-2.2l-4,1.1L412,1993.6z"
   id="path1176" />
			<path
   d="M408,1984.3h7.2v1.7H408v2.5h-1.3v-6.7l1.3,0.2V1984.3z"
   id="path1178" />
			<path
   d="M415.2,1977l-7.1,2.5c0.2,0,0.4,0,0.6-0.1c0.2,0,0.5-0.1,0.8-0.1c0.3,0,0.6,0,1-0.1s0.7,0,1.1,0h3.6v1.5h-8.5v-2.1     l7.1-2.5c-0.2,0-0.5,0.1-0.8,0.1s-0.7,0.1-1.2,0.1c-0.4,0-0.9,0-1.4,0h-3.6v-1.5h8.5V1977z"
   id="path1180" />
			<path
   d="M412,1969.5h3.2v1.7H412l-5.3,2.8v-1.8l3.9-1.8l-3.9-1.9v-1.8L412,1969.5z"
   id="path1182" />
		</g>
	</g>
</g>
<g
   id="30">
	<rect
   x="18.5"
   y="1457.5"
   class="st11"
   width="271.4"
   height="677"
   id="rect1190" />
	<g
   id="g1198">
		<g
   id="g1196">
			<path
   d="M29.8,1466.8c0.6,0,1.1,0.1,1.5,0.3c0.4,0.2,0.7,0.5,1,0.8s0.3,0.7,0.3,1.1c0,0.4-0.1,0.7-0.2,0.9     c-0.1,0.3-0.3,0.5-0.6,0.7s-0.6,0.3-0.9,0.4c0.4,0,0.7,0.1,1,0.3c0.3,0.2,0.5,0.4,0.7,0.7c0.2,0.3,0.3,0.7,0.3,1.1     c0,0.5-0.1,0.9-0.4,1.3c-0.3,0.4-0.6,0.7-1.1,0.9c-0.5,0.2-1,0.3-1.7,0.3c-0.6,0-1.1-0.1-1.6-0.3s-0.9-0.5-1.3-0.9l1-0.9     c0.2,0.3,0.5,0.5,0.8,0.6c0.3,0.1,0.6,0.2,1,0.2c0.5,0,0.9-0.1,1.2-0.4c0.3-0.2,0.4-0.6,0.4-1c0-0.3-0.1-0.6-0.2-0.8     c-0.1-0.2-0.3-0.4-0.5-0.4c-0.2-0.1-0.5-0.1-0.8-0.1h-0.8l0.2-1.2h0.5c0.3,0,0.5,0,0.7-0.1c0.2-0.1,0.4-0.2,0.5-0.4     c0.1-0.2,0.2-0.4,0.2-0.7c0-0.4-0.1-0.7-0.4-0.9s-0.6-0.3-1-0.3c-0.4,0-0.7,0.1-0.9,0.2c-0.3,0.1-0.5,0.3-0.8,0.6l-0.8-0.9     c0.4-0.4,0.8-0.6,1.3-0.8S29.3,1466.8,29.8,1466.8z"
   id="path1192" />
			<path
   d="M37.6,1466.8c1,0,1.7,0.4,2.2,1.2c0.5,0.8,0.8,1.9,0.8,3.3c0,1.4-0.2,2.5-0.8,3.3c-0.5,0.8-1.2,1.2-2.2,1.2     c-1,0-1.7-0.4-2.2-1.2c-0.5-0.8-0.7-1.9-0.7-3.3c0-1.4,0.2-2.5,0.7-3.3S36.6,1466.8,37.6,1466.8z M38.6,1468.3l0.4,1l-2.4,5     l-0.5-0.8L38.6,1468.3z M37.6,1468c-0.5,0-0.8,0.2-1,0.7c-0.2,0.5-0.4,1.3-0.4,2.5c0,0.6,0,1.2,0.1,1.6c0,0.4,0.1,0.8,0.2,1     c0.1,0.2,0.3,0.4,0.4,0.5c0.2,0.1,0.4,0.2,0.7,0.2c0.3,0,0.6-0.1,0.8-0.3c0.2-0.2,0.4-0.6,0.5-1c0.1-0.5,0.2-1.1,0.2-1.9     c0-0.8,0-1.5-0.1-2c-0.1-0.5-0.2-0.8-0.4-1S37.9,1468,37.6,1468z"
   id="path1194" />
		</g>
	</g>
	<g
   id="g1222">
		<g
   id="g1220">
			<path
   d="M95.8,1741v12.6h-2.9V1741h-4.4v-2.3h11.8l-0.3,2.3H95.8z"
   id="path1200" />
			<path
   d="M106,1740.8v4.1h5.3v2.1H106v4.3h6.4v2.2h-9.4v-14.9h9.3l-0.3,2.2H106z M110.6,1733.5l1.1,1.2l-3,2.6h-1.8l-3-2.6     l1.1-1.2l2.8,1.8L110.6,1733.5z"
   id="path1202" />
			<path
   d="M116.1,1753.6v-14.9h3v12.5h6.6l-0.3,2.4H116.1z"
   id="path1204" />
			<path
   d="M138.9,1746.1c0,1.6-0.2,2.9-0.7,4.1c-0.4,1.2-1.1,2.1-1.9,2.7c-0.9,0.6-1.9,1-3.2,1c-1.3,0-2.3-0.3-3.2-1     c-0.9-0.6-1.5-1.5-1.9-2.7c-0.4-1.2-0.7-2.5-0.7-4.1c0-1.6,0.2-2.9,0.7-4.1c0.4-1.2,1.1-2.1,1.9-2.7c0.9-0.6,1.9-1,3.2-1     c1.3,0,2.3,0.3,3.2,0.9c0.9,0.6,1.5,1.5,1.9,2.7C138.7,1743.1,138.9,1744.5,138.9,1746.1z M135.9,1746.1c0-1.9-0.2-3.3-0.6-4.2     s-1.1-1.4-2.1-1.4c-1,0-1.7,0.5-2.1,1.4c-0.4,0.9-0.6,2.3-0.6,4.2c0,1.9,0.2,3.3,0.7,4.2c0.4,0.9,1.1,1.4,2.1,1.4     c1,0,1.7-0.5,2.1-1.4C135.7,1749.4,135.9,1748,135.9,1746.1z"
   id="path1206" />
			<path
   d="M147.3,1738.3c1,0,1.9,0.1,2.6,0.4c0.7,0.3,1.4,0.7,2,1.2l-1.5,1.8c-0.4-0.4-0.9-0.6-1.4-0.8c-0.5-0.2-1-0.3-1.6-0.3     c-0.7,0-1.3,0.2-1.9,0.5c-0.6,0.4-1,1-1.4,1.8s-0.5,1.9-0.5,3.2c0,1.3,0.2,2.4,0.5,3.2s0.8,1.4,1.4,1.8s1.2,0.6,2,0.6     c0.8,0,1.4-0.1,1.9-0.4c0.5-0.3,1-0.6,1.4-0.9l1.4,1.8c-0.5,0.5-1.2,1-2,1.3s-1.7,0.5-2.9,0.5c-1.3,0-2.5-0.3-3.5-0.9     c-1-0.6-1.8-1.5-2.4-2.6s-0.9-2.6-0.9-4.3c0-1.7,0.3-3.1,0.9-4.2c0.6-1.2,1.4-2,2.4-2.6S146.1,1738.3,147.3,1738.3z"
   id="path1208" />
			<path
   d="M159,1751l3.2-12.4h3l-4.5,14.9h-3.5l-4.5-14.9h3.1L159,1751z"
   id="path1210" />
			<path
   d="M176.5,1738.7v2.2h-3.2v10.5h3.2v2.2h-9.3v-2.2h3.2v-10.5h-3.2v-2.2H176.5z"
   id="path1212" />
			<path
   d="M186.1,1738.3c1,0,1.9,0.1,2.6,0.4c0.7,0.3,1.4,0.7,2,1.2l-1.5,1.8c-0.4-0.4-0.9-0.6-1.4-0.8c-0.5-0.2-1-0.3-1.6-0.3     c-0.7,0-1.3,0.2-1.9,0.5c-0.6,0.4-1,1-1.4,1.8s-0.5,1.9-0.5,3.2c0,1.3,0.2,2.4,0.5,3.2s0.8,1.4,1.4,1.8s1.2,0.6,2,0.6     c0.8,0,1.4-0.1,1.9-0.4c0.5-0.3,1-0.6,1.4-0.9l1.4,1.8c-0.5,0.5-1.2,1-2,1.3s-1.7,0.5-2.9,0.5c-1.3,0-2.5-0.3-3.5-0.9     c-1-0.6-1.8-1.5-2.4-2.6s-0.9-2.6-0.9-4.3c0-1.7,0.3-3.1,0.9-4.2c0.6-1.2,1.4-2,2.4-2.6S184.8,1738.3,186.1,1738.3z M189,1733.5     l1.1,1.2l-3,2.6h-1.8l-3-2.6l1.1-1.2l2.8,1.8L189,1733.5z"
   id="path1214" />
			<path
   d="M199.2,1753.6l-4.4-12.4c0,0.3,0.1,0.6,0.1,1.1c0,0.4,0.1,0.9,0.1,1.5c0,0.5,0.1,1.1,0.1,1.7s0,1.2,0,1.9v6.3h-2.6v-14.9     h3.7l4.3,12.4c-0.1-0.4-0.1-0.9-0.2-1.5c-0.1-0.6-0.1-1.3-0.2-2.1c-0.1-0.8-0.1-1.6-0.1-2.5v-6.3h2.6v14.9H199.2z"
   id="path1216" />
			<path
   d="M213.1,1750.1h-4.9l-0.9,3.4h-3l4.7-14.9h3.6l4.7,14.9H214L213.1,1750.1z M208.7,1747.9h3.8l-1.9-7.1L208.7,1747.9z"
   id="path1218" />
		</g>
	</g>
</g>
<g
   id="3">
	<rect
   x="18.6"
   y="1195.3"
   class="st10"
   width="221.6"
   height="63.5"
   id="rect1226" />
	<g
   id="g1232">
		<g
   id="g1230">
			<path
   d="M29.8,1202.3c0.6,0,1.1,0.1,1.5,0.3c0.4,0.2,0.7,0.5,1,0.8s0.3,0.7,0.3,1.1c0,0.4-0.1,0.7-0.2,0.9     c-0.1,0.3-0.3,0.5-0.6,0.7s-0.6,0.3-0.9,0.4c0.4,0,0.7,0.1,1,0.3c0.3,0.2,0.5,0.4,0.7,0.7c0.2,0.3,0.3,0.7,0.3,1.1     c0,0.5-0.1,0.9-0.4,1.3c-0.3,0.4-0.6,0.7-1.1,0.9c-0.5,0.2-1,0.3-1.7,0.3c-0.6,0-1.1-0.1-1.6-0.3s-0.9-0.5-1.3-0.9l1-0.9     c0.2,0.3,0.5,0.5,0.8,0.6c0.3,0.1,0.6,0.2,1,0.2c0.5,0,0.9-0.1,1.2-0.4c0.3-0.2,0.4-0.6,0.4-1c0-0.3-0.1-0.6-0.2-0.8     c-0.1-0.2-0.3-0.4-0.5-0.4c-0.2-0.1-0.5-0.1-0.8-0.1h-0.8l0.2-1.2h0.5c0.3,0,0.5,0,0.7-0.1c0.2-0.1,0.4-0.2,0.5-0.4     c0.1-0.2,0.2-0.4,0.2-0.7c0-0.4-0.1-0.7-0.4-0.9s-0.6-0.3-1-0.3c-0.4,0-0.7,0.1-0.9,0.2c-0.3,0.1-0.5,0.3-0.8,0.6l-0.8-0.9     c0.4-0.4,0.8-0.6,1.3-0.8S29.3,1202.3,29.8,1202.3z"
   id="path1228" />
		</g>
	</g>
</g>
<g
   id="61">
	<rect
   id="rect1628"
   x="19.1"
   y="974.7"
   class="st12"
   width="196.4"
   height="125.9" />
	<g
   id="g1243">
		<g
   id="g1241">
			<path
   d="M30.8,983.3c0.4,0,0.7,0,1,0.1s0.6,0.2,0.8,0.4l-0.6,1c-0.2-0.1-0.4-0.2-0.6-0.3c-0.2-0.1-0.4-0.1-0.6-0.1     c-0.4,0-0.7,0.1-1,0.4s-0.5,0.6-0.6,1c-0.2,0.5-0.2,1-0.2,1.6l0,0.5c0,1,0.1,1.7,0.3,2.2c0.2,0.5,0.6,0.7,1.1,0.7     c0.4,0,0.7-0.2,0.9-0.5c0.2-0.3,0.3-0.8,0.3-1.3c0-0.4,0-0.7-0.1-1c-0.1-0.2-0.2-0.4-0.4-0.5c-0.2-0.1-0.4-0.2-0.6-0.2     c-0.3,0-0.6,0.1-0.9,0.3c-0.3,0.2-0.5,0.4-0.7,0.7l0-1.1c0.3-0.4,0.6-0.6,0.9-0.8s0.7-0.3,1.1-0.3c0.4,0,0.8,0.1,1.2,0.3     c0.4,0.2,0.6,0.5,0.9,0.9s0.3,0.9,0.3,1.5c0,0.6-0.1,1.1-0.4,1.6c-0.2,0.5-0.6,0.8-1,1.1s-0.9,0.4-1.5,0.4c-0.5,0-1-0.1-1.4-0.3     c-0.4-0.2-0.7-0.5-0.9-0.9c-0.2-0.4-0.4-0.8-0.5-1.3c-0.1-0.5-0.2-1-0.2-1.6c0-1,0.1-1.8,0.4-2.5c0.3-0.7,0.7-1.3,1.2-1.7     C29.4,983.5,30,983.3,30.8,983.3z"
   id="path1237" />
			<path
   d="M38.9,983.5v8.3h-1.6v-6.6l-1.8,1.1l-0.7-1.1l2.7-1.6H38.9z M40.5,990.7v1.2h-5.3v-1.2H40.5z"
   id="path1239" />
		</g>
	</g>
</g>
<g
   id="62">
	<rect
   id="rect1628_1_"
   x="19.2"
   y="864"
   class="st12"
   width="196.2"
   height="110.7" />
	<g
   id="g1254">
		<g
   id="g1252">
			<path
   d="M31.5,873.7c0.4,0,0.7,0,1,0.1s0.6,0.2,0.8,0.4l-0.6,1c-0.2-0.1-0.4-0.2-0.6-0.3c-0.2-0.1-0.4-0.1-0.6-0.1     c-0.4,0-0.7,0.1-1,0.4s-0.5,0.6-0.6,1c-0.2,0.5-0.2,1-0.2,1.6l0,0.5c0,1,0.1,1.7,0.3,2.2c0.2,0.5,0.6,0.7,1.1,0.7     c0.4,0,0.7-0.2,0.9-0.5c0.2-0.3,0.3-0.8,0.3-1.3c0-0.4,0-0.7-0.1-1c-0.1-0.2-0.2-0.4-0.4-0.5c-0.2-0.1-0.4-0.2-0.6-0.2     c-0.3,0-0.6,0.1-0.9,0.3c-0.3,0.2-0.5,0.4-0.7,0.7l0-1.1c0.3-0.4,0.6-0.6,0.9-0.8s0.7-0.3,1.1-0.3c0.4,0,0.8,0.1,1.2,0.3     c0.4,0.2,0.6,0.5,0.9,0.9s0.3,0.9,0.3,1.5c0,0.6-0.1,1.1-0.4,1.6c-0.2,0.5-0.6,0.8-1,1.1s-0.9,0.4-1.5,0.4c-0.5,0-1-0.1-1.4-0.3     c-0.4-0.2-0.7-0.5-0.9-0.9c-0.2-0.4-0.4-0.8-0.5-1.3c-0.1-0.5-0.2-1-0.2-1.6c0-1,0.1-1.8,0.4-2.5c0.3-0.7,0.7-1.3,1.2-1.7     C30.1,873.9,30.8,873.7,31.5,873.7z"
   id="path1248" />
			<path
   d="M38,873.7c0.6,0,1.1,0.1,1.5,0.3s0.7,0.5,0.9,0.9c0.2,0.4,0.3,0.8,0.3,1.2c0,0.4-0.1,0.7-0.2,1.1s-0.3,0.7-0.6,1.1     c-0.3,0.4-0.6,0.8-1.1,1.3c-0.5,0.5-1,1-1.7,1.6H41l-0.2,1.3h-5.4v-1.2c0.6-0.6,1.1-1.1,1.5-1.5c0.4-0.4,0.8-0.8,1.1-1.1     c0.3-0.3,0.5-0.6,0.7-0.9c0.2-0.3,0.3-0.5,0.4-0.7c0.1-0.2,0.1-0.5,0.1-0.7c0-0.4-0.1-0.7-0.3-0.9c-0.2-0.2-0.5-0.3-0.9-0.3     c-0.4,0-0.7,0.1-0.9,0.2c-0.2,0.1-0.5,0.4-0.7,0.7l-1-0.8c0.3-0.4,0.7-0.8,1.2-1C36.8,873.8,37.4,873.7,38,873.7z"
   id="path1250" />
		</g>
	</g>
</g>
<g
   id="63">
	<rect
   id="rect1628_2_"
   x="18.8"
   y="732.1"
   class="st12"
   width="196.2"
   height="131.9" />
	<g
   id="g1265">
		<g
   id="g1263">
			<path
   d="M31.5,741.7c0.4,0,0.7,0,1,0.1s0.6,0.2,0.8,0.4l-0.6,1c-0.2-0.1-0.4-0.2-0.6-0.3c-0.2-0.1-0.4-0.1-0.6-0.1     c-0.4,0-0.7,0.1-1,0.4s-0.5,0.6-0.6,1c-0.2,0.5-0.2,1-0.2,1.6l0,0.5c0,1,0.1,1.7,0.3,2.2c0.2,0.5,0.6,0.7,1.1,0.7     c0.4,0,0.7-0.2,0.9-0.5c0.2-0.3,0.3-0.8,0.3-1.3c0-0.4,0-0.7-0.1-1c-0.1-0.2-0.2-0.4-0.4-0.5c-0.2-0.1-0.4-0.2-0.6-0.2     c-0.3,0-0.6,0.1-0.9,0.3c-0.3,0.2-0.5,0.4-0.7,0.7l0-1.1c0.3-0.4,0.6-0.6,0.9-0.8s0.7-0.3,1.1-0.3c0.4,0,0.8,0.1,1.2,0.3     c0.4,0.2,0.6,0.5,0.9,0.9s0.3,0.9,0.3,1.5c0,0.6-0.1,1.1-0.4,1.6c-0.2,0.5-0.6,0.8-1,1.1s-0.9,0.4-1.5,0.4c-0.5,0-1-0.1-1.4-0.3     c-0.4-0.2-0.7-0.5-0.9-0.9c-0.2-0.4-0.4-0.8-0.5-1.3c-0.1-0.5-0.2-1-0.2-1.6c0-1,0.1-1.8,0.4-2.5c0.3-0.7,0.7-1.3,1.2-1.7     C30.1,741.9,30.8,741.7,31.5,741.7z"
   id="path1259" />
			<path
   d="M38,741.7c0.6,0,1.1,0.1,1.5,0.3c0.4,0.2,0.7,0.5,1,0.8c0.2,0.3,0.3,0.7,0.3,1.1c0,0.4-0.1,0.7-0.2,0.9     c-0.1,0.3-0.3,0.5-0.6,0.7c-0.3,0.2-0.6,0.3-0.9,0.4c0.4,0,0.7,0.1,1,0.3c0.3,0.2,0.5,0.4,0.7,0.7c0.2,0.3,0.3,0.7,0.3,1.1     c0,0.5-0.1,0.9-0.4,1.3c-0.3,0.4-0.6,0.7-1.1,0.9c-0.5,0.2-1,0.3-1.7,0.3c-0.6,0-1.1-0.1-1.6-0.3c-0.5-0.2-0.9-0.5-1.3-0.9l1-0.9     c0.2,0.3,0.5,0.5,0.8,0.6c0.3,0.1,0.6,0.2,1,0.2c0.5,0,0.9-0.1,1.2-0.4c0.3-0.2,0.4-0.6,0.4-1c0-0.3-0.1-0.6-0.2-0.8     c-0.1-0.2-0.3-0.4-0.5-0.4c-0.2-0.1-0.5-0.1-0.8-0.1h-0.8l0.2-1.2h0.5c0.3,0,0.5,0,0.7-0.1s0.4-0.2,0.5-0.4     c0.1-0.2,0.2-0.4,0.2-0.7c0-0.4-0.1-0.7-0.4-0.9c-0.3-0.2-0.6-0.3-1-0.3c-0.4,0-0.7,0.1-0.9,0.2c-0.3,0.1-0.5,0.3-0.8,0.6     l-0.8-0.9c0.4-0.4,0.8-0.6,1.3-0.8C36.9,741.8,37.4,741.7,38,741.7z"
   id="path1261" />
		</g>
	</g>
</g>
<g
   id="64">
	<rect
   id="rect1628_3_"
   x="18.4"
   y="608.4"
   class="st12"
   width="196.1"
   height="125.8" />
	<g
   id="g1276">
		<g
   id="g1274">
			<path
   d="M32.2,616.3c0.4,0,0.7,0,1,0.1s0.6,0.2,0.8,0.4l-0.6,1c-0.2-0.1-0.4-0.2-0.6-0.3c-0.2-0.1-0.4-0.1-0.6-0.1     c-0.4,0-0.7,0.1-1,0.4s-0.5,0.6-0.6,1c-0.2,0.5-0.2,1-0.2,1.6l0,0.5c0,1,0.1,1.7,0.3,2.2c0.2,0.5,0.6,0.7,1.1,0.7     c0.4,0,0.7-0.2,0.9-0.5c0.2-0.3,0.3-0.8,0.3-1.3c0-0.4,0-0.7-0.1-1c-0.1-0.2-0.2-0.4-0.4-0.5c-0.2-0.1-0.4-0.2-0.6-0.2     c-0.3,0-0.6,0.1-0.9,0.3c-0.3,0.2-0.5,0.4-0.7,0.7l0-1.1c0.3-0.4,0.6-0.6,0.9-0.8s0.7-0.3,1.1-0.3c0.4,0,0.8,0.1,1.2,0.3     c0.4,0.2,0.6,0.5,0.9,0.9s0.3,0.9,0.3,1.5c0,0.6-0.1,1.1-0.4,1.6c-0.2,0.5-0.6,0.8-1,1.1s-0.9,0.4-1.5,0.4c-0.5,0-1-0.1-1.4-0.3     c-0.4-0.2-0.7-0.5-0.9-0.9c-0.2-0.4-0.4-0.8-0.5-1.3c-0.1-0.5-0.2-1-0.2-1.6c0-1,0.1-1.8,0.4-2.5c0.3-0.7,0.7-1.3,1.2-1.7     C30.9,616.5,31.5,616.3,32.2,616.3z"
   id="path1270" />
			<path
   d="M38.5,616.3l1.4,0.5l-2.1,5.1h4.4v1.2h-6V622L38.5,616.3z M41.1,619.7v5.3h-1.6l0-2.9l0.2-2.4H41.1z"
   id="path1272" />
		</g>
	</g>
</g>
<g
   id="65">
	<rect
   id="rect1628_4_"
   x="18.8"
   y="517.5"
   class="st12"
   width="195.4"
   height="91.1" />
	<g
   id="g1287">
		<g
   id="g1285">
			<path
   d="M33,535c0.4,0,0.7,0,1,0.1s0.6,0.2,0.8,0.4l-0.6,1c-0.2-0.1-0.4-0.2-0.6-0.3c-0.2-0.1-0.4-0.1-0.6-0.1     c-0.4,0-0.7,0.1-1,0.4s-0.5,0.6-0.6,1c-0.2,0.5-0.2,1-0.2,1.6l0,0.5c0,1,0.1,1.7,0.3,2.2c0.2,0.5,0.6,0.7,1.1,0.7     c0.4,0,0.7-0.2,0.9-0.5c0.2-0.3,0.3-0.8,0.3-1.3c0-0.4,0-0.7-0.1-1c-0.1-0.2-0.2-0.4-0.4-0.5c-0.2-0.1-0.4-0.2-0.6-0.2     c-0.3,0-0.6,0.1-0.9,0.3c-0.3,0.2-0.5,0.4-0.7,0.7l0-1.1c0.3-0.4,0.6-0.6,0.9-0.8s0.7-0.3,1.1-0.3c0.4,0,0.8,0.1,1.2,0.3     c0.4,0.2,0.6,0.5,0.9,0.9s0.3,0.9,0.3,1.5c0,0.6-0.1,1.1-0.4,1.6c-0.2,0.5-0.6,0.8-1,1.1s-0.9,0.4-1.5,0.4c-0.5,0-1-0.1-1.4-0.3     c-0.4-0.2-0.7-0.5-0.9-0.9c-0.2-0.4-0.4-0.8-0.5-1.3c-0.1-0.5-0.2-1-0.2-1.6c0-1,0.1-1.8,0.4-2.5c0.3-0.7,0.7-1.3,1.2-1.7     C31.6,535.2,32.3,535,33,535z"
   id="path1281" />
			<path
   d="M42.3,535.2l-0.2,1.2h-3.2v2.1c0.2-0.1,0.5-0.2,0.7-0.2c0.2,0,0.4-0.1,0.7-0.1c0.4,0,0.9,0.1,1.2,0.3     c0.4,0.2,0.6,0.5,0.8,0.9c0.2,0.4,0.3,0.9,0.3,1.5s-0.1,1.1-0.4,1.5c-0.3,0.4-0.6,0.8-1.1,1c-0.5,0.3-1,0.4-1.7,0.4     c-0.6,0-1.1-0.1-1.5-0.3s-0.8-0.5-1.2-0.9l0.9-0.9c0.2,0.3,0.5,0.5,0.8,0.6c0.3,0.1,0.6,0.2,0.9,0.2c0.5,0,0.9-0.1,1.2-0.4     s0.4-0.7,0.4-1.2c0-0.4-0.1-0.7-0.2-0.9c-0.1-0.2-0.3-0.4-0.5-0.5s-0.4-0.2-0.7-0.2c-0.2,0-0.4,0-0.6,0.1s-0.4,0.1-0.6,0.2h-1.1     v-4.5H42.3z"
   id="path1283" />
		</g>
	</g>
</g>
<g
   id="65A">
	<rect
   id="rect1628_5_"
   x="18.4"
   y="431.4"
   class="st12"
   width="195.3"
   height="86.3" />
	<g
   id="g1300">
		<g
   id="g1298">
			<path
   d="M33,443.1c0.4,0,0.7,0,1,0.1s0.6,0.2,0.8,0.4l-0.6,1c-0.2-0.1-0.4-0.2-0.6-0.3c-0.2-0.1-0.4-0.1-0.6-0.1     c-0.4,0-0.7,0.1-1,0.4s-0.5,0.6-0.6,1c-0.2,0.5-0.2,1-0.2,1.6l0,0.5c0,1,0.1,1.7,0.3,2.2c0.2,0.5,0.6,0.7,1.1,0.7     c0.4,0,0.7-0.2,0.9-0.5c0.2-0.3,0.3-0.8,0.3-1.3c0-0.4,0-0.7-0.1-1c-0.1-0.2-0.2-0.4-0.4-0.5c-0.2-0.1-0.4-0.2-0.6-0.2     c-0.3,0-0.6,0.1-0.9,0.3c-0.3,0.2-0.5,0.4-0.7,0.7l0-1.1c0.3-0.4,0.6-0.6,0.9-0.8s0.7-0.3,1.1-0.3c0.4,0,0.8,0.1,1.2,0.3     c0.4,0.2,0.6,0.5,0.9,0.9s0.3,0.9,0.3,1.5c0,0.6-0.1,1.1-0.4,1.6c-0.2,0.5-0.6,0.8-1,1.1s-0.9,0.4-1.5,0.4c-0.5,0-1-0.1-1.4-0.3     c-0.4-0.2-0.7-0.5-0.9-0.9c-0.2-0.4-0.4-0.8-0.5-1.3c-0.1-0.5-0.2-1-0.2-1.6c0-1,0.1-1.8,0.4-2.5c0.3-0.7,0.7-1.3,1.2-1.7     C31.6,443.3,32.3,443.1,33,443.1z"
   id="path1292" />
			<path
   d="M42.3,443.3l-0.2,1.2h-3.2v2.1c0.2-0.1,0.5-0.2,0.7-0.2c0.2,0,0.4-0.1,0.7-0.1c0.4,0,0.9,0.1,1.2,0.3     c0.4,0.2,0.6,0.5,0.8,0.9c0.2,0.4,0.3,0.9,0.3,1.5s-0.1,1.1-0.4,1.5c-0.3,0.4-0.6,0.8-1.1,1c-0.5,0.3-1,0.4-1.7,0.4     c-0.6,0-1.1-0.1-1.5-0.3s-0.8-0.5-1.2-0.9l0.9-0.9c0.2,0.3,0.5,0.5,0.8,0.6c0.3,0.1,0.6,0.2,0.9,0.2c0.5,0,0.9-0.1,1.2-0.4     s0.4-0.7,0.4-1.2c0-0.4-0.1-0.7-0.2-0.9c-0.1-0.2-0.3-0.4-0.5-0.5s-0.4-0.2-0.7-0.2c-0.2,0-0.4,0-0.6,0.1s-0.4,0.1-0.6,0.2h-1.1     v-4.5H42.3z"
   id="path1294" />
			<path
   d="M48.6,449.9h-2.8l-0.5,2h-1.7l2.7-8.5h2.1l2.7,8.5h-1.8L48.6,449.9z M46.1,448.6h2.2l-1.1-4L46.1,448.6z"
   id="path1296" />
		</g>
	</g>
</g>
<g
   id="66">
	<rect
   id="rect1628_6_"
   x="18.8"
   y="332.8"
   class="st12"
   width="194.5"
   height="99.8" />
	<g
   id="g1311">
		<g
   id="g1309">
			<path
   d="M31.5,342.5c0.4,0,0.7,0,1,0.1s0.6,0.2,0.8,0.4l-0.6,1c-0.2-0.1-0.4-0.2-0.6-0.3c-0.2-0.1-0.4-0.1-0.6-0.1     c-0.4,0-0.7,0.1-1,0.4s-0.5,0.6-0.6,1c-0.2,0.5-0.2,1-0.2,1.6l0,0.5c0,1,0.1,1.7,0.3,2.2c0.2,0.5,0.6,0.7,1.1,0.7     c0.4,0,0.7-0.2,0.9-0.5c0.2-0.3,0.3-0.8,0.3-1.3c0-0.4,0-0.7-0.1-1c-0.1-0.2-0.2-0.4-0.4-0.5c-0.2-0.1-0.4-0.2-0.6-0.2     c-0.3,0-0.6,0.1-0.9,0.3c-0.3,0.2-0.5,0.4-0.7,0.7l0-1.1c0.3-0.4,0.6-0.6,0.9-0.8s0.7-0.3,1.1-0.3c0.4,0,0.8,0.1,1.2,0.3     c0.4,0.2,0.6,0.5,0.9,0.9s0.3,0.9,0.3,1.5c0,0.6-0.1,1.1-0.4,1.6c-0.2,0.5-0.6,0.8-1,1.1s-0.9,0.4-1.5,0.4c-0.5,0-1-0.1-1.4-0.3     c-0.4-0.2-0.7-0.5-0.9-0.9c-0.2-0.4-0.4-0.8-0.5-1.3c-0.1-0.5-0.2-1-0.2-1.6c0-1,0.1-1.8,0.4-2.5c0.3-0.7,0.7-1.3,1.2-1.7     C30.1,342.7,30.8,342.5,31.5,342.5z"
   id="path1305" />
			<path
   d="M38.9,342.5c0.4,0,0.7,0,1,0.1s0.6,0.2,0.8,0.4l-0.6,1c-0.2-0.1-0.4-0.2-0.6-0.3c-0.2-0.1-0.4-0.1-0.6-0.1     c-0.4,0-0.7,0.1-1,0.4s-0.5,0.6-0.6,1c-0.2,0.5-0.2,1-0.2,1.6l0,0.5c0,1,0.1,1.7,0.3,2.2c0.2,0.5,0.6,0.7,1.1,0.7     c0.4,0,0.7-0.2,0.9-0.5c0.2-0.3,0.3-0.8,0.3-1.3c0-0.4,0-0.7-0.1-1c-0.1-0.2-0.2-0.4-0.4-0.5c-0.2-0.1-0.4-0.2-0.6-0.2     c-0.3,0-0.6,0.1-0.9,0.3c-0.3,0.2-0.5,0.4-0.7,0.7l0-1.1c0.3-0.4,0.6-0.6,0.9-0.8s0.7-0.3,1.1-0.3c0.4,0,0.8,0.1,1.2,0.3     c0.4,0.2,0.6,0.5,0.9,0.9s0.3,0.9,0.3,1.5c0,0.6-0.1,1.1-0.4,1.6c-0.2,0.5-0.6,0.8-1,1.1s-0.9,0.4-1.5,0.4c-0.5,0-1-0.1-1.4-0.3     c-0.4-0.2-0.7-0.5-0.9-0.9c-0.2-0.4-0.4-0.8-0.5-1.3c-0.1-0.5-0.2-1-0.2-1.6c0-1,0.1-1.8,0.4-2.5c0.3-0.7,0.7-1.3,1.2-1.7     C37.5,342.7,38.1,342.5,38.9,342.5z"
   id="path1307" />
		</g>
	</g>
</g>
<g
   id="g1324">
	<rect
   id="rect1628_7_"
   x="18.8"
   y="247.8"
   class="st12"
   width="194.9"
   height="85.3" />
	<g
   id="g1322">
		<g
   id="g1320">
			<path
   d="M30.8,259.1c0.4,0,0.7,0,1,0.1s0.6,0.2,0.8,0.4l-0.6,1c-0.2-0.1-0.4-0.2-0.6-0.3c-0.2-0.1-0.4-0.1-0.6-0.1     c-0.4,0-0.7,0.1-1,0.4s-0.5,0.6-0.6,1c-0.2,0.5-0.2,1-0.2,1.6l0,0.5c0,1,0.1,1.7,0.3,2.2c0.2,0.5,0.6,0.7,1.1,0.7     c0.4,0,0.7-0.2,0.9-0.5c0.2-0.3,0.3-0.8,0.3-1.3c0-0.4,0-0.7-0.1-1c-0.1-0.2-0.2-0.4-0.4-0.5c-0.2-0.1-0.4-0.2-0.6-0.2     c-0.3,0-0.6,0.1-0.9,0.3c-0.3,0.2-0.5,0.4-0.7,0.7l0-1.1c0.3-0.4,0.6-0.6,0.9-0.8s0.7-0.3,1.1-0.3c0.4,0,0.8,0.1,1.2,0.3     c0.4,0.2,0.6,0.5,0.9,0.9s0.3,0.9,0.3,1.5c0,0.6-0.1,1.1-0.4,1.6c-0.2,0.5-0.6,0.8-1,1.1s-0.9,0.4-1.5,0.4c-0.5,0-1-0.1-1.4-0.3     c-0.4-0.2-0.7-0.5-0.9-0.9c-0.2-0.4-0.4-0.8-0.5-1.3c-0.1-0.5-0.2-1-0.2-1.6c0-1,0.1-1.8,0.4-2.5c0.3-0.7,0.7-1.3,1.2-1.7     C29.4,259.3,30,259.1,30.8,259.1z"
   id="path1316" />
			<path
   d="M37,267.9l-1.5-0.5l3.2-6.9h-3.8v-1.3h5.5v1.1L37,267.9z"
   id="path1318" />
		</g>
	</g>
</g>
<g
   id="16">
	<rect
   id="rect1628_8_"
   x="314.9"
   y="248.7"
   class="st12"
   width="129.5"
   height="158.8" />
	<g
   id="g1333">
		<g
   id="g1331">
			<path
   d="M329.1,256.2v8.3h-1.6v-6.6l-1.8,1.1l-0.7-1.1l2.7-1.6H329.1z M330.7,263.4v1.2h-5.3v-1.2H330.7z"
   id="path1327" />
			<path
   d="M335.7,256c0.4,0,0.7,0,1,0.1c0.3,0.1,0.6,0.2,0.8,0.4l-0.6,1c-0.2-0.1-0.4-0.2-0.6-0.3c-0.2-0.1-0.4-0.1-0.6-0.1     c-0.4,0-0.7,0.1-1,0.4s-0.5,0.6-0.6,1s-0.2,1-0.2,1.6l0,0.5c0,1,0.1,1.7,0.3,2.2s0.6,0.7,1.1,0.7c0.4,0,0.7-0.2,0.9-0.5     c0.2-0.3,0.3-0.8,0.3-1.3c0-0.4,0-0.8-0.1-1c-0.1-0.2-0.2-0.4-0.4-0.5c-0.2-0.1-0.4-0.2-0.6-0.2c-0.3,0-0.6,0.1-0.9,0.3     c-0.3,0.2-0.5,0.4-0.7,0.7l0-1.1c0.3-0.4,0.6-0.6,0.9-0.8c0.3-0.2,0.7-0.3,1.1-0.3c0.4,0,0.8,0.1,1.2,0.3     c0.4,0.2,0.6,0.5,0.9,0.9s0.3,0.9,0.3,1.5c0,0.6-0.1,1.1-0.4,1.6s-0.6,0.8-1,1.1s-0.9,0.4-1.5,0.4c-0.5,0-1-0.1-1.4-0.3     c-0.4-0.2-0.7-0.5-0.9-0.9c-0.2-0.4-0.4-0.8-0.5-1.3c-0.1-0.5-0.2-1-0.2-1.6c0-1,0.1-1.8,0.4-2.5c0.3-0.7,0.7-1.3,1.2-1.7     S335,256,335.7,256z"
   id="path1329" />
		</g>
	</g>
</g>
<g
   id="13">
	<rect
   id="rect1628_9_"
   x="314.9"
   y="408.6"
   class="st12"
   width="129.5"
   height="151.7" />
	<g
   id="g1344">
		<g
   id="g1342">
			<path
   d="M329.1,418.9v8.3h-1.6v-6.6l-1.8,1.1l-0.7-1.1l2.7-1.6H329.1z M330.7,426.2v1.2h-5.3v-1.2H330.7z"
   id="path1338" />
			<path
   d="M334.8,418.7c0.6,0,1.1,0.1,1.5,0.3c0.4,0.2,0.7,0.5,1,0.8c0.2,0.3,0.3,0.7,0.3,1.1c0,0.4-0.1,0.7-0.2,0.9     c-0.1,0.3-0.3,0.5-0.6,0.7s-0.6,0.3-0.9,0.4c0.4,0,0.7,0.1,1,0.3c0.3,0.2,0.5,0.4,0.7,0.7c0.2,0.3,0.3,0.7,0.3,1.1     c0,0.5-0.1,0.9-0.4,1.3c-0.3,0.4-0.6,0.7-1.1,0.9c-0.5,0.2-1,0.3-1.7,0.3c-0.6,0-1.1-0.1-1.6-0.3c-0.5-0.2-0.9-0.5-1.3-0.9l1-0.9     c0.2,0.3,0.5,0.5,0.8,0.6c0.3,0.1,0.6,0.2,1,0.2c0.5,0,0.9-0.1,1.2-0.4c0.3-0.2,0.4-0.6,0.4-1c0-0.3-0.1-0.6-0.2-0.8     c-0.1-0.2-0.3-0.4-0.5-0.4c-0.2-0.1-0.5-0.1-0.8-0.1h-0.8l0.2-1.2h0.5c0.3,0,0.5,0,0.7-0.1c0.2-0.1,0.4-0.2,0.5-0.4     c0.1-0.2,0.2-0.4,0.2-0.7c0-0.4-0.1-0.7-0.4-0.9s-0.6-0.3-1-0.3c-0.4,0-0.7,0.1-0.9,0.2c-0.3,0.1-0.5,0.3-0.8,0.6l-0.8-0.9     c0.4-0.4,0.8-0.6,1.3-0.8S334.3,418.7,334.8,418.7z"
   id="path1340" />
		</g>
	</g>
</g>
<g
   id="12">
	<rect
   id="rect1628_10_"
   x="314.9"
   y="561.3"
   class="st12"
   width="129.5"
   height="136.3" />
	<g
   id="g1355">
		<g
   id="g1353">
			<path
   d="M329.1,569.2v8.3h-1.6v-6.6l-1.8,1.1l-0.7-1.1l2.7-1.6H329.1z M330.7,576.4v1.2h-5.3v-1.2H330.7z"
   id="path1349" />
			<path
   d="M334.9,569c0.6,0,1.1,0.1,1.5,0.3s0.7,0.5,0.9,0.9c0.2,0.4,0.3,0.8,0.3,1.2c0,0.4-0.1,0.7-0.2,1.1s-0.3,0.7-0.6,1.1     c-0.3,0.4-0.6,0.8-1.1,1.3c-0.5,0.5-1,1-1.7,1.6h3.8l-0.2,1.3h-5.4v-1.2c0.6-0.6,1.1-1.1,1.5-1.5c0.4-0.4,0.8-0.8,1.1-1.1     c0.3-0.3,0.5-0.6,0.7-0.9c0.2-0.3,0.3-0.5,0.4-0.7c0.1-0.2,0.1-0.5,0.1-0.7c0-0.4-0.1-0.7-0.3-0.9c-0.2-0.2-0.5-0.3-0.9-0.3     c-0.4,0-0.7,0.1-0.9,0.2c-0.2,0.1-0.5,0.4-0.7,0.7l-1-0.8c0.3-0.4,0.7-0.8,1.2-1C333.7,569.1,334.2,569,334.9,569z"
   id="path1351" />
		</g>
	</g>
</g>
<g
   id="11">
	<rect
   id="rect1628_11_"
   x="314.9"
   y="698.6"
   class="st12"
   width="129.5"
   height="119.2" />
	<g
   id="g1366">
		<g
   id="g1364">
			<path
   d="M329.1,706.4v8.3h-1.6v-6.6l-1.8,1.1l-0.7-1.1l2.7-1.6H329.1z M330.7,713.7v1.2h-5.3v-1.2H330.7z"
   id="path1360" />
			<path
   d="M336.5,706.4v8.3h-1.6v-6.6l-1.8,1.1l-0.7-1.1l2.7-1.6H336.5z M338.1,713.7v1.2h-5.3v-1.2H338.1z"
   id="path1362" />
		</g>
	</g>
</g>
<g
   id="10">
	<rect
   id="rect1628_12_"
   x="314.9"
   y="818.4"
   class="st12"
   width="129.5"
   height="71.9" />
	<g
   id="g1377">
		<g
   id="g1375">
			<path
   d="M329.1,828.5v8.3h-1.6v-6.6l-1.8,1.1l-0.7-1.1l2.7-1.6H329.1z M330.7,835.7v1.2h-5.3v-1.2H330.7z"
   id="path1371" />
			<path
   d="M335.2,828.3c1,0,1.7,0.4,2.2,1.2c0.5,0.8,0.8,1.9,0.8,3.3c0,1.4-0.2,2.5-0.8,3.3c-0.5,0.8-1.2,1.2-2.2,1.2     c-1,0-1.7-0.4-2.2-1.2c-0.5-0.8-0.7-1.9-0.7-3.3c0-1.4,0.2-2.5,0.7-3.3C333.5,828.7,334.2,828.3,335.2,828.3z M336.2,829.8l0.4,1     l-2.4,5l-0.5-0.8L336.2,829.8z M335.2,829.5c-0.5,0-0.8,0.2-1,0.7c-0.2,0.5-0.4,1.3-0.4,2.5c0,0.6,0,1.2,0.1,1.6     c0,0.4,0.1,0.8,0.2,1c0.1,0.2,0.3,0.4,0.4,0.5c0.2,0.1,0.4,0.2,0.7,0.2c0.3,0,0.6-0.1,0.8-0.3s0.4-0.6,0.5-1     c0.1-0.5,0.2-1.1,0.2-1.9c0-0.8,0-1.5-0.1-2c-0.1-0.5-0.2-0.8-0.4-1C335.8,829.6,335.5,829.5,335.2,829.5z"
   id="path1373" />
		</g>
	</g>
</g>
<g
   id="9">
	<rect
   id="rect1628_13_"
   x="314.9"
   y="890.6"
   class="st12"
   width="129.5"
   height="56.1" />
	<g
   id="g1386">
		<g
   id="g1384">
			<path
   d="M327.7,898.9c0.7,0,1.2,0.1,1.7,0.4c0.4,0.3,0.8,0.7,1,1.2c0.2,0.5,0.3,1.1,0.3,1.8c0,0.8-0.1,1.6-0.3,2.2     c-0.2,0.6-0.5,1.1-0.9,1.6c-0.4,0.4-0.9,0.8-1.5,1.1c-0.6,0.3-1.4,0.5-2.2,0.7l-0.3-1.2c0.8-0.2,1.4-0.4,1.9-0.7     c0.5-0.3,0.9-0.6,1.2-1c0.3-0.4,0.5-0.9,0.5-1.5l0-0.6c0-0.6,0-1.2-0.1-1.6c-0.1-0.4-0.2-0.7-0.4-0.9c-0.2-0.2-0.5-0.3-0.8-0.3     c-0.4,0-0.7,0.1-1,0.4c-0.2,0.3-0.3,0.7-0.3,1.3c0,0.6,0.1,1,0.3,1.2c0.2,0.2,0.5,0.4,0.9,0.4c0.3,0,0.6-0.1,0.9-0.2     c0.3-0.2,0.5-0.4,0.8-0.7l0,1c-0.3,0.3-0.6,0.6-0.9,0.8c-0.3,0.2-0.7,0.3-1.2,0.3c-0.5,0-0.9-0.1-1.2-0.3     c-0.4-0.2-0.7-0.5-0.9-0.9c-0.2-0.4-0.3-0.9-0.3-1.4c0-0.6,0.1-1.1,0.4-1.6c0.3-0.4,0.6-0.8,1.1-1     C326.7,899,327.2,898.9,327.7,898.9z"
   id="path1382" />
		</g>
	</g>
</g>
<g
   id="8">
	<rect
   id="rect1628_14_"
   x="314.9"
   y="946.4"
   class="st12"
   width="129.5"
   height="52.2" />
	<g
   id="g1395">
		<g
   id="g1393">
			<path
   d="M330.5,956.5c0,0.4-0.1,0.7-0.3,1c-0.2,0.3-0.6,0.6-1,0.8c0.6,0.3,1,0.6,1.3,1c0.3,0.4,0.4,0.8,0.4,1.3     c0,0.4-0.1,0.9-0.4,1.2c-0.2,0.4-0.6,0.7-1,0.9c-0.5,0.2-1,0.3-1.7,0.3c-0.7,0-1.2-0.1-1.7-0.3c-0.5-0.2-0.8-0.5-1-0.9     c-0.2-0.4-0.3-0.8-0.3-1.2c0-0.5,0.1-0.9,0.4-1.3s0.7-0.7,1.2-0.9c-0.4-0.3-0.8-0.5-1-0.8s-0.3-0.7-0.3-1.2c0-0.4,0.1-0.7,0.2-1     c0.1-0.3,0.3-0.5,0.6-0.7s0.5-0.3,0.9-0.4s0.7-0.2,1-0.2c0.4,0,0.7,0,1.1,0.1c0.3,0.1,0.6,0.2,0.9,0.4c0.2,0.2,0.4,0.4,0.6,0.7     S330.5,956.2,330.5,956.5z M329.2,960.7c0-0.3-0.1-0.6-0.2-0.8c-0.1-0.2-0.3-0.4-0.6-0.5c-0.3-0.1-0.6-0.3-1-0.4     c-0.2,0.1-0.4,0.2-0.5,0.4c-0.1,0.2-0.3,0.3-0.4,0.5c-0.1,0.2-0.1,0.4-0.1,0.7c0,0.4,0.1,0.7,0.4,1c0.2,0.2,0.6,0.4,1.1,0.4     c0.5,0,0.8-0.1,1.1-0.4S329.2,961,329.2,960.7z M326.6,956.6c0,0.2,0.1,0.5,0.2,0.6s0.3,0.3,0.5,0.4c0.2,0.1,0.5,0.2,0.8,0.4     c0.3-0.2,0.5-0.4,0.7-0.6c0.1-0.2,0.2-0.5,0.2-0.7c0-0.3-0.1-0.6-0.3-0.8c-0.2-0.2-0.5-0.3-0.9-0.3c-0.4,0-0.7,0.1-0.9,0.3     S326.6,956.2,326.6,956.6z"
   id="path1391" />
		</g>
	</g>
</g>
<g
   id="7">
	<rect
   id="rect1628_15_"
   x="314.9"
   y="998.2"
   class="st12"
   width="129.5"
   height="57.4" />
	<g
   id="g1404">
		<g
   id="g1402">
			<path
   d="M325.1,1015.6l-1.5-0.5l3.2-6.9H323v-1.3h5.5v1.1L325.1,1015.6z"
   id="path1400" />
		</g>
	</g>
</g>
</svg>
