<?xml version="1.0" encoding="UTF-8" standalone="no"?>
<!-- Generator: Adobe Illustrator 25.2.1, SVG Export Plug-In . SVG Version: 6.00 Build 0)  -->

<svg
   version="1.1"
   id="Layer_1"
   x="0px"
   y="0px"
   viewBox="0 0 1400 2200"
   style="enable-background:new 0 0 1400 2200;"
   xml:space="preserve"
   sodipodi:docname="third_floor.svg"
   inkscape:version="1.1.2 (b8e25be833, 2022-02-05)"
   xmlns:inkscape="http://www.inkscape.org/namespaces/inkscape"
   xmlns:sodipodi="http://sodipodi.sourceforge.net/DTD/sodipodi-0.dtd"
   xmlns="http://www.w3.org/2000/svg"
   xmlns:svg="http://www.w3.org/2000/svg"><defs
   id="defs19218" />
<style
   type="text/css"
   id="style18700">
	.st0{fill:#999999;stroke:#000000;stroke-miterlimit:10;}
	.st1{fill:#999999;stroke:#000000;stroke-width:1;stroke-miterlimit:10.001;}
	.st2{fill:none;stroke:#000000;stroke-width:0.5;stroke-miterlimit:9.999;}
	.st3{fill:#999999;stroke:#000000;stroke-width:0.5;stroke-miterlimit:9.999;}
	.st4{fill:#999999;stroke:#000000;stroke-width:0.5;stroke-miterlimit:10;}
	.st5{fill:#74BEFF;stroke:#000000;stroke-width:1;stroke-miterlimit:10.0002;}
	.st6{fill:#74BEFF;stroke:#000000;stroke-miterlimit:10;}
	.st7{fill:#FFC62A;stroke:#000000;stroke-miterlimit:10;}
	.st8{fill:#FFC62A;stroke:#000000;stroke-width:1;stroke-miterlimit:10.0002;}
	.st9{fill:#74BEFF;stroke:#000000;stroke-width:1;stroke-miterlimit:9.999;}
	.st10{fill:#FFF6AA;stroke:#000000;stroke-width:1;stroke-miterlimit:9.9998;}
	.st11{fill:#FFF6AA;stroke:#000000;stroke-width:1;stroke-miterlimit:10.0004;}
	.st12{fill:#FFF6AA;stroke:#000000;stroke-miterlimit:10;}
</style>
<sodipodi:namedview
   bordercolor="#666666"
   borderopacity="1.0"
   id="namedview2041"
   inkscape:current-layer="Layer_1"
   inkscape:cx="525.5"
   inkscape:cy="1703"
   inkscape:pagecheckerboard="0"
   inkscape:pageopacity="0.0"
   inkscape:pageshadow="2"
   inkscape:window-height="1017"
   inkscape:window-maximized="1"
   inkscape:window-width="1920"
   inkscape:window-x="-8"
   inkscape:window-y="-8"
   inkscape:zoom="1"
   pagecolor="#ffffff"
   showgrid="false">
	</sodipodi:namedview>
<g
   id="Layer_2_1_">
	<g
   id="Layer_1-2">
		<rect
   id="rect1608"
   x="445.5"
   y="31.5"
   class="st0"
   width="373"
   height="1226" />
		<path
   class="st0"
   d="M445.5,1326.6c0,0.3,0,0.7,0,1v215.9h373v-286h-373v68.8C445.5,1326.4,445.5,1326.5,445.5,1326.6"
   id="path18704" />
		
			<rect
   id="rect1612"
   x="656.6"
   y="1446.7"
   transform="matrix(0.9505 -0.3108 0.3108 0.9505 -518.5047 336.0451)"
   class="st1"
   width="277.2"
   height="696.6" />
		
			<rect
   id="rect1614"
   x="468.5"
   y="1521.1"
   transform="matrix(0.9505 -0.3108 0.3108 0.9505 -472.6165 243.0212)"
   class="st1"
   width="115.5"
   height="166.8" />
		<path
   class="st0"
   d="M445.1,1323.3c0.2,1,0.3,2,0.4,3v-226.8h-1"
   id="path18708" />
		<path
   class="st0"
   d="M444.9,1322.6c0.1,0.3,0.1,0.5,0.2,0.8"
   id="path18710" />
		<path
   class="st0"
   d="M444.9,1322.4c0,0.1,0,0.1,0,0.2"
   id="path18712" />
		<path
   class="st0"
   d="M444.7,1321.9c0.1,0.2,0.1,0.3,0.2,0.5"
   id="path18714" />
	</g>
</g>
<rect
   id="rect1676"
   x="445.1"
   y="1525.3"
   transform="matrix(0.9495 -0.3137 0.3137 0.9495 -455.1528 235.0029)"
   class="st2"
   width="115.1"
   height="13" />
<rect
   id="rect1678"
   x="449"
   y="1537.9"
   transform="matrix(0.9495 -0.3137 0.3137 0.9495 -458.9086 236.8624)"
   class="st2"
   width="115.1"
   height="13" />
<rect
   id="rect1680"
   x="453"
   y="1550.1"
   transform="matrix(0.9495 -0.3137 0.3137 0.9495 -462.5338 238.733)"
   class="st2"
   width="115.1"
   height="13" />
<rect
   id="rect1682"
   x="457"
   y="1562.4"
   transform="matrix(0.9495 -0.3137 0.3137 0.9495 -466.1904 240.6087)"
   class="st2"
   width="115.1"
   height="13" />
<rect
   id="rect1684"
   x="461"
   y="1574.3"
   transform="matrix(0.9495 -0.3137 0.3137 0.9495 -469.7215 242.4642)"
   class="st2"
   width="115.1"
   height="13" />
<rect
   id="rect1686"
   x="465.4"
   y="1586.4"
   transform="matrix(0.9495 -0.3137 0.3137 0.9495 -473.2953 244.4553)"
   class="st2"
   width="115.1"
   height="13" />
<rect
   id="rect1688"
   x="469.4"
   y="1598.4"
   transform="matrix(0.9495 -0.3137 0.3137 0.9495 -476.8577 246.3159)"
   class="st2"
   width="115.1"
   height="13" />
<rect
   id="rect1690"
   x="473.4"
   y="1611.2"
   transform="matrix(0.9495 -0.3137 0.3137 0.9495 -480.6711 248.2168)"
   class="st2"
   width="115.1"
   height="13" />
<rect
   id="rect1692"
   x="499.9"
   y="1523.7"
   transform="matrix(0.9495 -0.3137 0.3137 0.9495 -468.2481 241.0204)"
   class="st3"
   width="29.8"
   height="103.6" />
<rect
   id="rect1694"
   x="562.5"
   y="31.5"
   class="st0"
   width="16"
   height="124" />
<rect
   id="rect1696"
   x="546.5"
   y="31.5"
   class="st0"
   width="16"
   height="124" />
<rect
   id="rect1698"
   x="530.5"
   y="31.5"
   class="st4"
   width="16"
   height="124" />
<rect
   id="rect1700"
   x="514.5"
   y="31.5"
   class="st0"
   width="16"
   height="124" />
<rect
   id="rect1702"
   x="498.5"
   y="31.5"
   class="st0"
   width="16"
   height="124" />
<rect
   id="rect1704"
   x="498.5"
   y="72.5"
   class="st0"
   width="80"
   height="36" />

<rect
   id="rect1630_16_"
   x="596.4"
   y="1487.1"
   transform="matrix(0.9503 -0.3114 0.3114 0.9503 -437.0652 266.4828)"
   class="st5"
   width="39.2"
   height="29.7" />
<g
   id="424">
	<rect
   id="rect1674"
   x="685.5"
   y="31.5"
   class="st6"
   width="133"
   height="67" />
	<g
   id="g1844">
		<g
   id="g1842">
			<path
   id="path1838"
   d="M771.3,59.6l-1.7,12.8h-2.8l-1.1-9.3l-1.2,9.3h-2.8l-1.5-12.8h2.4l0.8,10.5l1.2-9h2.4l1.2,9l0.9-10.5     C769.1,59.6,771.3,59.6,771.3,59.6z" />
			<path
   id="path1840"
   d="M777.9,59.3c0.9,0,1.6,0.1,2.3,0.3c0.6,0.2,1.2,0.6,1.7,1l-1.3,1.5c-0.4-0.3-0.8-0.5-1.2-0.7     c-0.4-0.2-0.9-0.2-1.4-0.2c-0.6,0-1.1,0.2-1.6,0.5s-0.9,0.8-1.2,1.5c-0.3,0.7-0.4,1.6-0.4,2.7s0.1,2,0.4,2.7s0.7,1.2,1.2,1.5     s1.1,0.5,1.7,0.5c0.7,0,1.2-0.1,1.7-0.4c0.4-0.2,0.8-0.5,1.2-0.8l1.2,1.5c-0.4,0.4-1,0.8-1.7,1.1s-1.5,0.5-2.5,0.5     c-1.1,0-2.1-0.3-3-0.8s-1.6-1.3-2.1-2.3s-0.7-2.2-0.7-3.7c0-1.4,0.3-2.6,0.8-3.6s1.2-1.7,2.1-2.2S776.9,59.3,777.9,59.3z" />
		</g>
	</g>
	<g
   id="g18748">
		<g
   id="g18746">
			<path
   d="M696.2,40.4l1.4,0.5l-2.1,5.1h4.4v1.2h-6v-1.1L696.2,40.4z M698.9,43.8v5.3h-1.6l0-2.9l0.2-2.4H698.9z"
   id="path18740" />
			<path
   d="M703.9,40.4c0.6,0,1.1,0.1,1.5,0.3c0.4,0.2,0.7,0.5,0.9,0.9c0.2,0.4,0.3,0.8,0.3,1.2c0,0.4-0.1,0.7-0.2,1.1     s-0.3,0.7-0.6,1.1c-0.3,0.4-0.6,0.8-1.1,1.3c-0.5,0.5-1,1-1.7,1.6h3.8l-0.2,1.3h-5.4v-1.2c0.6-0.6,1.1-1.1,1.5-1.5     c0.4-0.4,0.8-0.8,1.1-1.1c0.3-0.3,0.5-0.6,0.7-0.9c0.2-0.3,0.3-0.5,0.4-0.7c0.1-0.2,0.1-0.5,0.1-0.7c0-0.4-0.1-0.7-0.3-0.9     s-0.5-0.3-0.9-0.3c-0.4,0-0.7,0.1-0.9,0.2c-0.2,0.1-0.5,0.4-0.7,0.7l-1-0.8c0.3-0.4,0.7-0.8,1.2-1     C702.7,40.5,703.3,40.4,703.9,40.4z"
   id="path18742" />
			<path
   d="M711,40.4l1.4,0.5l-2.1,5.1h4.4v1.2h-6v-1.1L711,40.4z M713.7,43.8v5.3h-1.6l0-2.9l0.2-2.4H713.7z"
   id="path18744" />
		</g>
	</g>
</g>
<g
   id="425">
	<rect
   id="rect1672"
   x="685.5"
   y="98.5"
   class="st6"
   width="133"
   height="91" />
	<g
   id="g1852">
		<g
   id="g1850">
			<path
   id="path1846"
   d="M770.3,137.6l-1.7,12.8h-2.8l-1.1-9.3l-1.2,9.3h-2.8l-1.5-12.8h2.4l0.8,10.5l1.2-9h2.4l1.2,9l0.9-10.5     H770.3z" />
			<path
   id="path1848"
   d="M776.9,137.4c0.9,0,1.6,0.1,2.3,0.3c0.6,0.2,1.2,0.6,1.7,1l-1.3,1.5c-0.4-0.3-0.8-0.5-1.2-0.7     c-0.4-0.2-0.9-0.2-1.4-0.2c-0.6,0-1.1,0.2-1.6,0.5s-0.9,0.8-1.2,1.5c-0.3,0.7-0.4,1.6-0.4,2.7c0,1.1,0.1,2,0.4,2.7     s0.7,1.2,1.2,1.5s1.1,0.5,1.7,0.5c0.7,0,1.2-0.1,1.7-0.4c0.4-0.2,0.8-0.5,1.2-0.8l1.2,1.5c-0.4,0.4-1,0.8-1.7,1.1     s-1.5,0.5-2.5,0.5c-1.1,0-2.1-0.3-3-0.8s-1.6-1.3-2.1-2.3s-0.7-2.2-0.7-3.7c0-1.4,0.3-2.6,0.8-3.6s1.2-1.7,2.1-2.2     S775.8,137.4,776.9,137.4z" />
		</g>
	</g>
	<g
   id="g18765">
		<g
   id="g18763">
			<path
   d="M695.6,105.5l1.4,0.5l-2.1,5.1h4.4v1.2h-6v-1.1L695.6,105.5z M698.3,108.9v5.3h-1.6l0-2.9l0.2-2.4H698.3z"
   id="path18757" />
			<path
   d="M703.3,105.5c0.6,0,1.1,0.1,1.5,0.3c0.4,0.2,0.7,0.5,0.9,0.9c0.2,0.4,0.3,0.8,0.3,1.2c0,0.4-0.1,0.7-0.2,1.1     s-0.3,0.7-0.6,1.1c-0.3,0.4-0.6,0.8-1.1,1.3c-0.5,0.5-1,1-1.7,1.6h3.8l-0.2,1.3h-5.4V113c0.6-0.6,1.1-1.1,1.5-1.5     c0.4-0.4,0.8-0.8,1.1-1.1c0.3-0.3,0.5-0.6,0.7-0.9c0.2-0.3,0.3-0.5,0.4-0.7c0.1-0.2,0.1-0.5,0.1-0.7c0-0.4-0.1-0.7-0.3-0.9     s-0.5-0.3-0.9-0.3c-0.4,0-0.7,0.1-0.9,0.2c-0.2,0.1-0.5,0.4-0.7,0.7l-1-0.8c0.3-0.4,0.7-0.8,1.2-1     C702.1,105.6,702.6,105.5,703.3,105.5z"
   id="path18759" />
			<path
   d="M713.5,105.6l-0.2,1.2h-3.2v2.1c0.2-0.1,0.5-0.2,0.7-0.2c0.2,0,0.4-0.1,0.7-0.1c0.4,0,0.8,0.1,1.2,0.3     c0.4,0.2,0.6,0.5,0.8,0.9s0.3,0.9,0.3,1.5s-0.1,1.1-0.4,1.5c-0.3,0.4-0.6,0.8-1.1,1c-0.5,0.3-1,0.4-1.7,0.4     c-0.6,0-1.1-0.1-1.5-0.3s-0.8-0.5-1.2-0.9l0.9-0.9c0.2,0.3,0.5,0.5,0.8,0.6s0.6,0.2,0.9,0.2c0.5,0,0.9-0.1,1.2-0.4     s0.4-0.7,0.4-1.2c0-0.4-0.1-0.7-0.2-0.9c-0.1-0.2-0.3-0.4-0.5-0.5c-0.2-0.1-0.4-0.2-0.7-0.2c-0.2,0-0.4,0-0.6,0.1     s-0.4,0.1-0.6,0.2h-1.1v-4.5H713.5z"
   id="path18761" />
		</g>
	</g>
</g>
<g
   id="426">
	<rect
   id="rect1630_4_"
   x="685.5"
   y="189.3"
   class="st7"
   width="133"
   height="110.7" />
	<g
   id="g18778">
		<g
   id="g18776">
			<path
   d="M694.9,197l1.4,0.5l-2.1,5.1h4.4v1.2h-6v-1.1L694.9,197z M697.6,200.4v5.3H696l0-2.9l0.2-2.4H697.6z"
   id="path18770" />
			<path
   d="M702.6,197c0.6,0,1.1,0.1,1.5,0.3c0.4,0.2,0.7,0.5,0.9,0.9c0.2,0.4,0.3,0.8,0.3,1.2c0,0.4-0.1,0.7-0.2,1.1     s-0.3,0.7-0.6,1.1c-0.3,0.4-0.6,0.8-1.1,1.3c-0.5,0.5-1,1-1.7,1.6h3.8l-0.2,1.3H700v-1.2c0.6-0.6,1.1-1.1,1.5-1.5     c0.4-0.4,0.8-0.8,1.1-1.1c0.3-0.3,0.5-0.6,0.7-0.9c0.2-0.3,0.3-0.5,0.4-0.7c0.1-0.2,0.1-0.5,0.1-0.7c0-0.4-0.1-0.7-0.3-0.9     s-0.5-0.3-0.9-0.3c-0.4,0-0.7,0.1-0.9,0.2c-0.2,0.1-0.5,0.4-0.7,0.7l-1-0.8c0.3-0.4,0.7-0.8,1.2-1     C701.4,197.1,701.9,197,702.6,197z"
   id="path18772" />
			<path
   d="M710.9,197c0.4,0,0.7,0,1,0.1c0.3,0.1,0.6,0.2,0.8,0.4l-0.6,1c-0.2-0.1-0.4-0.2-0.6-0.3c-0.2-0.1-0.4-0.1-0.6-0.1     c-0.4,0-0.7,0.1-1,0.4c-0.3,0.2-0.5,0.6-0.6,1c-0.2,0.5-0.2,1-0.2,1.6l0,0.5c0,1,0.1,1.7,0.3,2.2c0.2,0.5,0.6,0.7,1.1,0.7     c0.4,0,0.7-0.2,0.9-0.5s0.3-0.8,0.3-1.3c0-0.4,0-0.7-0.1-1s-0.2-0.4-0.4-0.5c-0.2-0.1-0.4-0.2-0.6-0.2c-0.3,0-0.6,0.1-0.9,0.3     c-0.3,0.2-0.5,0.4-0.7,0.7l0-1.1c0.3-0.4,0.6-0.6,0.9-0.8s0.7-0.3,1.1-0.3c0.4,0,0.8,0.1,1.2,0.3c0.4,0.2,0.6,0.5,0.9,0.9     c0.2,0.4,0.3,0.9,0.3,1.5c0,0.6-0.1,1.1-0.4,1.6c-0.2,0.5-0.6,0.8-1,1.1s-0.9,0.4-1.5,0.4c-0.5,0-1-0.1-1.4-0.3     c-0.4-0.2-0.7-0.5-0.9-0.9c-0.2-0.4-0.4-0.8-0.5-1.3c-0.1-0.5-0.2-1-0.2-1.6c0-1,0.1-1.8,0.4-2.5c0.3-0.7,0.7-1.3,1.2-1.7     C709.5,197.2,710.1,197,710.9,197z"
   id="path18774" />
		</g>
	</g>
</g>
<g
   id="428">
	<rect
   id="rect1630_1_"
   x="685.5"
   y="426.2"
   class="st7"
   width="133"
   height="116.8" />
	<g
   id="g18791">
		<g
   id="g18789">
			<path
   d="M695.6,432.4l1.4,0.5l-2.1,5.1h4.4v1.2h-6v-1.1L695.6,432.4z M698.3,435.8v5.3h-1.6l0-2.9l0.2-2.4H698.3z"
   id="path18783" />
			<path
   d="M703.3,432.4c0.6,0,1.1,0.1,1.5,0.3c0.4,0.2,0.7,0.5,0.9,0.9c0.2,0.4,0.3,0.8,0.3,1.2c0,0.4-0.1,0.7-0.2,1.1     s-0.3,0.7-0.6,1.1c-0.3,0.4-0.6,0.8-1.1,1.3c-0.5,0.5-1,1-1.7,1.6h3.8l-0.2,1.3h-5.4v-1.2c0.6-0.6,1.1-1.1,1.5-1.5     c0.4-0.4,0.8-0.8,1.1-1.1c0.3-0.3,0.5-0.6,0.7-0.9c0.2-0.3,0.3-0.5,0.4-0.7c0.1-0.2,0.1-0.5,0.1-0.7c0-0.4-0.1-0.7-0.3-0.9     s-0.5-0.3-0.9-0.3c-0.4,0-0.7,0.1-0.9,0.2c-0.2,0.1-0.5,0.4-0.7,0.7l-1-0.8c0.3-0.4,0.7-0.8,1.2-1     C702.1,432.5,702.6,432.4,703.3,432.4z"
   id="path18785" />
			<path
   d="M713.7,434.6c0,0.4-0.1,0.7-0.3,1c-0.2,0.3-0.6,0.6-1,0.8c0.6,0.3,1,0.6,1.3,1s0.4,0.8,0.4,1.3c0,0.4-0.1,0.9-0.4,1.2     s-0.6,0.7-1,0.9c-0.5,0.2-1,0.3-1.7,0.3c-0.7,0-1.2-0.1-1.7-0.3s-0.8-0.5-1-0.9c-0.2-0.4-0.3-0.8-0.3-1.2c0-0.5,0.1-0.9,0.4-1.3     s0.7-0.7,1.2-0.9c-0.4-0.3-0.8-0.5-1-0.8s-0.3-0.7-0.3-1.2c0-0.4,0.1-0.7,0.2-1s0.3-0.5,0.6-0.7c0.3-0.2,0.5-0.3,0.9-0.4     c0.3-0.1,0.7-0.2,1-0.2c0.4,0,0.7,0,1.1,0.1c0.3,0.1,0.6,0.2,0.9,0.4s0.4,0.4,0.6,0.7C713.6,433.9,713.7,434.3,713.7,434.6z      M712.4,438.8c0-0.3-0.1-0.6-0.2-0.8c-0.1-0.2-0.3-0.4-0.6-0.5c-0.3-0.1-0.6-0.3-1-0.4c-0.2,0.1-0.4,0.2-0.5,0.4     c-0.1,0.2-0.3,0.3-0.4,0.5c-0.1,0.2-0.1,0.4-0.1,0.7c0,0.4,0.1,0.7,0.4,1c0.2,0.2,0.6,0.4,1.1,0.4c0.5,0,0.8-0.1,1.1-0.4     C712.3,439.5,712.4,439.2,712.4,438.8z M709.8,434.7c0,0.2,0.1,0.5,0.2,0.6c0.1,0.2,0.3,0.3,0.5,0.4c0.2,0.1,0.5,0.2,0.8,0.4     c0.3-0.2,0.5-0.4,0.7-0.6c0.1-0.2,0.2-0.5,0.2-0.7c0-0.3-0.1-0.6-0.3-0.8s-0.5-0.3-0.9-0.3c-0.4,0-0.7,0.1-0.9,0.3     C709.9,434,709.8,434.3,709.8,434.7z"
   id="path18787" />
		</g>
	</g>
</g>
<g
   id="430">
	<rect
   id="rect1630_5_"
   x="685.5"
   y="655.2"
   class="st7"
   width="133"
   height="121.1" />
	<g
   id="g18804">
		<g
   id="g18802">
			<path
   d="M696.2,662.9l1.4,0.5l-2.1,5.1h4.4v1.2h-6v-1.1L696.2,662.9z M698.9,666.3v5.3h-1.6l0-2.9l0.2-2.4H698.9z"
   id="path18796" />
			<path
   d="M703.9,662.9c0.6,0,1.1,0.1,1.5,0.3c0.4,0.2,0.7,0.5,1,0.8c0.2,0.3,0.3,0.7,0.3,1.1c0,0.4-0.1,0.7-0.2,0.9     c-0.1,0.3-0.3,0.5-0.6,0.7c-0.3,0.2-0.6,0.3-0.9,0.4c0.4,0,0.7,0.1,1,0.3c0.3,0.2,0.5,0.4,0.7,0.7c0.2,0.3,0.3,0.7,0.3,1.1     c0,0.5-0.1,0.9-0.4,1.3c-0.3,0.4-0.6,0.7-1.1,0.9s-1,0.3-1.7,0.3c-0.6,0-1.1-0.1-1.6-0.3c-0.5-0.2-0.9-0.5-1.3-0.9l1-0.9     c0.2,0.3,0.5,0.5,0.8,0.6c0.3,0.1,0.6,0.2,1,0.2c0.5,0,0.9-0.1,1.2-0.4c0.3-0.2,0.4-0.6,0.4-1c0-0.3-0.1-0.6-0.2-0.8     s-0.3-0.4-0.5-0.4c-0.2-0.1-0.5-0.1-0.8-0.1H703l0.2-1.2h0.5c0.3,0,0.5,0,0.7-0.1c0.2-0.1,0.4-0.2,0.5-0.4s0.2-0.4,0.2-0.7     c0-0.4-0.1-0.7-0.4-0.9c-0.3-0.2-0.6-0.3-1-0.3c-0.4,0-0.7,0.1-0.9,0.2c-0.3,0.1-0.5,0.3-0.8,0.6l-0.8-0.9     c0.4-0.4,0.8-0.6,1.3-0.8C702.9,663,703.4,662.9,703.9,662.9z"
   id="path18798" />
			<path
   d="M711.6,662.9c1,0,1.7,0.4,2.2,1.2c0.5,0.8,0.8,1.9,0.8,3.3c0,1.4-0.3,2.5-0.8,3.3c-0.5,0.8-1.2,1.2-2.2,1.2     c-1,0-1.7-0.4-2.2-1.2c-0.5-0.8-0.7-1.9-0.7-3.3c0-1.4,0.2-2.5,0.7-3.3C709.9,663.3,710.6,662.9,711.6,662.9z M712.7,664.4l0.4,1     l-2.4,5l-0.5-0.8L712.7,664.4z M711.6,664.1c-0.5,0-0.8,0.2-1,0.7c-0.2,0.5-0.4,1.3-0.4,2.5c0,0.6,0,1.2,0.1,1.6     c0,0.4,0.1,0.8,0.2,1c0.1,0.2,0.3,0.4,0.4,0.5c0.2,0.1,0.4,0.2,0.7,0.2c0.3,0,0.6-0.1,0.8-0.3s0.4-0.6,0.5-1     c0.1-0.5,0.2-1.1,0.2-1.9c0-0.8,0-1.5-0.1-2s-0.2-0.8-0.4-1C712.3,664.2,712,664.1,711.6,664.1z"
   id="path18800" />
		</g>
	</g>
</g>
<g
   id="432">
	<rect
   id="rect1630_17_"
   x="685.5"
   y="922.4"
   class="st7"
   width="133"
   height="121.1" />
	<g
   id="g18817">
		<g
   id="g18815">
			<path
   d="M696.2,930.2l1.4,0.5l-2.1,5.1h4.4v1.2h-6v-1.1L696.2,930.2z M698.9,933.6v5.3h-1.6l0-2.9l0.2-2.4H698.9z"
   id="path18809" />
			<path
   d="M703.9,930.2c0.6,0,1.1,0.1,1.5,0.3c0.4,0.2,0.7,0.5,1,0.8c0.2,0.3,0.3,0.7,0.3,1.1c0,0.4-0.1,0.7-0.2,0.9     c-0.1,0.3-0.3,0.5-0.6,0.7c-0.3,0.2-0.6,0.3-0.9,0.4c0.4,0,0.7,0.1,1,0.3c0.3,0.2,0.5,0.4,0.7,0.7c0.2,0.3,0.3,0.7,0.3,1.1     c0,0.5-0.1,0.9-0.4,1.3c-0.3,0.4-0.6,0.7-1.1,0.9s-1,0.3-1.7,0.3c-0.6,0-1.1-0.1-1.6-0.3c-0.5-0.2-0.9-0.5-1.3-0.9l1-0.9     c0.2,0.3,0.5,0.5,0.8,0.6c0.3,0.1,0.6,0.2,1,0.2c0.5,0,0.9-0.1,1.2-0.4c0.3-0.2,0.4-0.6,0.4-1c0-0.3-0.1-0.6-0.2-0.8     s-0.3-0.4-0.5-0.4c-0.2-0.1-0.5-0.1-0.8-0.1H703l0.2-1.2h0.5c0.3,0,0.5,0,0.7-0.1c0.2-0.1,0.4-0.2,0.5-0.4s0.2-0.4,0.2-0.7     c0-0.4-0.1-0.7-0.4-0.9c-0.3-0.2-0.6-0.3-1-0.3c-0.4,0-0.7,0.1-0.9,0.2c-0.3,0.1-0.5,0.3-0.8,0.6l-0.8-0.9     c0.4-0.4,0.8-0.6,1.3-0.8C702.9,930.3,703.4,930.2,703.9,930.2z"
   id="path18811" />
			<path
   d="M711.3,930.2c0.6,0,1.1,0.1,1.5,0.3c0.4,0.2,0.7,0.5,0.9,0.9c0.2,0.4,0.3,0.8,0.3,1.2c0,0.4-0.1,0.7-0.2,1.1     s-0.3,0.7-0.6,1.1c-0.3,0.4-0.6,0.8-1.1,1.3c-0.5,0.5-1,1-1.7,1.6h3.8l-0.2,1.3h-5.4v-1.2c0.6-0.6,1.1-1.1,1.5-1.5     c0.4-0.4,0.8-0.8,1.1-1.1c0.3-0.3,0.5-0.6,0.7-0.9c0.2-0.3,0.3-0.5,0.4-0.7c0.1-0.2,0.1-0.5,0.1-0.7c0-0.4-0.1-0.7-0.3-0.9     s-0.5-0.3-0.9-0.3c-0.4,0-0.7,0.1-0.9,0.2c-0.2,0.1-0.5,0.4-0.7,0.7l-1-0.8c0.3-0.4,0.7-0.8,1.2-1     C710.1,930.3,710.7,930.2,711.3,930.2z"
   id="path18813" />
		</g>
	</g>
</g>
<g
   id="422">
	<rect
   id="rect1630"
   x="445.5"
   y="153.8"
   class="st7"
   width="133"
   height="165" />
	<g
   id="g18830">
		<g
   id="g18828">
			<path
   d="M455.7,162.9l1.4,0.5l-2.1,5.1h4.4v1.2h-6v-1.1L455.7,162.9z M458.4,166.3v5.3h-1.6l0-2.9l0.2-2.4H458.4z"
   id="path18822" />
			<path
   d="M463.4,162.9c0.6,0,1.1,0.1,1.5,0.3c0.4,0.2,0.7,0.5,0.9,0.9c0.2,0.4,0.3,0.8,0.3,1.2c0,0.4-0.1,0.7-0.2,1.1     s-0.3,0.7-0.6,1.1c-0.3,0.4-0.6,0.8-1.1,1.3c-0.5,0.5-1,1-1.7,1.6h3.8l-0.2,1.3h-5.4v-1.2c0.6-0.6,1.1-1.1,1.5-1.5     c0.4-0.4,0.8-0.8,1.1-1.1c0.3-0.3,0.5-0.6,0.7-0.9c0.2-0.3,0.3-0.5,0.4-0.7c0.1-0.2,0.1-0.5,0.1-0.7c0-0.4-0.1-0.7-0.3-0.9     s-0.5-0.3-0.9-0.3c-0.4,0-0.7,0.1-0.9,0.2c-0.2,0.1-0.5,0.4-0.7,0.7l-1-0.8c0.3-0.4,0.7-0.8,1.2-1     C462.2,163,462.8,162.9,463.4,162.9z"
   id="path18824" />
			<path
   d="M470.8,162.9c0.6,0,1.1,0.1,1.5,0.3c0.4,0.2,0.7,0.5,0.9,0.9c0.2,0.4,0.3,0.8,0.3,1.2c0,0.4-0.1,0.7-0.2,1.1     s-0.3,0.7-0.6,1.1c-0.3,0.4-0.6,0.8-1.1,1.3c-0.5,0.5-1,1-1.7,1.6h3.8l-0.2,1.3h-5.4v-1.2c0.6-0.6,1.1-1.1,1.5-1.5     c0.4-0.4,0.8-0.8,1.1-1.1c0.3-0.3,0.5-0.6,0.7-0.9c0.2-0.3,0.3-0.5,0.4-0.7c0.1-0.2,0.1-0.5,0.1-0.7c0-0.4-0.1-0.7-0.3-0.9     s-0.5-0.3-0.9-0.3c-0.4,0-0.7,0.1-0.9,0.2c-0.2,0.1-0.5,0.4-0.7,0.7l-1-0.8c0.3-0.4,0.7-0.8,1.2-1     C469.6,163,470.2,162.9,470.8,162.9z"
   id="path18826" />
		</g>
	</g>
</g>
<g
   id="420">
	<rect
   id="rect1630_6_"
   x="445.2"
   y="441.1"
   class="st7"
   width="133"
   height="165" />
	<g
   id="g18843">
		<g
   id="g18841">
			<path
   d="M456.4,451.3l1.4,0.5l-2.1,5.1h4.4v1.2h-6V457L456.4,451.3z M459.1,454.7v5.3h-1.6l0-2.9l0.2-2.4H459.1z"
   id="path18835" />
			<path
   d="M464.1,451.3c0.6,0,1.1,0.1,1.5,0.3c0.4,0.2,0.7,0.5,0.9,0.9c0.2,0.4,0.3,0.8,0.3,1.2c0,0.4-0.1,0.7-0.2,1.1     s-0.3,0.7-0.6,1.1c-0.3,0.4-0.6,0.8-1.1,1.3c-0.5,0.5-1,1-1.7,1.6h3.8l-0.2,1.3h-5.4v-1.2c0.6-0.6,1.1-1.1,1.5-1.5     c0.4-0.4,0.8-0.8,1.1-1.1c0.3-0.3,0.5-0.6,0.7-0.9c0.2-0.3,0.3-0.5,0.4-0.7c0.1-0.2,0.1-0.5,0.1-0.7c0-0.4-0.1-0.7-0.3-0.9     s-0.5-0.3-0.9-0.3c-0.4,0-0.7,0.1-0.9,0.2c-0.2,0.1-0.5,0.4-0.7,0.7l-1-0.8c0.3-0.4,0.7-0.8,1.2-1     C462.9,451.4,463.4,451.3,464.1,451.3z"
   id="path18837" />
			<path
   d="M471.8,451.3c1,0,1.7,0.4,2.2,1.2c0.5,0.8,0.8,1.9,0.8,3.3c0,1.4-0.3,2.5-0.8,3.3c-0.5,0.8-1.2,1.2-2.2,1.2     c-1,0-1.7-0.4-2.2-1.2c-0.5-0.8-0.7-1.9-0.7-3.3c0-1.4,0.2-2.5,0.7-3.3C470.1,451.7,470.8,451.3,471.8,451.3z M472.9,452.8l0.4,1     l-2.4,5l-0.5-0.8L472.9,452.8z M471.8,452.5c-0.5,0-0.8,0.2-1,0.7c-0.2,0.5-0.4,1.3-0.4,2.5c0,0.6,0,1.2,0.1,1.6     c0,0.4,0.1,0.8,0.2,1c0.1,0.2,0.3,0.4,0.4,0.5c0.2,0.1,0.4,0.2,0.7,0.2c0.3,0,0.6-0.1,0.8-0.3s0.4-0.6,0.5-1     c0.1-0.5,0.2-1.1,0.2-1.9c0-0.8,0-1.5-0.1-2s-0.2-0.8-0.4-1C472.4,452.6,472.1,452.5,471.8,452.5z"
   id="path18839" />
		</g>
	</g>
</g>
<g
   id="417">
	<rect
   id="rect1630_2_"
   x="445.2"
   y="919.3"
   class="st7"
   width="133"
   height="184.5" />
	<g
   id="g18856">
		<g
   id="g18854">
			<path
   d="M455.7,930.2l1.4,0.5l-2.1,5.1h4.4v1.2h-6v-1.1L455.7,930.2z M458.4,933.6v5.3h-1.6l0-2.9l0.2-2.4H458.4z"
   id="path18848" />
			<path
   d="M465,930.4v8.3h-1.6V932l-1.8,1.1l-0.7-1.1l2.7-1.6H465z M466.7,937.7v1.2h-5.3v-1.2H466.7z"
   id="path18850" />
			<path
   d="M470.5,939.1l-1.5-0.5l3.2-6.9h-3.8v-1.3h5.5v1.1L470.5,939.1z"
   id="path18852" />
		</g>
	</g>
</g>
<g
   id="402">
	
		<rect
   id="rect1630_11_"
   x="740.6"
   y="1433.8"
   transform="matrix(0.9503 -0.3114 0.3114 0.9503 -434.6799 323.2046)"
   class="st8"
   width="108.4"
   height="178" />
	<g
   id="g18869">
		<g
   id="g18867">
			<path
   d="M725.3,1457.5l1.5,0.1l-0.6,5.4l4.2-1.2l0.4,1.2l-5.8,1.7l-0.3-1.1L725.3,1457.5z M728.9,1460l1.5,5.1l-1.5,0.4l-0.9-2.8     l-0.5-2.3L728.9,1460z"
   id="path18861" />
			<path
   d="M733,1455.2c0.9-0.3,1.8-0.1,2.5,0.5c0.7,0.6,1.3,1.6,1.7,2.9c0.4,1.3,0.5,2.5,0.2,3.4c-0.3,0.9-0.9,1.5-1.8,1.8     c-0.9,0.3-1.8,0.1-2.5-0.5c-0.7-0.6-1.3-1.6-1.7-2.9c-0.4-1.3-0.5-2.5-0.2-3.3S732,1455.5,733,1455.2z M733.3,1456.4     c-0.4,0.1-0.7,0.5-0.8,1c-0.1,0.5,0,1.4,0.4,2.5c0.2,0.6,0.4,1.1,0.5,1.5c0.2,0.4,0.3,0.7,0.5,0.9c0.2,0.2,0.4,0.3,0.6,0.4     c0.2,0,0.4,0,0.7,0c0.3-0.1,0.5-0.3,0.7-0.5c0.1-0.3,0.2-0.6,0.1-1.1c0-0.5-0.2-1.1-0.4-1.9c-0.2-0.8-0.5-1.4-0.7-1.8     s-0.5-0.7-0.7-0.8S733.7,1456.3,733.3,1456.4z M734.4,1456.3l0.7,0.8l-0.9,5.5l-0.7-0.6L734.4,1456.3z"
   id="path18863" />
			<path
   d="M739.7,1453.2c0.6-0.2,1.1-0.2,1.6-0.1s0.8,0.3,1.2,0.6c0.3,0.3,0.5,0.6,0.7,1.1c0.1,0.3,0.1,0.7,0.1,1.1     c0,0.4-0.1,0.8-0.3,1.2s-0.4,1-0.7,1.5c-0.3,0.6-0.7,1.2-1.2,2l3.6-1.1l0.2,1.3l-5.2,1.6l-0.3-1.1c0.4-0.7,0.7-1.3,1-1.9     s0.5-1,0.7-1.4c0.2-0.4,0.3-0.8,0.4-1.1c0.1-0.3,0.1-0.6,0.1-0.8c0-0.2,0-0.5-0.1-0.7c-0.1-0.4-0.3-0.6-0.6-0.8     c-0.3-0.2-0.6-0.2-1-0.1c-0.3,0.1-0.6,0.3-0.8,0.5c-0.2,0.2-0.4,0.5-0.5,0.8l-1.2-0.4c0.2-0.5,0.5-0.9,0.8-1.3     S739.1,1453.4,739.7,1453.2z"
   id="path18865" />
		</g>
	</g>
</g>
<g
   id="403">
	
		<rect
   id="rect1630_3_"
   x="798.4"
   y="1602.6"
   transform="matrix(0.9503 -0.3114 0.3114 0.9503 -486.6151 349.9471)"
   class="st8"
   width="108.4"
   height="192.4" />
	<g
   id="g18882">
		<g
   id="g18880">
			<path
   d="M782.1,1625.3l1.5,0.1l-0.6,5.4l4.2-1.2l0.4,1.2l-5.8,1.7l-0.3-1.1L782.1,1625.3z M785.7,1627.8l1.5,5.1l-1.5,0.4     l-0.9-2.8l-0.5-2.3L785.7,1627.8z"
   id="path18874" />
			<path
   d="M789.8,1623.1c0.9-0.3,1.8-0.1,2.5,0.5c0.7,0.6,1.3,1.6,1.7,2.9c0.4,1.3,0.5,2.5,0.2,3.4c-0.3,0.9-0.9,1.5-1.8,1.8     c-0.9,0.3-1.8,0.1-2.5-0.5c-0.7-0.6-1.3-1.6-1.7-2.9c-0.4-1.3-0.5-2.5-0.2-3.3S788.9,1623.3,789.8,1623.1z M790.2,1624.2     c-0.4,0.1-0.7,0.5-0.8,1c-0.1,0.5,0,1.4,0.4,2.5c0.2,0.6,0.4,1.1,0.5,1.5c0.2,0.4,0.3,0.7,0.5,0.9c0.2,0.2,0.4,0.3,0.6,0.4     c0.2,0,0.4,0,0.7,0c0.3-0.1,0.5-0.3,0.7-0.5c0.1-0.3,0.2-0.6,0.1-1.1c0-0.5-0.2-1.1-0.4-1.9c-0.2-0.8-0.5-1.4-0.7-1.8     s-0.5-0.7-0.7-0.8S790.5,1624.1,790.2,1624.2z M791.3,1624.2l0.7,0.8l-0.9,5.5l-0.7-0.6L791.3,1624.2z"
   id="path18876" />
			<path
   d="M796.5,1621c0.6-0.2,1.1-0.2,1.5-0.2c0.5,0.1,0.8,0.2,1.1,0.5c0.3,0.2,0.5,0.6,0.6,0.9c0.1,0.3,0.1,0.7,0.1,1     c-0.1,0.3-0.2,0.6-0.4,0.8c-0.2,0.2-0.4,0.5-0.7,0.6c0.4-0.1,0.7-0.1,1,0c0.3,0.1,0.6,0.2,0.9,0.4c0.3,0.2,0.4,0.6,0.6,1     c0.1,0.5,0.1,0.9,0,1.4c-0.1,0.5-0.4,0.9-0.8,1.2c-0.4,0.4-0.9,0.6-1.5,0.8c-0.6,0.2-1.1,0.2-1.6,0.2c-0.5-0.1-1-0.2-1.5-0.5     l0.7-1.1c0.3,0.2,0.6,0.3,1,0.4c0.3,0,0.7,0,1-0.1c0.5-0.1,0.8-0.4,1-0.7c0.2-0.3,0.2-0.7,0.1-1.1c-0.1-0.3-0.2-0.6-0.4-0.7     c-0.2-0.2-0.4-0.2-0.6-0.3c-0.2,0-0.5,0-0.8,0.1l-0.7,0.2l-0.1-1.2l0.5-0.2c0.2-0.1,0.5-0.2,0.6-0.3c0.2-0.1,0.3-0.3,0.4-0.5     c0.1-0.2,0.1-0.5,0-0.7c-0.1-0.4-0.3-0.6-0.6-0.7c-0.3-0.1-0.6-0.1-1,0c-0.3,0.1-0.6,0.3-0.8,0.5c-0.2,0.2-0.4,0.5-0.6,0.8     l-1.1-0.6c0.3-0.5,0.6-0.8,1-1.1C795.6,1621.4,796,1621.2,796.5,1621z"
   id="path18878" />
		</g>
	</g>
</g>
<g
   id="411">
	
		<rect
   id="rect1630_12_"
   x="611.3"
   y="1577.3"
   transform="matrix(0.9503 -0.3114 0.3114 0.9503 -486.6863 290.1649)"
   class="st8"
   width="108.1"
   height="183.7" />
	<g
   id="g18895">
		<g
   id="g18893">
			<path
   d="M595.2,1603.5l1.5,0.1l-0.6,5.4l4.2-1.2l0.4,1.2l-5.8,1.7l-0.3-1.1L595.2,1603.5z M598.7,1605.9l1.5,5.1l-1.5,0.4     l-0.9-2.8l-0.5-2.3L598.7,1605.9z"
   id="path18887" />
			<path
   d="M604.1,1601l2.4,7.9l-1.5,0.5l-1.9-6.3l-1.4,1.6l-1-0.9l2.1-2.3L604.1,1601z M607.8,1607.5l0.4,1.2l-5.1,1.5l-0.4-1.2     L607.8,1607.5z"
   id="path18889" />
			<path
   d="M611.2,1598.9l2.4,7.9l-1.5,0.5l-1.9-6.3l-1.4,1.6l-1-0.9l2.1-2.3L611.2,1598.9z M614.9,1605.3l0.4,1.2l-5.1,1.5     l-0.4-1.2L614.9,1605.3z"
   id="path18891" />
		</g>
	</g>
</g>
<g
   id="411A">
	
		<rect
   id="rect1630_14_"
   x="580.2"
   y="1566.6"
   transform="matrix(0.9503 -0.3114 0.3114 0.9503 -462.1877 265.4473)"
   class="st5"
   width="40"
   height="27" />
	<g
   id="g18910">
		<g
   id="g18908">
			<path
   d="M585.8,1577.1l1.5,0.1l-0.6,5.4l4.2-1.2l0.4,1.2l-5.8,1.7l-0.3-1.1L585.8,1577.1z M589.4,1579.5l1.5,5.1l-1.5,0.4     l-0.9-2.8l-0.5-2.3L589.4,1579.5z"
   id="path18900" />
			<path
   d="M594.8,1574.6l2.4,7.9l-1.5,0.5l-1.9-6.3l-1.4,1.6l-1-0.9l2.1-2.3L594.8,1574.6z M598.4,1581l0.4,1.2l-5.1,1.5l-0.4-1.2     L598.4,1581z"
   id="path18902" />
			<path
   d="M601.8,1572.4l2.4,7.9l-1.5,0.5l-1.9-6.3l-1.4,1.6l-1-0.9l2.1-2.3L601.8,1572.4z M605.5,1578.9l0.4,1.2l-5.1,1.5     l-0.4-1.2L605.5,1578.9z"
   id="path18904" />
			<path
   d="M610.9,1576.6l-2.7,0.8l0.1,2l-1.7,0.5l0.1-8.9l2-0.6l5,7.4l-1.7,0.5L610.9,1576.6z M608.1,1576.1l2.1-0.6l-2.2-3.6     L608.1,1576.1z"
   id="path18906" />
		</g>
	</g>
</g>
<g
   id="414">
	
		<rect
   id="rect1630_13_"
   x="565.7"
   y="1498.7"
   transform="matrix(0.9503 -0.3114 0.3114 0.9503 -448.4426 258.5154)"
   class="st5"
   width="39.3"
   height="69.8" />
	<g
   id="g18923">
		<g
   id="g18921">
			<path
   d="M563.7,1508.8l1.5,0.1l-0.6,5.4l4.2-1.2l0.4,1.2l-5.8,1.7l-0.3-1.1L563.7,1508.8z M567.2,1511.3l1.5,5.1l-1.5,0.4     l-0.9-2.8l-0.5-2.3L567.2,1511.3z"
   id="path18915" />
			<path
   d="M572.6,1506.3l2.4,7.9l-1.5,0.5l-1.9-6.3l-1.4,1.6l-1-0.9l2.1-2.3L572.6,1506.3z M576.3,1512.8l0.4,1.2l-5.1,1.5     l-0.4-1.2L576.3,1512.8z"
   id="path18917" />
			<path
   d="M577.8,1504.6l1.5,0.1l-0.6,5.4l4.2-1.2l0.4,1.2l-5.8,1.7l-0.3-1.1L577.8,1504.6z M581.4,1507l1.5,5.1l-1.5,0.4l-0.9-2.8     l-0.5-2.3L581.4,1507z"
   id="path18919" />
		</g>
	</g>
</g>
<g
   id="412"><rect
     id="rect1630_15_"
     x="611.6"
     y="1513.5"
     transform="matrix(0.9503 -0.3114 0.3114 0.9503 -450.5847 273.5129)"
     class="st5"
     width="39.3"
     height="68.6" /><g
     id="g18935">
	<g
   id="g18933">
		<path
   d="M609.7,1524.6l1.5,0.1l-0.6,5.4l4.2-1.2l0.4,1.2l-5.8,1.7l-0.3-1.1L609.7,1524.6z M613.2,1527.1l1.5,5.1l-1.5,0.4    l-0.9-2.8l-0.5-2.3L613.2,1527.1z"
   id="path18927" />
		<path
   d="M618.6,1522.1l2.4,7.9l-1.5,0.5l-1.9-6.3l-1.4,1.6l-1-0.9l2.1-2.3L618.6,1522.1z M622.3,1528.6l0.4,1.2l-5.1,1.5l-0.4-1.2    L622.3,1528.6z"
   id="path18929" />
		<path
   d="M624.1,1520.3c0.6-0.2,1.1-0.2,1.6-0.1s0.8,0.3,1.2,0.6c0.3,0.3,0.5,0.6,0.7,1.1c0.1,0.3,0.1,0.7,0.1,1.1    c0,0.4-0.1,0.8-0.3,1.2c-0.2,0.4-0.4,1-0.7,1.5c-0.3,0.6-0.7,1.2-1.2,2l3.6-1.1l0.2,1.3l-5.2,1.6l-0.3-1.1c0.4-0.7,0.7-1.3,1-1.9    c0.3-0.5,0.5-1,0.7-1.4c0.2-0.4,0.3-0.8,0.4-1.1c0.1-0.3,0.1-0.6,0.1-0.8c0-0.2,0-0.5-0.1-0.7c-0.1-0.4-0.3-0.6-0.6-0.8    c-0.3-0.2-0.6-0.2-1-0.1c-0.3,0.1-0.6,0.3-0.8,0.5c-0.2,0.2-0.4,0.5-0.5,0.8l-1.2-0.4c0.2-0.5,0.5-0.9,0.8-1.3    S623.5,1520.5,624.1,1520.3z"
   id="path18931" />
	</g>
</g></g>
<g
   id="407">
	
		<rect
   id="rect1670"
   x="724.7"
   y="1990.7"
   transform="matrix(0.9495 -0.3137 0.3137 0.9495 -594.0224 346.3813)"
   class="st9"
   width="109.2"
   height="56.6" />
	<g
   id="g18946">
		<g
   id="g18944">
			<path
   d="M728.8,2012.3l1.5,0.1l-0.6,5.4l4.2-1.2l0.4,1.2l-5.8,1.7l-0.3-1.1L728.8,2012.3z M732.3,2014.8l1.5,5.1l-1.5,0.4     l-0.9-2.8l-0.5-2.3L732.3,2014.8z"
   id="path18938" />
			<path
   d="M736.4,2010c0.9-0.3,1.8-0.1,2.5,0.5c0.7,0.6,1.3,1.6,1.7,2.9c0.4,1.3,0.5,2.5,0.2,3.4c-0.3,0.9-0.9,1.5-1.8,1.8     c-0.9,0.3-1.8,0.1-2.5-0.5c-0.7-0.6-1.3-1.6-1.7-2.9c-0.4-1.3-0.5-2.5-0.2-3.3S735.5,2010.3,736.4,2010z M736.8,2011.2     c-0.4,0.1-0.7,0.5-0.8,1c-0.1,0.5,0,1.4,0.4,2.5c0.2,0.6,0.4,1.1,0.5,1.5c0.2,0.4,0.3,0.7,0.5,0.9c0.2,0.2,0.4,0.3,0.6,0.4     c0.2,0,0.4,0,0.7,0c0.3-0.1,0.5-0.3,0.7-0.5c0.1-0.3,0.2-0.6,0.1-1.1c0-0.5-0.2-1.1-0.4-1.9c-0.2-0.8-0.5-1.4-0.7-1.8     c-0.2-0.4-0.5-0.7-0.7-0.8C737.4,2011.1,737.1,2011.1,736.8,2011.2z M737.9,2011.1l0.7,0.8l-0.9,5.5l-0.7-0.6L737.9,2011.1z"
   id="path18940" />
			<path
   d="M745.5,2016.5l-1.6,0l1.1-7.6l-3.7,1.1l-0.4-1.2l5.2-1.6l0.3,1.1L745.5,2016.5z"
   id="path18942" />
		</g>
	</g>
	<g
   id="g1844_1_">
		<g
   id="g1842_1_">
			<path
   id="path1838_1_"
   d="M791.3,2009.5l2,12.7l-2.7,0.8l-3.7-8.6l1.5,9.3l-2.7,0.8l-5.1-11.8l2.3-0.7l3.8,9.8l-1.4-9l2.3-0.7     l3.7,8.3l-2.2-10.3C789.1,2010.1,791.3,2009.5,791.3,2009.5z" />
			<path
   id="path1840_1_"
   d="M797.5,2007.3c0.9-0.3,1.6-0.4,2.3-0.4c0.6,0,1.3,0.2,1.9,0.5l-0.8,1.8c-0.5-0.2-0.9-0.2-1.4-0.3     c-0.4-0.1-0.9,0.1-1.4,0.2c-0.6,0.2-1,0.5-1.4,0.9s-0.6,1-0.7,1.8c-0.1,0.8,0.1,1.6,0.4,2.7c0.3,1.1,0.7,1.9,1.2,2.5     c0.5,0.6,1,0.9,1.6,1.1c0.6,0.1,1.2,0.2,1.8,0c0.7-0.2,1.1-0.4,1.5-0.9c0.3-0.3,0.6-0.7,0.9-1.1l1.6,1.1     c-0.3,0.5-0.7,1.1-1.3,1.5c-0.6,0.5-1.3,0.9-2.3,1.2c-1.1,0.3-2.1,0.3-3.1,0.1c-1-0.2-1.9-0.8-2.7-1.6s-1.3-1.9-1.7-3.3     c-0.4-1.3-0.5-2.6-0.3-3.7s0.7-2,1.4-2.7C795.7,2008,796.5,2007.6,797.5,2007.3z" />
		</g>
	</g>
</g>
<g
   id="408">
	
		<rect
   id="rect1668"
   x="707.7"
   y="1937.9"
   transform="matrix(0.9495 -0.3137 0.3137 0.9495 -578.2388 338.3705)"
   class="st9"
   width="109.2"
   height="56.1" />
	<g
   id="g18963">
		<g
   id="g18961">
			<path
   d="M713.6,1959.4l1.5,0.1l-0.6,5.4l4.2-1.2l0.4,1.2l-5.8,1.7l-0.3-1.1L713.6,1959.4z M717.1,1961.9l1.5,5.1l-1.5,0.4     l-0.9-2.8l-0.5-2.3L717.1,1961.9z"
   id="path18955" />
			<path
   d="M721.2,1957.1c0.9-0.3,1.8-0.1,2.5,0.5c0.7,0.6,1.3,1.6,1.7,2.9c0.4,1.3,0.5,2.5,0.2,3.4c-0.3,0.9-0.9,1.5-1.8,1.8     c-0.9,0.3-1.8,0.1-2.5-0.5c-0.7-0.6-1.3-1.6-1.7-2.9c-0.4-1.3-0.5-2.5-0.2-3.3S720.3,1957.4,721.2,1957.1z M721.6,1958.3     c-0.4,0.1-0.7,0.5-0.8,1c-0.1,0.5,0,1.4,0.4,2.5c0.2,0.6,0.4,1.1,0.5,1.5c0.2,0.4,0.3,0.7,0.5,0.9c0.2,0.2,0.4,0.3,0.6,0.4     c0.2,0,0.4,0,0.7,0c0.3-0.1,0.5-0.3,0.7-0.5c0.1-0.3,0.2-0.6,0.1-1.1c0-0.5-0.2-1.1-0.4-1.9c-0.2-0.8-0.5-1.4-0.7-1.8     c-0.2-0.4-0.5-0.7-0.7-0.8C722.2,1958.2,721.9,1958.2,721.6,1958.3z M722.7,1958.3l0.7,0.8l-0.9,5.5l-0.7-0.6L722.7,1958.3z"
   id="path18957" />
			<path
   d="M731.6,1956.4c0.1,0.4,0.1,0.7,0,1.1s-0.4,0.7-0.8,1.1c0.6,0.1,1.1,0.3,1.5,0.6c0.4,0.3,0.7,0.7,0.8,1.1     c0.1,0.4,0.1,0.9,0,1.3s-0.4,0.8-0.7,1.2c-0.4,0.3-0.9,0.6-1.5,0.8c-0.6,0.2-1.2,0.2-1.7,0.2c-0.5-0.1-0.9-0.3-1.2-0.6     c-0.3-0.3-0.6-0.6-0.7-1.1c-0.1-0.5-0.1-0.9,0.1-1.4c0.2-0.4,0.5-0.8,0.9-1.2c-0.5-0.1-0.9-0.3-1.2-0.5c-0.3-0.2-0.5-0.6-0.6-1     c-0.1-0.4-0.1-0.7-0.1-1c0.1-0.3,0.2-0.6,0.4-0.9c0.2-0.3,0.4-0.5,0.7-0.7c0.3-0.2,0.6-0.3,0.9-0.4c0.4-0.1,0.7-0.2,1.1-0.2     c0.3,0,0.7,0.1,1,0.2c0.3,0.1,0.5,0.3,0.8,0.5C731.3,1955.7,731.5,1956,731.6,1956.4z M727.8,1957.6c0.1,0.2,0.2,0.4,0.3,0.5     c0.2,0.1,0.4,0.2,0.6,0.3c0.2,0.1,0.5,0.1,0.9,0.1c0.2-0.3,0.4-0.6,0.5-0.8c0.1-0.2,0.1-0.5,0-0.8c-0.1-0.3-0.3-0.6-0.5-0.7     s-0.6-0.2-0.9-0.1c-0.4,0.1-0.6,0.3-0.7,0.5C727.7,1956.9,727.7,1957.2,727.8,1957.6z M731.5,1960.7c-0.1-0.3-0.2-0.5-0.4-0.7     c-0.2-0.1-0.4-0.2-0.7-0.3c-0.3,0-0.7-0.1-1.1-0.1c-0.2,0.2-0.3,0.3-0.4,0.5c-0.1,0.2-0.2,0.4-0.2,0.6c0,0.2,0,0.5,0.1,0.7     c0.1,0.4,0.3,0.7,0.6,0.8c0.3,0.2,0.7,0.2,1.1,0c0.5-0.1,0.8-0.4,0.9-0.7C731.6,1961.4,731.6,1961.1,731.5,1960.7z"
   id="path18959" />
		</g>
	</g>
	<g
   id="g1844_2_">
		<g
   id="g1842_2_">
			<path
   id="path1838_2_"
   d="M774.4,1953.6l2,12.7l-2.7,0.8l-3.7-8.6l1.5,9.3l-2.7,0.8l-5.1-11.8l2.3-0.7l3.8,9.8l-1.4-9l2.3-0.7     l3.7,8.3l-2.2-10.3C772.3,1954.3,774.4,1953.6,774.4,1953.6z" />
			<path
   id="path1840_2_"
   d="M780.6,1951.4c0.9-0.3,1.6-0.4,2.3-0.4c0.6,0,1.3,0.2,1.9,0.5l-0.8,1.8c-0.5-0.2-0.9-0.2-1.4-0.3     c-0.4-0.1-0.9,0.1-1.4,0.2c-0.6,0.2-1,0.5-1.4,0.9c-0.4,0.4-0.6,1-0.7,1.8c-0.1,0.8,0.1,1.6,0.4,2.7c0.3,1.1,0.7,1.9,1.2,2.5     c0.5,0.6,1,0.9,1.6,1.1c0.6,0.1,1.2,0.2,1.8,0c0.7-0.2,1.1-0.4,1.5-0.9c0.3-0.3,0.6-0.7,0.9-1.1l1.6,1.1     c-0.3,0.5-0.7,1.1-1.3,1.5s-1.3,0.9-2.3,1.2c-1.1,0.3-2.1,0.3-3.1,0.1c-1-0.2-1.9-0.8-2.7-1.6s-1.3-1.9-1.7-3.3     c-0.4-1.3-0.5-2.6-0.3-3.7c0.2-1.1,0.7-2,1.4-2.7C778.9,1952.1,779.7,1951.7,780.6,1951.4z" />
		</g>
	</g>
</g>
<g
   id="404">
	
		<rect
   id="rect1744_25_"
   x="863.4"
   y="1784.5"
   transform="matrix(0.9489 -0.3155 0.3155 0.9489 -549.902 385.8831)"
   class="st10"
   width="106.9"
   height="213.7" />
	<g
   id="g18980">
		<g
   id="g18978">
			<path
   d="M843.7,1808.2l1.5,0.1l-0.6,5.4l4.2-1.2l0.4,1.2l-5.8,1.7l-0.3-1.1L843.7,1808.2z M847.2,1810.7l1.5,5.1l-1.5,0.4     l-0.9-2.8l-0.5-2.3L847.2,1810.7z"
   id="path18972" />
			<path
   d="M851.3,1805.9c0.9-0.3,1.8-0.1,2.5,0.5c0.7,0.6,1.3,1.6,1.7,2.9c0.4,1.3,0.5,2.5,0.2,3.4c-0.3,0.9-0.9,1.5-1.8,1.8     c-0.9,0.3-1.8,0.1-2.5-0.5c-0.7-0.6-1.3-1.6-1.7-2.9c-0.4-1.3-0.5-2.5-0.2-3.3S850.4,1806.2,851.3,1805.9z M851.7,1807.1     c-0.4,0.1-0.7,0.5-0.8,1c-0.1,0.5,0,1.4,0.4,2.5c0.2,0.6,0.4,1.1,0.5,1.5c0.2,0.4,0.3,0.7,0.5,0.9c0.2,0.2,0.4,0.3,0.6,0.4     c0.2,0,0.4,0,0.7,0c0.3-0.1,0.5-0.3,0.7-0.5c0.1-0.3,0.2-0.6,0.1-1.1c0-0.5-0.2-1.1-0.4-1.9c-0.2-0.8-0.5-1.4-0.7-1.8     s-0.5-0.7-0.7-0.8S852,1807,851.7,1807.1z M852.8,1807l0.7,0.8l-0.9,5.5l-0.7-0.6L852.8,1807z"
   id="path18974" />
			<path
   d="M857.8,1804l1.5,0.1l-0.6,5.4l4.2-1.2l0.4,1.2l-5.8,1.7l-0.3-1.1L857.8,1804z M861.4,1806.4l1.5,5.1l-1.5,0.4l-0.9-2.8     l-0.5-2.3L861.4,1806.4z"
   id="path18976" />
		</g>
	</g>
	<g
   id="g18988">
		<g
   id="g18986">
			<path
   d="M974.6,1965.7l1.8,0.1l-0.5,5.3l4.1-1.2l0.4,1.4l-6,1.8l-0.4-1.2L974.6,1965.7z M978.5,1968.2l1.5,5.1l-1.8,0.5l-0.9-2.9     l-0.4-2.2L978.5,1968.2z"
   id="path18982" />
			<path
   d="M982.4,1963.4c1-0.3,1.8-0.1,2.5,0.5s1.3,1.6,1.7,2.9c0.4,1.3,0.5,2.5,0.2,3.4c-0.3,0.9-0.9,1.5-1.9,1.8     c-1,0.3-1.8,0.1-2.6-0.5c-0.7-0.6-1.3-1.6-1.7-2.9c-0.4-1.3-0.5-2.5-0.2-3.4C980.8,1964.3,981.4,1963.7,982.4,1963.4z      M982.8,1964.8c-0.4,0.1-0.7,0.4-0.7,0.9c-0.1,0.5,0.1,1.3,0.4,2.3c0.2,0.6,0.4,1.1,0.5,1.5c0.2,0.4,0.3,0.7,0.5,0.8     c0.2,0.2,0.3,0.3,0.5,0.3c0.2,0,0.4,0,0.6-0.1c0.3-0.1,0.5-0.2,0.6-0.5c0.1-0.2,0.2-0.6,0.1-1c0-0.5-0.2-1.1-0.4-1.8     c-0.2-0.8-0.5-1.4-0.7-1.8c-0.2-0.4-0.4-0.7-0.6-0.8C983.4,1964.7,983.1,1964.7,982.8,1964.8z M983.8,1964.7l0.8,0.9l-0.8,5.2     l-0.8-0.7L983.8,1964.7z"
   id="path18984" />
		</g>
	</g>
</g>
<g
   id="406">
	
		<rect
   id="rect1744_5_"
   x="747.2"
   y="2016.8"
   transform="matrix(0.9493 -0.3145 0.3145 0.9493 -606.8179 383.8324)"
   class="st11"
   width="277.9"
   height="111.5" />
	<g
   id="g19001">
		<g
   id="g18999">
			<path
   d="M746.1,2065.7l1.5,0.1l-0.6,5.4l4.2-1.2l0.4,1.2l-5.8,1.7l-0.3-1.1L746.1,2065.7z M749.7,2068.1l1.5,5.1l-1.5,0.4     l-0.9-2.8l-0.5-2.3L749.7,2068.1z"
   id="path18993" />
			<path
   d="M753.8,2063.4c0.9-0.3,1.8-0.1,2.5,0.5c0.7,0.6,1.3,1.6,1.7,2.9c0.4,1.3,0.5,2.5,0.2,3.4c-0.3,0.9-0.9,1.5-1.8,1.8     c-0.9,0.3-1.8,0.1-2.5-0.5c-0.7-0.6-1.3-1.6-1.7-2.9c-0.4-1.3-0.5-2.5-0.2-3.3S752.9,2063.6,753.8,2063.4z M754.2,2064.5     c-0.4,0.1-0.7,0.5-0.8,1c-0.1,0.5,0,1.4,0.4,2.5c0.2,0.6,0.4,1.1,0.5,1.5c0.2,0.4,0.3,0.7,0.5,0.9c0.2,0.2,0.4,0.3,0.6,0.4     c0.2,0,0.4,0,0.7,0c0.3-0.1,0.5-0.3,0.7-0.5c0.1-0.3,0.2-0.6,0.1-1.1c0-0.5-0.2-1.1-0.4-1.9c-0.2-0.8-0.5-1.4-0.7-1.8     s-0.5-0.7-0.7-0.8S754.5,2064.4,754.2,2064.5z M755.3,2064.5l0.7,0.8l-0.9,5.5l-0.7-0.6L755.3,2064.5z"
   id="path18995" />
			<path
   d="M761.4,2061.1c0.3-0.1,0.7-0.2,1-0.2c0.3,0,0.6,0,0.9,0.1l-0.3,1.1c-0.2-0.1-0.4-0.1-0.6-0.1c-0.2,0-0.4,0-0.6,0.1     c-0.4,0.1-0.6,0.3-0.8,0.6c-0.2,0.3-0.3,0.7-0.3,1.2c0,0.5,0.1,1,0.2,1.6l0.2,0.5c0.3,1,0.6,1.6,0.9,2c0.3,0.4,0.7,0.5,1.2,0.4     c0.4-0.1,0.7-0.4,0.8-0.8c0.1-0.4,0.1-0.8-0.1-1.3c-0.1-0.4-0.3-0.7-0.4-0.9c-0.2-0.2-0.3-0.3-0.5-0.4c-0.2-0.1-0.4,0-0.6,0     c-0.3,0.1-0.6,0.3-0.8,0.5s-0.4,0.6-0.5,0.9l-0.3-1.1c0.2-0.4,0.4-0.8,0.7-1.1c0.3-0.3,0.6-0.5,1-0.6c0.4-0.1,0.8-0.1,1.2,0     c0.4,0.1,0.8,0.3,1.1,0.6c0.3,0.3,0.6,0.8,0.7,1.4c0.2,0.6,0.2,1.1,0.1,1.6c-0.1,0.5-0.3,1-0.7,1.3s-0.8,0.7-1.3,0.8     c-0.5,0.2-1,0.2-1.4,0.1c-0.4-0.1-0.8-0.3-1.2-0.6s-0.6-0.7-0.9-1.1c-0.3-0.4-0.5-0.9-0.6-1.5c-0.3-0.9-0.4-1.8-0.3-2.5     c0.1-0.8,0.3-1.4,0.7-2C760.2,2061.7,760.7,2061.3,761.4,2061.1z"
   id="path18997" />
		</g>
	</g>
	<g
   id="g19009">
		<g
   id="g19007">
			<path
   d="M1016.1,2071.7l0.2,1.4l-3,0.9l0.5,1.8c0.2-0.2,0.4-0.3,0.6-0.4c0.2-0.1,0.4-0.2,0.6-0.2c0.4-0.1,0.8-0.1,1.2,0     c0.4,0.1,0.8,0.3,1.1,0.7c0.3,0.3,0.6,0.8,0.7,1.3s0.2,1.1,0,1.6s-0.4,1-0.8,1.4c-0.4,0.4-0.9,0.7-1.6,0.9     c-0.6,0.2-1.2,0.2-1.7,0.1c-0.5-0.1-1-0.3-1.4-0.5l0.8-1.3c0.3,0.2,0.6,0.3,0.9,0.4c0.3,0.1,0.6,0,0.9,0c0.4-0.1,0.7-0.4,0.9-0.7     c0.2-0.3,0.2-0.7,0.1-1.1c-0.1-0.3-0.2-0.6-0.4-0.8c-0.2-0.2-0.3-0.3-0.5-0.3c-0.2,0-0.4,0-0.6,0c-0.1,0-0.3,0.1-0.5,0.2     c-0.2,0.1-0.3,0.2-0.5,0.4l-1.3,0.4l-1.3-4.4L1016.1,2071.7z"
   id="path19003" />
			<path
   d="M1022.1,2069.9l2.4,7.9l-1.8,0.5l-1.8-6.1l-1.4,1.6l-1.2-1l2.2-2.4L1022.1,2069.9z M1025.7,2076.2l0.4,1.4l-5.3,1.6     l-0.4-1.4L1025.7,2076.2z"
   id="path19005" />
		</g>
	</g>
</g>
<g
   id="410">
	
		<rect
   id="rect1744_26_"
   x="669.5"
   y="1751.5"
   transform="matrix(0.9489 -0.3155 0.3155 0.9489 -545.9509 322.7891)"
   class="st10"
   width="108.9"
   height="192.2" />
	<g
   id="g19022">
		<g
   id="g19020">
			<path
   d="M650.1,1775l1.5,0.1l-0.6,5.4l4.2-1.2l0.4,1.2l-5.8,1.7l-0.3-1.1L650.1,1775z M653.7,1777.5l1.5,5.1l-1.5,0.4l-0.9-2.8     l-0.5-2.3L653.7,1777.5z"
   id="path19014" />
			<path
   d="M659.1,1772.5l2.4,7.9l-1.5,0.5l-1.9-6.3l-1.4,1.6l-1-0.9l2.1-2.3L659.1,1772.5z M662.8,1779l0.4,1.2l-5.1,1.5l-0.4-1.2     L662.8,1779z"
   id="path19016" />
			<path
   d="M664.9,1770.6c0.9-0.3,1.8-0.1,2.5,0.5s1.3,1.6,1.7,2.9c0.4,1.3,0.5,2.5,0.2,3.4c-0.3,0.9-0.9,1.5-1.8,1.8     c-0.9,0.3-1.8,0.1-2.5-0.5c-0.7-0.6-1.3-1.6-1.7-2.9c-0.4-1.3-0.5-2.5-0.2-3.3C663.3,1771.5,663.9,1770.9,664.9,1770.6z      M665.2,1771.8c-0.4,0.1-0.7,0.5-0.8,1c-0.1,0.5,0,1.4,0.4,2.5c0.2,0.6,0.4,1.1,0.5,1.5c0.2,0.4,0.3,0.7,0.5,0.9     c0.2,0.2,0.4,0.3,0.6,0.4c0.2,0,0.4,0,0.7,0c0.3-0.1,0.5-0.3,0.7-0.5c0.1-0.3,0.2-0.6,0.1-1.1c0-0.5-0.2-1.1-0.4-1.9     c-0.2-0.8-0.5-1.4-0.7-1.8s-0.5-0.7-0.7-0.8C665.9,1771.7,665.6,1771.7,665.2,1771.8z M666.3,1771.7l0.7,0.8l-0.9,5.5l-0.7-0.6     L666.3,1771.7z"
   id="path19018" />
		</g>
	</g>
	<g
   id="g19030">
		<g
   id="g19028">
			<path
   d="M781.3,1912.8c0.6-0.2,1.1-0.2,1.6-0.2c0.5,0.1,0.9,0.2,1.2,0.5c0.3,0.2,0.5,0.6,0.6,0.9c0.1,0.3,0.1,0.7,0.1,1     s-0.2,0.6-0.4,0.8s-0.5,0.5-0.8,0.7c0.4-0.1,0.8-0.1,1.1,0s0.6,0.2,0.9,0.4c0.2,0.2,0.4,0.6,0.6,1c0.1,0.5,0.1,0.9,0,1.4     c-0.1,0.5-0.4,0.9-0.8,1.2c-0.4,0.4-0.9,0.6-1.6,0.8c-0.6,0.2-1.2,0.2-1.7,0.2c-0.5-0.1-1.1-0.2-1.5-0.5l0.8-1.3     c0.3,0.2,0.6,0.3,1,0.4c0.3,0,0.6,0,1-0.1c0.4-0.1,0.7-0.3,0.9-0.6c0.2-0.3,0.2-0.6,0.1-1c-0.1-0.3-0.2-0.5-0.4-0.7     c-0.2-0.1-0.4-0.2-0.6-0.2c-0.2,0-0.5,0-0.8,0.1l-0.7,0.2l-0.2-1.3l0.5-0.2c0.2-0.1,0.4-0.2,0.6-0.3c0.2-0.1,0.3-0.3,0.3-0.5     c0.1-0.2,0.1-0.4,0-0.6c-0.1-0.3-0.3-0.5-0.5-0.6c-0.3-0.1-0.6-0.1-0.9,0c-0.3,0.1-0.6,0.2-0.8,0.5c-0.2,0.2-0.4,0.5-0.6,0.7     l-1.3-0.7c0.3-0.5,0.6-0.9,1-1.2C780.3,1913.2,780.8,1913,781.3,1912.8z"
   id="path19024" />
			<path
   d="M788.7,1910.6c0.7-0.2,1.3-0.2,1.8-0.1c0.5,0.1,1,0.4,1.3,0.8c0.4,0.4,0.7,1,0.8,1.6c0.2,0.8,0.3,1.5,0.3,2.2     c0,0.7-0.2,1.3-0.4,1.8c-0.3,0.6-0.7,1.1-1.2,1.6c-0.5,0.5-1.2,0.9-2,1.4l-0.8-1.2c0.6-0.4,1.2-0.8,1.6-1.2s0.7-0.8,0.9-1.3     c0.2-0.4,0.2-0.9,0.2-1.5l-0.2-0.6c-0.2-0.6-0.3-1.1-0.5-1.4c-0.2-0.4-0.4-0.6-0.6-0.8c-0.2-0.1-0.5-0.2-0.8-0.1     c-0.3,0.1-0.6,0.3-0.7,0.6c-0.1,0.3-0.1,0.7,0.1,1.3c0.2,0.5,0.4,0.8,0.6,1c0.3,0.1,0.5,0.2,0.8,0.1c0.3-0.1,0.5-0.2,0.7-0.4     c0.2-0.2,0.4-0.4,0.5-0.7l0.3,1.1c-0.2,0.4-0.4,0.7-0.7,1c-0.3,0.3-0.6,0.4-1,0.6c-0.4,0.1-0.8,0.1-1.3,0s-0.8-0.3-1.1-0.7     c-0.3-0.3-0.6-0.8-0.7-1.3c-0.2-0.6-0.2-1.1-0.1-1.7c0.1-0.5,0.4-1,0.8-1.3C787.6,1911,788.1,1910.8,788.7,1910.6z"
   id="path19026" />
		</g>
	</g>
</g>
<g
   id="416">
	<polyline
   id="rect1744_4_"
   class="st12"
   points="445.2,1200.2 445.2,1102.9 578.2,1102.9 578.2,1257 445.2,1257 445.2,1200.2  " />
	<g
   id="g19043">
		<g
   id="g19041">
			<path
   d="M455.7,1111.1l1.4,0.5l-2.1,5.1h4.4v1.2h-6v-1.1L455.7,1111.1z M458.4,1114.5v5.3h-1.6l0-2.9l0.2-2.4H458.4z"
   id="path19035" />
			<path
   d="M465,1111.3v8.3h-1.6v-6.6l-1.8,1.1l-0.7-1.1l2.7-1.6H465z M466.7,1118.6v1.2h-5.3v-1.2H466.7z"
   id="path19037" />
			<path
   d="M471.7,1111.1c0.4,0,0.7,0,1,0.1c0.3,0.1,0.6,0.2,0.8,0.4l-0.6,1c-0.2-0.1-0.4-0.2-0.6-0.3c-0.2-0.1-0.4-0.1-0.6-0.1     c-0.4,0-0.7,0.1-1,0.4c-0.3,0.2-0.5,0.6-0.6,1c-0.2,0.5-0.2,1-0.2,1.6l0,0.5c0,1,0.1,1.7,0.3,2.2s0.6,0.7,1.1,0.7     c0.4,0,0.7-0.2,0.9-0.5c0.2-0.3,0.3-0.8,0.3-1.3c0-0.4,0-0.8-0.1-1s-0.2-0.4-0.4-0.5c-0.2-0.1-0.4-0.2-0.6-0.2     c-0.3,0-0.6,0.1-0.9,0.3c-0.3,0.2-0.5,0.4-0.7,0.7l0-1.1c0.3-0.4,0.6-0.6,0.9-0.8c0.3-0.2,0.7-0.3,1.1-0.3c0.4,0,0.8,0.1,1.2,0.3     c0.4,0.2,0.6,0.5,0.9,0.9c0.2,0.4,0.3,0.9,0.3,1.5c0,0.6-0.1,1.1-0.4,1.6s-0.6,0.8-1,1.1s-0.9,0.4-1.5,0.4c-0.5,0-1-0.1-1.4-0.3     c-0.4-0.2-0.7-0.5-0.9-0.9s-0.4-0.8-0.5-1.3c-0.1-0.5-0.2-1-0.2-1.6c0-1,0.1-1.8,0.4-2.5c0.3-0.7,0.7-1.3,1.2-1.7     S471,1111.1,471.7,1111.1z"
   id="path19039" />
		</g>
	</g>
	<g
   id="g19051">
		<g
   id="g19049">
			<path
   d="M558.6,1240.4l1.7,0.6l-2,4.9h4.3v1.5h-6.3v-1.3L558.6,1240.4z M561.7,1243.9v5.3h-1.9l0-3.1l0.2-2.3H561.7z"
   id="path19045" />
			<path
   d="M566.4,1240.4c0.6,0,1.1,0.1,1.6,0.3c0.4,0.2,0.8,0.5,1,0.8c0.2,0.3,0.3,0.7,0.3,1.1c0,0.4-0.1,0.7-0.2,0.9     s-0.3,0.5-0.6,0.7s-0.6,0.3-0.9,0.4c0.4,0.1,0.7,0.2,1,0.3c0.3,0.2,0.5,0.4,0.7,0.7c0.2,0.3,0.3,0.7,0.3,1.1     c0,0.5-0.1,0.9-0.4,1.3s-0.6,0.7-1.1,0.9c-0.5,0.2-1.1,0.4-1.8,0.4c-0.6,0-1.2-0.1-1.7-0.3s-0.9-0.5-1.3-0.9l1.1-1     c0.2,0.3,0.5,0.5,0.8,0.6s0.6,0.2,1,0.2c0.4,0,0.8-0.1,1-0.3c0.3-0.2,0.4-0.5,0.4-0.9c0-0.3-0.1-0.5-0.2-0.7     c-0.1-0.2-0.3-0.3-0.5-0.4c-0.2-0.1-0.5-0.1-0.8-0.1h-0.8l0.2-1.3h0.6c0.2,0,0.5,0,0.7-0.1c0.2-0.1,0.3-0.2,0.5-0.4     c0.1-0.2,0.2-0.4,0.2-0.6c0-0.3-0.1-0.6-0.3-0.8s-0.5-0.3-0.9-0.3c-0.3,0-0.6,0.1-0.9,0.2c-0.3,0.1-0.5,0.3-0.8,0.5l-1-1     c0.4-0.4,0.8-0.7,1.3-0.9C565.3,1240.5,565.9,1240.4,566.4,1240.4z"
   id="path19047" />
		</g>
	</g>
</g>
<g
   id="418">
	<rect
   id="rect1744_2_"
   x="445.5"
   y="774.3"
   class="st12"
   width="132.5"
   height="145" />
	<g
   id="g19064">
		<g
   id="g19062">
			<path
   d="M457.1,783.3l1.4,0.5l-2.1,5.1h4.4v1.2h-6V789L457.1,783.3z M459.8,786.7v5.3h-1.6l0-2.9l0.2-2.4H459.8z"
   id="path19056" />
			<path
   d="M466.4,783.5v8.3h-1.6v-6.6l-1.8,1.1l-0.7-1.1l2.7-1.6H466.4z M468,790.8v1.2h-5.3v-1.2H468z"
   id="path19058" />
			<path
   d="M475.2,785.5c0,0.4-0.1,0.7-0.3,1c-0.2,0.3-0.6,0.6-1,0.8c0.6,0.3,1,0.6,1.3,1s0.4,0.8,0.4,1.3c0,0.4-0.1,0.9-0.4,1.2     s-0.6,0.7-1,0.9c-0.5,0.2-1,0.3-1.7,0.3c-0.7,0-1.2-0.1-1.7-0.3s-0.8-0.5-1-0.9c-0.2-0.4-0.3-0.8-0.3-1.2c0-0.5,0.1-0.9,0.4-1.3     s0.7-0.7,1.2-0.9c-0.4-0.3-0.8-0.5-1-0.8s-0.3-0.7-0.3-1.2c0-0.4,0.1-0.7,0.2-1s0.3-0.5,0.6-0.7c0.3-0.2,0.5-0.3,0.9-0.4     c0.3-0.1,0.7-0.2,1-0.2c0.4,0,0.7,0,1.1,0.1c0.3,0.1,0.6,0.2,0.9,0.4s0.4,0.4,0.6,0.7C475.1,784.9,475.2,785.2,475.2,785.5z      M473.9,789.7c0-0.3-0.1-0.6-0.2-0.8c-0.1-0.2-0.3-0.4-0.6-0.5c-0.3-0.1-0.6-0.3-1-0.4c-0.2,0.1-0.4,0.2-0.5,0.4     c-0.1,0.2-0.3,0.3-0.4,0.5c-0.1,0.2-0.1,0.4-0.1,0.7c0,0.4,0.1,0.7,0.4,1c0.2,0.2,0.6,0.4,1.1,0.4c0.5,0,0.8-0.1,1.1-0.4     C473.8,790.4,473.9,790.1,473.9,789.7z M471.3,785.6c0,0.2,0.1,0.5,0.2,0.6c0.1,0.2,0.3,0.3,0.5,0.4c0.2,0.1,0.5,0.2,0.8,0.4     c0.3-0.2,0.5-0.4,0.7-0.6c0.1-0.2,0.2-0.5,0.2-0.7c0-0.3-0.1-0.6-0.3-0.8s-0.5-0.3-0.9-0.3c-0.4,0-0.7,0.1-0.9,0.3     C471.4,785,471.3,785.2,471.3,785.6z"
   id="path19060" />
		</g>
	</g>
	<g
   id="g19072">
		<g
   id="g19070">
			<path
   d="M558.6,903.2l1.7,0.6l-2,4.9h4.3v1.5h-6.3v-1.3L558.6,903.2z M561.7,906.7v5.3h-1.9l0-3.1l0.2-2.3H561.7z"
   id="path19066" />
			<path
   d="M569.4,903.4l-0.2,1.4h-3.1v1.8c0.2-0.1,0.4-0.2,0.6-0.2s0.4-0.1,0.6-0.1c0.4,0,0.8,0.1,1.2,0.3c0.4,0.2,0.7,0.5,0.9,1     c0.2,0.4,0.3,0.9,0.3,1.5c0,0.6-0.1,1.1-0.4,1.5c-0.3,0.5-0.7,0.8-1.2,1.1c-0.5,0.3-1.1,0.4-1.8,0.4c-0.6,0-1.2-0.1-1.6-0.3     c-0.5-0.2-0.9-0.5-1.2-0.9l1.1-1c0.2,0.3,0.4,0.5,0.7,0.6c0.3,0.1,0.6,0.2,0.8,0.2c0.5,0,0.8-0.1,1.1-0.4     c0.3-0.3,0.4-0.6,0.4-1.1c0-0.4,0-0.6-0.1-0.8c-0.1-0.2-0.2-0.4-0.4-0.5c-0.2-0.1-0.4-0.1-0.6-0.1c-0.2,0-0.3,0-0.5,0.1     s-0.4,0.1-0.5,0.2h-1.3v-4.6H569.4z"
   id="path19068" />
		</g>
	</g>
</g>
<g
   id="419">
	<rect
   id="rect1744_1_"
   x="445.5"
   y="606.1"
   class="st12"
   width="132.5"
   height="168.1" />
	<g
   id="g19085">
		<g
   id="g19083">
			<path
   d="M455.7,615.5l1.4,0.5L455,621h4.4v1.2h-6v-1.1L455.7,615.5z M458.4,618.8v5.3h-1.6l0-2.9l0.2-2.4H458.4z"
   id="path19077" />
			<path
   d="M465,615.6v8.3h-1.6v-6.6l-1.8,1.1l-0.7-1.1l2.7-1.6H465z M466.7,622.9v1.2h-5.3v-1.2H466.7z"
   id="path19079" />
			<path
   d="M471.1,615.5c0.7,0,1.2,0.1,1.7,0.4s0.8,0.7,1,1.2c0.2,0.5,0.3,1.1,0.3,1.8c0,0.8-0.1,1.6-0.3,2.2     c-0.2,0.6-0.5,1.1-0.9,1.6c-0.4,0.4-0.9,0.8-1.5,1.1c-0.6,0.3-1.4,0.5-2.2,0.7l-0.3-1.2c0.8-0.2,1.4-0.4,1.9-0.7     c0.5-0.3,0.9-0.6,1.2-1s0.5-0.9,0.5-1.5l0-0.6c0-0.6,0-1.2-0.1-1.6s-0.2-0.7-0.4-0.9c-0.2-0.2-0.5-0.3-0.8-0.3     c-0.4,0-0.7,0.1-1,0.4c-0.2,0.3-0.3,0.7-0.3,1.3c0,0.6,0.1,1,0.3,1.2c0.2,0.2,0.5,0.4,0.9,0.4c0.3,0,0.6-0.1,0.9-0.2     c0.3-0.2,0.5-0.4,0.8-0.7l0,1c-0.3,0.3-0.6,0.6-0.9,0.8c-0.3,0.2-0.7,0.3-1.2,0.3c-0.5,0-0.9-0.1-1.2-0.3s-0.7-0.5-0.9-0.9     c-0.2-0.4-0.3-0.9-0.3-1.4c0-0.6,0.1-1.1,0.4-1.6c0.3-0.4,0.6-0.8,1.1-1C470,615.6,470.5,615.5,471.1,615.5z"
   id="path19081" />
		</g>
	</g>
	<g
   id="g19093">
		<g
   id="g19091">
			<path
   d="M559.2,759.3l1.7,0.6l-2,4.9h4.3v1.5h-6.3v-1.3L559.2,759.3z M562.2,762.7v5.3h-1.9l0-3.1l0.2-2.3H562.2z"
   id="path19087" />
			<path
   d="M566.9,768.2l-1.8-0.6l3.2-6.7h-3.7v-1.5h5.7v1.3L566.9,768.2z"
   id="path19089" />
		</g>
	</g>
</g>
<g
   id="421">
	<rect
   id="rect1744_3_"
   x="445.5"
   y="317.3"
   class="st12"
   width="132.5"
   height="124.1" />
	<g
   id="g19106">
		<g
   id="g19104">
			<path
   d="M456.4,327.2l1.4,0.5l-2.1,5.1h4.4v1.2h-6v-1.1L456.4,327.2z M459.1,330.6v5.3h-1.6l0-2.9l0.2-2.4H459.1z"
   id="path19098" />
			<path
   d="M464.1,327.2c0.6,0,1.1,0.1,1.5,0.3c0.4,0.2,0.7,0.5,0.9,0.9c0.2,0.4,0.3,0.8,0.3,1.2c0,0.4-0.1,0.7-0.2,1.1     s-0.3,0.7-0.6,1.1c-0.3,0.4-0.6,0.8-1.1,1.3c-0.5,0.5-1,1-1.7,1.6h3.8l-0.2,1.3h-5.4v-1.2c0.6-0.6,1.1-1.1,1.5-1.5     c0.4-0.4,0.8-0.8,1.1-1.1c0.3-0.3,0.5-0.6,0.7-0.9c0.2-0.3,0.3-0.5,0.4-0.7c0.1-0.2,0.1-0.5,0.1-0.7c0-0.4-0.1-0.7-0.3-0.9     s-0.5-0.3-0.9-0.3c-0.4,0-0.7,0.1-0.9,0.2c-0.2,0.1-0.5,0.4-0.7,0.7l-1-0.8c0.3-0.4,0.7-0.8,1.2-1     C462.9,327.3,463.4,327.2,464.1,327.2z"
   id="path19100" />
			<path
   d="M473.1,327.4v8.3h-1.6V329l-1.8,1.1L469,329l2.7-1.6H473.1z M474.7,334.7v1.2h-5.3v-1.2H474.7z"
   id="path19102" />
		</g>
	</g>
	<g
   id="g19114">
		<g
   id="g19112">
			<path
   d="M559.2,423.7l1.7,0.6l-2,4.9h4.3v1.5h-6.3v-1.3L559.2,423.7z M562.2,427.1v5.3h-1.9l0-3.1l0.2-2.3H562.2z"
   id="path19108" />
			<path
   d="M567.3,423.7c0.7,0,1.3,0.1,1.7,0.4s0.8,0.7,1,1.2c0.2,0.5,0.4,1.1,0.4,1.8c0,0.8-0.1,1.5-0.3,2.2s-0.5,1.2-0.9,1.6     c-0.4,0.5-1,0.8-1.6,1.2s-1.4,0.6-2.3,0.7l-0.4-1.4c0.7-0.2,1.3-0.4,1.8-0.7c0.5-0.3,0.9-0.6,1.2-1c0.3-0.4,0.5-0.8,0.6-1.4v-0.7     c0-0.6,0-1.1-0.1-1.5c-0.1-0.4-0.2-0.7-0.3-0.9c-0.2-0.2-0.4-0.3-0.8-0.3c-0.3,0-0.6,0.1-0.8,0.4c-0.2,0.3-0.3,0.7-0.3,1.2     c0,0.5,0.1,0.9,0.3,1.1c0.2,0.2,0.5,0.3,0.7,0.3c0.3,0,0.5-0.1,0.8-0.2c0.2-0.1,0.5-0.3,0.7-0.5l0,1.1c-0.3,0.3-0.6,0.5-0.9,0.7     c-0.3,0.2-0.7,0.3-1.1,0.3c-0.4,0-0.9-0.1-1.2-0.3s-0.7-0.5-0.9-1c-0.2-0.4-0.3-0.9-0.3-1.4c0-0.6,0.1-1.2,0.4-1.6     c0.3-0.5,0.6-0.8,1.1-1.1C566.2,423.8,566.7,423.7,567.3,423.7z"
   id="path19110" />
		</g>
	</g>
</g>
<g
   id="427">
	<rect
   id="rect1744_6_"
   x="685.5"
   y="300.4"
   class="st12"
   width="133"
   height="125.9" />
	<g
   id="g19127">
		<g
   id="g19125">
			<path
   d="M695.6,310.1l1.4,0.5l-2.1,5.1h4.4v1.2h-6v-1.1L695.6,310.1z M698.3,313.5v5.3h-1.6l0-2.9l0.2-2.4H698.3z"
   id="path19119" />
			<path
   d="M703.3,310.1c0.6,0,1.1,0.1,1.5,0.3c0.4,0.2,0.7,0.5,0.9,0.9c0.2,0.4,0.3,0.8,0.3,1.2c0,0.4-0.1,0.7-0.2,1.1     s-0.3,0.7-0.6,1.1c-0.3,0.4-0.6,0.8-1.1,1.3c-0.5,0.5-1,1-1.7,1.6h3.8l-0.2,1.3h-5.4v-1.2c0.6-0.6,1.1-1.1,1.5-1.5     c0.4-0.4,0.8-0.8,1.1-1.1c0.3-0.3,0.5-0.6,0.7-0.9c0.2-0.3,0.3-0.5,0.4-0.7c0.1-0.2,0.1-0.5,0.1-0.7c0-0.4-0.1-0.7-0.3-0.9     s-0.5-0.3-0.9-0.3c-0.4,0-0.7,0.1-0.9,0.2c-0.2,0.1-0.5,0.4-0.7,0.7l-1-0.8c0.3-0.4,0.7-0.8,1.2-1     C702.1,310.2,702.6,310.1,703.3,310.1z"
   id="path19121" />
			<path
   d="M710.4,319l-1.5-0.5l3.2-6.9h-3.8v-1.3h5.5v1.1L710.4,319z"
   id="path19123" />
		</g>
	</g>
	<g
   id="g19135">
		<g
   id="g19133">
			<path
   d="M800,410.7l1.7,0.6l-2,4.9h4.3v1.5h-6.3v-1.3L800,410.7z M803,414.2v5.3h-1.9l0-3.1l0.2-2.3H803z"
   id="path19129" />
			<path
   d="M811,413c0,0.4-0.1,0.7-0.3,1c-0.2,0.3-0.5,0.6-1,0.8c0.6,0.3,1,0.6,1.3,1c0.3,0.4,0.4,0.8,0.4,1.3     c0,0.4-0.1,0.9-0.4,1.2c-0.2,0.4-0.6,0.7-1.1,0.9c-0.5,0.2-1.1,0.4-1.8,0.4c-0.7,0-1.3-0.1-1.7-0.3c-0.5-0.2-0.8-0.5-1-0.9     c-0.2-0.4-0.3-0.8-0.3-1.2c0-0.5,0.1-0.9,0.4-1.3c0.3-0.4,0.7-0.6,1.1-0.9c-0.4-0.3-0.8-0.6-0.9-0.9c-0.2-0.3-0.3-0.7-0.3-1.1     c0-0.4,0.1-0.7,0.2-1c0.1-0.3,0.3-0.5,0.6-0.7c0.3-0.2,0.6-0.4,0.9-0.5s0.7-0.2,1.1-0.2c0.4,0,0.8,0.1,1.1,0.2     c0.3,0.1,0.6,0.3,0.9,0.5c0.3,0.2,0.4,0.4,0.6,0.7C810.9,412.3,811,412.6,811,413z M809.4,417.1c0-0.3-0.1-0.5-0.2-0.7     c-0.1-0.2-0.3-0.3-0.5-0.5c-0.2-0.1-0.5-0.3-0.9-0.4c-0.2,0.1-0.3,0.2-0.4,0.4s-0.2,0.3-0.3,0.5s-0.1,0.4-0.1,0.6     c0,0.4,0.1,0.6,0.3,0.9s0.5,0.3,0.9,0.3c0.4,0,0.7-0.1,0.9-0.3C809.3,417.7,809.4,417.4,809.4,417.1z M807.2,413.1     c0,0.2,0,0.4,0.1,0.5s0.2,0.3,0.4,0.4c0.2,0.1,0.4,0.2,0.7,0.3c0.3-0.2,0.5-0.4,0.6-0.6c0.1-0.2,0.2-0.4,0.2-0.7     c0-0.3-0.1-0.6-0.2-0.8c-0.2-0.2-0.4-0.3-0.7-0.3c-0.3,0-0.6,0.1-0.7,0.3C807.3,412.5,807.2,412.7,807.2,413.1z"
   id="path19131" />
		</g>
	</g>
</g>
<g
   id="429">
	<rect
   id="rect1744_7_"
   x="685.5"
   y="543.2"
   class="st12"
   width="133"
   height="112" />
	<g
   id="g19148">
		<g
   id="g19146">
			<path
   d="M696.2,552.3l1.4,0.5l-2.1,5.1h4.4v1.2h-6V558L696.2,552.3z M698.9,555.7v5.3h-1.6l0-2.9l0.2-2.4H698.9z"
   id="path19140" />
			<path
   d="M703.9,552.3c0.6,0,1.1,0.1,1.5,0.3c0.4,0.2,0.7,0.5,0.9,0.9c0.2,0.4,0.3,0.8,0.3,1.2c0,0.4-0.1,0.7-0.2,1.1     s-0.3,0.7-0.6,1.1c-0.3,0.4-0.6,0.8-1.1,1.3c-0.5,0.5-1,1-1.7,1.6h3.8l-0.2,1.3h-5.4v-1.2c0.6-0.6,1.1-1.1,1.5-1.5     c0.4-0.4,0.8-0.8,1.1-1.1c0.3-0.3,0.5-0.6,0.7-0.9c0.2-0.3,0.3-0.5,0.4-0.7c0.1-0.2,0.1-0.5,0.1-0.7c0-0.4-0.1-0.7-0.3-0.9     s-0.5-0.3-0.9-0.3c-0.4,0-0.7,0.1-0.9,0.2c-0.2,0.1-0.5,0.4-0.7,0.7l-1-0.8c0.3-0.4,0.7-0.8,1.2-1     C702.7,552.4,703.3,552.3,703.9,552.3z"
   id="path19142" />
			<path
   d="M711.5,552.3c0.7,0,1.2,0.1,1.7,0.4s0.8,0.7,1,1.2c0.2,0.5,0.3,1.1,0.3,1.8c0,0.8-0.1,1.6-0.3,2.2     c-0.2,0.6-0.5,1.1-0.9,1.6c-0.4,0.4-0.9,0.8-1.5,1.1c-0.6,0.3-1.4,0.5-2.2,0.7l-0.3-1.2c0.8-0.2,1.4-0.4,1.9-0.7     c0.5-0.3,0.9-0.6,1.2-1s0.5-0.9,0.5-1.5l0-0.6c0-0.6,0-1.2-0.1-1.6s-0.2-0.7-0.4-0.9c-0.2-0.2-0.5-0.3-0.8-0.3     c-0.4,0-0.7,0.1-1,0.4c-0.2,0.3-0.3,0.7-0.3,1.3c0,0.6,0.1,1,0.3,1.2c0.2,0.2,0.5,0.4,0.9,0.4c0.3,0,0.6-0.1,0.9-0.2     c0.3-0.2,0.5-0.4,0.8-0.7l0,1c-0.3,0.3-0.6,0.6-0.9,0.8c-0.3,0.2-0.7,0.3-1.2,0.3c-0.5,0-0.9-0.1-1.2-0.3s-0.7-0.5-0.9-0.9     c-0.2-0.4-0.3-0.9-0.3-1.4c0-0.6,0.1-1.1,0.4-1.6c0.3-0.4,0.6-0.8,1.1-1C710.5,552.4,711,552.3,711.5,552.3z"
   id="path19144" />
		</g>
	</g>
	<g
   id="g19156">
		<g
   id="g19154">
			<path
   d="M801.1,639.3l1.7,0.6l-2,4.9h4.3v1.5h-6.3v-1.3L801.1,639.3z M804.1,642.7v5.3h-1.9l0-3.1l0.2-2.3H804.1z"
   id="path19150" />
			<path
   d="M809.9,639.3c0.4,0,0.7,0,1,0.1c0.3,0.1,0.6,0.2,0.8,0.4L811,641c-0.2-0.1-0.3-0.2-0.5-0.3c-0.2-0.1-0.4-0.1-0.6-0.1     c-0.3,0-0.6,0.1-0.9,0.3c-0.3,0.2-0.5,0.5-0.6,0.9c-0.1,0.4-0.2,0.9-0.2,1.5l0,0.6c0,1,0.1,1.7,0.2,2.2c0.2,0.5,0.5,0.7,0.9,0.7     c0.4,0,0.6-0.2,0.8-0.5c0.2-0.3,0.3-0.7,0.3-1.1c0-0.4,0-0.7-0.1-0.9s-0.2-0.4-0.3-0.5c-0.1-0.1-0.3-0.2-0.5-0.2     c-0.3,0-0.5,0.1-0.8,0.2c-0.2,0.1-0.5,0.3-0.7,0.6l0-1.2c0.3-0.3,0.6-0.6,0.9-0.7s0.7-0.2,1-0.2c0.4,0,0.8,0.1,1.2,0.3     c0.4,0.2,0.6,0.5,0.9,1c0.2,0.4,0.3,0.9,0.3,1.5c0,0.6-0.1,1.1-0.4,1.6c-0.2,0.5-0.6,0.8-1,1.1c-0.5,0.3-1,0.4-1.6,0.4     c-0.6,0-1.1-0.1-1.5-0.3c-0.4-0.2-0.7-0.5-1-0.9c-0.3-0.4-0.4-0.8-0.6-1.3s-0.2-1-0.2-1.6c0-1,0.1-1.8,0.4-2.5s0.7-1.3,1.3-1.7     S809.1,639.3,809.9,639.3z"
   id="path19152" />
		</g>
	</g>
</g>
<g
   id="431">
	<rect
   id="rect1744_8_"
   x="685.5"
   y="776.4"
   class="st12"
   width="133"
   height="146.7" />
	<g
   id="g19169">
		<g
   id="g19167">
			<path
   d="M696.9,783.1l1.4,0.5l-2.1,5.1h4.4v1.2h-6v-1.1L696.9,783.1z M699.6,786.5v5.3H698l0-2.9l0.2-2.4H699.6z"
   id="path19161" />
			<path
   d="M704.6,783.1c0.6,0,1.1,0.1,1.5,0.3c0.4,0.2,0.7,0.5,1,0.8c0.2,0.3,0.3,0.7,0.3,1.1c0,0.4-0.1,0.7-0.2,0.9     c-0.1,0.3-0.3,0.5-0.6,0.7c-0.3,0.2-0.6,0.3-0.9,0.4c0.4,0,0.7,0.1,1,0.3c0.3,0.2,0.5,0.4,0.7,0.7c0.2,0.3,0.3,0.7,0.3,1.1     c0,0.5-0.1,0.9-0.4,1.3c-0.3,0.4-0.6,0.7-1.1,0.9s-1,0.3-1.7,0.3c-0.6,0-1.1-0.1-1.6-0.3c-0.5-0.2-0.9-0.5-1.3-0.9l1-0.9     c0.2,0.3,0.5,0.5,0.8,0.6c0.3,0.1,0.6,0.2,1,0.2c0.5,0,0.9-0.1,1.2-0.4c0.3-0.2,0.4-0.6,0.4-1c0-0.3-0.1-0.6-0.2-0.8     s-0.3-0.4-0.5-0.4c-0.2-0.1-0.5-0.1-0.8-0.1h-0.8l0.2-1.2h0.5c0.3,0,0.5,0,0.7-0.1c0.2-0.1,0.4-0.2,0.5-0.4s0.2-0.4,0.2-0.7     c0-0.4-0.1-0.7-0.4-0.9c-0.3-0.2-0.6-0.3-1-0.3c-0.4,0-0.7,0.1-0.9,0.2c-0.3,0.1-0.5,0.3-0.8,0.6l-0.8-0.9     c0.4-0.4,0.8-0.6,1.3-0.8C703.5,783.2,704,783.1,704.6,783.1z"
   id="path19163" />
			<path
   d="M713.6,783.3v8.3H712v-6.6l-1.8,1.1l-0.7-1.1l2.7-1.6H713.6z M715.2,790.6v1.2h-5.3v-1.2H715.2z"
   id="path19165" />
		</g>
	</g>
	<g
   id="g19177">
		<g
   id="g19175">
			<path
   d="M801.6,903.4l1.7,0.6l-2,4.9h4.3v1.5h-6.3v-1.3L801.6,903.4z M804.7,906.9v5.3h-1.9l0-3.1l0.2-2.3H804.7z"
   id="path19171" />
			<path
   d="M809,903.4l1.7,0.6l-2,4.9h4.3v1.5h-6.3v-1.3L809,903.4z M812.1,906.9v5.3h-1.9l0-3.1l0.2-2.3H812.1z"
   id="path19173" />
		</g>
	</g>
</g>
<g
   id="433">
	<rect
   id="rect1744_27_"
   x="685.5"
   y="1043.4"
   class="st12"
   width="133"
   height="108.5" />
	<g
   id="g19190">
		<g
   id="g19188">
			<path
   d="M694.9,1051.2l1.4,0.5l-2.1,5.1h4.4v1.2h-6v-1.1L694.9,1051.2z M697.6,1054.6v5.3H696l0-2.9l0.2-2.4H697.6z"
   id="path19182" />
			<path
   d="M702.6,1051.2c0.6,0,1.1,0.1,1.5,0.3c0.4,0.2,0.7,0.5,1,0.8c0.2,0.3,0.3,0.7,0.3,1.1c0,0.4-0.1,0.7-0.2,0.9     c-0.1,0.3-0.3,0.5-0.6,0.7c-0.3,0.2-0.6,0.3-0.9,0.4c0.4,0,0.7,0.1,1,0.3c0.3,0.2,0.5,0.4,0.7,0.7c0.2,0.3,0.3,0.7,0.3,1.1     c0,0.5-0.1,0.9-0.4,1.3c-0.3,0.4-0.6,0.7-1.1,0.9s-1,0.3-1.7,0.3c-0.6,0-1.1-0.1-1.6-0.3c-0.5-0.2-0.9-0.5-1.3-0.9l1-0.9     c0.2,0.3,0.5,0.5,0.8,0.6c0.3,0.1,0.6,0.2,1,0.2c0.5,0,0.9-0.1,1.2-0.4c0.3-0.2,0.4-0.6,0.4-1c0-0.3-0.1-0.6-0.2-0.8     s-0.3-0.4-0.5-0.4c-0.2-0.1-0.5-0.1-0.8-0.1h-0.8l0.2-1.2h0.5c0.3,0,0.5,0,0.7-0.1c0.2-0.1,0.4-0.2,0.5-0.4s0.2-0.4,0.2-0.7     c0-0.4-0.1-0.7-0.4-0.9c-0.3-0.2-0.6-0.3-1-0.3c-0.4,0-0.7,0.1-0.9,0.2c-0.3,0.1-0.5,0.3-0.8,0.6l-0.8-0.9     c0.4-0.4,0.8-0.6,1.3-0.8C701.5,1051.3,702,1051.2,702.6,1051.2z"
   id="path19184" />
			<path
   d="M709.9,1051.2c0.6,0,1.1,0.1,1.5,0.3c0.4,0.2,0.7,0.5,1,0.8c0.2,0.3,0.3,0.7,0.3,1.1c0,0.4-0.1,0.7-0.2,0.9     c-0.1,0.3-0.3,0.5-0.6,0.7c-0.3,0.2-0.6,0.3-0.9,0.4c0.4,0,0.7,0.1,1,0.3c0.3,0.2,0.5,0.4,0.7,0.7c0.2,0.3,0.3,0.7,0.3,1.1     c0,0.5-0.1,0.9-0.4,1.3c-0.3,0.4-0.6,0.7-1.1,0.9s-1,0.3-1.7,0.3c-0.6,0-1.1-0.1-1.6-0.3c-0.5-0.2-0.9-0.5-1.3-0.9l1-0.9     c0.2,0.3,0.5,0.5,0.8,0.6c0.3,0.1,0.6,0.2,1,0.2c0.5,0,0.9-0.1,1.2-0.4c0.3-0.2,0.4-0.6,0.4-1c0-0.3-0.1-0.6-0.2-0.8     s-0.3-0.4-0.5-0.4c-0.2-0.1-0.5-0.1-0.8-0.1H709l0.2-1.2h0.5c0.3,0,0.5,0,0.7-0.1c0.2-0.1,0.4-0.2,0.5-0.4s0.2-0.4,0.2-0.7     c0-0.4-0.1-0.7-0.4-0.9c-0.3-0.2-0.6-0.3-1-0.3c-0.4,0-0.7,0.1-0.9,0.2c-0.3,0.1-0.5,0.3-0.8,0.6l-0.8-0.9     c0.4-0.4,0.8-0.6,1.3-0.8C708.9,1051.3,709.4,1051.2,709.9,1051.2z"
   id="path19186" />
		</g>
	</g>
	<g
   id="g19198">
		<g
   id="g19196">
			<path
   d="M802.2,1136l1.7,0.6l-2,4.9h4.3v1.5h-6.3v-1.3L802.2,1136z M805.2,1139.4v5.3h-1.9l0-3.1l0.2-2.3H805.2z"
   id="path19192" />
			<path
   d="M810.1,1136c0.6,0,1.2,0.1,1.6,0.3c0.4,0.2,0.8,0.5,1,0.9c0.2,0.4,0.3,0.8,0.3,1.2c0,0.3-0.1,0.7-0.2,1s-0.3,0.7-0.6,1     s-0.6,0.8-1.1,1.2c-0.4,0.4-1,1-1.6,1.5h3.6l-0.2,1.5h-5.7v-1.4c0.6-0.5,1.1-1,1.5-1.4s0.8-0.8,1-1.1c0.3-0.3,0.5-0.6,0.7-0.9     c0.2-0.3,0.3-0.5,0.4-0.7c0.1-0.2,0.1-0.4,0.1-0.6c0-0.3-0.1-0.6-0.3-0.8s-0.5-0.3-0.8-0.3c-0.3,0-0.6,0.1-0.8,0.2     c-0.2,0.1-0.5,0.4-0.7,0.7l-1.2-0.9c0.3-0.4,0.7-0.8,1.2-1.1S809.4,1136,810.1,1136z"
   id="path19194" />
		</g>
	</g>
</g>
<g
   id="1111">
	<rect
   id="rect1744_9_"
   x="742.8"
   y="1152.1"
   class="st7"
   width="75.9"
   height="138.1" />
	<g
   id="g19213">
		<g
   id="g19211">
			<path
   d="M755.3,1162v8.3h-1.6v-6.6l-1.8,1.1l-0.7-1.1l2.7-1.6H755.3z M757,1169.3v1.2h-5.3v-1.2H757z"
   id="path19203" />
			<path
   d="M762.7,1162v8.3h-1.6v-6.6l-1.8,1.1l-0.7-1.1l2.7-1.6H762.7z M764.3,1169.3v1.2H759v-1.2H764.3z"
   id="path19205" />
			<path
   d="M770.1,1162v8.3h-1.6v-6.6l-1.8,1.1l-0.7-1.1l2.7-1.6H770.1z M771.7,1169.3v1.2h-5.3v-1.2H771.7z"
   id="path19207" />
			<path
   d="M777.5,1162v8.3h-1.6v-6.6l-1.8,1.1l-0.7-1.1l2.7-1.6H777.5z M779.1,1169.3v1.2h-5.3v-1.2H779.1z"
   id="path19209" />
		</g>
	</g>
</g>
</svg>
